<svg version="1.1" xmlns:xlink="http://www.w3.org/1999/xlink" xmlns="http://www.w3.org/2000/svg"><path d="M 100 200 a 60.0986 56.2884 55.1847 1 1 30 0 a 56.7781 31.045 28.3161 1 0 30 0 a 40.9744 67.5356 72.821 1 1 30 0 a 50.4196 67.4702 89.7157 1 0 30 0 a 40.721 69.5156 28.8541 1 1 30 0 a 53.4694 38.2638 85.5394 1 0 30 0 a 44.6192 64.8329 40.0364 1 1 30 0 a 64.6513 32.1292 64.1192 1 0 30 0 a 31.4512 50.8471 3.08205 1 1 30 0 a 62.4058 27.6075 25.5354 1 0 30 0 a 62.8663 63.9103 66.5393 1 1 30 0 a 33.9334 63.3313 38.3238 1 0 30 0 a 46.443 68.2139 69.2107 1 1 30 0 a 39.9822 57.6135 60.2394 1 0 30 0 a 44.6201 36.5362 65.7321 1 1 30 0 a 62.207 56.324 84.1285 1 0 30 0 a 28.0091 63.2539 58.3132 1 1 30 0 a 48.4249 33.4785 45.0059 1 0 30 0 a 27.2597 37.6848 33.047 1 1 30 0 a 49.3203 39.4691 32.1105 1 0 30 0 a 56.6531 56.8888 43.9787 1 1 30 0 a 27.6152 24.4338 55.4519 1 0 30 0 a 60.674 63.8243 52.4789 1 1 30 0 a 52.4132 68.6232 36.9776 1 0 30 0 a 57.2614 31.259 80.9536 1 1 30 0 a 63.123 27.6774 27.2716 1 0 30 0 a 21.3052 65.1393 62.9475 1 1 30 0 a 45.6601 24.7352 17.4109 1 0 30 0 a 20.0513 69.5339 46.5556 1 1 30 0 a 58.476 35.5157 13.3995 1 0 30 0" stroke="black" stroke-width="1" fill="none"></path><path d="M 105 205 a 20.1342 53.7392 86.6393 1 1 30 0 a 39.9555 65.2534 34.0223 1 0 30 0 a 60.2946 20.4769 3.17082 1 1 30 0 a 57.0649 51.0703 65.8667 1 0 30 0 a 29.0368 67.0732 72.5642 1 1 30 0 a 26.1145 37.6411 26.1979 1 0 30 0 a 22.7473 29.0034 70.2436 1 1 30 0 a 52.5791 29.8597 73.4114 1 0 30 0 a 53.2912 43.8553 80.4384 1 1 30 0 a 36.0696 28.1169 35.2334 1 0 30 0 a 51.2419 69.4071 2.09053 1 1 30 0 a 36.8282 55.7312 48.5674 1 0 30 0 a 54.4298 37.81 80.0118 1 1 30 0 a 59.2695 35.6691 89.638 1 0 30 0 a 47.102 39.837 62.0035 1 1 30 0 a 39.3777 52.4141 70.9785 1 0 30 0 a 52.5017 41.6041 79.3496 1 1 30 0 a 57.7248 51.1994 85.9874 1 0 30 0 a 20.5326 62.9545 18.7716 1 1 30 0 a 64.1842 47.6382 75.237 1 0 30 0 a 42.843 24.4212 80.1597 1 1 30 0 a 48.695 38.0944 32.0105 1 0 30 0 a 34.5862 33.8035 12.5846 1 1 30 0 a 46.7891 32.4692 12.6375 1 0 30 0 a 64.8206 39.0544 72.1023 1 1 30 0 a 36.9863 24.3085 49.511 1 0 30 0 a 54.2758 49.6939 39.023 1 1 30 0 a 35.4802 43.8473 41.8596 1 0 30 0 a 66.9509 60.9766 41.5467 1 1 30 0 a 69.224 30.7602 2.62804 1 0 30 0" stroke="black" stroke-width="1" fill="none"></path><path d="M 110 210 a 37.9668 50.3572 51.1505 1 1 30 0 a 26.6587 38.462 17.1513 1 0 30 0 a 57.9912 45.5391 62.7311 1 1 30 0 a 34.0936 52.5564 14.5858 1 0 30 0 a 32.1324 60.5156 47.6005 1 1 30 0 a 21.0179 56.1545 30.4531 1 0 30 0 a 39.6071 23.7525 42.6423 1 1 30 0 a 53.5964 45.6302 34.6605 1 0 30 0 a 23.0307 42.222 83.6773 1 1 30 0 a 54.0456 27.7606 47.6267 1 0 30 0 a 38.8609 34.7655 72.938 1 1 30 0 a 47.2053 66.2331 5.89968 1 0 30 0 a 67.2923 36.6975 76.8355 1 1 30 0 a 52.8479 67.8473 1.13615 1 0 30 0 a 32.8971 68.9084 89.3754 1 1 30 0 a 67.9701 39.5352 57.7544 1 0 30 0 a 24.7345 68.9447 2.63643 1 1 30 0 a 25.9179 37.7836 81.3043 1 0 30 0 a 49.9816 61.4885 21.922 1 1 30 0 a 56.6803 69.6939 50.2435 1 0 30 0 a 24.516 50.9413 0.8009 1 1 30 0 a 35.0676 44.2786 63.9427 1 0 30 0 a 29.3331 26.1445 66.6271 1 1 30 0 a 65.0213 60.4944 63.2725 1 0 30 0 a 41.8617 27.3243 66.9774 1 1 30 0 a 21.024 30.7372 22.7327 1 0 30 0 a 28.9333 68.1731 26.6057 1 1 30 0 a 23.7821 46.4023 80.752 1 0 30 0 a 31.1871 26.9953 3.29442 1 1 30 0 a 24.2851 55.2635 78.5446 1 0 30 0" stroke="black" stroke-width="1" fill="none"></path></svg>
