<svg version="1.1" xmlns:xlink="http://www.w3.org/1999/xlink" xmlns="http://www.w3.org/2000/svg"><path d="M 0 0 L 17.3767 1.48516 L 2.27239 9.69193 L 18.0619 17.9267 L 0.48893 30.5469 L 18.0448 43.9796 L 1.311 46.5369 L 17.5963 65.1051 L 0.656911 69.2327 L 18.46 79.6857 L 0.254188 92.6446 L 18.5346 107.753 L 1.34886 111.827 L 18.8297 115.305 L 2.12404 130.078 L 18.1401 142.67 L 2.07497 142.767 L 18.5515 146.209 L 1.70887 154.724 L 19.1529 169.84 L 1.31309 187.168 L 17.8383 192.396 M 10 0 L 28.2855 5.35487 L 12.4768 21.9467 L 27.8943 31.2034 L 11.768 47.3487 L 27.017 48.7644 L 12.6361 59.527 L 29.3523 67.2351 L 10.3425 81.5861 L 27.765 98.0829 L 12.6852 102.805 L 29.9192 114.984 L 10.8064 122.647 L 28.9851 128.429 L 10.8007 136.282 L 29.0188 141.682 L 10.2113 146.707 L 29.884 153.367 L 10.6799 158.468 L 28.8838 171.633 L 11.6914 176.775 L 29.833 191.759 L 11.7088 196.022 M 20 0 L 38.7152 12.107 L 20.2092 13.1478 L 39.6205 26.7352 L 21.7976 41.037 L 37.3989 53.7078 L 20.0591 54.8527 L 38.2838 55.7855 L 20.6971 66.3494 L 38.9878 71.4706 L 21.0208 73.0681 L 39.1366 74.6597 L 22.168 88.7319 L 37.3809 104.473 L 20.296 113.237 L 38.8811 127.064 L 21.8289 139.378 L 39.1067 140.388 L 20.1988 149.226 L 37.8539 162.327 L 22.6263 166.05 L 37.0631 175.488 L 22.3003 191.053 L 38.9801 198.535 M 30 0 L 48.6322 2.8757 L 30.839 3.7535 L 48.3183 8.43757 L 31.9377 20.2145 L 48.5804 26.3378 L 31.9121 33.271 L 48.0649 34.7427 L 32.2522 34.8577 L 48.2503 48.4621 L 31.3825 48.7795 L 47.9377 55.673 L 31.2423 67.8915 L 49.0312 80.3337 L 30.0508 89.6688 L 49.6603 98.7588 L 30.1832 100.377 L 49.8681 112.438 L 31.9614 121.049 L 47.0952 134.59 L 31.6429 143.233 L 47.3863 148.608 L 32.0025 150.373 L 49.0259 158.88 L 31.6367 173.005 L 48.7131 185.437 L 31.2448 196.641 M 40 0 L 58.354 3.57007 L 42.0372 6.76158 L 59.1623 18.6143 L 42.4378 23.788 L 59.1214 29.7479 L 40.4423 40.7393 L 59.3783 51.9704 L 41.675 55.4085 L 57.6352 55.6944 L 41.0518 57.0886 L 58.215 70.7531 L 42.7333 72.4937 L 58.0855 78.2118 L 41.0676 86.5133 L 58.8521 93.3778 L 42.6327 106.862 L 58.1681 119.469 L 42.5693 123.966 L 59.0714 124.951 L 40.0095 137.288 L 59.5992 150.128 L 40.011 157.017 L 58.6052 165.583 L 40.8848 170.113 L 59.3807 177.136 L 42.9981 190.52 L 58.5531 191.546 L 40.3469 195.834 M 50 0 L 68.4444 7.63136 L 52.3771 10.7249 L 68.8225 20.1235 L 50.2836 30.4142 L 68.1988 42.3 L 50.816 46.6365 L 67.9724 48.7994 L 51.7653 59.65 L 68.2109 67.2354 L 50.7968 72.9554 L 67.1056 80.9606 L 52.7614 91.8703 L 69.2181 100.63 L 52.5989 112.177 L 68.4756 112.982 L 52.0337 118.17 L 67.1952 121.784 L 51.2223 123.685 L 69.1917 125.151 L 50.6866 132.487 L 67.0355 140.624 L 51.9088 144.864 L 69.3911 148.358 L 50.1263 156.648 L 67.6651 165.262 L 51.2614 175.26 L 67.569 186.65 L 50.6984 196.426 L 67.4743 198.475 M 60 0 L 79.5547 8.06918 L 62.7117 13.2831 L 77.3349 20.035 L 62.0801 28.8434 L 78.6083 31.4973 L 60.9508 39.1583 L 79.7676 45.3442 L 62.7857 51.3298 L 79.6573 56.8132 L 61.0061 65.7079 L 79.3651 68.5145 L 61.2175 74.5589 L 79.649 76.8412 L 60.1547 87.0473 L 79.2235 89.2701 L 62.6419 95.5367 L 79.6721 101.394 L 60.4596 108.429 L 77.1505 118.182 L 60.857 127.803 L 78.7993 134.493 L 62.5187 137.209 L 79.8722 147.682 L 60.7322 156.614 L 78.0584 159.584 L 62.837 165.193 L 79.8416 168.456 L 62.2605 174.635 L 79.2916 178.853 L 61.5123 183.223 L 77.0995 185.611 L 62.9076 186.293 L 78.4304 192.075 L 62.2476 194.225 L 77.0968 196.725 M 70 0 L 88.7007 7.69054 L 71.9976 13.2883 L 88.2368 17.9564 L 72.019 22.6719 L 88.34 23.8833 L 72.5049 29.6069 L 88.4998 33.8092 L 70.405 38.1997 L 89.3777 44.9137 L 72.5388 54.3408 L 89.2903 62.6677 L 71.2973 70.6295 L 87.5646 78.9024 L 72.947 84.3251 L 88.1601 87.9318 L 70.6776 88.3921 L 87.7419 97.4231 L 72.3717 100.895 L 89.0593 107.899 L 71.7658 111.866 L 87.3729 120.614 L 71.2748 128.587 L 87.9229 133.86 L 71.8503 134.855 L 87.3245 142.278 L 71.7539 143.256 L 89.6077 150.991 L 71.3161 158.332 L 88.9994 160.949 L 70.1626 164.153 L 87.7304 166.516 L 71.4378 170.234 L 88.2822 172.826 L 72.5376 173.766 L 89.412 177.961 L 71.5996 181.249 L 87.6976 183.661 L 71.3492 187.286 L 87.1134 187.734 L 71.7187 191.662 L 88.6901 198.849 M 80 0 L 99.9761 0.559729 L 81.7588 8.35249 L 99.8378 12.9944 L 81.9672 18.6794 L 97.5816 20.4564 L 81.2094 25.281 L 99.8727 30.773 L 80.9195 38.1133 L 97.2748 45.2311 L 80.0603 52.0567 L 97.5052 57.3787 L 80.7817 64.5221 L 99.0089 65.1525 L 81.5221 67.3401 L 98.8659 71.5519 L 82.2631 75.3971 L 99.618 81.1142 L 81.2805 86.2081 L 97.9748 91.0666 L 82.5503 92.5469 L 98.7573 96.1556 L 82.6084 101.364 L 97.7532 105.937 L 81.2605 107.079 L 98.489 115.214 L 80.9985 118.626 L 99.8366 118.857 L 82.7765 120.128 L 98.8947 126.938 L 82.7327 129.195 L 97.8582 133.005 L 81.3683 137.655 L 99.4029 140.768 L 82.1096 144.985 L 98.6757 152.729 L 81.8799 155.409 L 97.2792 156.877 L 80.1247 162.114 L 97.0951 163.849 L 82.3093 171.718 L 98.1958 176.077 L 81.9125 182.992 L 99.2099 185.641 L 81.018 187.259 L 97.6346 192.368 L 82.8854 195.861 L 97.5474 196.837 M 90 0 L 108.082 7.38582 L 92.334 13.2197 L 108.708 18.1162 L 90.7406 20.3586 L 107.61 22.7145 L 91.1968 26.3338 L 107.874 33.5144 L 91.1802 37.0615 L 109.382 38.5445 L 90.9281 44.4525 L 109.996 50.2376 L 91.7156 53.6353 L 107.434 58.3289 L 90.5084 60.0045 L 108.074 62.3595 L 91.2389 66.8974 L 107.817 71.0316 L 92.0754 73.8977 L 109.469 81.2003 L 92.6245 82.194 L 108.238 83.9796 L 90.6784 89.0106 L 108.647 95.7895 L 90.617 100.57 L 108.786 102.423 L 91.6569 106.286 L 108.708 108.501 L 92.3171 112.163 L 108.126 112.184 L 92.9396 118.902 L 107.724 122.177 L 90.9178 127.616 L 109.272 131.738 L 92.7883 137.271 L 109.381 143.979 L 92.0175 144.231 L 107.498 148.024 L 91.9301 152.473 L 107.845 156.16 L 92.3312 162.09 L 107.373 168.47 L 90.556 171.91 L 109.02 177.061 L 91.0296 177.783 L 109.865 178.552 L 91.6787 182.056 L 108.306 183.051 L 91.8821 184.975 L 108.786 190.004 L 92.7164 192.835 L 108.91 192.986 L 90.102 193.387 L 109.768 197.211 L 91.281 199.449 M 100 0 L 119.93 3.37738 L 100.816 6.21663 L 119.191 8.92915 L 101.358 9.13832 L 117.252 15.6068 L 100.502 16.825 L 119.08 20.6626 L 100.63 25.1048 L 117.253 29.6444 L 100.823 32.8162 L 117.774 39.3559 L 102.327 43.6146 L 117.93 46.1 L 100.933 47.3952 L 117.764 51.9979 L 102.286 55.2276 L 117.071 56.8355 L 101.573 60.167 L 119.547 64.2959 L 101.453 69.7712 L 118.291 69.9732 L 102.692 71.5445 L 119.42 75.0599 L 101.185 80.2638 L 118.407 83.2355 L 100.443 87.0566 L 117.578 88.1209 L 101.402 89.0518 L 118.605 93.5644 L 102.361 94.5722 L 118.146 96.5801 L 101.594 96.7125 L 117.516 102.108 L 102.108 104.976 L 118.721 108.87 L 102.611 109.887 L 119.187 115.899 L 100.719 120.481 L 119.858 126.085 L 102.487 131.262 L 117.75 131.586 L 102.928 133.533 L 119.086 134.142 L 100.215 139.18 L 118.142 140.5 L 101.794 146.636 L 117.813 152.22 L 101.877 158.738 L 117.13 164.453 L 100.375 168.128 L 117.396 172.372 L 102.246 177.618 L 117.688 182.827 L 101.894 185.712 L 118.061 188.123 L 100.575 192.028 L 117.037 198.084 M 110 0 L 127.694 3.42208 L 110.809 6.7853 L 127.323 7.68945 L 112.199 8.89831 L 128.366 9.12815 L 110.746 11.6979 L 128.088 12.7102 L 110.16 17.1564 L 129.797 20.4075 L 111.039 26.3146 L 129.898 31.9228 L 112.507 33.3088 L 127.203 37.1761 L 110.447 37.5145 L 127 42.4508 L 110.036 47.2822 L 127.984 49.7525 L 111.224 53.582 L 129.54 54.9042 L 111.657 60.6202 L 129.564 63.6913 L 112.565 66.8497 L 127.892 69.213 L 112.246 70.2624 L 129.702 71.3589 L 111.765 75.4074 L 129.816 77.7501 L 110.668 79.442 L 127.175 81.6886 L 111.227 83.1362 L 127.818 88.4922 L 111.023 94.4152 L 129.99 97.0148 L 112.172 99.6061 L 127.981 102.101 L 111.991 107.605 L 127.78 108.639 L 112.949 113.007 L 129.696 115.958 L 111.367 117.788 L 129.738 120.552 L 111.605 120.997 L 128.062 121.376 L 110.335 121.568 L 128.803 123.2 L 111.471 123.544 L 128.112 126.415 L 110.813 127.735 L 129.514 129.875 L 112.144 133.559 L 129.515 137.753 L 112.712 139.704 L 127.008 144.068 L 112.379 146.661 L 127.213 150.482 L 111.181 152.611 L 127.794 157.632 L 111.483 157.726 L 127.836 162.174 L 110.289 163.962 L 128.311 166.109 L 112.867 170.365 L 127.058 174.097 L 110.91 179.616 L 129.38 181.505 L 110.518 182.888 L 129.482 188.478 L 111.157 190.571 L 128.587 192.85 L 111.46 194.563 L 128.626 196.224 L 110.223 198.137 L 128.875 199.642 M 120 0 L 138.854 3.88234 L 120.298 7.21273 L 138.537 9.87877 L 122.542 12.853 L 138.416 14.4206 L 121.279 18.3415 L 137.51 23.7165 L 122.913 24.1605 L 139.458 24.4447 L 122.285 26.2502 L 138.692 32.123 L 121.545 37.234 L 137.418 41.8083 L 122.256 46.1859 L 138.642 51.7223 L 120.794 53.2482 L 138.132 57.0379 L 122.633 62.9572 L 138.821 66.7698 L 122.848 70.3706 L 138.307 74.6528 L 121.498 76.6352 L 139.877 79.1205 L 122.6 84.4697 L 137.392 87.2332 L 120.352 87.2833 L 139.731 88.1889 L 120.18 93.1963 L 138.333 97.2945 L 121.086 98.2204 L 138.558 101.102 L 122.881 106.498 L 139.609 111.399 L 122.039 115.896 L 138.198 121.46 L 122.129 125.094 L 139.454 129.436 L 120.15 131.611 L 139.844 135.988 L 122.938 140.706 L 138.882 145.181 L 121.328 150.644 L 137.462 154.391 L 121.968 155.536 L 138.716 161.058 L 120.035 164.066 L 137.224 166.362 L 121.728 167.421 L 137.079 172.127 L 120.625 177.818 L 138.796 181.016 L 121.351 185.023 L 138.295 190.648 L 122.155 192.48 L 137.56 198.28 M 130 0 L 149.528 4.56382 L 132.491 7.49988 L 149.34 11.9263 L 132.447 12.8072 L 149.714 18.723 L 130.165 23.3794 L 149.216 24.4626 L 131.047 24.808 L 149.695 28.7096 L 131.286 30.2244 L 149.659 31.3678 L 131.221 32.236 L 149.558 32.2887 L 131.866 36.7619 L 149.886 38.3475 L 131.198 42.1072 L 149.402 43.3932 L 131.941 47.6342 L 148.345 51.789 L 132.691 55.3022 L 148.109 59.3996 L 132.94 63.1355 L 147.725 68.5669 L 132.404 71.2152 L 148.013 77.1332 L 130.676 78.0511 L 148.963 80.2829 L 132.285 81.6461 L 149.475 82.5681 L 132.808 83.2573 L 149.221 89.061 L 130.41 91.3427 L 147.424 94.1848 L 130.998 99.4316 L 147.679 102.143 L 131.884 106.381 L 148.52 109.42 L 131.883 112.765 L 149.603 115.781 L 130.023 120.074 L 148.829 123.611 L 132.087 124.776 L 147.814 126.358 L 132.684 128.242 L 147.353 129.384 L 130.248 129.988 L 149.216 132.33 L 131.6 135.619 L 148.923 136.481 L 132.866 137.485 L 148.283 139.861 L 131.184 140.614 L 148.24 145.721 L 131.351 148.205 L 147.364 150.129 L 131.317 151.019 L 149.191 151.498 L 132.313 152.816 L 147.246 155.394 L 130.922 161.215 L 149.248 162.988 L 132.784 167.122 L 148.323 169.157 L 132.876 172.838 L 148.179 174.853 L 130.49 178.747 L 148.636 178.958 L 130.462 181.013 L 147.932 186.777 L 130.965 190.003 L 149.509 190.508 L 130.881 195.911 M 140 0 L 158.981 3.11895 L 142.845 7.84136 L 158.29 14.0984 L 140.5 18.6265 L 158.212 24.7906 L 140.714 28.7752 L 158.075 28.9964 L 141.63 34.6724 L 159.488 40.1011 L 142.974 44.7383 L 159.607 49.885 L 141.793 52.7566 L 159.885 53.9228 L 140.408 59.1871 L 159.544 62.1248 L 142.293 62.9518 L 158.427 64.7442 L 142.163 65.3968 L 157.408 69.4121 L 141.524 72.9217 L 158.613 78.7902 L 142.781 81.7435 L 157.452 85.7613 L 141.611 86.3577 L 159.107 86.6903 L 141.938 90.9669 L 158.067 91.4104 L 142.519 92.0375 L 158.421 97.1447 L 140.141 99.4335 L 158.634 101.298 L 141.528 103.759 L 159.76 107.066 L 141.602 107.781 L 159.751 111.039 L 141.816 113.745 L 158.372 115.829 L 141.052 118.797 L 159.402 122.428 L 142.554 126.705 L 157.537 128.529 L 141.775 132.821 L 157.606 136.136 L 141.429 138.443 L 159.815 143.555 L 142.804 148.594 L 157.473 150.819 L 140.495 156.971 L 158 160.402 L 141.42 163.672 L 157.771 164.859 L 142.682 168.324 L 158.727 172.224 L 140.007 178.105 L 159.657 181.989 L 142.434 184.962 L 158.84 188.225 L 142.281 192.751 L 159.17 198.593 M 150 0 L 167.378 1.9655 L 150.835 4.63595 L 169.367 8.73883 L 151.546 8.85665 L 167.397 9.06102 L 152.245 14.1766 L 169.422 15.9893 L 151.155 22.2152 L 167.522 25.9032 L 152.897 29.5615 L 168.082 35.5223 L 150.807 36.1817 L 167.716 42.2222 L 152.024 46.5098 L 169.775 50.5627 L 152.631 57.05 L 168.55 61.7062 L 150.276 67.0419 L 169.048 68.0308 L 151.783 73.8788 L 169.861 73.8891 L 152.317 77.9195 L 168.844 80.2858 L 150.346 80.371 L 167.07 86.7187 L 152.087 91.805 L 169.021 97.9268 L 152.841 98.1055 L 168.005 100.734 L 152.881 105.506 L 167.006 109.355 L 151.813 110.127 L 169.386 110.889 L 150.711 116.146 L 169.555 118.772 L 152.819 121.341 L 167.125 125.865 L 150.839 128.389 L 167.819 134.298 L 152.954 134.457 L 169.413 137.322 L 150.662 142.551 L 168.83 147.568 L 150.686 148.985 L 168.237 155.008 L 151.641 156.276 L 167.689 161.329 L 150.745 164.599 L 167.402 165.907 L 152.877 171.191 L 168.633 177.824 L 151.676 184.297 L 169.522 190.296 L 151.029 194.542 L 168.419 196.877 L 152.632 199.879 M 160 0 L 179.833 6.79094 L 162.437 7.60674 L 178.357 9.26455 L 160.046 12.2541 L 179.117 19.6063 L 162.995 21.0786 L 178.846 22.8678 L 162.637 29.0272 L 179.07 35.6136 L 162.614 37.8805 L 179.837 38.5728 L 162.595 45.3771 L 178.972 48.7895 L 162.94 50.4849 L 178.284 55.3183 L 160.714 56.7589 L 177.26 58.36 L 161.034 62.0044 L 178.95 67.3933 L 161.784 69.0092 L 178.094 72.2839 L 161.995 76.5416 L 177.061 80.544 L 162.496 82.6442 L 177.827 86.4788 L 161.433 91.2978 L 178.938 94.2007 L 160.486 94.6534 L 177.497 95.966 L 161.41 102.285 L 178.384 109.66 L 160.843 111.491 L 179.433 117.101 L 160.894 120.454 L 179.624 125.984 L 160.376 132.327 L 178.295 138.987 L 160.308 141.258 L 177.629 141.631 L 160.566 148.051 L 178.713 152.019 L 162.127 155.166 L 179.583 160.971 L 160.245 166.177 L 177.902 172.56 L 160.72 173.691 L 178.583 180.644 L 162.975 183.642 L 177.705 191.003 L 162.098 194.44 M 170 0 L 189.542 5.33012 L 171.182 11.3219 L 187.227 16.2319 L 172.491 17.5703 L 188.901 18.5236 L 171.5 25.5664 L 189.345 33.42 L 172.998 38.0228 L 187.74 45.6851 L 172.251 49.594 L 187.004 53.4476 L 171.543 55.3019 L 188.194 58.0497 L 172.262 58.087 L 187.469 60.9823 L 172.871 64.4764 L 187.863 70.0858 L 170.464 75.6808 L 189.216 77.9425 L 171.34 82.0441 L 188.689 88.0192 L 170.432 93.0499 L 189.662 96.8377 L 172.137 99.5303 L 189.723 102.968 L 170.382 105.19 L 187.496 110.584 L 170.263 116.197 L 187.166 118.572 L 172.645 124.241 L 187.51 125.401 L 172.89 129.235 L 188.751 133.967 L 172.621 140.009 L 187.712 147.248 L 170.443 154.993 L 188.241 161.725 L 170.084 163.342 L 189.339 171.606 L 170.062 174.184 L 187.107 175.479 L 171.583 182.125 L 187.475 189.523 L 171.34 190.94 L 187.317 193.64 M 180 0 L 197.659 1.52774 L 181.045 4.03086 L 198.775 5.0741 L 181.159 12.5095 L 198.877 14.0019 L 182.972 14.4385 L 199.035 16.3465 L 181.263 17.167 L 198.773 19.5172 L 181.3 28.5417 L 197.138 36.4273 L 180.324 41.9259 L 199.563 49.0302 L 180.035 58.3223 L 199.994 66.6673 L 182.672 69.9052 L 199.337 70.165 L 181.068 77.5073 L 199.803 82.4161 L 182.632 85.9832 L 199.786 86.2417 L 181.865 94.9407 L 198.156 98.3784 L 180.27 103.717 L 199.57 105.377 L 180.038 107.634 L 199.422 111.47 L 182.864 113.003 L 197.416 115.024 L 180.514 116.392 L 197.922 117.724 L 182.147 118.926 L 197.482 123.853 L 182.467 129.927 L 199.283 133.29 L 180.018 142.154 L 197.578 148.01 L 180.43 152.142 L 197.692 157.301 L 180.306 160.863 L 197.487 164.927 L 181.173 169.484 L 199.217 175.259 L 182.998 182.586 L 199.249 185.542 L 180.754 185.85 L 198.988 186.652 L 180.019 195.116 M 190 0 L 208.799 4.07291 L 190.143 9.23517 L 209.983 16.0638 L 190.064 23.4307 L 207.462 24.8142 L 191.795 34.3796 L 209.72 41.8377 L 192.487 43.5182 L 208.61 54.0869 L 190.275 61.9731 L 208.671 69.8752 L 192.912 74.3595 L 208.415 76.842 L 192.821 82.7283 L 208.932 91.6446 L 192.735 101.514 L 209.101 109.984 L 192.465 110.129 L 207.355 113.279 L 190.418 116.942 L 209.044 123.262 L 191.692 125.651 L 207.612 132.013 L 192.467 139.089 L 208.099 141.309 L 191.735 145.124 L 208.979 152.613 L 191.739 160.217 L 208.229 170.049 L 191.687 176.241 L 208.619 186.791 L 192.263 190.739 L 207.036 193.697 L 191.508 197.826 M 200 0 L 219.672 11.5007 L 202.751 21.0744 L 219.166 28.0898 L 201.07 36.3543 L 218.25 40.7387 L 201.05 44.8027 L 218.589 56.5586 L 202.871 57.0256 L 219.208 69.1891 L 202.393 73.0125 L 218.443 77.2094 L 200.166 89.049 L 217.104 95.477 L 202.538 107.347 L 219.993 117.636 L 200.224 117.871 L 217.363 118.421 L 200.57 130.573 L 217.543 135.509 L 200.721 143.272 L 217.457 153.126 L 200.064 155.628 L 217.097 157.763 L 201.625 169.629 L 217.502 181.285 L 201.747 184.765 L 217.28 187.451 L 202.848 198.936 M 210 0 L 229.847 7.30694 L 210.922 20.3903 L 228.766 20.7048 L 210.363 28.458 L 227.158 35.6314 L 210.325 45.8461 L 227.307 58.9313 L 210.587 63.3493 L 229.788 73.391 L 211.098 86.664 L 228.284 92.7988 L 210.258 98.051 L 229.576 103.197 L 212.357 106.564 L 227.282 118.744 L 210.643 121.688 L 227.057 128.662 L 211.696 135.283 L 227.757 137.796 L 210.112 144.47 L 228.363 150.884 L 210.023 163.276 L 228.229 166.406 L 212.326 170.852 L 227.791 177.407 L 211.37 186.013 L 229.871 191.774 M 220 0 L 237.709 10.8953 L 222.066 19.7076 L 238.444 32.6773 L 220.19 39.6083 L 238.108 40.0476 L 222.92 43.1156 L 239.427 53.9978 L 220.513 69.3968 L 237.459 82.4978 L 222.387 85.7289 L 237.088 98.1869 L 220.246 102.91 L 239.19 117.21 L 222.955 121.274 L 239.778 136.48 L 220.761 149.738 L 239.479 152.384 L 220.401 155.174 L 238.292 166.788 L 220.899 176.282 L 237.875 184.406 L 221.055 195.017 M 230 0 L 249.844 9.47466 L 230.806 18.6196 L 248.926 22.6577 L 231.791 30.6648 L 247.854 35.097 L 232.966 46.4606 L 247.308 48.4434 L 232.935 53.7023 L 249.215 68.7136 L 231.177 72.9524 L 247.886 85.7599 L 232.101 91.0807 L 247.543 106.005 L 231.844 119.492 L 247.595 128.182 L 231.386 142.566 L 249.261 151.292 L 231.24 162.949 L 249.865 175.365 L 230.272 181.383 L 248.554 185.387 L 231.499 191.494 M 240 0 L 259.525 7.34351 L 241.599 13.0466 L 259.474 22.6905 L 240.56 30.4642 L 259.168 36.6316 L 240.521 43.3912 L 258.973 50.6502 L 241.481 54.3401 L 259.956 69.187 L 240.388 74.9057 L 258.602 89.159 L 242.83 102.607 L 258.019 116.477 L 242.191 118.82 L 259.058 121.633 L 242.105 138.093 L 258.77 142.225 L 242.313 149.747 L 259.013 154.383 L 240.053 168.527 L 258.816 186.72 L 240.097 189.335 M 250 0 L 268.605 12.2317 L 250.901 23.4266 L 268.15 42.5957 L 251.747 43.2129 L 268.152 43.7353 L 250.142 48.5688 L 268.415 66.7413 L 252.785 75.1254 L 267.717 81.2875 L 251.299 91.212 L 267.523 100.8 L 250.58 118.994 L 269.095 121.088 L 251.435 133.476 L 267.283 144.466 L 251.157 151.274 L 269.542 151.345 L 250.896 166.068 L 267.441 167.226 L 251.535 167.851 L 267.596 178.942 L 252.433 191.855 M 260 0 L 278.16 16.1278 L 261.649 26.6698 L 278.753 27.6373 L 262.94 47.8682 L 279.977 58.3307 L 262.269 76.18 L 277.707 83.7091 L 261.033 98.6835 L 278.401 100.405 L 260.085 121.129 L 279.485 132.456 L 262.27 143.94 L 278.377 147.721 L 261.105 160.983 L 279.041 176.915 L 262.022 189.978 M 270 0 L 288.474 21.5022 L 270.361 44.7892 L 289.291 61.7312 L 271.767 70.7601 L 289.623 88.7338 L 272.487 93.3161 L 289.802 112.298 L 271.972 134.839 L 287.922 158.674 L 271.982 181.122 L 288.249 185.261 M 280 0 L 298.489 15.1414 L 280.744 39.7605 L 298.159 46.0263 L 280.609 71.6423 L 297.488 90.6322 L 280.097 103.61 L 298.489 120.345 L 280.797 131.785 L 299.877 152.069 L 282.6 163.971 L 297.294 189.947 M 290 0 L 308.425 4.61216 L 290.719 25.8036 L 308.747 31.0077 L 291.49 41.1735 L 308.048 47.1778 L 291.105 48.9498 L 308.138 60.4527 L 291.127 62.2719 L 307.918 67.2093 L 290.686 81.391 L 307.283 93.5809 L 291.237 103.908 L 308.681 119.635 L 292.613 133.698 L 308.016 149.397 L 290.69 150.556 L 308.474 156.279 L 290.147 162.445 L 307.888 179.495 L 290.35 199.153 M 300 0 L 319.74 27.66 L 302.876 48.2223 L 319.108 55.3048 L 300.834 72.4579 L 319.035 95.0776 L 300.134 118.115 L 319.338 143.405 L 302.995 169.321 L 317.066 185.106 L 300.973 192.296 M 310 0 L 327.733 8.48943 L 310.694 15.4558 L 329.603 28.3437 L 312.865 54.1669 L 329.495 65.3236 L 311.324 83.43 L 327.701 105.49 L 310.227 107.814 L 329.164 134.45 L 310.154 151.598 L 328.499 177.919 L 312.548 183.825 M 320 0 L 339.118 4.24202 L 322.136 8.65421 L 337.776 31.5583 L 320.171 57.7665 L 338.777 77.6919 L 322.792 110.085 L 339.574 113.074 L 320.239 117.951 L 338.437 146.715 L 321.035 160.341 L 337.872 191.173 L 320.019 193.93 L 337.461 198.264 M 330 0 L 347.305 29.8899 L 332.898 51.2546 L 348.544 75.7411 L 330.444 104.549 L 348.984 134.664 L 330.363 158.684 L 349.394 184.715 M 340 0 L 357.94 15.4767 L 342.395 18.5149 L 358.683 46.2808 L 342.553 55.9876 L 359.924 59.9499 L 342.352 77.0836 L 359.554 97.1798 L 341.29 99.8938 L 358.05 102.493 L 340.325 110.253 L 357.538 126.446 L 341.441 139.418 L 358.878 158.099 L 342.655 169.463 M 350 0 L 367.516 0.923452 L 350.294 24.1553 L 367.39 53.5721 L 350.084 84.0029 L 368.539 110.863 L 350.205 141.212 L 367.771 142.332 L 350.88 167.486 L 369.817 179.855 M 360 0 L 378.873 11.9361 L 362.365 18.8705 L 378.738 40.8476 L 361.833 52.6805 L 379.111 68.8697 L 362.433 84.3529 L 379.096 115.591 L 360.888 125.106 L 378.688 136.06 L 360.063 155.306 L 378.242 159.749 L 362.063 161.216 L 379.216 186.439 M 370 0 L 389.952 21.8421 L 371.91 32.1575 L 388.042 50.2725 L 372.311 52.9907 L 389.284 60.8589 L 371.788 88.6585 L 387.846 116.093 L 372.776 120.458 L 389.794 147.86 L 371.278 171.76 L 389.529 198.027 M 380 0 L 399.7 27.4746 L 381.102 33.374 L 399.619 35.1239 L 381.59 65.1267 L 397.407 95.5857 L 381.8 108.707 L 398.622 121.23 L 380.078 141.482 L 398.617 169.956 L 382.745 173.907 L 397.776 181.651 M 390 0 L 407.603 17.4148 L 392.041 32.2646 L 408.884 40.0376 L 392.054 62.599 L 408.98 70.3937 L 391.729 95.6593 L 409.605 101.065 L 391.96 103.267 L 408.03 126.181 L 391.572 144.384 L 407.222 151.535 L 392.587 163.986 L 407.19 197.132 M 400 0 L 417.832 4.55698 L 402.112 37.6154 L 417.939 61.4646 L 401.581 64.4304 L 418.57 68.1367 L 402.364 101.783 L 417.813 130.147 L 401.187 157.169 L 417.649 171.255 L 402.87 191.526 L 418.201 195.82 L 400.641 197.628 M 410 0 L 428.799 0.205849 L 412.784 26.6013 L 427.342 28.6688 L 410.974 46.9473 L 427.479 53.061 L 412.359 66.6342 L 428.849 89.7212 L 412.547 103.674 L 428.296 125.579 L 412.616 147.177 L 428.485 169.138 L 412 182.683 L 428.243 191.983 M 420 0 L 439.372 26.9832 L 422.368 56.5798 L 439.235 65.1927 L 420.428 71.2218 L 438.384 89.2416 L 421.485 119.24 L 438.504 149.215 L 421.69 181.389 M 430 0 L 447.807 29.853 L 431.117 54.5057 L 449.49 74.3128 L 431.908 89.2643 L 448.716 104.583 L 432.974 127.546 L 447.393 133.288 L 430.706 135.948 L 447.622 165.528 L 432.111 195.72 L 447.958 196.582 L 431.994 199.167 M 440 0 L 459.346 28.4054 L 440.76 58.5529 L 458.706 73.1779 L 441.922 78.0261 L 458.355 85.753 L 441.759 95.0938 L 458.471 102.207 L 442.422 128.017 L 457.715 144.828 L 440.406 149.974 L 457.716 174.71 L 441.298 196.305 M 450 0 L 469.663 23.853 L 450.835 30.5833 L 469.058 30.6718 L 451.049 59.8192 L 467.3 86.3515 L 451.727 96.8507 L 468.086 98.6106 L 450.947 105.733 L 469.046 111.48 L 451.158 116.818 L 468.575 119.724 L 452.475 125.61 L 468.57 130.74 L 452.406 150.253 L 469.43 179.777 L 450.658 191.903 M 460 0 L 477.485 4.39266 L 461.287 24.7821 L 478.783 47.1944 L 460.099 57.6762 L 477.157 66.2711 L 461.418 71.9244 L 477.292 94.3199 L 460.735 95.3013 L 478.385 99.2252 L 460.9 102.268 L 479.57 121.98 L 461.375 143.176 L 477.426 159.373 L 460.439 160.697 L 477.919 177.282 L 461.47 180.838 L 478.362 181.373 L 461.939 195.079 M 470 0 L 488.387 23.3217 L 472.536 26.0858 L 487.016 44.6116 L 470.183 63.3443 L 488.917 74.1481 L 472.847 97.5664 L 488.377 109.359 L 470.792 122.551 L 488.588 128.173 L 472.367 128.391 L 487.624 146.487 L 471.669 170.495 L 489.536 177.701 L 472.461 189.02 L 488.122 190.696 M 480 0 L 497.907 1.64169 L 480.351 19.1151 L 498.753 33.7783 L 481.992 44.297 L 499.102 45.0183 L 480.366 67.41 L 498.791 67.5006 L 481.629 86.5039 L 499.023 105.219 L 482.667 118.515 L 497.827 125.926 L 481.293 144.379 L 498.768 145.959 L 481.385 149.717 L 498.28 152.794 L 480.012 153.348 L 497.609 171.302 L 482.96 192.183 M 490 0 L 509.884 11.1613 L 490.264 32.1498 L 508.4 51.863 L 491.622 60.4564 L 507.159 71.2686 L 492.233 86.5037 L 507.853 106.262 L 490.152 107.7 L 508.098 109.473 L 491.8 131.876 L 509.927 146.758 L 490.039 154.419 L 507.549 175.442 L 490.597 185.215 L 508.313 187.868 L 491.198 188.742 M 500 0 L 518.699 14.2898 L 501.788 24.4853 L 519.07 29.9938 L 500.871 51.0056 L 519.317 54.6011 L 502.116 63.4871 L 518.75 65.411 L 502.056 69.1707 L 517.303 75.1309 L 502.475 80.0363 L 517.577 82.4363 L 502.108 89.4217 L 517.564 95.1064 L 502.351 112.693 L 519.971 120.718 L 502.441 138.434 L 518.379 157.005 L 502.537 177.413 L 517.094 196.904 M 510 0 L 529.869 5.95898 L 510.019 23.2578 L 527.365 29.4231 L 510.119 31.385 L 527.921 32.9463 L 510.274 51.3487 L 527.693 52.1826 L 511.899 56.6311 L 527.202 63.2635 L 512.362 72.5935 L 528.462 74.2544 L 512.083 91.9327 L 527.411 103.712 L 511.685 120.82 L 528.155 135.789 L 510.401 141.654 L 529.153 154.733 L 511.623 161.843 L 527.633 168.468 L 510.961 170.592 L 528.248 180.444 L 512.571 191.156 M 520 0 L 537.397 7.17022 L 522.53 14.2295 L 539.769 14.7995 L 520.966 19.3852 L 539.115 24.7243 L 521.188 41.4008 L 538.084 46.1922 L 522.754 60.7062 L 538.233 69.7444 L 521.451 85.438 L 539.411 88.8375 L 520.521 103.636 L 539.993 108.928 L 522.051 110.767 L 538.078 123.817 L 521.3 124.783 L 537.293 128.036 L 520.621 141.145 L 538.092 141.497 L 520.982 154.556 L 537.499 162.623 L 522.166 174.274 L 539.104 185.13 L 521.817 190.185 M 530 0 L 547.474 7.73057 L 530.546 15.4051 L 547.711 18.9149 L 530.603 24.3556 L 547.329 35.9575 L 531.647 39.519 L 547.425 40.2911 L 532.428 45.7417 L 547.306 58.3183 L 532.248 59.3095 L 547.896 65.9478 L 531.985 69.1466 L 548.036 79.0163 L 531.104 84.3827 L 549.224 97.9777 L 531.404 107.059 L 549.383 118.198 L 530.744 123.098 L 547.821 133.524 L 530.969 139.818 L 549.971 144.898 L 532.433 159.744 L 547.488 159.839 L 531.319 168.839 L 548.467 177.959 L 531.579 182.025 L 548.507 186.217 L 531.749 190.703 L 549.894 191.336 M 540 0 L 557.67 0.25637 L 542.487 9.99968 L 558.529 15.014 L 541.924 24.5639 L 559.192 32.5368 L 542.432 40.3655 L 559.604 41.0209 L 541.89 49.9811 L 557.14 56.7193 L 542.97 70.4408 L 559.037 81.517 L 542.048 83.2743 L 558.316 83.5841 L 541.883 86.8743 L 558.144 90.9115 L 542.968 96.1596 L 559.709 109.687 L 541.668 112.317 L 559.069 124.25 L 542.113 134.403 L 558.023 140.704 L 541.464 140.806 L 559.542 147.232 L 542.366 151.337 L 559.922 160.821 L 541.969 174.029 L 558.961 178.476 L 542.238 191.163 L 558.861 198.261 M 550 0 L 568.338 0.127655 L 551.372 1.57296 L 569.018 2.0731 L 551.033 14.138 L 569.062 26.2695 L 551.207 27.9507 L 568.739 38.8693 L 551.095 40.2713 L 568.351 47.7534 L 551.216 50.8084 L 567.591 58.0869 L 550.429 66.8622 L 567.531 67.5723 L 551.462 77.193 L 567.826 81.5696 L 551.926 87.4412 L 567.263 91.1154 L 550.444 100.472 L 568.56 106.198 L 552.086 113.837 L 568.255 123.059 L 551.278 123.992 L 567.611 125.656 L 552.929 130.64 L 567.534 141.822 L 550.377 143.06 L 567.553 149.252 L 551.917 152.129 L 569.946 155.369 L 551.497 157.036 L 568.428 159.901 L 552.026 160.357 L 567.788 166.885 L 552.629 177.092 L 569.217 188.284 L 551.437 196.176 M 560 0 L 579.555 10.6885 L 562.704 13.6706 L 578.874 22.7904 L 562.105 25.3019 L 577.635 34.6279 L 560.592 38.1944 L 578.008 48.9619 L 562.333 49.8155 L 579.205 60.185 L 560.254 68.9598 L 577.372 71.0165 L 562.06 77.3081 L 577.941 79.2379 L 560.436 85.2532 L 577.787 85.3481 L 561.076 89.7184 L 578.29 96.2382 L 561.016 96.7604 L 579.03 104.58 L 562.406 106.046 L 579.272 114.106 L 562.712 124.171 L 579.457 134.925 L 561.494 139.53 L 578.119 148.284 L 561.576 149.006 L 579.642 157.802 L 561.058 164.047 L 579.714 168.616 L 560.273 178.09 L 578.029 187.902 L 561.685 195.145 M 570 0 L 587.437 6.54702 L 570.084 10.3309 L 588.93 17.3447 L 572.446 23.0892 L 589.756 29.7718 L 571.786 34.4852 L 588.205 43.5126 L 570.84 49.985 L 587.9 59.3436 L 570.053 67.9947 L 588.988 69.5904 L 572.01 76.5454 L 589.727 80.9154 L 572.998 82.8026 L 587.115 85.7693 L 571.606 92.6453 L 589.968 94.0905 L 570.655 99.7856 L 588.525 100.539 L 572.457 102.229 L 588.168 108.979 L 571.425 112.452 L 588.78 113.296 L 572.035 121.359 L 588.428 127.551 L 570.841 136.619 L 587.528 140.228 L 570.061 144.401 L 587.341 150.678 L 572.22 152.328 L 587.645 157.661 L 571.833 162.027 L 589.674 166.642 L 572.548 170.407 L 589.96 178.958 L 570.131 186.324 L 588.59 191.925 M 580 0 L 599.021 8.0755 L 581.358 11.1589 L 598.241 14.5365 L 581.019 16.4615 L 597.384 20.2933 L 580.2 27.6349 L 597.403 30.3796 L 580.026 35.9373 L 599.755 39.7881 L 580.152 47.432 L 598.528 53.9867 L 582.893 54.1037 L 599.264 57.5137 L 580.637 62.3109 L 598.603 67.8745 L 582.966 74.7477 L 598.525 76.0043 L 580.078 83.82 L 597.713 89.7893 L 580.842 93.7501 L 599.185 97.1911 L 581.592 101.728 L 598.699 109.879 L 582.462 117.154 L 598.952 118.783 L 582.451 120.836 L 599.446 121.065 L 581.345 126.725 L 599.865 133.908 L 580.208 140.95 L 599.763 147.69 L 582.206 153.592 L 599.851 159.849 L 582.726 163.972 L 599.788 166.051 L 580.931 169.501 L 599.458 176.809 L 581.965 180.269 L 597.664 180.308 L 582.104 187.539 L 599.47 195.149 M 590 0 L 608.38 5.82892 L 590.574 7.80071 L 609.386 9.3731 L 590.261 11.9655 L 609.418 14.6674 L 590.565 21.3941 L 609.085 25.7068 L 592.278 31.8574 L 609.117 32.4947 L 592.056 33.4029 L 609.463 37.2461 L 591.171 44.4647 L 608.873 46.9104 L 591.069 49.8569 L 609.755 55.4221 L 590.777 60.8377 L 608.194 67.262 L 592.861 73.8913 L 607.851 79.6149 L 590.278 85.6915 L 607.741 90.4867 L 590.227 93.5057 L 607.968 94.1308 L 590.469 98.0514 L 607.951 102.423 L 590.913 107.757 L 607.031 114.426 L 590.502 121.737 L 609.631 126.909 L 592.056 128.513 L 607.285 134.857 L 592.907 138.41 L 608.932 142.224 L 591.676 145.599 L 609.481 151.211 L 590.837 151.266 L 608.445 154.409 L 592.095 158.818 L 609.513 159.087 L 591.18 161.31 L 608.788 164.311 L 590.33 168.997 L 609.542 170.398 L 591.362 177.792 L 609.414 180.239 L 590.819 183.157 L 608.459 190.07 L 590.65 191.189 L 607.73 195.65 L 592.184 197.861 M 600 0 L 617.105 2.45646 L 602.285 7.20568 L 617.505 9.03863 L 602.682 13.8364 L 618.727 14.0347 L 600.329 14.6975 L 618.525 18.0015 L 600.676 20.7626 L 619.527 20.7686 L 601.01 26.017 L 617.454 27.6008 L 602.778 32.7209 L 618.694 33.7264 L 601.234 35.0993 L 619.567 37.4491 L 600.377 40.7538 L 619.13 43.8962 L 601.595 48.9453 L 617.49 55.6108 L 600.254 56.1893 L 617.96 57.4033 L 600.273 57.6148 L 619.694 60.5712 L 602.019 62.4458 L 617.608 65.0455 L 602.858 66.7961 L 617.989 68.3172 L 601.679 69.6911 L 619.41 72.6112 L 601.616 75.9005 L 618.308 77.4769 L 600.035 79.2086 L 617.366 80.2121 L 602.83 80.5957 L 618.24 84.9088 L 600.764 91.5169 L 619.31 97.9712 L 601.625 102.842 L 617.202 104.449 L 602.486 108.003 L 619.744 113.375 L 600.415 118.427 L 617.239 122.636 L 600.822 128.502 L 618.759 134.822 L 602.838 136.87 L 619.655 142.415 L 602.385 143.905 L 617.479 149.628 L 601.948 151.203 L 618.681 154.228 L 602.272 155.356 L 618.926 161.588 L 601.983 166.668 L 617.637 173.014 L 601.455 173.028 L 618.85 179.477 L 600.713 186.189 L 618.096 190.635 L 600.174 197.144 M 610 0 L 628.604 4.44864 L 611.301 4.46482 L 627.294 8.52659 L 611.073 10.2587 L 628.805 10.6027 L 612.472 12.1021 L 628.863 16.6609 L 612.131 17.7453 L 629.742 20.7659 L 612.281 21.5851 L 627.865 26.8178 L 610.715 31.1628 L 629.236 37.3275 L 610.568 38.5325 L 629.065 43.4297 L 612.261 46.6487 L 628.682 47.3548 L 610.95 48.6789 L 627.214 54.2054 L 612.864 59.5014 L 627.805 64.3217 L 611.897 65.2277 L 627.413 68.3671 L 611.935 71.9649 L 629.644 77.6495 L 612.873 80.1592 L 628.433 83.6581 L 612.327 83.918 L 628.379 85.7177 L 611.349 88.9998 L 629.935 89.8524 L 612.386 91.0279 L 627.111 96.1368 L 611.51 101.958 L 629.158 106.934 L 610.478 111.866 L 628.57 114.953 L 611.165 120.716 L 628.092 121.419 L 610.841 126.121 L 627.278 127.353 L 611.567 128.425 L 629.322 130.862 L 612.879 135.222 L 628.877 138.476 L 610.808 139.907 L 627.281 145.46 L 611.834 151.081 L 628.899 156.6 L 612.99 158.841 L 628.439 163.592 L 612.627 164.857 L 628.601 169.87 L 610.87 174.816 L 627.456 177.661 L 610.036 179.838 L 627.512 185.478 L 610.133 188.309 L 627.022 191.136 L 612.213 194.053 L 628.314 198.744 L 612.262 199.278 M 620 0 L 637.321 3.02047 L 621.604 8.43189 L 637.74 13.5964 L 620.965 17.4499 L 638.883 19.4046 L 622.823 19.9581 L 637.853 20.4516 L 621.927 24.0414 L 639.539 24.8725 L 621.091 25.7807 L 639.892 26.1369 L 622.46 30.2145 L 638.957 34.3763 L 620.065 36.6409 L 637.781 38.573 L 621.506 42.0592 L 639.902 43.5251 L 622.101 46.6771 L 638.081 49.0472 L 621.91 51.7716 L 637.465 57.245 L 622.213 59.1401 L 638.248 61.0208 L 621.382 62.9892 L 637.151 68.2223 L 622.585 72.8522 L 637.23 75.8482 L 620.57 78.9034 L 638.984 80.6975 L 621.565 84.9917 L 637.771 90.5093 L 621.57 96.1125 L 637.26 98.8165 L 620.239 99.0346 L 638.278 102.625 L 620.264 105.445 L 639.373 108.391 L 621.379 111.696 L 638.877 116.843 L 621.783 117.345 L 639.637 121.399 L 620.933 126.399 L 638.944 129.027 L 621.101 134.153 L 639.053 135.187 L 622.844 136.839 L 639.835 142.69 L 621.524 144.663 L 639.686 149.902 L 622.586 150.6 L 638.773 152.734 L 622.523 155.727 L 639.955 160.718 L 620.068 166.565 L 639.836 170.351 L 621.699 170.964 L 637.091 176.344 L 621.985 178.109 L 637.352 183.313 L 622.321 186.678 L 639.522 189.087 L 621.645 192.037 L 639.238 197.076 L 620.97 198.676 M 630 0 L 648.339 3.82853 L 631.896 6.8722 L 648.435 7.70155 L 630.262 10.772 L 648.525 15.5175 L 631.842 19.2303 L 649.566 21.7554 L 630.041 23.1554 L 649.594 25.82 L 632.568 27.9638 L 648.059 29.6455 L 630.081 35.2874 L 647.669 36.1252 L 632.188 41.0952 L 649.437 43.1739 L 630.869 48.1863 L 649.082 52.8103 L 632.551 58.0659 L 647.746 63.329 L 630.114 66.3365 L 649.917 68.1619 L 630.757 70.4685 L 647.78 72.7245 L 632.388 74.2439 L 647.139 75.0566 L 630.467 80.5317 L 649.595 83.0435 L 630.513 83.0596 L 648.491 84.2374 L 630.067 85.2302 L 648.904 86.1407 L 630.189 90.2673 L 647.94 92.7029 L 630.504 96.635 L 647.356 96.8167 L 631.98 100.135 L 648.515 106.038 L 632.146 111.869 L 647.726 112.684 L 631.281 117.233 L 649.467 118.201 L 631.367 120.83 L 647.434 126.392 L 631.126 127.838 L 648.804 131.823 L 630.185 133.53 L 648.461 136.99 L 630.941 142.851 L 649.577 143.6 L 630.235 144.983 L 648.556 150.077 L 630.827 154.982 L 647.727 160.593 L 632.96 165.242 L 649.124 168.897 L 632.2 170.953 L 647.968 176.514 L 632.765 177.992 L 648.194 183.869 L 631.94 185.035 L 649.318 186.828 L 631.465 187.632 L 648.493 192.904 L 630.932 196.067 L 647.911 199.561 M 640 0 L 658.138 1.53252 L 641.024 7.26582 L 659.963 12.637 L 640.857 18.6293 L 658.752 21.942 L 640.477 23.3162 L 658.078 27.9724 L 642.774 28.0596 L 658.068 29.3241 L 642.241 30.984 L 658.377 33.6637 L 642.471 36.36 L 659.781 36.4551 L 642.312 42.478 L 659.636 48.6585 L 640.291 54.2157 L 659.402 58.289 L 641.279 63.5125 L 657.206 68.4826 L 641.885 70.258 L 659.258 73.5697 L 641.32 73.7211 L 657.616 77.0294 L 641.682 78.6935 L 658.524 82.5764 L 640.971 85.1314 L 657.879 88.7318 L 640.376 89.0739 L 657.767 89.6191 L 640.276 90.5659 L 657.32 91.5976 L 640.647 96.0033 L 658.796 102.014 L 641.752 102.964 L 657.693 104.264 L 641.433 106.493 L 657.269 108.772 L 641 109.647 L 658.673 113.434 L 640.722 114.082 L 659.237 114.093 L 641.521 119.084 L 658.966 121.475 L 641.53 125.565 L 657.016 130.336 L 641.418 135.858 L 659.761 137.821 L 640.346 137.92 L 659.761 141.093 L 641.927 145.51 L 657.709 147.413 L 642.226 153.618 L 658.794 156.41 L 642.88 161.467 L 657.217 163.296 L 640.872 168.408 L 658.498 168.535 L 642.218 169.654 L 657.926 172.977 L 640.248 174.032 L 659.81 179.439 L 640.555 181.317 L 659.888 185.408 L 640.225 190.799 L 658.782 193.533 L 640.476 199.159 M 650 0 L 669.879 3.86219 L 651.584 7.582 L 669.269 13.1343 L 652.434 19.7571 L 669.165 20.3454 L 650.916 24.842 L 667.803 28.3622 L 650.371 29.1887 L 669.955 32.8666 L 651.225 35.6045 L 669.77 37.4987 L 650.769 42.5485 L 668.46 48.6132 L 652.399 49.7731 L 667.357 50.0136 L 651.676 53.9472 L 669.509 56.2706 L 652.821 59.3336 L 667.389 62.7341 L 651.006 67.6237 L 667.292 69.9055 L 652.079 76.3472 L 668.414 82.046 L 651.822 83.611 L 669.954 85.9922 L 651.313 86.6516 L 669.422 89.4839 L 650.047 92.1999 L 669.199 96.1154 L 651.185 100.473 L 667.775 103.248 L 651.717 105.504 L 668.454 106.328 L 650.169 108.1 L 667.712 111.98 L 650.913 112.139 L 669.893 116.616 L 651.336 118.661 L 669.176 124.638 L 650.664 128.465 L 667.508 128.825 L 650.351 132.049 L 668.893 137.714 L 652.297 140.778 L 668.961 146.795 L 650.576 147.187 L 667.971 149.98 L 650.106 153.891 L 668.619 155.097 L 652.806 159.337 L 668.566 165.211 L 651.558 167.631 L 668.349 173.465 L 650.388 177.316 L 667.394 183.661 L 650.735 187.341 L 668.482 189.371 L 652.506 194.773 L 669.76 196.012 L 650.59 199.194 M 660 0 L 677.041 0.935661 L 662.264 3.95952 L 679.913 9.19295 L 661.61 12.6472 L 679.028 12.7841 L 662.122 16.0563 L 678.964 16.2935 L 662.872 18.5893 L 677.154 24.8495 L 660.255 31.726 L 679.384 31.748 L 661.344 38.2057 L 677.849 45.356 L 660.369 52.349 L 679.638 55.7457 L 662.234 59.6947 L 679.901 61.1197 L 661.093 61.7696 L 678.286 68.0409 L 662.322 72.7263 L 679.552 78.9783 L 662.235 85.5689 L 679.144 91.4992 L 660.065 95.6705 L 677.455 97.0576 L 662.277 100.593 L 677.823 102.222 L 661.637 105.446 L 679.711 106.469 L 661.368 112.537 L 679.718 114.252 L 662.236 117.692 L 677.39 121.706 L 660.203 125.197 L 679.776 127.793 L 661.548 133.074 L 679.081 135.083 L 660.982 140.977 L 679.934 143.231 L 661.579 145.147 L 678.292 151.372 L 662.718 157.206 L 677.404 159.64 L 661.09 163.379 L 678.511 169.247 L 661.965 170.236 L 679.756 175.373 L 660.866 176.654 L 678.246 182.615 L 660.479 185.148 L 677.549 187.936 L 661.456 191.732 L 678.234 191.812 L 660.639 195.14 M 670 0 L 688.226 2.62184 L 671.451 4.78564 L 689.056 9.2168 L 671.781 16.9615 L 688.483 17.4965 L 670.095 21.7176 L 687.965 25.2534 L 672.185 28.5474 L 687.81 36.6382 L 671.117 44.5545 L 687.403 50.1385 L 672.125 58.2447 L 687.014 63.7469 L 672.66 71.1138 L 688.596 74.366 L 672.246 76.3662 L 688.463 83.1421 L 671.101 86.168 L 689.734 90.2722 L 672.424 93.2978 L 688.113 97.237 L 671.625 99.4005 L 688.401 105.747 L 671.809 105.793 L 689.328 107.233 L 670.13 110.983 L 687.321 117.67 L 672.821 120.178 L 689.795 123.617 L 671.291 124.786 L 688.587 130.309 L 670.571 132.013 L 687.452 132.71 L 670.618 134.099 L 689.004 136.407 L 670.763 144.001 L 689.81 147.364 L 670.591 147.865 L 687.564 150.298 L 671.533 151.774 L 688.858 157.816 L 672.878 161.136 L 688.977 167.768 L 670.122 170.818 L 689.594 173.232 L 671.105 177.626 L 689.12 178.415 L 672.911 182.071 L 687.141 183.734 L 672.626 185.655 L 688.606 188.94 L 672.424 191.144 L 689.334 198.641 M 680 0 L 698.569 5.95189 L 682.515 12.9316 L 699.539 14.7096 L 682.969 19.4511 L 698.549 25.8965 L 680.577 30.8653 L 698.367 32.9769 L 681.723 38.9012 L 698.826 48.0427 L 680.661 54.8702 L 697.771 60.0557 L 680.046 63.4645 L 697.774 69.5316 L 680.264 70.2753 L 698.351 75.2456 L 682.865 81.0153 L 699.457 88.7593 L 680.847 94.8431 L 699.831 96.4414 L 682.824 101.452 L 699.364 104.499 L 681.87 110.701 L 699.33 113.804 L 680.309 118.587 L 697.367 120.336 L 681.445 126.138 L 697.035 128.616 L 682.864 129.909 L 698.678 133.107 L 680.266 135.091 L 697.176 143.266 L 680.698 152.285 L 699.499 152.516 L 681.304 161.241 L 697.056 169.915 L 682.269 171.394 L 697.737 175.011 L 680.342 180.692 L 699.784 184.318 L 680.814 184.607 L 697.232 187.521 L 682.027 191.514 L 697.909 194.803 L 681.613 195.596 M 690 0 L 709.46 9.41661 L 690.789 11.794 L 708.62 18.1686 L 691.269 21.6907 L 708.054 23.2675 L 691.995 28.4245 L 707.916 32.8922 L 692.87 33.5009 L 707.343 37.9141 L 691.137 47.2226 L 709.435 52.9982 L 690.131 58.4433 L 709.104 60.2344 L 692.87 69.5326 L 709.358 73.5318 L 692.479 77.7449 L 709.701 88.2365 L 691.399 95.9994 L 707.664 102.957 L 691.442 106.389 L 709.371 112.392 L 690.028 112.675 L 709.023 118.496 L 691.362 126.97 L 708.842 129.519 L 691.9 133.681 L 708.007 137.408 L 692.284 146.898 L 707.343 151.231 L 692.515 152.492 L 708.812 156.714 L 691.479 160.536 L 707.047 168.845 L 691.5 169.85 L 707.974 173.088 L 691.38 182.293 L 708.674 187.138 L 691.889 196.479 M 700 0 L 719.502 10.5551 L 700.986 12.9501 L 717.129 16.0102 L 700.409 20.4916 L 717.622 21.5369 L 700.978 27.5167 L 719.601 34.2708 L 702.928 41.0075 L 718.917 47.4406 L 701.384 54.6207 L 718.925 64.0641 L 701.775 69.0948 L 718.725 76.4575 L 701.259 77.7008 L 719.099 89.026 L 701.616 91.4433 L 717.908 98.5551 L 700.194 108.521 L 718.548 108.85 L 702.364 117.06 L 717.967 126.155 L 701.267 130.601 L 719.838 138.329 L 700.338 142.771 L 717.365 150.565 L 702.193 154.152 L 719.811 158.204 L 700.412 163.254 L 719.485 168.709 L 700.872 177.873 L 718.024 183.535 L 700.174 193.863 L 718.692 197.598 M 710 0 L 729.229 1.23711 L 712.272 2.26286 L 727.916 11.374 L 712.573 22.2188 L 727.902 31.8083 L 711.201 35.597 L 728.572 45.4173 L 712.67 49.2096 L 729.882 53.3359 L 711.98 59.5385 L 728.766 60.3855 L 710.413 68.7606 L 729.441 79.5124 L 711.715 80.1335 L 728.617 82.7696 L 711.569 87.5708 L 727.166 94.5716 L 711.65 100.937 L 729.405 106.798 L 711.61 114.646 L 729.194 124.763 L 711.581 126.17 L 729.002 131.327 L 712.075 139.327 L 728.477 147.865 L 711.374 154.189 L 728.401 158.978 L 710.662 164.265 L 728.374 168.31 L 710.996 178.132 L 729.364 185.071 L 710.529 196.57 L 727.314 197.449 M 720 0 L 739.392 10.4261 L 720.407 11.6451 L 738.409 14.4033 L 722.461 27.3105 L 739.588 41.7505 L 720.531 41.909 L 739.467 49.8636 L 722.397 62.0318 L 737.231 70.5445 L 721.106 71.7402 L 738.089 84.6535 L 722.256 91.3859 L 739.6 92.5352 L 720.98 103.797 L 738.921 110.072 L 720.611 114.687 L 738.858 120.095 L 721.341 127.227 L 738.73 133.994 L 720.779 139.177 L 738.179 139.37 L 722.598 141.065 L 739.903 146.249 L 721.359 146.354 L 739.942 154.678 L 722.851 158.76 L 739.971 163.11 L 722.23 174.562 L 737.487 178.033 L 722.414 186.322 L 738.938 188.932 L 720.862 193.385 L 739.702 194.352 M 730 0 L 747.84 8.852 L 731.079 9.59396 L 749.302 18.8742 L 731.382 31.3836 L 748.401 34.7162 L 730.28 43.3369 L 749.6 59.2014 L 732.792 59.9494 L 748.93 73.9976 L 731.864 74.9829 L 748.866 76.2848 L 732.669 87.6755 L 747.983 103.734 L 731.653 109.999 L 749.596 126.503 L 731.03 141.929 L 748.314 157.142 L 730 168.904 L 748.217 176.348 L 730.791 191.863 M 740 0 L 759.3 1.32771 L 741.578 17.4096 L 757.999 25.5606 L 741.932 35.7677 L 758.391 49.8401 L 741.181 58.6328 L 759.69 60.0131 L 740.206 71.5203 L 757.992 77.3151 L 742.739 77.3263 L 759.407 80.7682 L 741.726 83.7255 L 759.966 87.1539 L 742.556 105.503 L 758.367 124.373 L 741.001 127.791 L 757.386 143.31 L 742.8 153.401 L 757.936 172.422 L 740.367 179.686 L 758.869 191.627 L 742.201 192.488 L 758.574 193.333 M 750 0 L 768.379 17.5397 L 752.492 17.9799 L 767.617 28.9858 L 752.051 38.5588 L 769.917 57.8049 L 752.772 69.3524 L 769.925 70.8419 L 750.465 71.1777 L 768.259 73.5937 L 750.375 81.9753 L 769.597 101.4 L 752.894 120.18 L 768.549 131.43 L 751.641 143.183 L 769.716 151.208 L 752.797 158.5 L 769.137 174.459 L 752.065 177.281 L 768.803 190.507 M 760 0 L 778.862 4.80158 L 760.227 21.606 L 779.796 32.1217 L 760.918 44.7071 L 779.525 46.787 L 762.538 69.3151 L 777.545 76.7867 L 760.337 87.0249 L 779.829 90.2675 L 760.994 90.6845 L 779.349 91.8489 L 761.808 94.7356 L 778.548 114.651 L 762.444 136.993 L 777.459 142.407 L 762.778 147.44 L 777.942 169.988 L 760.032 171.724 L 777.228 184.949 M 770 0 L 788.885 6.97769 L 771.629 24.045 L 789.978 27.2172 L 770.426 28.1534 L 787.354 49.438 L 770.343 61.062 L 787.454 83.7336 L 771.838 90.1042 L 789.523 105.888 L 771.577 112.819 L 787.439 136.56 L 770.813 150.309 L 789.483 173.876 L 771.001 195.353 M 780 0 L 798.017 15.4581 L 782.587 19.1736 L 797.299 45.0175 L 781.114 63.5676 L 799.806 81.6497 L 781.653 88.376 L 798.344 113.126 L 782.631 133.049 L 797.139 146.832 L 782.213 164.183 L 797.886 184.779 M 790 0 L 809.686 6.55833 L 792.889 30.2116 L 808.701 56.2446 L 791.402 63.9287 L 807.838 82.665 L 790.42 110.114 L 808.074 128.959 L 790.006 130.656 L 808.446 133.236 L 790.648 157.468 L 808.868 168.434 L 790.126 174.05 L 807.405 178.981 M 800 0 L 819.447 12.8685 L 800.28 37.2124 L 819.907 49.098 L 800.548 65.3749 L 818.93 86.8972 L 802.871 105.673 L 819.644 115.63 L 801.178 124.448 L 817.807 127.63 L 800.59 153.43 L 819.25 171.367 L 801.157 181.26 L 819.358 191.316 M 810 0 L 827.05 26.5724 L 810.536 54.7267 L 827.815 62.9414 L 812.537 80.406 L 829.458 96.1078 L 812.927 119.348 L 828.392 141.53 L 810.248 144.991 L 827.767 175.574 L 812.704 176.997 L 828.585 180.389 L 812.74 188.829 M 820 0 L 839.709 20.493 L 821.885 44.061 L 838.127 52.6083 L 821.926 79.7214 L 839.717 82.2256 L 822.26 102.965 L 839.834 129.65 L 822.383 147.655 L 839.201 156.084 L 822.662 167.861 L 839.13 184.274 M 830 0 L 849.376 29.2707 L 831.042 37.064 L 847.554 39.4128 L 831.609 59.0968 L 849.002 66.5354 L 831.802 78.5785 L 847.612 95.1511 L 830.894 112.929 L 847.215 114.324 L 832.875 147.233 L 849.366 174.139 L 830.288 199.721 M 840 0 L 859.397 5.20635 L 840.174 16.192 L 857.144 31.6693 L 842.635 60.8314 L 858.357 62.3601 L 842.325 77.3085 L 858.013 111.575 L 842.763 138.633 L 859.736 169.316 L 841.744 187.304 M 850 0 L 868.651 13.8201 L 852.857 18.2911 L 869.335 48.2567 L 851.152 71.978 L 869.953 91.9274 L 851.503 108.626 L 867.267 118.02 L 852.098 122.33 L 868.811 134.469 L 850.916 146.08 L 868.421 151.634 L 851.891 152.739 L 867.51 157.868 L 851.186 165.143 L 869.387 186.461 L 850.552 194.516 M 860 0 L 879.097 35.1619 L 861.719 45.0852 L 879.414 79.6351 L 862.541 81.8875 L 877.342 111.731 L 862.595 121.689 L 877.924 130.052 L 861.98 151.186 L 877.484 155.825 L 862.062 167.229 L 879.014 173.797 M 870 0 L 888.909 10.1648 L 871.309 34.1757 L 887.484 69.1001 L 871.673 83.0349 L 888.401 117.467 L 872.982 121.09 L 889.149 135.257 L 872.679 142.467 L 887.134 151.401 L 870.807 182.889 L 889.902 184.648 L 872.195 199.582 M 880 0 L 897.388 24.9828 L 882.897 25.9004 L 898.923 61.2348 L 880.477 74.2478 L 898.594 109.378 L 882.641 113.788 L 898.055 126.23 L 881.193 147.18 L 897.183 168.48 M 890 0 L 907.307 14.9551 L 890.459 33.014 L 908.677 36.6297 L 891.627 45.0542 L 909.603 59.8542 L 891.887 65.5466 L 909.524 93.7936 L 891.608 111.676 L 908.758 131.866 L 892.312 141.623 L 909.847 162.859 L 892.436 168.774 L 909.043 172.829 L 892.131 174.092 L 909.339 187.888 M 900 0 L 919.036 22.983 L 902.408 27.9663 L 918.328 42.3246 L 901.247 61.6347 L 919.409 79.2093 L 900.893 89.522 L 918.541 121.978 L 902.718 152.407 L 918.295 175.746 M 910 0 L 927.267 1.56906 L 912.562 12.9996 L 927.047 17.8957 L 910.238 50.3913 L 928.239 73.6955 L 911.426 97.6131 L 928.106 112.549 L 910.231 123.371 L 927.086 128.163 L 912.921 162.421 L 928.453 187.627 M 920 0 L 939.252 11.8795 L 922.175 36.488 L 939.901 63.9117 L 920.038 86.681 L 939.369 117.373 L 922.843 146.918 L 938.302 166.509 L 920.785 170.841 L 937.458 189.328 L 921.447 198.388 M 930 0 L 948.121 9.45989 L 931.308 29.0009 L 947.044 43.6842 L 932.76 53.5543 L 947.247 61.795 L 930.183 73.7972 L 947.272 80.1428 L 930.435 89.633 L 948.521 107.376 L 931.575 118.745 L 947.967 148.123 L 930.729 173.31 M 940 0 L 958.959 3.29846 L 940.794 17.6691 L 958.398 41.0218 L 942.902 62.1538 L 958.353 93.4752 L 941.958 103.647 L 958.476 103.879 L 942.117 132.201 L 959.929 143.932 L 940.306 152.519 L 957.913 181.187 L 942.647 187.267 L 959.877 187.849 M 950 0 L 967.965 0.623109 L 951.725 7.06383 L 968.674 35.4892 L 951.244 42.9236 L 969.671 72.6748 L 951.009 88.2997 L 967.714 95.6287 L 951.454 104.828 L 968.218 115.762 L 950.125 123.558 L 968.743 129.462 L 950.451 146.144 L 968.991 160.485 L 951.872 176.357 L 968.633 189.298 M 960 0 L 977.209 23.4387 L 962.845 39.2774 L 979.313 53.51 L 960.612 60.1846 L 978.221 77.4912 L 960.419 83.4899 L 977.514 100.389 L 961.075 104.227 L 978.929 121.764 L 960.961 145.168 L 978.171 158.005 L 961.694 165.794 L 979.262 174.042 L 962.702 194.558 M 970 0 L 987.001 23.6166 L 971.697 44.3995 L 987.754 61.1563 L 970.238 81.3124 L 989.448 86.9337 L 970.483 94.27 L 988.001 104.877 L 970.094 115.953 L 988.751 122.661 L 972.337 137.881 L 987.909 157.544 L 970.5 166.376 L 988.311 182.886 L 970.597 186.897 L 988.089 189.44 L 971.143 191.837 M 980 0 L 999.423 9.29705 L 982.639 10.9105 L 999.343 17.1655 L 982.286 40.5816 L 998.745 54.2163 L 980.089 63.7614 L 997.984 79.0851 L 981.111 89.5548 L 999.593 113.369 L 982.93 114.467 L 999.568 133.477 L 980.018 151.799 L 999.224 157.786 L 981.024 178.155 L 997.076 182.47 M 990 0 L 1009.82 16.5296 L 992.569 31.2617 L 1009.77 43.7743 L 990.189 58.1163 L 1007.1 72.8744 L 990.511 90.1142 L 1009.79 100.646 L 992.24 119.863 L 1009.39 135.571 L 990.438 137.651 L 1008.59 151.136 L 992.552 159.217 L 1009.66 177.21 L 990.917 199.87" stroke="black" stroke-width="1" fill="none"></path></svg>
