<svg version="1.1" xmlns:xlink="http://www.w3.org/1999/xlink" xmlns="http://www.w3.org/2000/svg"><path d="M 100 80 A 20 20 0 0 0 97.7722 119.876 M 100 60 A 40 40 0 0 0 84.702 136.959 M 100 40 A 60 60 0 0 0 90.9452 159.313 M 100 20 A 80 80 0 0 0 97.7663 179.969 M 100 0 A 100 100 0 0 0 50.8764 187.103 M 220 90 A 10 10 0 0 0 216.934 109.518 M 220 80 A 20 20 0 0 0 212.359 118.483 M 220 70 A 30 30 0 0 0 205.31 126.157 M 220 60 A 40 40 0 0 0 210.065 138.747 M 220 50 A 50 50 0 0 0 203.178 147.085 M 220 40 A 60 60 0 0 0 197.743 155.719 M 220 30 A 70 70 0 0 0 204.052 168.159 M 220 20 A 80 80 0 0 0 185.183 172.026 M 220 10 A 90 90 0 0 0 198.709 187.445 M 220 0 A 100 100 0 0 0 195.228 196.883 M 340 95 A 5 5 0 0 0 339.626 104.986 M 340 90 A 10 10 0 0 0 337.411 109.659 M 340 85 A 15 15 0 0 0 335.51 114.312 M 340 80 A 20 20 0 0 0 337.33 119.821 M 340 75 A 25 25 0 0 0 330.423 123.093 M 340 70 A 30 30 0 0 0 328.364 127.651 M 340 65 A 35 35 0 0 0 327.801 132.805 M 340 60 A 40 40 0 0 0 338.126 139.956 M 340 55 A 45 45 0 0 0 320.943 140.766 M 340 50 A 50 50 0 0 0 320.758 146.149 M 340 45 A 55 55 0 0 0 317.585 150.225 M 340 40 A 60 60 0 0 0 331.107 159.337 M 340 35 A 65 65 0 0 0 338.905 164.991 M 340 30 A 70 70 0 0 0 331.57 169.491 M 340 25 A 75 75 0 0 0 305.277 166.478 M 340 20 A 80 80 0 0 0 317.678 176.823 M 340 15 A 85 85 0 0 0 307.771 178.653 M 340 10 A 90 90 0 0 0 329.517 189.387 M 340 5 A 95 95 0 0 0 319.465 192.754 M 340 0 A 100 100 0 0 0 337.398 199.966" stroke="black" stroke-width="1" fill="none"></path></svg>
