<svg version="1.1" xmlns:xlink="http://www.w3.org/1999/xlink" xmlns="http://www.w3.org/2000/svg"><path d="M 100 100 A 20 20 0 1 1 100 100 A 20 20 0 1 0 120 100 A 20 20 0 1 1 140 100 A 20 20 0 1 0 160 100 A 20 20 0 1 1 180 100 A 20 20 0 1 0 200 100 A 20 20 0 1 1 220 100 A 20 20 0 1 0 240 100 A 20 20 0 1 1 260 100 A 20 20 0 1 0 280 100 A 20 20 0 1 1 300 100 A 20 20 0 1 0 320 100 A 20 20 0 1 1 340 100 A 20 20 0 1 0 360 100 A 20 20 0 1 1 380 100 A 20 20 0 1 0 400 100 A 20 20 0 1 1 420 100 A 20 20 0 1 0 440 100 A 20 20 0 1 1 460 100 A 20 20 0 1 0 480 100 A 20 20 0 1 1 500 100 A 20 20 0 1 0 520 100 A 20 20 0 1 1 540 100 A 20 20 0 1 0 560 100 A 20 20 0 1 1 580 100 A 20 20 0 1 0 600 100 A 20 20 0 1 1 620 100 A 20 20 0 1 0 640 100 A 20 20 0 1 1 660 100 A 20 20 0 1 0 680 100" stroke="black" stroke-width="1" fill="none"></path><path d="M 100 170 L 140 170 L 140 210 L 100 210 L 100 170 M 160 170 L 201 170 L 201 211 L 160 211 L 160 170 M 220 170 L 262 170 L 262 212 L 220 212 L 220 170 M 280 170 L 323 170 L 323 213 L 280 213 L 280 170 M 340 170 L 384 170 L 384 214 L 340 214 L 340 170 M 400 170 L 445 170 L 445 215 L 400 215 L 400 170 M 460 170 L 506 170 L 506 216 L 460 216 L 460 170 M 520 170 L 567 170 L 567 217 L 520 217 L 520 170 M 580 170 L 628 170 L 628 218 L 580 218 L 580 170 M 640 170 L 689 170 L 689 219 L 640 219 L 640 170" stroke="black" stroke-width="1" fill="none"></path><path d="M 99.5955 219.88 L 93.4507 293.562 L 98.6227 340.606 M 163.032 218.713 L 148.275 290.816 L 168.346 363.599 M 205.029 233.544 L 220.704 288.765 L 227.342 345.88 M 279.849 236.137 L 277.246 294.444 L 278.627 345.209 M 353.348 225.187 L 332.279 280.806 L 346.519 350.429 M 400.07 240.388 L 408.979 281.092 L 401.234 364.908 M 459.816 231.083 L 449.548 284.866 L 447.015 355.571 M 532.571 226.131 L 525.778 279.894 L 519.158 337.581 M 580.281 236.896 L 586.989 280.44 L 578.425 356.026 M 641.846 227.857 L 646.205 290.11 L 649.93 357.92 M 99.5955 219.88 L 163.032 218.713 L 205.029 233.544 L 279.849 236.137 L 353.348 225.187 L 400.07 240.388 L 459.816 231.083 L 532.571 226.131 L 580.281 236.896 L 641.846 227.857 M 93.4507 293.562 L 148.275 290.816 L 220.704 288.765 L 277.246 294.444 L 332.279 280.806 L 408.979 281.092 L 449.548 284.866 L 525.778 279.894 L 586.989 280.44 L 646.205 290.11 M 98.6227 340.606 L 168.346 363.599 L 227.342 345.88 L 278.627 345.209 L 346.519 350.429 L 401.234 364.908 L 447.015 355.571 L 519.158 337.581 L 578.425 356.026 L 649.93 357.92" stroke="black" stroke-width="1" fill="none"></path></svg>
