<svg version="1.1" xmlns:xlink="http://www.w3.org/1999/xlink" xmlns="http://www.w3.org/2000/svg"><path d="M 450 450 A 20 20 0 1 0 450.1 450.1 M 450 150 A 20 20 0 1 0 450.1 150.1 M 400 400 A 20 20 0 1 0 400.1 400.1 M 400 150 A 20 20 0 1 0 400.1 150.1 M 400 100 A 20 20 0 1 0 400.1 100.1 M 400 0 A 20 20 0 1 0 400.1 0.1 M 350 350 A 20 20 0 1 0 350.1 350.1 M 350 250 A 20 20 0 1 0 350.1 250.1 M 350 200 A 20 20 0 1 0 350.1 200.1 M 300 450 A 20 20 0 1 0 300.1 450.1 M 300 350 A 20 20 0 1 0 300.1 350.1 M 200 350 A 20 20 0 1 0 200.1 350.1 M 200 50 A 20 20 0 1 0 200.1 50.1 M 150 400 A 20 20 0 1 0 150.1 400.1 M 150 250 A 20 20 0 1 0 150.1 250.1 M 150 150 A 20 20 0 1 0 150.1 150.1 M 150 100 A 20 20 0 1 0 150.1 100.1 M 150 0 A 20 20 0 1 0 150.1 0.1 M 100 400 A 20 20 0 1 0 100.1 400.1 M 100 100 A 20 20 0 1 0 100.1 100.1 M 50 200 A 20 20 0 1 0 50.1 200.1 M 50 150 A 20 20 0 1 0 50.1 150.1" stroke="black" stroke-width="1" fill="none"></path></svg>
