<svg version="1.1" xmlns:xlink="http://www.w3.org/1999/xlink" xmlns="http://www.w3.org/2000/svg"><path d="M 0 237 L 2 237.06 M 5 237.15 L 9 237.27 M 11 237.33 L 15 237.45 M 17 237.51 L 21 237.63 M 23 237.69 L 56 238.681 M 59 238.771 L 64 238.921 M 66 238.981 L 67 239.011 M 0 237 L 2 237.12 M 5 237.3 L 9 237.541 M 11 237.661 L 15 237.901 M 17 238.021 L 21 238.262 M 23 238.382 L 50 240.004 M 52 240.124 L 55 240.304 M 59 240.544 L 63 240.785 M 66 240.965 L 67 241.025 M 334 257.064 L 344 257.665 M 0 237 L 2 237.18 M 5 237.451 L 9 237.812 M 11 237.993 L 15 238.354 M 17 238.534 L 21 238.895 M 23 239.076 L 27 239.437 M 29 239.617 L 50 241.512 M 52 241.693 L 55 241.963 M 58 242.234 L 60 242.415 M 327 266.51 L 335 267.232 M 341 267.773 L 349 268.495 M 0 237 L 2 237.241 M 5 237.603 L 9 238.085 M 11 238.326 L 15 238.809 M 17 239.05 L 21 239.532 M 23 239.773 L 52 243.27 M 59 244.114 L 63 244.596 M 65 244.838 L 66 244.958 M 322 275.827 L 334 277.273 M 346 278.72 L 350 279.203 M 0 237 L 2 237.302 M 5 237.756 L 9 238.36 M 11 238.662 L 15 239.267 M 17 239.569 L 55 245.312 M 58 245.766 L 63 246.522 M 65 246.824 L 67 247.126 M 149 259.519 L 152 259.973 M 156 260.577 L 157 260.728 M 317 284.91 L 332 287.177 M 350 289.897 L 352 290.2 M 0 237 L 2 237.364 M 5 237.91 L 9 238.638 M 11 239.002 L 15 239.73 M 17 240.093 L 49 245.917 M 51 246.28 L 54 246.826 M 58 247.554 L 60 247.918 M 65 248.828 L 68 249.374 M 311 293.593 L 331 297.232 M 334 297.778 L 335 297.96 M 352 301.053 L 356 301.781 M 0 237 L 2 237.426 M 5 238.066 L 9 238.918 M 11 239.345 L 49 247.444 M 53 248.297 L 54 248.51 M 58 249.362 L 62 250.215 M 64 250.641 L 69 251.707 M 291 299.024 L 330 307.337 M 0 237 L 2 237.489 M 5 238.224 L 9 239.202 M 11 239.692 L 16 240.915 M 18 241.405 L 50 249.236 M 53 249.97 L 54 250.215 M 58 251.194 L 62 252.172 M 65 252.907 L 69 253.885 M 290 307.968 L 330 317.757 M 0 237 L 2 237.554 M 5 238.384 L 9 239.491 M 11 240.044 L 16 241.428 M 18 241.982 L 22 243.089 M 24 243.642 L 54 251.945 M 58 253.052 L 61 253.882 M 64 254.713 L 69 256.096 M 214 296.226 L 224 298.994 M 286 316.153 L 321 325.839 M 324 326.67 L 325 326.946 M 327 327.5 L 329 328.053 M 0 237 L 2 237.619 M 5 238.547 L 9 239.784 M 11 240.403 L 16 241.949 M 18 242.568 L 22 243.805 M 24 244.424 L 53 253.395 M 57 254.632 L 58 254.942 M 64 256.798 L 69 258.344 M 71 258.963 L 72 259.272 M 282 324.233 L 321 336.297 M 323 336.916 L 329 338.772 M 346 344.03 L 347 344.34 M 0 237 L 2 237.685 M 5 238.713 L 9 240.083 M 11 240.768 L 16 242.48 M 18 243.165 L 22 244.536 M 24 245.221 L 54 255.496 M 57 256.524 L 58 256.866 M 66 259.607 L 69 260.634 M 71 261.319 L 73 262.004 M 277 331.879 L 329 349.691 M 0 237 L 2 237.753 M 5 238.882 L 9 240.388 M 11 241.14 L 16 243.022 M 18 243.775 L 22 245.281 M 24 246.034 L 50 255.82 M 52 256.573 L 54 257.326 M 59 259.208 L 61 259.961 M 64 261.09 L 68 262.595 M 71 263.725 L 74 264.854 M 152 294.213 L 160 297.224 M 273 339.758 L 329 360.837 M 352 369.494 L 354 370.247 M 0 237 L 2 237.822 M 5 239.055 L 9 240.699 M 11 241.522 L 16 243.577 M 18 244.399 L 22 246.043 M 24 246.865 L 49 257.142 M 52 258.375 L 54 259.197 M 56 260.019 L 60 261.663 M 66 264.13 L 68 264.952 M 70 265.774 L 75 267.829 M 142 295.37 L 152 299.48 M 270 347.985 L 324 370.182 M 326 371.004 L 333 373.881 M 335 374.703 L 336 375.114 M 338 375.937 L 339 376.348 M 346 379.225 L 347 379.636 M 350 380.869 L 351 381.28 M 0 237 L 2 237.893 M 5 239.233 L 9 241.019 M 11 241.912 L 16 244.145 M 18 245.038 L 53 260.668 M 57 262.455 L 60 263.794 M 65 266.027 L 67 266.92 M 70 268.26 L 75 270.493 M 136 297.734 L 145 301.753 M 266 355.788 L 311 375.884 M 313 376.777 L 327 383.029 M 329 383.922 L 352 394.194 M 0 237 L 2 237.966 M 5 239.415 L 9 241.347 M 12 242.797 L 50 261.153 M 56 264.051 L 60 265.983 M 65 268.399 L 66 268.882 M 70 270.814 L 71 271.297 M 73 272.263 L 75 273.229 M 127 298.348 L 132 300.763 M 134 301.729 L 138 303.662 M 263 364.043 L 320 391.578 M 322 392.544 L 330 396.408 M 0 237 L 2 238.041 M 5 239.603 L 10 242.206 M 12 243.247 L 53 264.592 M 56 266.154 L 57 266.675 M 65 270.84 L 67 271.881 M 70 273.443 L 71 273.963 M 77 277.087 L 79 278.128 M 261 372.879 L 324 405.678 M 0 237 L 2 238.119 M 5 239.797 L 10 242.594 M 12 243.712 L 16 245.95 M 18 247.068 L 50 264.968 M 55 267.765 L 56 268.324 M 72 277.274 L 74 278.393 M 77 280.071 L 79 281.189 M 0 237 L 2 238.199 M 5 239.997 L 10 242.994 M 12 244.193 L 52 268.17 M 56 270.568 L 59 272.366 M 64 275.363 L 66 276.562 M 69 278.361 L 71 279.56 M 73 280.758 L 74 281.358 M 78 283.756 L 79 284.355 M 0 237 L 2 238.282 M 5 240.205 L 10 243.41 M 12 244.692 L 51 269.689 M 56 272.894 L 58 274.176 M 63 277.381 L 66 279.304 M 69 281.227 L 71 282.509 M 76 285.714 L 79 287.637 M 0 237 L 2 238.368 M 5 240.421 L 10 243.841 M 12 245.21 L 51 271.891 M 55 274.628 L 56 275.312 M 63 280.101 L 65 281.469 M 68 283.521 L 73 286.942 M 76 288.994 L 79 291.047 M 0 237 L 2 238.458 M 5 240.646 L 9 243.562 M 12 245.749 L 51 274.185 M 54 276.372 L 58 279.289 M 68 286.58 L 69 287.309 M 75 291.684 L 79 294.6 M 254 422.195 L 268 432.403 M 0 237 L 2 238.552 M 5 240.881 L 9 243.985 M 12 246.313 L 50 275.805 M 60 283.566 L 61 284.342 M 64 286.671 L 65 287.447 M 68 289.775 L 70 291.327 M 75 295.208 L 78 297.536 M 0 237 L 2 238.651 M 5 241.127 L 10 245.253 M 12 246.904 L 51 279.092 M 56 283.219 L 57 284.044 M 64 289.822 L 65 290.647 M 67 292.298 L 72 296.424 M 76 299.726 L 77 300.551 M 255 447.461 L 275 463.967 M 0 237 L 2 238.754 M 5 241.385 L 10 245.771 M 12 247.525 L 17 251.91 M 19 253.664 L 49 279.976 M 53 283.485 L 55 285.239 M 63 292.255 L 64 293.132 M 76 303.657 L 78 305.411 M 81 308.042 L 82 308.92 M 0 237 L 2 238.863 M 5 241.658 L 10 246.316 M 12 248.179 L 49 282.648 M 54 287.306 L 55 288.238 M 69 301.28 L 71 303.143 M 76 307.801 L 78 309.665 M 81 312.459 L 84 315.254 M 0 237 L 2 238.979 M 5 241.946 L 10 246.893 M 12 248.871 L 49 285.474 M 59 295.366 L 60 296.356 M 66 302.291 L 67 303.281 M 73 309.216 L 78 314.162 M 80 316.141 L 83 319.109 M 88 324.055 L 93 329.001 M 111 346.808 L 118 353.733 M 0 237 L 2.8559 240 M 5.71181 243 L 10.4717 248 M 12.3756 250 L 17.1354 255 M 19.0394 257 L 49.5024 289 M 59.022 299 L 59.974 300 M 68.5417 309 L 70.4457 311 M 81.8693 323 L 84.7252 326 M 87.5811 329 L 116.14 359 M 0 237 L 2.68906 240 M 5.37812 243 L 10.7562 249 M 13.4453 252 L 17.9271 257 M 19.7198 259 L 50.1957 293 M 60.952 305 L 61.8483 306 M 68.1228 313 L 70.8119 316 M 72.6046 318 L 73.5009 319 M 77.0863 323 L 77.9827 324 M 81.5681 328 L 83.3608 330 M 87.8426 335 L 136.246 389 M 179.271 437 L 188.234 447 M 0 237 L 2.53095 240 M 5.0619 243 L 10.9675 250 M 12.6548 252 L 17.7167 258 M 19.404 260 L 50.619 297 M 59.0555 307 L 59.8992 308 M 66.6484 316 L 69.1793 319 M 72.5539 323 L 73.3976 324 M 76.7722 328 L 77.6159 329 M 80.1468 332 L 80.9905 333 M 82.6778 335 L 84.3651 337 M 86.0524 339 L 154.388 420 M 0 237 L 2.38065 240 M 5.55486 244 L 10.3162 250 M 13.4904 254 L 17.4581 259 M 19.0452 261 L 49.9937 300 M 61.1034 314 L 62.6905 316 M 65.0712 319 L 66.6583 321 M 68.2454 323 L 69.8325 325 M 72.2132 328 L 76.9745 334 M 79.3551 337 L 84.91 344 M 0 237 L 2.98313 241 M 5.22048 244 L 10.441 251 M 13.4241 255 L 17.8988 261 M 19.3903 263 L 50.7132 305 M 60.4084 318 L 62.6457 321 M 64.8831 324 L 66.3746 326 M 67.8662 328 L 68.612 329 M 72.3409 334 L 76.8156 340 M 78.3071 342 L 83.5276 349 M 85.765 352 L 173.767 470 M 0 237 L 2.80042 241 M 5.60084 245 L 10.5016 252 M 13.302 256 L 17.5026 262 M 19.6029 265 L 49.7074 308 M 58.8088 321 L 62.3093 326 M 64.4096 329 L 65.8099 331 M 67.9102 334 L 69.3104 336 M 72.1108 340 L 76.3114 346 M 0 237 L 2.62523 241 M 5.25046 245 L 10.5009 253 M 13.1261 257 L 49.8793 313 M 51.8483 316 L 55.7861 322 M 57.0987 324 L 61.6929 331 M 64.3181 335 L 75.4753 352 M 77.4442 355 L 148.982 464 M 0 237 L 2.45681 241 M 5.52781 246 L 10.4414 254 M 13.5124 259 L 49.7503 318 M 51.5929 321 L 55.8923 328 M 57.1207 330 L 61.4201 337 M 63.8769 341 L 138.81 463 M 140.038 465 L 141.881 468 M 0 237 L 2.8681 242 M 6.30982 248 L 10.8988 256 M 13.1933 260 L 16.0614 265 M 17.2086 267 L 17.7822 268 M 19.5031 271 L 56.2147 335 M 57.362 337 L 126.196 457 M 127.344 459 L 130.785 465 M 0 237 L 2.67206 242 M 6.41294 249 L 9.08499 254 M 10.1538 256 L 10.6882 257 M 13.3603 262 L 14.4291 264 M 16.5668 268 L 17.6356 270 M 19.2388 273 L 22.9797 280 M 24.0485 282 L 55.5788 341 M 56.6476 343 L 121.846 465 M 0 237 L 2.97865 243 M 6.45373 250 L 8.93594 255 M 9.92882 257 L 10.9217 259 M 14.3968 266 L 17.3754 272 M 19.3612 276 L 22.8363 283 M 0 237 L 2.75751 243 M 6.43419 251 L 10.5705 260 M 13.328 266 L 13.7876 267 M 16.0855 272 L 16.5451 273 M 19.3026 279 L 22.9793 287 M 0 237 L 2.54239 243 M 6.35598 252 L 8.89838 258 M 9.74584 260 L 10.5933 262 M 13.9832 270 L 16.9493 277 M 18.2205 280 L 22.8815 291 M 0 237 L 1.55512 241 M 6.22047 253 L 10.8858 265 M 14.3848 274 L 16.7175 280 M 0 237 L 1.41853 241 M 6.02876 254 L 9.92973 265 M 10.639 267 L 10.9936 268 M 14.1853 277 L 16.6678 284 M 0 237 L 1.28482 241 M 2.56965 245 L 2.89085 246 M 6.10291 256 L 10.921 271 M 12.2058 275 L 12.8482 277 M 13.4906 279 L 16.7027 289 M 18.3087 294 L 21.842 305 M 0 237 L 1.15367 241 M 2.30733 245 L 2.88417 247 M 6.05675 258 L 6.922 261 M 7.49883 263 L 10.9598 275 M 12.1135 279 L 16.7282 295 M 0 237 L 1.02476 241 M 1.53714 243 L 2.81809 248 M 6.91714 264 L 7.42952 266 M 8.19809 269 L 10.5038 278 M 12.0409 284 L 13.3219 289 M 14.0905 292 L 16.9086 303 M 18.1895 308 L 21.52 321 M 0 237 L 0.897823 241 M 1.34673 243 L 2.91792 250 M 6.0603 264 L 6.50922 266 M 7.18258 269 L 7.63149 271 M 8.08041 273 L 9.87605 281 M 12.1206 291 L 15.9364 308 M 0 237 L 2.51089 250 M 6.18066 269 L 6.37381 270 M 7.14639 274 L 9.85043 288 M 12.1682 300 L 12.5545 302 M 12.9408 304 L 15.838 319 M 16.6105 323 L 19.3146 337 M 0 237 L 2.10856 250 M 3.24393 257 L 3.89272 261 M 6.00128 274 L 6.65006 278 M 8.10983 287 L 9.89399 298 M 11.0294 305 L 14.7599 328 M 15.2465 331 L 17.8416 347 M 0 237 L 1.84166 251 M 2.76249 258 L 3.15714 261 M 5.91963 282 L 6.18272 284 M 7.10356 291 L 7.36665 293 M 7.76129 296 L 8.94522 305 M 10.2607 315 L 10.6553 318 M 11.05 321 L 12.8916 335 M 13.8125 342 L 14.9964 351 M 15.2595 353 L 15.9172 358 M 0 237 L 0.809113 245 M 1.01139 247 L 1.41595 251 M 2.12392 258 L 2.52848 262 M 2.83189 265 L 2.93303 266 M 5.46151 291 L 6.57404 302 M 6.87746 305 L 7.98999 316 M 8.19227 318 L 8.2934 319 M 9.00138 326 L 9.10252 327 M 9.3048 329 L 10.4173 340 M 10.7207 343 L 11.0242 346 M 0 237 L 0.567319 245 M 1.48921 258 L 1.70196 261 M 1.98562 265 L 2.05653 266 M 2.19836 268 L 2.55293 273 M 2.69476 275 L 2.90751 278 M 4.18398 296 L 4.25489 297 M 4.39672 299 L 4.75129 304 M 4.89312 306 L 5.95685 321 M 6.09868 323 L 6.16959 324 M 6.31142 326 L 6.666 331 M 7.1624 338 L 8.01338 350 M 8.15521 352 L 8.5807 358 M 0 237 L 0.326552 245 M 0.653104 253 L 0.979655 261 M 1.22457 267 L 2.48996 298 M 3.10224 313 L 3.2247 316 M 3.55125 324 L 3.63289 326 M 3.71453 328 L 3.79616 330 M 4.20435 340 L 4.40845 345 M 4.69418 352 L 4.9391 358 M 5.02073 360 L 5.42892 370 M 0 237 L 0.086374 245 M 0.172748 253 L 0.259122 261 M 0.334699 268 L 0.345496 269 M 0.410276 275 L 0.518244 285 M 0.550634 288 L 0.572228 290 M 0.604618 293 L 0.626211 295 M 0.658602 298 L 0.669398 299 M 0.701789 302 L 0.723382 304 M 0.798959 311 L 0.809756 312 M 0.831349 314 L 0.885333 319 M 0.906927 321 L 0.939317 324 M 1.07967 337 L 1.11206 340 M 1.13366 342 L 1.29561 357 M 0.13809 232 L 0.27618 227 M 0.414271 222 L 3.75605 101 M 3.89414 96 L 4.50174 74 M 0.288374 232 L 0.576748 227 M 0.865123 222 L 7.38238 109 M 7.49773 107 L 7.67075 104 M 8.13215 96 L 8.18983 95 M 8.30518 93 L 9.34332 75 M 0.439179 232 L 0.878359 227 M 1.31754 222 L 11.6822 104 M 11.8578 102 L 12.2092 98 M 12.5605 94 L 14.0537 77 M 0.590782 232 L 1.18156 227 M 1.77234 222 L 16.0693 101 M 16.3056 99 L 18.7869 78 M 0.743463 232 L 1.48693 227 M 2.0817 223 L 19.7761 104 M 20.0735 102 L 20.2222 101 M 20.817 97 L 23.3447 80 M 24.2369 74 L 34.348 6 M 0.897513 232 L 1.79503 227 M 2.33353 224 L 23.8738 104 M 25.1304 97 L 28.0024 81 M 1.05323 232 L 1.89582 228 M 2.7384 224 L 32.4395 83 M 1.21093 232 L 1.93749 229 M 3.14842 224 L 37.0545 84 M 1.09675 233 L 1.91932 230 M 3.01607 226 L 41.6766 85 M 1.22688 233 L 1.84032 231 M 3.06721 227 L 46.6215 85 M 1.01957 234 L 1.69929 232 M 3.05872 228 L 51.3185 86 M 1.12103 234 L 1.86839 232 M 3.3631 228 L 56.4254 86 M 1.2248 234 L 1.63306 233 M 3.26612 229 L 5.71571 223 M 6.94051 220 L 62.0563 85 M 1.33113 234 L 1.77484 233 M 3.54968 229 L 6.21194 223 M 7.09936 221 L 67.4439 85 M 1.44034 234 L 1.92045 233 M 3.8409 229 L 8.64202 219 M 9.60224 217 L 73.9373 83 M 1.03516 235 L 1.55273 234 M 4.14063 229 L 6.72852 224 M 7.76367 222 L 9.31641 219 M 10.8691 216 L 60.5566 120 M 67.8027 106 L 71.4258 99 M 72.4609 97 L 73.4961 95 M 74.5313 93 L 80.2246 82 M 1.11245 235 L 1.66868 234 M 4.44981 229 L 6.67472 225 M 8.3434 222 L 9.45585 220 M 11.1245 217 L 56.7351 135 M 1.19237 235 L 1.78856 234 M 4.17331 230 L 7.15424 225 M 8.34662 223 L 10.1352 220 M 11.3276 218 L 54.8492 145 M 1.27521 235 L 1.91281 234 M 4.46322 230 L 10.8393 220 M 12.1145 218 L 53.5587 153 M 109.03 66 L 112.218 61 M 130.071 33 L 131.346 31 M 1.36127 235 L 2.04191 234 M 4.08381 231 L 10.8902 221 M 12.2514 219 L 53.7702 158 M 1.45092 235 L 2.17639 234 M 4.35277 231 L 10.8819 222 M 12.3329 220 L 14.5092 217 M 16.6856 214 L 53.6842 163 M 150.896 29 L 153.073 26 M 1.54457 235 L 2.31685 234 M 4.6337 231 L 11.5843 222 M 13.1288 220 L 54.8322 166 M 161.407 28 L 170.675 16 M 1.64266 235 L 2.46398 234 M 4.10664 232 L 7.39195 228 M 9.0346 226 L 11.4986 223 M 13.1412 221 L 15.6052 218 M 17.2479 216 L 54.2076 171 M 1.7457 235 L 2.61855 234 M 4.36425 232 L 7.85565 228 M 9.60135 226 L 15.7113 219 M 17.457 217 L 19.2027 215 M 20.9484 213 L 55.8624 173 M 155.367 59 L 156.24 58 M 166.714 46 L 168.46 44 M 189.408 20 L 195.518 13 M 1.85429 235 L 2.78143 234 M 4.63572 232 L 55.6286 177 M 155.76 69 L 163.177 61 M 168.74 55 L 169.667 54 M 177.085 46 L 183.575 39 M 197.482 24 L 200.263 21 M 1.96909 235 L 2.95364 234 M 4.92273 232 L 16.7373 220 M 18.7064 218 L 20.6755 216 M 22.6446 214 L 57.1037 179 M 153.589 81 L 154.574 80 M 0 237 L 2 235.087 M 4 233.174 L 12 225.522 M 14 223.609 L 16 221.695 M 18 219.782 L 25 213.087 M 27 211.174 L 57 182.478 M 203 42.8239 L 205 40.9108 M 0 237 L 2 235.199 M 4 233.397 L 12 226.192 M 14 224.391 L 21 218.086 M 23 216.285 L 25 214.483 M 27 212.682 L 58 184.761 M 197 59.568 L 199 57.7666 M 204 53.2633 L 205 52.3626 M 207 50.5612 L 209 48.7599 M 230 29.8458 L 252 10.0311 M 0 237 L 2 235.305 M 4 233.609 L 12 226.827 M 14 225.132 L 17 222.588 M 19 220.893 L 21 219.197 M 23 217.502 L 25 215.806 M 28 213.263 L 30 211.568 M 32 209.872 L 59 186.983 M 215 54.7341 L 218 52.1909 M 238 35.2359 L 239 34.3882 M 241 32.6927 L 255 20.8242 M 0 237 L 2 235.405 M 4 233.81 L 12 227.431 M 14 225.836 L 17 223.443 M 19 221.848 L 26 216.266 M 28 214.671 L 60 189.153 M 218 63.1555 L 219 62.358 M 246 40.8268 L 255 33.6498 M 0 237 L 2 235.501 M 4 234.002 L 8 231.004 M 10 229.505 L 17 224.258 M 19 222.759 L 22 220.511 M 24 219.012 L 26 217.513 M 29 215.264 L 35 210.767 M 37 209.268 L 60 192.03 M 0 237 L 2 235.593 M 4 234.185 L 8 231.371 M 10 229.963 L 13 227.852 M 15 226.445 L 22 221.519 M 24 220.112 L 27 218.001 M 29 216.594 L 36 211.668 M 38 210.261 L 61 194.076 M 0 237 L 2 235.681 M 4 234.361 L 8 231.722 M 10 230.403 L 13 228.424 M 15 227.104 L 23 221.826 M 25 220.507 L 27 219.187 M 29 217.868 L 32 215.889 M 34 214.569 L 45 207.312 M 47 205.993 L 50 204.013 M 52 202.694 L 61 196.756 M 0 237 L 2 235.765 M 4 234.53 L 8 232.06 M 10 230.825 L 13 228.973 M 15 227.738 L 18 225.885 M 20 224.65 L 23 222.798 M 25 221.563 L 28 219.71 M 30 218.475 L 61 199.333 M 0 237 L 2 235.846 M 4 234.693 L 8 232.386 M 10 231.232 L 13 229.502 M 15 228.348 L 18 226.618 M 20 225.464 L 23 223.734 M 25 222.58 L 28 220.85 M 30 219.696 L 33 217.966 M 35 216.812 L 38 215.082 M 40 213.928 L 42 212.774 M 44 211.621 L 59 202.969 M 291 69.1515 L 302 62.8067 M 0 237 L 2 235.925 M 4 234.85 L 8 232.7 M 10 231.625 L 13 230.013 M 15 228.938 L 18 227.325 M 20 226.25 L 47 211.738 M 49 210.663 L 59 205.288 M 298 76.829 L 302 74.679 M 0 237 L 2 236.001 M 4 235.002 L 8 233.005 M 10 232.006 L 18 228.01 M 20 227.012 L 60 207.035 M 0 237 L 2 236.075 M 4 235.15 L 8 233.3 M 10 232.375 L 55 211.563 M 57 210.639 L 58 210.176 M 0 237 L 2 236.147 M 4 235.294 L 8 233.588 M 10 232.734 L 19 228.895 M 21 228.042 L 24 226.763 M 26 225.91 L 55 213.54 M 57 212.686 L 60 211.407 M 324 98.7968 L 328 97.0906 M 0 237 L 2 236.217 M 4 235.434 L 8 233.868 M 10 233.085 L 19 229.561 M 21 228.778 L 24 227.603 M 26 226.82 L 59 213.9 M 327 108.969 L 347 101.138 M 0 237 L 2 236.285 M 4 235.571 L 8 234.141 M 10 233.427 L 19 230.211 M 21 229.496 L 24 228.424 M 26 227.71 L 59 215.918 M 0 237 L 2 236.352 M 4 235.705 L 8 234.409 M 10 233.762 L 14 232.466 M 16 231.819 L 19 230.847 M 21 230.199 L 24 229.228 M 26 228.58 L 59 217.893 M 68 214.979 L 69 214.655 M 0 237 L 2 236.418 M 4 235.836 L 8 234.672 M 10 234.09 L 14 232.926 M 16 232.344 L 19 231.471 M 21 230.889 L 25 229.725 M 27 229.143 L 58 220.122 M 61 219.249 L 62 218.958 M 115 203.534 L 116 203.243 M 119 202.37 L 122 201.497 M 0 237 L 2 236.483 M 4 235.965 L 8 234.93 M 10 234.413 L 19 232.084 M 21 231.567 L 25 230.532 M 27 230.014 L 30 229.238 M 32 228.72 L 36 227.685 M 38 227.168 L 58 221.993 M 61 221.217 L 62 220.958 M 106 209.574 L 113 207.763 M 115 207.245 L 132 202.847 M 0 237 L 2 236.546 M 4 236.092 L 8 235.184 M 10 234.73 L 56 224.29 M 61 223.155 L 63 222.701 M 106 212.942 L 108 212.488 M 115 210.899 L 118 210.218 M 120 209.764 L 123 209.083 M 127 208.175 L 130 207.494 M 133 206.813 L 137 205.906 M 0 237 L 2 236.609 M 4 236.218 L 8 235.435 M 11 234.848 L 58 225.654 M 60 225.263 L 63 224.676 M 115 214.503 L 132 211.178 M 134 210.786 L 136 210.395 M 0 237 L 2 236.671 M 4 236.341 L 8 235.683 M 11 235.189 L 31 231.896 M 33 231.567 L 58 227.45 M 61 226.956 L 64 226.462 M 117 217.736 L 118 217.571 M 123 216.748 L 131 215.431 M 212 202.094 L 216 201.436 M 222 200.448 L 234 198.472 M 0 237 L 2 236.732 M 4 236.464 L 8 235.928 M 11 235.526 L 57 229.363 M 202 209.936 L 203 209.802 M 219 207.659 L 229 206.319 M 0 237 L 2 236.793 M 4 236.586 L 9 236.068 M 11 235.861 L 57 231.097 M 60 230.787 L 64 230.373 M 0 237 L 2 236.853 M 4 236.707 L 9 236.34 M 11 236.194 L 26 235.094 M 28 234.947 L 57 232.821 M 63 232.381 L 64 232.308 M 0 237 L 2 236.914 M 4 236.827 L 9 236.611 M 11 236.525 L 15 236.352 M 17 236.265 L 26 235.876 M 28 235.79 L 57 234.537 M 59 234.45 L 64 234.234 M 0 237 L 2 236.974 M 4 236.947 L 9 236.881 M 11 236.855 L 15 236.802 M 17 236.776 L 56 236.262 M 59 236.222 L 64 236.156 M 357 237 L 357.356 270 M 357.626 295 L 357.68 300 M 357 237 L 356.424 267 M 355.848 297 L 354.388 373 M 354.33 376 L 354.234 381 M 354.081 389 L 354.042 391 M 357 237 L 355.572 266 M 354.095 296 L 353.011 318 M 350.106 377 L 350.007 379 M 357 237 L 354.778 265 M 352.873 289 L 352.079 299 M 345.095 387 L 344.698 392 M 357 237 L 354.04 264 M 351.737 285 L 351.079 291 M 346.584 332 L 346.475 333 M 341.65 377 L 340.225 390 M 357 237 L 353.357 263 M 350.975 280 L 349.995 287 M 337.945 373 L 337.805 374 M 357 237 L 352.9 261 M 350.679 274 L 350.508 275 M 349.996 278 L 348.8 285 M 338.208 347 L 338.037 348 M 333.766 373 L 330.349 393 M 357 237 L 352.155 261 M 349.934 272 L 347.915 282 M 333.986 351 L 333.784 352 M 331.563 363 L 331.361 364 M 357 237 L 351.634 260 M 348.834 272 L 346.968 280 M 330.403 351 L 326.204 369 M 325.737 371 L 321.538 389 M 357 237 L 351.166 259 M 348.78 268 L 346.128 278 M 334.461 322 L 333.93 324 M 329.953 339 L 329.157 342 M 357 237 L 350.454 259 M 348.074 267 L 345.693 275 M 336.469 306 L 336.172 307 M 329.923 328 L 329.626 329 M 329.031 331 L 328.733 332 M 327.245 337 L 326.65 339 M 324.865 345 L 305.227 411 M 357 237 L 350.059 258 M 347.085 267 L 344.441 275 M 333.534 308 L 333.204 309 M 330.89 316 L 330.56 317 M 329.899 319 L 322.627 341 M 357 237 L 349.717 257 M 346.44 266 L 344.256 272 M 335.152 297 L 334.424 299 M 330.783 309 L 323.136 330 M 357 237 L 349.03 257 M 345.842 265 L 343.053 272 M 331.895 300 L 324.324 319 M 323.527 321 L 322.73 323 M 321.933 325 L 269.731 456 M 357 237 L 348.76 256 M 346.592 261 L 343.122 269 M 357 237 L 348.074 256 M 345.725 261 L 342.436 268 M 332.57 289 L 259.28 445 M 357 237 L 348.382 254 M 344.833 261 L 341.791 267 M 333.68 283 L 333.173 284 M 331.652 287 L 256.114 436 M 357 237 L 347.73 254 M 344.459 260 L 341.187 266 M 334.644 278 L 331.918 283 M 330.827 285 L 253.944 426 M 357 237 L 346.473 255 M 344.718 258 L 341.209 264 M 334.776 275 L 254.067 413 M 357 237 L 345.735 255 M 344.483 257 L 340.102 264 M 335.721 271 L 256.24 398 M 357 237 L 345.637 254 M 343.632 257 L 339.622 263 M 335.611 269 L 259.413 383 M 357 237 L 344.884 254 M 343.459 256 L 338.47 263 M 336.331 266 L 261.497 371 M 357 237 L 266.685 356 M 357 237 L 338.431 260 M 336.816 262 L 272.229 342 M 187.458 447 L 170.503 468 M 357 237 L 337.263 260 M 335.546 262 L 321.816 278 M 320.1 280 L 319.242 281 M 306.369 296 L 281.483 325 M 357 237 L 336.944 259 M 333.298 263 L 322.358 275 M 302.302 297 L 288.628 312 M 175.586 436 L 150.06 464 M 357 237 L 335.701 259 M 330.861 264 L 324.084 271 M 299.881 296 L 290.199 306 M 168.216 432 L 135.3 466 M 133.363 468 L 132.395 469 M 357 237 L 333 260.346 M 330 263.265 L 326 267.156 M 297 295.366 L 291 301.202 M 160 428.634 L 127 460.736 M 125 462.681 L 124 463.654 M 357 237 L 334 258.068 M 331 260.816 L 328 263.564 M 295 293.793 L 292 296.541 M 155 422.035 L 122 452.263 M 357 237 L 335 255.971 M 331 259.42 L 328 262.007 M 293 292.187 L 292 293.05 M 357 237 L 334 255.66 M 331 258.094 L 330 258.905 M 357 237 L 334 254.543 M 357 237 L 333 254.192 M 357 237 L 332 253.797 M 357 237 L 333 252.1 M 357 237 L 333 251.113 M 357 237 L 333 250.161 M 357 237 L 334 248.729 M 357 237 L 334 247.873 M 116 350.927 L 93 361.8 M 357 237 L 334 247.04 M 219 297.241 L 210 301.169 M 109 345.258 L 102 348.314 M 100 349.187 L 70 362.283 M 357 237 L 334 246.229 M 102 339.321 L 94 342.532 M 357 237 L 335 245.07 M 96 332.744 L 95 333.111 M 93 333.844 L 86 336.412 M 84 337.146 L 79 338.98 M 76 340.08 L 64 344.482 M 62 345.216 L 16 362.091 M 14 362.824 L 8 365.025 M 357 237 L 335 244.329 M 90 325.953 L 87 326.953 M 82 328.618 L 80 329.285 M 77 330.284 L 74 331.284 M 66 333.949 L 64 334.615 M 61 335.615 L 19 349.607 M 17 350.274 L 12 351.939 M 9 352.939 L 4 354.605 M 357 237 L 335 243.603 M 163 295.229 L 157 297.03 M 152 298.53 L 150 299.131 M 146 300.331 L 137 303.033 M 86 318.34 L 82 319.541 M 69 323.443 L 64 324.943 M 62 325.544 L 57 327.044 M 55 327.645 L 21 337.85 M 18 338.75 L 14 339.951 M 4 342.952 L 1 343.853 M 357 237 L 336 242.622 M 129 298.042 L 127 298.577 M 82 310.625 L 81 310.893 M 78 311.696 L 73 313.035 M 70 313.838 L 68 314.373 M 62 315.98 L 60 316.515 M 53 318.389 L 51 318.925 M 49 319.46 L 16 328.295 M 14 328.831 L 12 329.366 M 10 329.901 L 9 330.169 M 6 330.972 L 5 331.24 M 357 237 L 336 241.952 M 79 302.559 L 74 303.738 M 71 304.446 L 70 304.681 M 67 305.389 L 66 305.625 M 61 306.804 L 59 307.276 M 55 308.219 L 53 308.69 M 49 309.634 L 17 317.18 M 15 317.652 L 10 318.831 M 8 319.303 L 4 320.246 M 357 237 L 336 241.292 M 79 293.814 L 75 294.632 M 72 295.245 L 67 296.267 M 60 297.697 L 59 297.902 M 50 299.741 L 23 305.259 M 21 305.668 L 18 306.281 M 15 306.894 L 11 307.712 M 7 308.529 L 4 309.142 M 357 237 L 336 240.639 M 79 285.177 L 76 285.696 M 73 286.216 L 68 287.083 M 65 287.603 L 64 287.776 M 62 288.123 L 61 288.296 M 49 290.375 L 24 294.708 M 22 295.054 L 18 295.748 M 16 296.094 L 12 296.787 M 9 297.307 L 6 297.827 M 357 237 L 336 239.993 M 78 276.77 L 77 276.913 M 74 277.341 L 72 277.626 M 70 277.911 L 69 278.053 M 66 278.481 L 63 278.909 M 55 280.049 L 54 280.192 M 49 280.904 L 24 284.468 M 22 284.753 L 18 285.323 M 16 285.608 L 12 286.179 M 9 286.606 L 8 286.749 M 357 237 L 336 239.353 M 159 259.188 L 152 259.972 M 75 268.6 L 70 269.161 M 66 269.609 L 65 269.721 M 59 270.393 L 55 270.842 M 51 271.29 L 19 274.876 M 16 275.212 L 14 275.436 M 10 275.884 L 6 276.332 M 357 237 L 336 238.717 M 72 260.306 L 71 260.387 M 69 260.551 L 64 260.96 M 60 261.287 L 57 261.532 M 53 261.859 L 19 264.64 M 17 264.803 L 15 264.967 M 11 265.294 L 6 265.703 M 357 237 L 336 238.084 M 69 251.872 L 65 252.078 M 62 252.233 L 58 252.44 M 54 252.646 L 13 254.764 M 10 254.919 L 6 255.125 M 357 237 L 336 237.454 M 61 243.392 L 59 243.436 M 52 243.587 L 24 244.191 M 22 244.235 L 18 244.321 M 16 244.364 L 12 244.451 M 9 244.515 L 5 244.602 M 357 237 L 336 236.823 M 64 234.537 L 59 234.495 M 57 234.478 L 10 234.083 M 8 234.066 L 4 234.032 M 2 234.015 L 1 234.007 M 357 237 L 336 236.193 M 64 225.741 L 60 225.587 M 58 225.511 L 19 224.012 M 17 223.935 L 8 223.589 M 6 223.512 L 2 223.359 M 357 237 L 336 235.561 M 59 216.583 L 34 214.87 M 32 214.733 L 28 214.459 M 357 237 L 337 235.025 M 133 214.885 L 115 213.108 M 108 212.417 L 104 212.022 M 60 207.678 L 47 206.395 M 357 237 L 337 234.418 M 137 208.594 L 134 208.207 M 130 207.69 L 127 207.303 M 124 206.916 L 110 205.108 M 357 237 L 336 233.645 M 357 237 L 336 232.996 M 357 237 L 336 232.339 M 230 208.813 L 219 206.371 M 357 237 L 336 231.673 M 227 204.026 L 224 203.265 M 216 201.236 L 212 200.221 M 357 237 L 336 230.998 M 231 200.985 L 218 197.27 M 357 237 L 336 230.31 M 357 237 L 336 229.609 M 357 237 L 336 228.893 M 59 121.962 L 12 103.819 M 6 101.503 L 4 100.731 M 357 237 L 336 228.161 M 357 237 L 336 227.409 M 357 237 L 336 226.637 M 73 96.8554 L 52 86.4926 M 357 237 L 336 225.842 M 77 88.2236 L 70 84.5042 M 357 237 L 336 225.021 M 357 237 L 336 224.171 M 357 237 L 337 223.942 M 357 237 L 337 223.069 M 357 237 L 337 222.159 M 133 70.776 L 132 70.034 M 116 58.1608 L 115 57.4188 M 357 237 L 337 221.207 M 155 77.4876 L 154 76.698 M 357 237 L 338 221.048 M 158 69.9257 L 156 68.2465 M 357 237 L 338 220.051 M 162 63.0496 L 156 57.6973 M 133 37.18 L 132 36.288 M 357 237 L 338 218.999 M 165 55.0945 L 163 53.1996 M 357 237 L 338.114 218 M 170.128 49 L 166.152 45 M 357 237 L 339.215 218 M 181.019 49 L 173.531 41 M 357 237 L 339.374 217 M 199.247 58 L 197.484 56 M 183.383 40 L 182.502 39 M 357 237 L 339.583 216 M 218.497 70 L 217.667 69 M 206.886 56 L 204.398 53 M 357 237 L 339.061 214 M 220.511 62 L 218.951 60 M 210.371 49 L 209.591 48 M 207.252 45 L 203.352 40 M 357 237 L 338.68 212 M 335.017 207 L 334.284 206 M 200.185 23 L 196.521 18 M 357 237 L 334.308 204 M 215.344 31 L 213.969 29 M 212.594 27 L 199.528 8 M 357 237 L 334.448 202 M 357 237 L 335.303 201 M 237.066 38 L 236.464 37 M 357 237 L 335.063 198 M 357 237 L 335.007 195 M 357 237 L 334.158 190 M 258.341 34 L 257.855 33 M 357 237 L 333.18 184 M 357 237 L 334.238 182 M 357 237 L 334.252 177 M 293.306 69 L 292.168 66 M 357 237 L 334.217 171 M 301.423 76 L 299.007 69 M 298.317 67 L 296.245 61 M 357 237 L 334.227 164 M 305.215 71 L 303.032 64 M 302.408 62 L 300.224 55 M 357 237 L 334.374 156 M 308.955 65 L 308.676 64 M 357 237 L 335.489 150 M 322.632 98 L 322.385 97 M 357 237 L 338.024 149 M 337.377 146 L 337.161 145 M 336.73 143 L 336.083 140 M 334.358 132 L 333.711 129 M 330.476 114 L 330.26 113 M 329.614 110 L 328.32 104 M 327.457 100 L 326.81 97 M 357 237 L 339.478 142 M 338.741 138 L 335.974 123 M 335.421 120 L 331.916 101 M 331.547 99 L 331.363 98 M 357 237 L 343.331 148 M 342.717 144 L 336.113 101 M 357 237 L 340.271 101 M 357 237 L 344.399 101 M 357 237 L 348.504 101 M 357 237 L 352.594 101 M 357 237 L 356.675 101 M 322 276.576 L 343 282.388 M 319 280.307 L 342 287.422 M 315 288.191 L 349 300.988 M 312 291.67 L 349 306.879 M 309 295.054 L 348 312.471 M 292 291.585 L 298 294.484 M 291 299.648 L 348 331.532 M 290 303.537 L 348 338.304 M 223 265.203 L 226 267.126 M 228 268.407 L 231 270.33 M 233 271.612 L 235 272.894 M 222 266.418 L 239 278.048 M 288 311.571 L 348 352.619 M 231 274.914 L 239 280.747 M 286 315.015 L 349 360.95 M 234 279.686 L 241 285.119 M 237 284.869 L 242 288.996 M 240 290.501 L 241 291.378 M 234 291.409 L 236 293.388 M 230.406 291 L 235.166 296 M 228.299 292 L 233.678 298 M 227.088 294 L 230.463 298 M 195.665 258 L 196.458 259 M 224.232 294 L 227.407 298 M 193.916 257 L 196.153 260 M 222.255 295 L 225.239 299 M 193.002 257 L 195.102 260 M 219.606 295 L 223.107 300 M 192.126 257 L 194.751 261 M 216.41 294 L 221.004 301 M 191.284 257 L 193.127 260 M 214.009 294 L 218.923 302 M 189.899 256 L 192.193 260 M 211.696 294 L 216.859 303 M 189.154 256 L 191.291 260 M 208.927 293 L 214.271 303 M 188.432 256 L 190.418 260 M 206.801 293 L 209.283 298 M 210.276 300 L 211.765 303 M 187.732 256 L 189.57 260 M 204.737 293 L 206.116 296 M 187.051 256 L 188.746 260 M 202.305 292 L 204.424 297 M 186.387 256 L 187.942 260 M 200.383 292 L 202.716 298 M 185.738 256 L 187.157 260 M 198.15 291 L 200.987 299 M 202.406 303 L 202.76 304 M 185.103 256 L 186.388 260 M 196.345 291 L 198.272 297 M 200.2 303 L 200.521 304 M 184.48 256 L 185.345 259 M 194.286 290 L 196.017 296 M 183.868 256 L 184.636 259 M 192.578 290 L 194.115 296 M 183.265 256 L 183.938 259 M 190.896 290 L 192.243 296 M 182.863 257 L 183.249 259 M 189.237 290 L 190.396 296 M 182.244 257 L 182.406 258 M 187.596 290 L 188.407 295 M 201.059 373 L 201.383 375 M 181.631 257 L 181.762 258 M 185.972 290 L 186.761 296 M 196.364 369 L 197.417 377 M 197.68 379 L 197.811 380 M 181.023 257 L 181.124 258 M 184.36 290 L 184.866 295 M 192.047 366 L 193.867 384 M 180.418 257 L 180.489 258 M 182.758 290 L 183.113 295 M 188.077 365 L 189.495 385 M 181.163 290 L 181.368 295 M 184.225 365 L 185 384 M 179.572 290 L 179.637 296 M 179.918 322 L 179.929 323 M 180.404 367 L 180.576 383 M 177.982 290 L 177.848 297 M 177.367 322 L 177.348 323 M 176.522 366 L 176.196 383 M 176.39 290 L 175.996 298 M 175.553 307 L 175.504 308 M 174.814 322 L 174.765 323 M 172.648 366 L 171.81 383 M 174.714 291 L 174.079 299 M 173.523 306 L 173.365 308 M 172.254 322 L 172.174 323 M 168.761 366 L 167.491 382 M 175.93 265 L 175.82 266 M 173.079 291 L 172.312 298 M 169.681 322 L 169.461 324 M 164.856 366 L 163.212 381 M 175.077 265 L 174.937 266 M 171.434 291 L 170.593 297 M 167.091 322 L 166.81 324 M 161.066 365 L 158.964 380 M 174.217 265 L 173.875 267 M 169.946 290 L 168.921 296 M 164.479 322 L 164.137 324 M 157.304 364 L 154.912 378 M 173.347 265 L 172.944 267 M 168.3 290 L 167.089 296 M 164.666 308 L 164.465 309 M 161.84 322 L 161.436 324 M 153.361 364 L 150.939 376 M 172.468 265 L 172.001 267 M 166.635 290 L 165.235 296 M 162.902 306 L 161.969 310 M 149.837 362 L 147.037 374 M 171.84 264 L 171.045 267 M 164.946 290 L 162.825 298 M 160.969 305 L 159.643 310 M 146.119 361 L 143.202 372 M 170.966 264 L 170.074 267 M 163.23 290 L 159.957 301 M 158.767 305 L 157.279 310 M 142.699 359 L 139.724 369 M 170.737 262 L 169.085 267 M 161.483 290 L 158.178 300 M 156.526 305 L 154.543 311 M 139.339 357 L 136.034 367 M 170.989 259 L 170.625 260 M 169.897 262 L 168.076 267 M 160.065 289 L 156.424 299 M 154.968 303 L 152.055 311 M 136.033 355 L 132.392 365 M 170.632 258 L 167.045 267 M 158.279 289 L 148.316 314 M 132.775 353 L 128.79 363 M 169.893 258 L 166.423 266 M 156.448 289 L 146.04 313 M 129.994 350 L 124.356 363 M 169.604 257 L 165.376 266 M 154.57 289 L 144.234 311 M 168.861 257 L 164.298 266 M 152.131 290 L 142.499 309 M 168.64 256 L 163.187 266 M 150.101 290 L 140.286 308 M 167.888 256 L 162.039 266 M 148.003 290 L 138.061 307 M 167.735 255 L 160.851 266 M 145.205 291 L 135.817 306 M 166.969 255 L 161.622 263 M 142.906 291 L 134.217 304 M 166.884 254 L 160.47 263 M 139.801 292 L 132.674 302 M 166.098 254 L 159.267 263 M 136.499 293 L 130.427 301 M 165.275 254 L 157.202 264 M 133.789 293 L 128.137 300 M 164.412 254 L 155.83 264 M 130.086 294 L 124.937 300 M 163.502 254 L 152.563 266 M 127.037 294 L 121.567 300 M 162.542 254 L 151.893 265 M 123.817 294 L 120.913 297 M 161 254.51 L 150 265.21 M 121 293.42 L 120 294.393 M 160 254.404 L 149 264.48 M 160 253.384 L 147 264.594 M 159 253.226 L 147 262.962 M 159 252.254 L 146 262.17 M 119 282.763 L 112 288.102 M 158 252.043 L 145 261.355 M 125 275.681 L 111 285.709 M 158 251.109 L 144 260.515 M 127 271.937 L 110 283.359 M 156 251.471 L 153 253.358 M 148 256.504 L 144 259.021 M 128 269.088 L 117 276.009 M 155 251.113 L 153 252.29 M 128 266.991 L 126 268.167 M 155 250.161 L 154 250.709 M 82 250.827 L 81 250.97 M 82 247.87 L 80 248.094 M 75 248.654 L 72 248.99 M 82 244.932 L 78 245.259 M 74 245.586 L 72 245.75 M 81 242.061 L 76 242.319 M 74 242.422 L 72 242.525 M 81 239.116 L 71 239.332 M 80 236.168 L 71 236.092 M 109 216.992 L 108 216.706 M 105 215.849 L 100 214.419 M 81 208.989 L 80 208.703 M 78 208.131 L 77 207.845 M 125 219.797 L 115 216.611 M 110 215.019 L 102 212.47 M 82 206.098 L 74 203.55 M 130 219.755 L 115 214.475 M 111 213.068 L 103 210.252 M 101 209.548 L 100 209.196 M 80 202.157 L 71 198.99 M 67 197.582 L 66 197.23 M 133 219.243 L 101 206.89 M 81 199.169 L 76 197.239 M 73 196.081 L 69 194.536 M 136 218.901 L 107 206.694 M 105 205.852 L 102 204.589 M 88 198.697 L 86 197.855 M 83 196.592 L 82 196.171 M 80 195.329 L 74 192.804 M 70 191.12 L 66 189.436 M 137 217.819 L 108 204.575 M 106 203.661 L 105 203.205 M 90 196.354 L 83 193.157 M 79 191.331 L 73 188.59 M 137 216.274 L 113 204.431 M 109 202.457 L 107 201.47 M 91 193.575 L 86 191.108 M 78 187.16 L 71 183.706 M 138 215.215 L 127 209.37 M 124 207.776 L 115 202.994 M 111 200.869 L 110 200.337 M 94 191.836 L 89 189.179 M 82 185.46 L 79 183.866 M 76 182.272 L 70 179.083 M 138 213.612 L 118 202.203 M 114 199.921 L 113 199.35 M 96 189.653 L 92 187.371 M 82 181.666 L 75 177.673 M 73 176.532 L 72 175.962 M 70 174.821 L 68 173.68 M 138 211.952 L 121 201.567 M 98 187.516 L 94 185.072 M 81 177.13 L 76 174.076 M 71 171.021 L 70 170.41 M 138 210.231 L 124 201.091 M 120 198.479 L 118 197.173 M 100 185.421 L 96 182.81 M 81 173.016 L 75 169.099 M 73 167.793 L 71 166.487 M 147 214.71 L 145 213.317 M 138 208.441 L 128 201.476 M 123 197.993 L 122 197.297 M 104 184.759 L 98 180.579 M 77 165.952 L 76 165.255 M 72 162.469 L 71 161.773 M 149 214.738 L 145 211.77 M 138 206.575 L 131 201.381 M 126 197.67 L 124 196.186 M 110 185.797 L 100 178.376 M 149 213.31 L 135 202.255 M 129 197.517 L 127 195.937 M 113 184.882 L 104 177.775 M 150 212.652 L 143 206.775 M 132 197.54 L 129 195.022 M 118 185.786 L 112 180.749 M 110 179.07 L 107 176.551 M 148 209.346 L 147 208.454 M 136 198.642 L 132 195.073 M 119 183.477 L 110 175.448 M 139 199.103 L 134 194.366 M 122 182.997 L 110 171.628 M 61 125.204 L 6 73.0955 M 145.204 203 L 136.258 194 M 123.336 181 L 110.414 168 M 89.54 147 L 88.546 146 M 63.696 121 L 19.9601 77 M 149.046 205 L 138.749 194 M 123.772 178 L 113.475 167 M 88.2013 140 L 87.2653 139 M 64.7996 115 L 32.9733 81 M 151.68 206 L 141.985 195 M 125.24 176 L 114.665 164 M 89.107 135 L 87.3444 133 M 65.3119 108 L 44.1606 84 M 152.46 205 L 148.314 200 M 126.75 174 L 117.627 163 M 71.1832 107 L 70.3538 106 M 68.6951 104 L 52.9372 85 M 130.644 175 L 118.165 159 M 75.268 104 L 60.4491 85 M 132.835 174 L 119.645 156 M 80.8075 103 L 80.0747 102 M 77.8763 99 L 66.8846 84 M 133.615 171 L 120.55 152 M 87.5426 104 L 85.4796 101 M 134.54 168 L 121.009 147 M 90.0805 99 L 88.1475 96 M 82.9927 88 L 78.4823 81 M 136.812 167 L 123.553 145 M 95.8299 99 L 95.2272 98 M 92.8165 94 L 89.2004 88 M 137.938 164 L 125 141 M 110.938 116 L 110.375 115 M 104.75 105 L 104.188 104 M 101.375 99 L 100.25 97 M 98.5626 94 L 98.0001 93 M 95.7501 89 L 91.2501 81 M 139.726 162 L 127.159 138 M 116.686 118 L 115.115 115 M 113.544 112 L 111.973 109 M 107.783 101 L 105.165 96 M 99.405 85 L 95.2158 77 M 140.606 158 L 137.204 151 M 130.886 138 L 129.427 135 M 122.137 120 L 118.249 112 M 116.791 109 L 115.819 107 M 111.931 99 L 107.557 90 M 105.613 86 L 105.127 85 M 141.696 154 L 140.348 151 M 125.067 117 L 121.022 108 M 116.977 99 L 116.528 98 M 115.179 95 L 111.584 87 M 141.753 147 L 140.926 145 M 139.684 142 L 138.029 138 M 126.855 111 L 123.13 102 M 120.647 96 L 119.406 93 M 117.75 89 L 115.267 83 M 113.198 78 L 112.784 77 M 140.328 135 L 137.295 127 M 129.334 106 L 126.301 98 M 123.647 91 L 122.509 88 M 121.751 86 L 119.097 79 M 146.897 144 L 145.171 139 M 141.719 129 L 139.302 122 M 133.434 105 L 130.327 96 M 126.875 86 L 126.185 84 M 125.149 81 L 122.733 74 M 122.043 72 L 121.697 71 M 121.007 69 L 120.317 67 M 146.869 134 L 146.245 132 M 143.125 122 L 141.253 116 M 136.886 102 L 135.326 97 M 134.702 95 L 134.078 93 M 128.775 76 L 126.903 70 M 125.344 65 L 124.72 63 M 122.224 55 L 120.664 50 M 147.994 126 L 147.156 123 M 145.201 116 L 143.525 110 M 142.966 108 L 142.687 107 M 139.894 97 L 137.659 89 M 135.983 83 L 135.704 82 M 133.748 75 L 133.469 74 M 132.91 72 L 131.234 66 M 129.838 61 L 129.279 59 M 154.769 139 L 154.028 136 M 147.846 111 L 146.61 106 M 145.868 103 L 144.632 98 M 143.396 93 L 141.665 86 M 139.934 79 L 139.44 77 M 137.462 69 L 135.484 61 M 134.495 57 L 134 55 M 157.867 139 L 154.201 122 M 149.026 98 L 147.516 91 M 146.869 88 L 144.713 78 M 144.282 76 L 143.85 74 M 141.694 64 L 139.969 56 M 138.891 51 L 138.675 50 M 161.847 144 L 157.052 118 M 152.256 92 L 147.83 68 M 145.985 58 L 144.879 52 M 142.481 39 L 142.297 38 M 164.564 143 L 163.335 135 M 162.567 130 L 162.413 129 M 161.953 126 L 161.492 123 M 155.963 87 L 151.816 60 M 151.356 57 L 149.973 48 M 167.438 143 L 166.823 138 M 166.577 136 L 165.47 127 M 165.224 125 L 165.101 124 M 159.442 78 L 155.26 44 M 170.569 146 L 167.882 117 M 163.898 74 L 160.933 42 M 173.253 145 L 173.003 141 M 172.878 139 L 172.003 125 M 168.255 65 L 166.693 40 M 166.069 30 L 166.006 29 M 176.116 148 L 176.052 146 M 175.987 144 L 175.76 137 M 173.362 63 L 173.265 60 M 173.2 58 L 172.52 37 M 178.773 142 L 178.768 140 M 178.704 113 L 178.639 86 M 178.596 68 L 178.515 34 M 181.292 154 L 181.32 153 M 181.375 151 L 181.403 150 M 182.756 101 L 183.06 90 M 184.026 55 L 184.192 49 M 184.275 46 L 184.606 34 M 184.855 25 L 184.883 24 M 183.614 157 L 184.075 149 M 187.248 94 L 187.882 83 M 188.055 80 L 188.92 65 M 189.612 53 L 189.843 49 M 189.958 47 L 190.766 33 M 185.939 158 L 186.203 155 M 192.527 83 L 193.581 71 M 194.02 66 L 194.196 64 M 195.074 54 L 195.25 52 M 195.864 45 L 195.952 44 M 188.098 160 L 188.334 158 M 197.551 80 L 197.669 79 M 198.732 70 L 198.968 68 M 199.205 66 L 200.859 52 M 201.332 48 L 201.45 47 M 202.04 42 L 202.749 36 M 190.449 160 L 190.747 158 M 200.263 94 L 200.412 93 M 203.237 74 L 204.129 68 M 205.17 61 L 208.739 37 M 192.463 162 L 193.36 157 M 206.464 84 L 206.643 83 M 209.336 68 L 210.054 64 M 210.592 61 L 210.772 60 M 211.131 58 L 211.31 57 M 212.028 53 L 213.464 45 M 213.823 43 L 214.901 37 M 194.588 163 L 195.43 159 M 212.071 80 L 212.703 77 M 214.178 70 L 215.231 65 M 215.652 63 L 216.495 59 M 216.916 57 L 219.865 43 M 220.919 38 L 221.551 35 M 196.68 164 L 197.164 162 M 219.445 70 L 222.109 59 M 198.467 166 L 199.29 163 M 224.789 70 L 229.176 54 M 200.47 167 L 201.391 164 M 234.823 55 L 235.743 52 M 242.214 51 L 242.893 49 M 246.262 57 L 247.757 53 M 250.372 46 L 264.199 9 M 249.222 65 L 250.855 61 M 251.671 59 L 252.079 58 M 255.754 49 L 265.96 24 M 252.212 72 L 252.656 71 M 256.206 63 L 257.093 61 M 261.53 51 L 267.742 37 M 259.659 69 L 261.099 66 M 262.848 75 L 265.436 70 M 200.463 201 L 202.847 197 M 201.954 201 L 207.055 193 M 302.057 44 L 325.649 7 M 204.864 199 L 209.629 192 M 291.305 72 L 328.74 17 M 210.195 194 L 213.097 190 M 296.525 75 L 331.347 27 M 200.624 209 L 206.03 202 M 212.98 193 L 215.297 190 M 307.971 70 L 332.685 38 M 201.176 210 L 210.21 199 M 215.96 192 L 217.602 190 M 312.876 74 L 335.052 47 M 202.567 210 L 213.914 197 M 219.151 191 L 220.024 190 M 314.292 82 L 337.859 55 M 203.106 211 L 206.814 207 M 211.45 202 L 217.013 196 M 221.649 191 L 222.576 190 M 316.217 89 L 339.396 64 M 204.598 211 L 206.567 209 M 211.49 204 L 220.351 195 M 317.821 96 L 342.435 71 M 211 206.391 L 222 195.869 M 321 101.172 L 343 80.1286 M 212 207.278 L 225 195.569 M 324 106.403 L 344 88.3894 M 212 209.024 L 228 195.46 M 327 111.533 L 342 98.817 M 345 96.2738 L 346 95.4261 M 212 210.684 L 220 204.304 M 223 201.912 L 230 196.33 M 331 115.787 L 352 99.0408 M 213 211.517 L 221 205.521 M 223 204.022 L 232 197.276 M 332 122.325 L 333 121.576 M 213 213.075 L 234 198.298 M 214 213.909 L 237 198.736 M 217 213.535 L 232 204.273 M 234 203.038 L 240 199.333 M 218 214.505 L 232 206.43 M 240 201.815 L 241 201.238 M 220 214.963 L 234 207.438 M 241 203.676 L 244 202.063 M 226 213.527 L 235 209.032 M 244 204.538 L 245 204.038 M 231 212.951 L 232 212.488 M 245 206.476 L 248 205.089 M 328 221.571 L 329 221.467 M 328 230.561 L 329 230.518" stroke="black" stroke-width="1" fill="none"></path></svg>
