<svg version="1.1" xmlns:xlink="http://www.w3.org/1999/xlink" xmlns="http://www.w3.org/2000/svg"><path d="M 50 50 L 50 90 L 56.2574 89.5075 L 50 50 M 50 50 L 62.3607 88.0423 L 68.1596 85.6403 L 50 50 M 50 50 L 73.5114 82.3607 L 78.2843 78.2843 L 50 50 M 50 50 L 82.3607 73.5114 L 85.6403 68.1596 L 50 50 M 50 50 L 88.0423 62.3607 L 89.5075 56.2574 L 50 50 M 50 50 L 90 50 L 89.5075 43.7426 L 50 50 M 50 50 L 88.0423 37.6393 L 85.6403 31.8404 L 50 50 M 50 50 L 82.3607 26.4886 L 78.2843 21.7157 L 50 50 M 50 50 L 73.5114 17.6393 L 68.1596 14.3597 L 50 50 M 50 50 L 62.3607 11.9577 L 56.2574 10.4925 L 50 50 M 50 50 L 50 10 L 43.7426 10.4925 L 50 50 M 50 50 L 37.6393 11.9577 L 31.8404 14.3597 L 50 50 M 50 50 L 26.4886 17.6393 L 21.7157 21.7157 L 50 50 M 50 50 L 17.6393 26.4886 L 14.3597 31.8404 L 50 50 M 50 50 L 11.9577 37.6393 L 10.4925 43.7426 L 50 50 M 50 50 L 10 50 L 10.4925 56.2574 L 50 50 M 50 50 L 11.9577 62.3607 L 14.3597 68.1596 L 50 50 M 50 50 L 17.6393 73.5114 L 21.7157 78.2843 L 50 50 M 50 50 L 26.4886 82.3607 L 31.8404 85.6403 L 50 50 M 50 50 L 37.6393 88.0423 L 43.7426 89.5075 L 50 50" stroke="black" stroke-width="1" fill="none"></path><path d="M 10 10 M 10 10 L 22.5 10 L 35 10 L 47.5 10 L 60 10 L 72.5 10 L 85 10 L 97.5 10 L 110 10 L 122.5 10 L 135 10 L 147.5 10 L 160 10 L 172.5 10 L 185 10 L 197.5 10 L 210 10 L 222.5 10 L 235 10 L 247.5 10 L 260 10 L 272.5 10 L 285 10 L 297.5 10 L 310 10 L 322.5 10 L 335 10 L 347.5 10 L 360 10 L 372.5 10 L 385 10 L 397.5 10 L 410 10 L 422.5 10 L 435 10 L 447.5 10 L 460 10 L 472.5 10 L 485 10 L 497.5 10 M 10 15 L 22.5 15.0132 L 35 14.9464 L 47.5 14.9899 L 60 14.894 L 72.5 15.0078 L 85 15.0611 L 97.5 15.0965 L 110 15.2283 L 122.5 14.8747 L 135 15.2015 L 147.5 14.7375 L 160 15.1512 L 172.5 14.8032 L 185 15.2106 L 197.5 15.3271 L 210 14.6523 L 222.5 14.5055 L 235 14.5496 L 247.5 15.1845 L 260 15.2271 L 272.5 14.9357 L 285 14.9769 L 297.5 15.6767 L 310 14.2565 L 322.5 15.7534 L 335 15.1159 L 347.5 15.1908 L 360 14.6049 L 372.5 14.3876 L 385 14.5534 L 397.5 14.8535 L 410 15.5804 L 422.5 15.6206 L 435 15.0494 L 447.5 15.7328 L 460 15.2999 L 472.5 15.6951 L 485 14.6422 L 497.5 15.7653 M 10 20 L 22.5 19.9395 L 35 20.0215 L 47.5 20.0289 L 60 19.8787 L 72.5 19.7255 L 85 19.6433 L 97.5 20.4172 L 110 19.7407 L 122.5 19.7029 L 135 20.2231 L 147.5 19.8758 L 160 20.2351 L 172.5 19.8057 L 185 19.2971 L 197.5 20.8149 L 210 19.332 L 222.5 20.1972 L 235 19.625 L 247.5 20.3101 L 260 19.8942 L 272.5 20.6312 L 285 18.7934 L 297.5 20.8312 L 310 21.261 L 322.5 21.2591 L 335 21.4402 L 347.5 20.9666 L 360 18.3182 L 372.5 20.1929 L 385 20.1081 L 397.5 18.9599 L 410 21.1925 L 422.5 21.6821 L 435 21.0011 L 447.5 20.219 L 460 18.0087 L 472.5 21.6603 L 485 22.3015 L 497.5 18.5318 M 10 25 L 22.5 25.0083 L 35 24.8897 L 47.5 24.8601 L 60 24.9839 L 72.5 25.3108 L 85 25.1743 L 97.5 25.4582 L 110 24.4321 L 122.5 25.7523 L 135 25.9323 L 147.5 25.0885 L 160 25.8212 L 172.5 25.6397 L 185 24.0505 L 197.5 23.7447 L 210 26.2386 L 222.5 26.1378 L 235 25.7147 L 247.5 26.606 L 260 25.6628 L 272.5 25.4829 L 285 24.7459 L 297.5 23.785 L 310 25.6823 L 322.5 23.3912 L 335 26.823 L 347.5 26.5447 L 360 26.0402 L 372.5 24.4577 L 385 22.5066 L 397.5 23.9796 L 410 22.4875 L 422.5 22.7211 L 435 24.5889 L 447.5 25.5954 L 460 27.025 L 472.5 27.1762 L 485 23.5871 L 497.5 22.1899 M 10 30 L 22.5 30.0227 L 35 30.1347 L 47.5 30.1801 L 60 29.7501 L 72.5 30.5135 L 85 29.2673 L 97.5 30.2977 L 110 29.1731 L 122.5 30.1246 L 135 30.8317 L 147.5 29.5284 L 160 31.131 L 172.5 28.8816 L 185 31.7325 L 197.5 30.6181 L 210 29.6433 L 222.5 31.8011 L 235 30.2944 L 247.5 30.7545 L 260 30.921 L 272.5 27.4508 L 285 32.5426 L 297.5 30.4552 L 310 29.4827 L 322.5 30.7847 L 335 29.7006 L 347.5 30.7849 L 360 29.9644 L 372.5 28.4487 L 385 27.5441 L 397.5 32.6691 L 410 30.0164 L 422.5 29.7102 L 435 30.2747 L 447.5 29.0386 L 460 27.4409 L 472.5 31.7328 L 485 28.9314 L 497.5 34.4874 M 10 35 L 22.5 34.9466 L 35 34.92 L 47.5 35.2855 L 60 34.4905 L 72.5 34.4589 L 85 34.6208 L 97.5 34.7308 L 110 33.9111 L 122.5 36.3524 L 135 34.9847 L 147.5 34.7836 L 160 36.4126 L 172.5 37.0295 L 185 34.5194 L 197.5 37.0947 L 210 36.1795 L 222.5 35.3233 L 235 35.7892 L 247.5 36.6435 L 260 31.9179 L 272.5 33.5621 L 285 37.4029 L 297.5 34.872 L 310 31.9564 L 322.5 35.4517 L 335 35.3217 L 347.5 38.1998 L 360 34.9102 L 372.5 37.9924 L 385 32.1242 L 397.5 31.4473 L 410 37.5201 L 422.5 38.0104 L 435 31.9988 L 447.5 32.8751 L 460 30.5433 L 472.5 35.6947 L 485 33.7405 L 497.5 31.1557 M 10 40 L 22.5 39.8205 L 35 39.8601 L 47.5 40.0214 L 60 39.4867 L 72.5 39.2283 L 85 39.2389 L 97.5 39.0351 L 110 38.6833 L 122.5 40.4735 L 135 40.7642 L 147.5 41.599 L 160 40.6294 L 172.5 38.7574 L 185 38.8713 L 197.5 38.2706 L 210 38.4716 L 222.5 42.1076 L 235 42.0729 L 247.5 41.1629 L 260 40.3472 L 272.5 43.1761 L 285 36.5062 L 297.5 40.7188 L 310 36.1159 L 322.5 36.8956 L 335 35.8708 L 347.5 35.282 L 360 44.9551 L 372.5 35.7513 L 385 41.5868 L 397.5 36.7894 L 410 41.1257 L 422.5 43.9771 L 435 37.5213 L 447.5 38.3333 L 460 42.2005 L 472.5 34.6021 L 485 32.9413 L 497.5 41.9987 M 10 45 L 22.5 45.0916 L 35 45.4208 L 47.5 45.4332 L 60 44.8939 L 72.5 45.422 L 85 43.9956 L 97.5 45.8924 L 110 45.9872 L 122.5 46.9421 L 135 43.8698 L 147.5 46.4638 L 160 47.4949 L 172.5 47.0767 L 185 42.5839 L 197.5 41.9222 L 210 47.4368 L 222.5 42.22 L 235 48.1661 L 247.5 48.5234 L 260 41.5293 L 272.5 46.3888 L 285 42.1583 L 297.5 48.1881 L 310 48.0633 L 322.5 40.3004 L 335 45.6393 L 347.5 45.811 L 360 45.7475 L 372.5 51.2017 L 385 49.4901 L 397.5 49.1573 L 410 38.9696 L 422.5 49.945 L 435 52.2312 L 447.5 43.03 L 460 45.6515 L 472.5 50.6497 L 485 43.623 L 497.5 50.3162 M 10 50 L 22.5 49.9909 L 35 49.6037 L 47.5 50.4616 L 60 49.4471 L 72.5 51.0958 L 85 49.1034 L 97.5 49.7136 L 110 48.0035 L 122.5 51.0371 L 135 49.504 L 147.5 52.177 L 160 52.114 L 172.5 48.0986 L 185 52.2888 L 197.5 49.94 L 210 52.0798 L 222.5 51.0545 L 235 53.7124 L 247.5 48.3158 L 260 51.9727 L 272.5 49.6986 L 285 48.3752 L 297.5 54.2179 L 310 53.3702 L 322.5 49.1573 L 335 49.905 L 347.5 45.0664 L 360 51.6202 L 372.5 53.5078 L 385 53.8866 L 397.5 47.6221 L 410 53.5133 L 422.5 43.307 L 435 53.7734 L 447.5 46.7888 L 460 45.3896 L 472.5 47.2033 L 485 41.8157 L 497.5 58.3992 M 10 55 L 22.5 54.7338 L 35 54.4954 L 47.5 54.6282 L 60 55.9257 L 72.5 56.3833 L 85 53.7722 L 97.5 53.1851 L 110 56.3103 L 122.5 53.924 L 135 53.8287 L 147.5 57.3946 L 160 53.6207 L 172.5 52.4247 L 185 53.3875 L 197.5 56.6402 L 210 58.7451 L 222.5 53.5483 L 235 58.5885 L 247.5 54.9531 L 260 49.7158 L 272.5 53.9359 L 285 61.0963 L 297.5 55.7225 L 310 57.5258 L 322.5 58.636 L 335 55.3161 L 347.5 49.1396 L 360 57.0292 L 372.5 56.0193 L 385 62.9882 L 397.5 54.8022 L 410 55.4141 L 422.5 64.0218 L 435 52.3647 L 447.5 63.196 L 460 48.7475 L 472.5 46.8895 L 485 54.0143 L 497.5 44.4442 M 10 60 L 22.5 59.8576 L 35 60.6044 L 47.5 60.3663 L 60 59.3276 L 72.5 61.2407 L 85 58.3822 L 97.5 61.9405 L 110 61.0107 L 122.5 60.3947 L 135 60.8566 L 147.5 58.1272 L 160 61.3285 L 172.5 60.3355 L 185 61.042 L 197.5 55.7452 L 210 61.9456 L 222.5 64.6556 L 235 58.2882 L 247.5 61.3015 L 260 55.4392 L 272.5 60.3797 L 285 53.4676 L 297.5 60.9016 L 310 52.8726 L 322.5 59.5271 L 335 63.2341 L 347.5 61.6379 L 360 68.5708 L 372.5 52.004 L 385 59.2847 L 397.5 67.4978 L 410 65.5835 L 422.5 54.8736 L 435 68.7167 L 447.5 53.6182 L 460 52.9915 L 472.5 71.4663 L 485 64.3081 L 497.5 67.5361 M 10 65 L 22.5 64.9638 L 35 65.0638 L 47.5 64.6662 L 60 63.7691 L 72.5 65.4157 L 85 63.7171 L 97.5 66.4031 L 110 66.023 L 122.5 63.8387 L 135 66.2659 L 147.5 67.2351 L 160 66.784 L 172.5 63.8673 L 185 67.9952 L 197.5 61.6512 L 210 61.6905 L 222.5 65.3764 L 235 65.6813 L 247.5 59.9398 L 260 63.4063 L 272.5 71.9849 L 285 69.2315 L 297.5 60.0162 L 310 67.7487 L 322.5 61.8279 L 335 57.1577 L 347.5 63.1155 L 360 66.3579 L 372.5 74.5152 L 385 63.1272 L 397.5 65.8973 L 410 54.538 L 422.5 62.8407 L 435 53.4108 L 447.5 66.9598 L 460 69.6315 L 472.5 70.166 L 485 52.7307 L 497.5 56.4238 M 10 70 L 22.5 70.1199 L 35 69.5667 L 47.5 69.19 L 60 70.315 L 72.5 69.1891 L 85 70.3786 L 97.5 72.2678 L 110 67.6102 L 122.5 67.53 L 135 73.0672 L 147.5 67.2413 L 160 70.5581 L 172.5 66.6807 L 185 65.8846 L 197.5 73.7238 L 210 67.73 L 222.5 71.8421 L 235 63.9472 L 247.5 71.453 L 260 63.28 L 272.5 68.4476 L 285 62.3898 L 297.5 71.6339 L 310 74.1531 L 322.5 77.691 L 335 63.2213 L 347.5 62.3463 L 360 63.7051 L 372.5 60.7514 L 385 61.7588 L 397.5 72.9555 L 410 76.4132 L 422.5 62.4429 L 435 62.1635 L 447.5 64.128 L 460 63.9687 L 472.5 65.2458 L 485 71.5578 L 497.5 64.1782 M 10 75 L 22.5 75.1437 L 35 74.6379 L 47.5 74.9148 L 60 73.6773 L 72.5 76.8722 L 85 75.122 L 97.5 76.7349 L 110 76.8439 L 122.5 78.0298 L 135 73.0311 L 147.5 78.4291 L 160 78.5587 L 172.5 75.5544 L 185 78.1238 L 197.5 78.8104 L 210 76.3748 L 222.5 81.7651 L 235 80.2074 L 247.5 74.6901 L 260 77.1327 L 272.5 72.0966 L 285 70.0022 L 297.5 71.9509 L 310 69.0871 L 322.5 71.3473 L 335 64.4762 L 347.5 69.4606 L 360 73.2597 L 372.5 78.5174 L 385 72.428 L 397.5 81.5022 L 410 74.0196 L 422.5 86.3748 L 435 69.1764 L 447.5 88.2157 L 460 79.4899 L 472.5 64.3732 L 485 66.9711 L 497.5 73.0921 M 10 80 L 22.5 79.6092 L 35 80.325 L 47.5 79.098 L 60 79.8055 L 72.5 78.7217 L 85 82.4901 L 97.5 78.206 L 110 80.5405 L 122.5 82.1079 L 135 76.2021 L 147.5 83.5501 L 160 79.2482 L 172.5 84.7748 L 185 76.677 L 197.5 83.258 L 210 75.4724 L 222.5 79.2911 L 235 72.2438 L 247.5 80.1826 L 260 88.0153 L 272.5 82.8723 L 285 79.7536 L 297.5 77.1379 L 310 87.6051 L 322.5 82.6922 L 335 79.094 L 347.5 83.4981 L 360 81.8215 L 372.5 79.6262 L 385 87.038 L 397.5 93.3908 L 410 79.1158 L 422.5 66.0095 L 435 74.5907 L 447.5 95.1568 L 460 69.1454 L 472.5 87.706 L 485 67.8742 L 497.5 82.1863 M 10 85 L 22.5 85.0057 L 35 84.9102 L 47.5 84.6736 L 60 85.337 L 72.5 83.7356 L 85 83.2367 L 97.5 85.9108 L 110 87.1932 L 122.5 83.957 L 135 82.9775 L 147.5 89.5895 L 160 88.6757 L 172.5 86.8444 L 185 90.9045 L 197.5 81.1717 L 210 78.0262 L 222.5 77.5215 L 235 92.8413 L 247.5 85.3954 L 260 76.264 L 272.5 90.8392 L 285 88.9721 L 297.5 78.6224 L 310 86.3267 L 322.5 74.7495 L 335 95.0655 L 347.5 79.1488 L 360 91.8077 L 372.5 82.3147 L 385 88.857 L 397.5 81.2985 L 410 74.5224 L 422.5 91.9127 L 435 85.0356 L 447.5 83.2685 L 460 88.8688 L 472.5 91.776 L 485 79.2021 L 497.5 81.1828 M 10 90 L 22.5 90.2276 L 35 90.7003 L 47.5 91.0251 L 60 89.1085 L 72.5 88.2716 L 85 90.7772 L 97.5 91.672 L 110 90.7948 L 122.5 85.8406 L 135 89.0744 L 147.5 85.1911 L 160 88.1327 L 172.5 83.8607 L 185 94.311 L 197.5 90.359 L 210 94.7895 L 222.5 92.5748 L 235 92.3545 L 247.5 93.9318 L 260 82.1369 L 272.5 89.5183 L 285 82.1145 L 297.5 85.0355 L 310 82.4304 L 322.5 88.425 L 335 98.3313 L 347.5 88.7456 L 360 84.5434 L 372.5 82.8325 L 385 100.484 L 397.5 85.2081 L 410 83.5784 L 422.5 74.596 L 435 79.2804 L 447.5 81.7415 L 460 73.6266 L 472.5 79.6688 L 485 97.9444 L 497.5 92.8813 M 10 95 L 22.5 94.8478 L 35 94.3301 L 47.5 95.2504 L 60 95.1959 L 72.5 97.5343 L 85 92.4207 L 97.5 96.3221 L 110 98.4102 L 122.5 95.9696 L 135 90.0325 L 147.5 97.3018 L 160 88.6905 L 172.5 89.5174 L 185 92.4706 L 197.5 88.2941 L 210 103.363 L 222.5 95.7636 L 235 95.1764 L 247.5 95.5917 L 260 98.0982 L 272.5 104.379 L 285 104.223 L 297.5 94.3325 L 310 103.857 L 322.5 100.222 L 335 83.0707 L 347.5 89.7745 L 360 99.5821 L 372.5 82.2696 L 385 102.291 L 397.5 102.953 L 410 106.469 L 422.5 111.794 L 435 107.962 L 447.5 87.2253 L 460 109.808 L 472.5 114.259 L 485 77.9586 L 497.5 106.019 M 10 100 L 22.5 100.352 L 35 99.4959 L 47.5 99.2975 L 60 99.0116 L 72.5 97.3746 L 85 99.7223 L 97.5 98.4296 L 110 103.176 L 122.5 95.8608 L 135 104.192 L 147.5 102.393 L 160 94.0747 L 172.5 104.059 L 185 103.113 L 197.5 101.57 L 210 97.2428 L 222.5 107.396 L 235 91.6881 L 247.5 106.838 L 260 96.9997 L 272.5 104.201 L 285 99.8675 L 297.5 103.872 L 310 105.428 L 322.5 86.7171 L 335 90.9939 L 347.5 85.412 L 360 97.6217 L 372.5 112.514 L 385 112.991 L 397.5 104.027 L 410 114.826 L 422.5 101.577 L 435 102.197 L 447.5 108.398 L 460 97.9719 L 472.5 100.8 L 485 78.9307 L 497.5 102.041 M 10 105 L 22.5 104.95 L 35 105.945 L 47.5 106.137 L 60 105.605 L 72.5 102.629 L 85 104.934 L 97.5 107.085 L 110 107.403 L 122.5 100.533 L 135 103.311 L 147.5 103.286 L 160 102.074 L 172.5 100.135 L 185 104.748 L 197.5 96.9327 L 210 100.757 L 222.5 101.938 L 235 95.5132 L 247.5 108.89 L 260 103.343 L 272.5 100.197 L 285 111.201 L 297.5 97.1048 L 310 98.3484 L 322.5 107.469 L 335 111.464 L 347.5 114.485 L 360 114.049 L 372.5 116.915 L 385 88.4384 L 397.5 121.724 L 410 120.378 L 422.5 101.114 L 435 97.8899 L 447.5 124.264 L 460 90.707 L 472.5 98.2944 L 485 94.7756 L 497.5 104.783 M 10 110 L 22.5 109.978 L 35 110.386 L 47.5 110.926 L 60 112.358 L 72.5 112.878 L 85 111.336 L 97.5 112.54 L 110 114.556 L 122.5 107.326 L 135 110.094 L 147.5 106.444 L 160 106.402 L 172.5 114.042 L 185 111.174 L 197.5 115.927 L 210 108.798 L 222.5 113.462 L 235 118.13 L 247.5 101.163 L 260 121.97 L 272.5 100.941 L 285 116.644 L 297.5 115.472 L 310 109.808 L 322.5 118.117 L 335 117.831 L 347.5 111.435 L 360 119.462 L 372.5 105.653 L 385 109.469 L 397.5 116.208 L 410 97.3166 L 422.5 113.812 L 435 122.973 L 447.5 105.194 L 460 123.091 L 472.5 92.2743 L 485 126.297 L 497.5 127.954 M 10 115 L 22.5 115.59 L 35 114.896 L 47.5 115.844 L 60 113.863 L 72.5 113.457 L 85 113.997 L 97.5 113.146 L 110 117.676 L 122.5 109.738 L 135 120.94 L 147.5 117.019 L 160 114.781 L 172.5 112.18 L 185 123.437 L 197.5 106.698 L 210 114.868 L 222.5 104.118 L 235 119.743 L 247.5 124.601 L 260 108.873 L 272.5 104.449 L 285 103.121 L 297.5 101.757 L 310 115.362 L 322.5 130.003 L 335 116.454 L 347.5 125.459 L 360 118.333 L 372.5 110.483 L 385 123.347 L 397.5 94.7897 L 410 109.389 L 422.5 121.271 L 435 108.552 L 447.5 133.59 L 460 91.7021 L 472.5 123.122 L 485 119.85 L 497.5 138.464 M 10 120 L 22.5 120.175 L 35 119.064 L 47.5 121.245 L 60 119.379 L 72.5 121.106 L 85 121.531 L 97.5 115.613 L 110 125.021 L 122.5 120.819 L 135 118.493 L 147.5 115.13 L 160 127.99 L 172.5 120.005 L 185 115.065 L 197.5 123.764 L 210 130.376 L 222.5 114.248 L 235 110.304 L 247.5 113.512 L 260 110.815 L 272.5 129.756 L 285 120.573 L 297.5 122.871 L 310 131.761 L 322.5 117.464 L 335 132.26 L 347.5 131.845 L 360 128.949 L 372.5 119.809 L 385 107.967 L 397.5 116.583 L 410 141.076 L 422.5 104.298 L 435 107.802 L 447.5 117.983 L 460 116.553 L 472.5 124.193 L 485 139.045 L 497.5 134.473 M 10 125 L 22.5 125.374 L 35 125.583 L 47.5 126.617 L 60 126.091 L 72.5 126.235 L 85 126.052 L 97.5 121.613 L 110 123.277 L 122.5 123.649 L 135 127.758 L 147.5 119.493 L 160 116.549 L 172.5 133.828 L 185 129.501 L 197.5 120.465 L 210 131.008 L 222.5 117.831 L 235 135.043 L 247.5 135.244 L 260 120.77 L 272.5 114.375 L 285 125.14 L 297.5 137.126 L 310 140.811 L 322.5 107.362 L 335 123.747 L 347.5 108.757 L 360 133.874 L 372.5 115.724 L 385 130.158 L 397.5 132.191 L 410 128.592 L 422.5 125.804 L 435 115.215 L 447.5 112.879 L 460 115.246 L 472.5 105.073 L 485 118.769 L 497.5 105.132 M 10 130 L 22.5 129.964 L 35 131.053 L 47.5 129.899 L 60 130.844 L 72.5 132.356 L 85 127.806 L 97.5 131.555 L 110 134.125 L 122.5 132.374 L 135 132.44 L 147.5 135.109 L 160 136.054 L 172.5 133.919 L 185 125.66 L 197.5 129.967 L 210 128.029 L 222.5 125.049 L 235 139.929 L 247.5 140.305 L 260 123.845 L 272.5 141.566 L 285 118.712 L 297.5 140.299 L 310 126.215 L 322.5 125.274 L 335 143.462 L 347.5 144.368 L 360 147.027 L 372.5 125.931 L 385 111.884 L 397.5 116.127 L 410 117.951 L 422.5 106.893 L 435 155.128 L 447.5 105.187 L 460 146.938 L 472.5 123.609 L 485 105.766 L 497.5 107.257 M 10 135 L 22.5 135.343 L 35 133.778 L 47.5 136.884 L 60 134.556 L 72.5 132.595 L 85 130.453 L 97.5 137.162 L 110 129.592 L 122.5 140.872 L 135 134.774 L 147.5 139.233 L 160 126.062 L 172.5 129.48 L 185 128.535 L 197.5 144.724 L 210 129.574 L 222.5 130.86 L 235 138.051 L 247.5 122.714 L 260 149.112 L 272.5 137.679 L 285 145.364 L 297.5 138.056 L 310 143.845 L 322.5 136.236 L 335 146.577 L 347.5 131.909 L 360 133.317 L 372.5 128.508 L 385 127.965 L 397.5 112.548 L 410 130.298 L 422.5 150.685 L 435 113.345 L 447.5 128.065 L 460 115.97 L 472.5 113.265 L 485 141.934 L 497.5 163.508 M 10 140 L 22.5 139.902 L 35 140.45 L 47.5 142.429 L 60 142.543 L 72.5 137.547 L 85 138.167 L 97.5 141.899 L 110 135.348 L 122.5 136.173 L 135 147.322 L 147.5 132.618 L 160 142.877 L 172.5 146.187 L 185 141.086 L 197.5 134.468 L 210 134.646 L 222.5 147.006 L 235 152.241 L 247.5 130.193 L 260 147.221 L 272.5 142.734 L 285 153.612 L 297.5 158.527 L 310 143.953 L 322.5 127.015 L 335 127.273 L 347.5 142.079 L 360 136.573 L 372.5 162.747 L 385 164.08 L 397.5 137.685 L 410 138.62 L 422.5 125.362 L 435 116.685 L 447.5 141.376 L 460 141.872 L 472.5 153.715 L 485 110.052 L 497.5 169.144 M 10 145 L 22.5 145.207 L 35 143.583 L 47.5 146.994 L 60 145.784 L 72.5 146.788 L 85 141.401 L 97.5 141.708 L 110 149.777 L 122.5 150.977 L 135 145.614 L 147.5 140.351 L 160 141.734 L 172.5 145.072 L 185 140.361 L 197.5 147.812 L 210 148.975 L 222.5 132.884 L 235 130.316 L 247.5 140.493 L 260 135.988 L 272.5 136.47 L 285 142.283 L 297.5 147.983 L 310 153.166 L 322.5 161.32 L 335 148.284 L 347.5 151.999 L 360 162.621 L 372.5 140.544 L 385 151.147 L 397.5 164.95 L 410 145.825 L 422.5 132.191 L 435 150.248 L 447.5 141.913 L 460 149.993 L 472.5 147.032 L 485 148.646 L 497.5 127.537 M 10 150 L 22.5 149.527 L 35 150.461 L 47.5 152.39 L 60 151.739 L 72.5 149.549 L 85 154.505 L 97.5 154.948 L 110 143.635 L 122.5 142.487 L 135 144.108 L 147.5 157.983 L 160 156.226 L 172.5 154.172 L 185 150.204 L 197.5 149.498 L 210 156.177 L 222.5 160.989 L 235 154.961 L 247.5 151.863 L 260 167.222 L 272.5 157.014 L 285 157.645 L 297.5 134.111 L 310 137.201 L 322.5 145.45 L 335 133.691 L 347.5 145.603 L 360 157.583 L 372.5 157.258 L 385 129.733 L 397.5 156.847 L 410 137.132 L 422.5 151.507 L 435 125.33 L 447.5 139.522 L 460 166.079 L 472.5 122.665 L 485 161.459 L 497.5 172.904 M 10 155 L 22.5 154.572 L 35 154.299 L 47.5 154.166 L 60 151.467 L 72.5 153.04 L 85 150.831 L 97.5 161.191 L 110 148.524 L 122.5 150.342 L 135 150.327 L 147.5 148.509 L 160 154.258 L 172.5 155.993 L 185 161.33 L 197.5 144.896 L 210 164.699 L 222.5 161.709 L 235 168.259 L 247.5 159.975 L 260 171.146 L 272.5 165.141 L 285 138.934 L 297.5 138.443 L 310 171.964 L 322.5 150.688 L 335 172.686 L 347.5 156.77 L 360 155.055 L 372.5 176.49 L 385 148.478 L 397.5 174.579 L 410 164.08 L 422.5 172.633 L 435 164.158 L 447.5 124.928 L 460 152.687 L 472.5 137.455 L 485 125.844 L 497.5 172.269 M 10 160 L 22.5 160.829 L 35 161.349 L 47.5 160.28 L 60 162.014 L 72.5 162.794 L 85 161.716 L 97.5 163.958 L 110 167.318 L 122.5 167.56 L 135 156.884 L 147.5 158.867 L 160 163.697 L 172.5 162.455 L 185 152.084 L 197.5 158.101 L 210 147.488 L 222.5 173.367 L 235 144.794 L 247.5 147.994 L 260 149.978 L 272.5 163.921 L 285 178.255 L 297.5 181.233 L 310 148.375 L 322.5 162.489 L 335 177.67 L 347.5 138.425 L 360 157.558 L 372.5 171.394 L 385 170.688 L 397.5 169.53 L 410 153.164 L 422.5 171.09 L 435 144.905 L 447.5 143.689 L 460 132.236 L 472.5 144.259 L 485 140.441 L 497.5 145.015 M 10 165 L 22.5 165.534 L 35 165.585 L 47.5 164.689 L 60 162.658 L 72.5 168.71 L 85 165.42 L 97.5 166.628 L 110 170.254 L 122.5 169.178 L 135 165.737 L 147.5 173.079 L 160 169.815 L 172.5 156.774 L 185 174.411 L 197.5 175.225 L 210 169.619 L 222.5 148.59 L 235 169.744 L 247.5 152.634 L 260 174.251 L 272.5 179.954 L 285 180.475 L 297.5 184.884 L 310 151.43 L 322.5 183.023 L 335 179.285 L 347.5 189.67 L 360 157.967 L 372.5 191.823 L 385 149.268 L 397.5 157.801 L 410 145.58 L 422.5 139.804 L 435 170.298 L 447.5 146.974 L 460 167.647 L 472.5 178.473 L 485 152.897 L 497.5 134.238 M 10 170 L 22.5 170.173 L 35 170.662 L 47.5 168.071 L 60 171.766 L 72.5 166.72 L 85 169.452 L 97.5 173.08 L 110 167.97 L 122.5 173.865 L 135 165.995 L 147.5 161.988 L 160 167.476 L 172.5 181.648 L 185 170.044 L 197.5 176.545 L 210 160.364 L 222.5 171.617 L 235 163.569 L 247.5 156.27 L 260 158.664 L 272.5 156.7 L 285 180.31 L 297.5 190.856 L 310 151.5 L 322.5 145.18 L 335 180.972 L 347.5 157.092 L 360 168.146 L 372.5 175.681 L 385 181.193 L 397.5 198.044 L 410 156.511 L 422.5 154.275 L 435 166.307 L 447.5 135.353 L 460 171.732 L 472.5 157.305 L 485 161.18 L 497.5 175.743 M 10 175 L 22.5 175.025 L 35 176.159 L 47.5 177.585 L 60 174.939 L 72.5 171.982 L 85 171.185 L 97.5 167.881 L 110 176.28 L 122.5 182.111 L 135 176.558 L 147.5 168.409 L 160 183.209 L 172.5 167.399 L 185 167.598 L 197.5 163.943 L 210 171.113 L 222.5 184.019 L 235 161.848 L 247.5 181.459 L 260 181.584 L 272.5 170.162 L 285 179.475 L 297.5 178.364 L 310 167.617 L 322.5 156.533 L 335 189.846 L 347.5 155.329 L 360 184.721 L 372.5 201.253 L 385 172.653 L 397.5 147.372 L 410 155.221 L 422.5 190.596 L 435 161.606 L 447.5 186.814 L 460 194.976 L 472.5 156.189 L 485 194.276 L 497.5 168.643 M 10 180 L 22.5 180.127 L 35 178.421 L 47.5 177.982 L 60 180.129 L 72.5 177.331 L 85 176.85 L 97.5 179.636 L 110 185.344 L 122.5 184.828 L 135 187.076 L 147.5 189.237 L 160 184.061 L 172.5 169.658 L 185 189.792 L 197.5 188.958 L 210 186.215 L 222.5 196.657 L 235 196.118 L 247.5 192.097 L 260 159.127 L 272.5 172.162 L 285 188.206 L 297.5 175.412 L 310 199.739 L 322.5 183.309 L 335 159.979 L 347.5 197.822 L 360 175.117 L 372.5 171.113 L 385 164.602 L 397.5 201.364 L 410 184.768 L 422.5 182.66 L 435 147.919 L 447.5 216.373 L 460 170.489 L 472.5 211.012 L 485 153.528 L 497.5 205.178 M 10 185 L 22.5 185.555 L 35 184.905 L 47.5 184.241 L 60 183.51 L 72.5 188.45 L 85 187.111 L 97.5 177.843 L 110 192.848 L 122.5 192.578 L 135 182.281 L 147.5 176.213 L 160 173.165 L 172.5 184.706 L 185 192.951 L 197.5 174.379 L 210 182.487 L 222.5 174.759 L 235 172.961 L 247.5 183.211 L 260 176.429 L 272.5 173.842 L 285 190.974 L 297.5 195.672 L 310 177.976 L 322.5 167.626 L 335 185.452 L 347.5 189.127 L 360 164.874 L 372.5 199.21 L 385 204.462 L 397.5 172.027 L 410 167.285 L 422.5 215.134 L 435 160.525 L 447.5 150.6 L 460 156.995 L 472.5 179.749 L 485 175.513 L 497.5 180.148 M 10 190 L 22.5 189.248 L 35 188.818 L 47.5 187.11 L 60 185.882 L 72.5 185.511 L 85 194.505 L 97.5 196.135 L 110 196.982 L 122.5 184.491 L 135 198.076 L 147.5 186.828 L 160 181.091 L 172.5 179.228 L 185 204.216 L 197.5 199.265 L 210 190.395 L 222.5 197.667 L 235 171.239 L 247.5 186.047 L 260 176.172 L 272.5 190.871 L 285 191.162 L 297.5 177.633 L 310 202.667 L 322.5 166.171 L 335 172.644 L 347.5 204.853 L 360 169.461 L 372.5 176.099 L 385 158.373 L 397.5 194.888 L 410 173.533 L 422.5 213.274 L 435 220.822 L 447.5 214.289 L 460 160.668 L 472.5 183.68 L 485 205.706 L 497.5 231.752 M 10 195 L 22.5 195.853 L 35 195.879 L 47.5 192.764 L 60 192.549 L 72.5 196.873 L 85 188.128 L 97.5 199.447 L 110 189.911 L 122.5 186.866 L 135 202.548 L 147.5 186.433 L 160 203.741 L 172.5 193.829 L 185 210.486 L 197.5 198.906 L 210 211.748 L 222.5 205.265 L 235 208.734 L 247.5 196.167 L 260 199.812 L 272.5 192.516 L 285 179.984 L 297.5 195.694 L 310 204.411 L 322.5 194.411 L 335 211.421 L 347.5 203.513 L 360 208.438 L 372.5 187.297 L 385 197.559 L 397.5 170.915 L 410 165.056 L 422.5 219.789 L 435 175.065 L 447.5 156.455 L 460 158.672 L 472.5 202.776 L 485 163.85 L 497.5 162.182 M 10 200 L 22.5 200.491 L 35 202.164 L 47.5 199.978 L 60 200.707 L 72.5 202.749 L 85 196.962 L 97.5 200.901 L 110 191.456 L 122.5 196.43 L 135 189.496 L 147.5 187.652 L 160 205.939 L 172.5 200.519 L 185 213.231 L 197.5 210.138 L 210 194.45 L 222.5 218.893 L 235 192.827 L 247.5 202.39 L 260 200.07 L 272.5 204.737 L 285 223.921 L 297.5 175.594 L 310 194.013 L 322.5 187.715 L 335 229.071 L 347.5 202.233 L 360 183.641 L 372.5 202.991 L 385 204.734 L 397.5 174.768 L 410 225.236 L 422.5 209.165 L 435 213.995 L 447.5 160.33 L 460 203.005 L 472.5 202.678 L 485 163.72 L 497.5 155.166 M 10 205 L 22.5 205.683 L 35 202.814 L 47.5 201.517 L 60 200.501 L 72.5 203.259 L 85 206.96 L 97.5 210.596 L 110 207.425 L 122.5 197.389 L 135 201.557 L 147.5 198.842 L 160 213.123 L 172.5 207.876 L 185 200.103 L 197.5 205.252 L 210 185.881 L 222.5 222.716 L 235 191.115 L 247.5 199.567 L 260 195.015 L 272.5 188.828 L 285 210.597 L 297.5 181.163 L 310 233.726 L 322.5 179.5 L 335 220.617 L 347.5 206.704 L 360 185.78 L 372.5 178.737 L 385 234.496 L 397.5 211.537 L 410 221.128 L 422.5 205.293 L 435 231.221 L 447.5 163.517 L 460 213.367 L 472.5 223.12 L 485 194.108 L 497.5 205.481" stroke="black" stroke-width="1" fill="none"></path></svg>
