<svg version="1.1" xmlns:xlink="http://www.w3.org/1999/xlink" xmlns="http://www.w3.org/2000/svg"><path d="M 180.425 195.899 L 206.236 219.003 M 213.339 185.098 L 180.425 195.899 M 206.236 219.003 L 213.339 185.098 M 174.552 194.669 L 208.107 224.704 M 217.34 180.627 L 174.552 194.669 M 208.107 224.704 L 217.34 180.627 M 168.68 193.439 L 209.978 230.405 M 221.342 176.156 L 168.68 193.439 M 209.978 230.405 L 221.342 176.156 M 162.807 192.209 L 211.849 236.105 M 225.344 171.686 L 162.807 192.209 M 211.849 236.105 L 225.344 171.686 M 156.935 190.979 L 213.72 241.806 M 229.345 167.215 L 156.935 190.979 M 213.72 241.806 L 229.345 167.215 M 151.062 189.749 L 215.591 247.507 M 233.347 162.744 L 151.062 189.749 M 215.591 247.507 L 233.347 162.744 M 145.19 188.518 L 217.462 253.208 M 237.349 158.274 L 145.19 188.518 M 217.462 253.208 L 237.349 158.274 M 139.317 187.288 L 219.333 258.909 M 241.35 153.803 L 139.317 187.288 M 219.333 258.909 L 241.35 153.803 M 133.445 186.058 L 221.204 264.61 M 245.352 149.332 L 133.445 186.058 M 221.204 264.61 L 245.352 149.332 M 127.572 184.828 L 223.075 270.31 M 249.353 144.862 L 127.572 184.828 M 223.075 270.31 L 249.353 144.862 M 121.7 183.598 L 224.945 276.011 M 253.355 140.391 L 121.7 183.598 M 224.945 276.011 L 253.355 140.391 M 115.827 182.368 L 226.816 281.712 M 257.357 135.92 L 115.827 182.368 M 226.816 281.712 L 257.357 135.92 M 109.954 181.137 L 228.687 287.413 M 261.358 131.45 L 109.954 181.137 M 228.687 287.413 L 261.358 131.45 M 104.082 179.907 L 230.558 293.114 M 265.36 126.979 L 104.082 179.907 M 230.558 293.114 L 265.36 126.979 M 101.674 181.778 L 228.964 295.713 M 264.943 123.958 L 102.628 177.227 M 233.382 294.264 L 268.408 127.059 M 101.089 185.281 L 225.548 296.682 M 262.203 121.7 L 103.498 173.784 M 236.708 293.019 L 270.955 129.534 M 100.619 188.887 L 222.016 297.546 M 259.315 119.491 L 104.514 170.293 M 240.066 291.623 L 273.47 132.161 M 100.274 192.604 L 218.36 298.3 M 256.268 117.333 L 105.69 166.75 M 243.458 290.064 L 275.951 134.95 M 100.063 196.441 L 214.569 298.933 M 253.05 115.232 L 107.037 163.15 M 246.886 288.327 L 278.394 137.917 M 100.001 200.412 L 210.629 299.433 M 249.643 113.192 L 108.573 159.489 M 250.356 286.396 L 280.797 141.078 M 100.103 204.529 L 206.526 299.787 M 246.026 111.222 L 110.319 155.758 M 253.871 284.249 L 283.155 144.455 M 100.389 208.812 L 202.238 299.975 M 242.174 109.329 L 112.3 151.951 M 257.437 281.86 L 285.462 148.074 M 100.886 213.283 L 197.739 299.974 M 238.054 107.523 L 114.55 148.055 M 261.06 279.194 L 287.711 151.971 M 101.628 217.974 L 192.995 299.754 M 233.62 105.821 L 117.113 144.057 M 264.751 276.205 L 289.892 156.189 M 102.664 222.926 L 187.959 299.272 M 228.814 104.241 L 120.048 139.936 M 268.523 272.833 L 291.993 160.792 M 104.059 228.201 L 182.562 298.468 M 223.547 102.812 L 123.444 135.664 M 272.394 268.987 L 293.995 165.868 M 105.919 233.892 L 176.7 297.248 M 217.689 101.577 L 127.431 131.198 M 276.392 264.531 L 295.869 171.554 M 108.416 240.153 L 170.202 295.457 M 211.018 100.609 L 132.231 126.465 M 280.566 259.238 L 297.567 178.078 M 111.886 247.286 L 162.729 292.795 M 203.106 100.048 L 138.273 121.325 M 285.008 252.665 L 298.998 185.88 M 117.193 256.062 L 153.421 288.49 M 192.852 100.256 L 146.655 115.417 M 289.955 243.682 L 299.924 196.094" stroke="black" stroke-width="1" fill="none"></path><path d="M 150 150 L 400 150 M 150 152 L 400 152 M 150 154 L 400 154 M 150 156 L 400 156 M 150 158 L 400 158 M 150 160 L 400 160 M 150 162 L 400 162 M 150 164 L 400 164 M 150 166 L 400 166 M 150 168 L 400 168 M 150 170 L 400 170 M 150 172 L 400 172 M 150 174 L 400 174 M 150 176 L 400 176 M 150 178 L 400 178 M 150 180 L 400 180 M 150 182 L 400 182 M 150 184 L 400 184 M 150 186 L 400 186 M 150 188 L 400 188 M 150 190 L 400 190 M 150 192 L 400 192 M 150 194 L 400 194 M 150 196 L 400 196 M 150 198 L 400 198" stroke="black" stroke-width="1" fill="none"></path></svg>
