<svg version="1.1" xmlns:xlink="http://www.w3.org/1999/xlink" xmlns="http://www.w3.org/2000/svg"><path d="M 100 100 m 90 0 q 0 50 270 100 M 100 100 m 85 0 q 0 50 255 100 M 100 100 m 80 0 q 0 50 240 100 M 100 100 m 75 0 q 0 50 225 100 M 100 100 m 70 0 q 0 50 210 100 M 100 100 m 65 0 q 0 50 195 100 M 100 100 m 60 0 q 0 50 180 100 M 100 100 m 55 0 q 0 50 165 100 M 100 100 m 50 0 q 0 50 150 100 M 100 100 m 45 0 q 0 50 135 100 M 100 100 m 40 0 q 0 50 120 100 M 100 100 m 35 0 q 0 50 105 100 M 100 100 m 30 0 q 0 50 90 100 M 100 100 m 25 0 q 0 50 75 100 M 100 100 m 20 0 q 0 50 60 100 M 100 100 m 15 0 q 0 50 45 100 M 100 100 m 10 0 q 0 50 30 100 M 100 100 m 5 0 q 0 50 15 100 M 100 100 m 0 0 q 0 50 0 100" stroke="black" stroke-width="1" fill="none"></path><path d="M 460 100 m -90 0 q 0 50 -270 100 M 460 100 m -85 0 q 0 50 -255 100 M 460 100 m -80 0 q 0 50 -240 100 M 460 100 m -75 0 q 0 50 -225 100 M 460 100 m -70 0 q 0 50 -210 100 M 460 100 m -65 0 q 0 50 -195 100 M 460 100 m -60 0 q 0 50 -180 100 M 460 100 m -55 0 q 0 50 -165 100 M 460 100 m -50 0 q 0 50 -150 100 M 460 100 m -45 0 q 0 50 -135 100 M 460 100 m -40 0 q 0 50 -120 100 M 460 100 m -35 0 q 0 50 -105 100 M 460 100 m -30 0 q 0 50 -90 100 M 460 100 m -25 0 q 0 50 -75 100 M 460 100 m -20 0 q 0 50 -60 100 M 460 100 m -15 0 q 0 50 -45 100 M 460 100 m -10 0 q 0 50 -30 100 M 460 100 m -5 0 q 0 50 -15 100 M 460 100 m -0 0 q 0 50 -0 100" stroke="black" stroke-width="1" fill="none"></path></svg>
