<svg version="1.1" xmlns:xlink="http://www.w3.org/1999/xlink" xmlns="http://www.w3.org/2000/svg"><path d="M 0 75 L 0 101 M 0 103 L 0 108 M 0 110 L 0 117 M 0 119 L 0 120 M 0 122 L 0 127 M 0 129 L 0 144 M 0 146 L 0 146 M 0 148 L 0 148 M 0 150 L 0 150 M 0 153 L 0 159 M 0 161 L 0 161 M 0 163 L 0 164 M 0 166 L 0 168 M 0 171 L 0 171 M 0 174 L 0 178 M 0 180 L 0 182 M 0 187 L 0 187 M 0 191 L 0 192 M 0 194 L 0 195 M 0 198 L 0 198 M 0 201 L 0 201 M 0 206 M 2 75 L 2 105 M 2 108 L 2 116 M 2 118 L 2 129 M 2 132 L 2 135 M 2 137 L 2 140 M 2 143 L 2 144 M 2 146 L 2 148 M 2 150 L 2 151 M 2 153 L 2 160 M 2 162 L 2 168 M 2 171 L 2 173 M 2 176 L 2 177 M 2 180 L 2 183 M 2 185 L 2 195 M 2 199 L 2 199 M 2 201 L 2 202 M 2 204 L 2 206 M 2 208 L 2 208 M 4 75 L 4 102 M 4 104 L 4 108 M 4 110 L 4 141 M 4 143 L 4 150 M 4 152 L 4 152 M 4 156 L 4 157 M 4 159 L 4 160 M 4 162 L 4 163 M 4 165 L 4 169 M 4 171 L 4 172 M 4 178 L 4 181 M 4 183 L 4 186 M 4 188 L 4 188 M 4 190 L 4 190 M 4 192 L 4 192 M 4 194 L 4 195 M 4 198 L 4 199 M 4 202 L 4 204 M 4 206 L 4 207 M 4 209 L 4 209 M 6 75 L 6 106 M 6 108 L 6 109 M 6 111 L 6 119 M 6 121 L 6 129 M 6 132 L 6 133 M 6 135 L 6 141 M 6 144 L 6 150 M 6 152 L 6 154 M 6 156 L 6 156 M 6 158 L 6 158 M 6 160 L 6 172 M 6 174 L 6 174 M 6 176 L 6 177 M 6 179 L 6 191 M 6 193 L 6 202 M 6 204 L 6 204 M 6 206 L 6 207 M 6 209 L 6 209 M 8 75 L 8 111 M 8 113 L 8 126 M 8 128 L 8 132 M 8 135 L 8 136 M 8 138 L 8 144 M 8 146 L 8 150 M 8 152 L 8 153 M 8 155 L 8 156 M 8 161 L 8 164 M 8 166 L 8 167 M 8 169 L 8 169 M 8 173 L 8 173 M 8 175 L 8 177 M 8 181 L 8 181 M 8 183 L 8 184 M 8 187 L 8 187 M 8 192 L 8 194 M 8 198 L 8 199 M 8 202 L 8 203 M 8 205 L 8 206 M 8 208 L 8 208 M 8 210 M 10 75 L 10 96 M 10 98 L 10 119 M 10 122 L 10 125 M 10 128 L 10 132 M 10 134 L 10 138 M 10 140 L 10 147 M 10 149 L 10 154 M 10 156 L 10 156 M 10 158 L 10 160 M 10 163 L 10 163 M 10 165 L 10 166 M 10 168 L 10 168 M 10 170 L 10 171 M 10 173 L 10 176 M 10 178 L 10 178 M 10 180 L 10 180 M 10 184 L 10 189 M 10 192 L 10 196 M 10 199 L 10 201 M 10 203 L 10 203 M 10 205 L 10 207 M 10 209 M 12 75 L 12 103 M 12 105 L 12 108 M 12 110 L 12 112 M 12 115 L 12 128 M 12 131 L 12 131 M 12 133 L 12 135 M 12 137 L 12 140 M 12 142 L 12 142 M 12 145 L 12 150 M 12 152 L 12 163 M 12 165 L 12 166 M 12 168 L 12 168 M 12 170 L 12 181 M 12 183 L 12 184 M 12 187 L 12 189 M 12 191 L 12 195 M 12 197 L 12 199 M 12 201 L 12 201 M 12 206 L 12 208 M 12 210 M 14 75 L 14 84 M 14 86 L 14 118 M 14 120 L 14 125 M 14 129 L 14 130 M 14 132 L 14 151 M 14 153 L 14 154 M 14 156 L 14 158 M 14 160 L 14 165 M 14 168 L 14 168 M 14 170 L 14 172 M 14 174 L 14 183 M 14 185 L 14 186 M 14 189 L 14 189 M 14 192 L 14 192 M 14 194 L 14 196 M 14 198 L 14 199 M 14 201 L 14 201 M 14 203 L 14 204 M 14 210 M 16 75 L 16 105 M 16 107 L 16 115 M 16 118 L 16 124 M 16 127 L 16 129 M 16 131 L 16 135 M 16 137 L 16 147 M 16 149 L 16 154 M 16 157 L 16 157 M 16 160 L 16 160 M 16 162 L 16 162 M 16 165 L 16 165 M 16 168 L 16 170 M 16 172 L 16 172 M 16 174 L 16 175 M 16 178 L 16 182 M 16 184 L 16 185 M 16 187 L 16 187 M 16 189 L 16 191 M 16 193 L 16 196 M 16 201 L 16 204 M 16 206 L 16 206 M 16 209 L 16 209 M 18 75 L 18 78 M 18 80 L 18 93 M 18 95 L 18 108 M 18 110 L 18 114 M 18 116 L 18 116 M 18 118 L 18 129 M 18 131 L 18 131 M 18 133 L 18 143 M 18 145 L 18 151 M 18 153 L 18 157 M 18 161 L 18 161 M 18 163 L 18 170 M 18 172 L 18 172 M 18 176 L 18 177 M 18 179 L 18 185 M 18 187 L 18 190 M 18 192 L 18 199 M 18 201 L 18 202 M 18 205 L 18 206 M 18 208 L 18 208 M 20 75 L 20 113 M 20 115 L 20 115 M 20 117 L 20 118 M 20 120 L 20 128 M 20 131 L 20 133 M 20 135 L 20 136 M 20 138 L 20 138 M 20 140 L 20 141 M 20 143 L 20 155 M 20 158 L 20 160 M 20 162 L 20 162 M 20 165 L 20 165 M 20 167 L 20 168 M 20 170 L 20 172 M 20 174 L 20 179 M 20 181 L 20 181 M 20 183 L 20 183 M 20 186 L 20 187 M 20 189 L 20 192 M 20 194 L 20 198 M 20 203 L 20 203 M 20 205 L 20 206 M 22 75 L 22 129 M 22 131 L 22 131 M 22 133 L 22 133 M 22 135 L 22 135 M 22 137 L 22 140 M 22 142 L 22 146 M 22 148 L 22 152 M 22 154 L 22 154 M 22 156 L 22 159 M 22 161 L 22 167 M 22 169 L 22 170 M 22 172 L 22 172 M 22 174 L 22 185 M 22 187 L 22 191 M 22 193 L 22 193 M 22 195 L 22 195 M 22 197 L 22 197 M 22 200 L 22 208 M 22 210 M 24 75 L 24 93 M 24 95 L 24 106 M 24 108 L 24 112 M 24 114 L 24 115 M 24 117 L 24 117 M 24 119 L 24 123 M 24 125 L 24 125 M 24 127 L 24 130 M 24 133 L 24 133 M 24 135 L 24 137 M 24 139 L 24 142 M 24 146 L 24 148 M 24 150 L 24 154 M 24 156 L 24 159 M 24 161 L 24 163 M 24 165 L 24 167 M 24 170 L 24 170 M 24 172 L 24 179 M 24 182 L 24 182 M 24 184 L 24 188 M 24 190 L 24 191 M 24 193 L 24 194 M 24 198 L 24 198 M 24 201 L 24 202 M 24 204 L 24 204 M 24 206 L 24 206 M 24 208 L 24 208 M 26 75 L 26 90 M 26 92 L 26 118 M 26 120 L 26 130 M 26 132 L 26 134 M 26 136 L 26 138 M 26 140 L 26 145 M 26 147 L 26 150 M 26 152 L 26 167 M 26 169 L 26 170 M 26 172 L 26 173 M 26 176 L 26 176 M 26 179 L 26 179 M 26 181 L 26 181 M 26 184 L 26 187 M 26 191 L 26 192 M 26 194 L 26 196 M 26 198 L 26 199 M 26 202 L 26 208 M 28 75 L 28 112 M 28 114 L 28 133 M 28 135 L 28 140 M 28 142 L 28 144 M 28 146 L 28 148 M 28 150 L 28 151 M 28 153 L 28 157 M 28 159 L 28 162 M 28 164 L 28 168 M 28 170 L 28 172 M 28 174 L 28 175 M 28 178 L 28 179 M 28 182 L 28 183 M 28 185 L 28 185 M 28 187 L 28 197 M 28 201 L 28 202 M 28 204 L 28 206 M 28 208 L 28 208 M 28 210 M 30 75 L 30 106 M 30 108 L 30 113 M 30 115 L 30 121 M 30 123 L 30 124 M 30 126 L 30 128 M 30 130 L 30 135 M 30 137 L 30 140 M 30 142 L 30 146 M 30 149 L 30 152 M 30 154 L 30 157 M 30 160 L 30 161 M 30 164 L 30 166 M 30 170 L 30 171 M 30 174 L 30 174 M 30 176 L 30 176 M 30 178 L 30 178 M 30 180 L 30 180 M 30 182 L 30 182 M 30 185 L 30 185 M 30 187 L 30 188 M 30 190 L 30 196 M 30 198 L 30 198 M 30 200 L 30 201 M 30 203 L 30 206 M 32 75 L 32 85 M 32 87 L 32 89 M 32 91 L 32 106 M 32 108 L 32 110 M 32 112 L 32 115 M 32 117 L 32 122 M 32 124 L 32 126 M 32 128 L 32 129 M 32 133 L 32 137 M 32 139 L 32 139 M 32 142 L 32 143 M 32 145 L 32 150 M 32 152 L 32 154 M 32 156 L 32 156 M 32 158 L 32 159 M 32 161 L 32 164 M 32 166 L 32 166 M 32 170 L 32 170 M 32 172 L 32 173 M 32 175 L 32 176 M 32 179 L 32 180 M 32 182 L 32 184 M 32 186 L 32 191 M 32 193 L 32 194 M 32 199 L 32 201 M 32 203 L 32 204 M 32 206 L 32 206 M 32 210 M 34 75 L 34 92 M 34 94 L 34 96 M 34 98 L 34 108 M 34 110 L 34 111 M 34 113 L 34 116 M 34 118 L 34 125 M 34 127 L 34 141 M 34 143 L 34 144 M 34 146 L 34 148 M 34 150 L 34 154 M 34 156 L 34 161 M 34 163 L 34 167 M 34 169 L 34 175 M 34 177 L 34 178 M 34 181 L 34 181 M 34 183 L 34 187 M 34 189 L 34 195 M 34 197 L 34 197 M 34 199 L 34 202 M 34 206 L 34 207 M 34 209 L 34 209 M 36 75 L 36 86 M 36 88 L 36 92 M 36 94 L 36 101 M 36 103 L 36 103 M 36 105 L 36 124 M 36 126 L 36 129 M 36 131 L 36 142 M 36 144 L 36 144 M 36 146 L 36 149 M 36 152 L 36 156 M 36 158 L 36 161 M 36 163 L 36 166 M 36 168 L 36 170 M 36 172 L 36 173 M 36 176 L 36 176 M 36 178 L 36 182 M 36 186 L 36 192 M 36 194 L 36 197 M 36 200 L 36 201 M 36 204 L 36 204 M 36 206 L 36 206 M 36 209 M 38 75 L 38 82 M 38 84 L 38 84 M 38 87 L 38 104 M 38 107 L 38 107 M 38 109 L 38 110 M 38 112 L 38 118 M 38 120 L 38 120 M 38 122 L 38 122 M 38 124 L 38 148 M 38 150 L 38 151 M 38 153 L 38 166 M 38 168 L 38 168 M 38 170 L 38 170 M 38 172 L 38 173 M 38 175 L 38 175 M 38 177 L 38 178 M 38 180 L 38 180 M 38 182 L 38 183 M 38 185 L 38 188 M 38 190 L 38 197 M 38 199 L 38 199 M 38 202 L 38 204 M 38 208 M 40 75 L 40 90 M 40 92 L 40 95 M 40 97 L 40 104 M 40 107 L 40 111 M 40 113 L 40 120 M 40 122 L 40 128 M 40 130 L 40 132 M 40 134 L 40 146 M 40 148 L 40 156 M 40 159 L 40 160 M 40 162 L 40 163 M 40 165 L 40 169 M 40 171 L 40 171 M 40 174 L 40 175 M 40 179 L 40 179 M 40 181 L 40 181 M 40 186 L 40 192 M 40 194 L 40 194 M 40 197 L 40 202 M 40 206 L 40 206 M 40 208 L 40 209 M 42 75 L 42 110 M 42 112 L 42 120 M 42 122 L 42 123 M 42 125 L 42 129 M 42 131 L 42 144 M 42 148 L 42 150 M 42 153 L 42 160 M 42 163 L 42 163 M 42 165 L 42 174 M 42 176 L 42 176 M 42 180 L 42 180 M 42 182 L 42 183 M 42 187 L 42 187 M 42 190 L 42 194 M 42 198 L 42 202 M 42 205 L 42 205 M 42 209 L 42 209 M 44 75 L 44 93 M 44 95 L 44 102 M 44 104 L 44 131 M 44 133 L 44 146 M 44 149 L 44 157 M 44 159 L 44 161 M 44 163 L 44 166 M 44 168 L 44 168 M 44 171 L 44 172 M 44 174 L 44 174 M 44 176 L 44 177 M 44 180 L 44 183 M 44 185 L 44 185 M 44 190 L 44 190 M 44 194 L 44 194 M 44 196 L 44 196 M 44 198 L 44 198 M 44 201 L 44 201 M 44 203 L 44 203 M 44 205 L 44 207 M 44 209 L 44 209 M 46 75 L 46 94 M 46 96 L 46 102 M 46 104 L 46 105 M 46 107 L 46 113 M 46 115 L 46 127 M 46 129 L 46 133 M 46 137 L 46 142 M 46 144 L 46 145 M 46 147 L 46 147 M 46 151 L 46 153 M 46 155 L 46 156 M 46 158 L 46 159 M 46 161 L 46 164 M 46 166 L 46 171 M 46 174 L 46 177 M 46 179 L 46 181 M 46 183 L 46 185 M 46 187 L 46 189 M 46 192 L 46 195 M 46 197 L 46 198 M 46 201 L 46 203 M 48 75 L 48 92 M 48 94 L 48 106 M 48 108 L 48 116 M 48 118 L 48 133 M 48 135 L 48 140 M 48 142 L 48 143 M 48 145 L 48 147 M 48 149 L 48 149 M 48 151 L 48 153 M 48 155 L 48 159 M 48 161 L 48 163 M 48 165 L 48 171 M 48 173 L 48 177 M 48 180 L 48 180 M 48 182 L 48 184 M 48 186 L 48 186 M 48 188 L 48 189 M 48 192 L 48 196 M 48 198 L 48 198 M 48 201 L 48 202 M 48 204 L 48 204 M 48 207 L 48 207 M 48 209 L 48 209 M 50 75 L 50 86 M 50 88 L 50 106 M 50 108 L 50 119 M 50 122 L 50 137 M 50 139 L 50 140 M 50 142 L 50 143 M 50 145 L 50 145 M 50 147 L 50 155 M 50 158 L 50 161 M 50 163 L 50 165 M 50 167 L 50 167 M 50 169 L 50 172 M 50 174 L 50 176 M 50 181 L 50 190 M 50 192 L 50 193 M 50 195 L 50 196 M 50 198 L 50 198 M 50 200 L 50 200 M 50 203 L 50 206 M 50 208 M 52 75 L 52 91 M 52 93 L 52 100 M 52 102 L 52 108 M 52 110 L 52 113 M 52 116 L 52 125 M 52 127 L 52 134 M 52 137 L 52 143 M 52 147 L 52 152 M 52 154 L 52 155 M 52 157 L 52 158 M 52 160 L 52 164 M 52 166 L 52 173 M 52 175 L 52 176 M 52 178 L 52 178 M 52 181 L 52 182 M 52 184 L 52 187 M 52 189 L 52 189 M 52 191 L 52 191 M 52 193 L 52 194 M 52 196 L 52 196 M 52 199 L 52 200 M 52 203 L 52 208 M 52 210 M 54 75 L 54 85 M 54 87 L 54 93 M 54 95 L 54 109 M 54 111 L 54 112 M 54 114 L 54 134 M 54 136 L 54 136 M 54 138 L 54 147 M 54 149 L 54 152 M 54 154 L 54 155 M 54 157 L 54 157 M 54 159 L 54 159 M 54 161 L 54 163 M 54 165 L 54 170 M 54 172 L 54 172 M 54 174 L 54 178 M 54 180 L 54 182 M 54 184 L 54 184 M 54 187 L 54 188 M 54 190 L 54 193 M 54 195 L 54 195 M 54 197 L 54 206 M 54 209 M 56 75 L 56 109 M 56 111 L 56 114 M 56 116 L 56 142 M 56 144 L 56 145 M 56 147 L 56 154 M 56 156 L 56 160 M 56 162 L 56 166 M 56 168 L 56 169 M 56 172 L 56 172 M 56 174 L 56 185 M 56 187 L 56 188 M 56 190 L 56 191 M 56 193 L 56 193 M 56 195 L 56 196 M 56 198 L 56 198 M 56 201 L 56 202 M 56 204 L 56 205 M 56 208 L 56 208 M 56 210 M 58 75 L 58 85 M 58 87 L 58 93 M 58 95 L 58 101 M 58 103 L 58 126 M 58 128 L 58 133 M 58 135 L 58 141 M 58 143 L 58 146 M 58 148 L 58 148 M 58 150 L 58 153 M 58 155 L 58 158 M 58 161 L 58 163 M 58 165 L 58 167 M 58 169 L 58 169 M 58 172 L 58 173 M 58 176 L 58 176 M 58 178 L 58 182 M 58 184 L 58 185 M 58 190 L 58 190 M 58 192 L 58 197 M 58 199 L 58 202 M 58 205 M 60 75 L 60 107 M 60 109 L 60 117 M 60 119 L 60 124 M 60 126 L 60 136 M 60 138 L 60 151 M 60 153 L 60 154 M 60 156 L 60 156 M 60 158 L 60 159 M 60 162 L 60 165 M 60 167 L 60 176 M 60 180 L 60 180 M 60 182 L 60 185 M 60 187 L 60 189 M 60 191 L 60 191 M 60 193 L 60 196 M 60 198 L 60 198 M 60 200 L 60 205 M 60 207 M 62 75 L 62 92 M 62 94 L 62 117 M 62 119 L 62 129 M 62 131 L 62 134 M 62 136 L 62 138 M 62 140 L 62 141 M 62 143 L 62 143 M 62 145 L 62 150 M 62 152 L 62 158 M 62 160 L 62 162 M 62 165 L 62 165 M 62 168 L 62 169 M 62 173 L 62 175 M 62 177 L 62 179 M 62 181 L 62 184 M 62 186 L 62 196 M 62 200 L 62 203 M 62 205 L 62 206 M 62 210 M 64 75 L 64 89 M 64 91 L 64 101 M 64 103 L 64 116 M 64 118 L 64 120 M 64 122 L 64 124 M 64 126 L 64 128 M 64 130 L 64 133 M 64 135 L 64 135 M 64 137 L 64 139 M 64 141 L 64 157 M 64 160 L 64 160 M 64 164 L 64 172 M 64 174 L 64 176 M 64 178 L 64 183 M 64 185 L 64 186 M 64 188 L 64 188 M 64 190 L 64 193 M 64 195 L 64 196 M 64 198 L 64 198 M 64 200 L 64 201 M 64 205 L 64 205 M 64 208 L 64 209 M 66 75 L 66 83 M 66 85 L 66 87 M 66 89 L 66 111 M 66 113 L 66 132 M 66 134 L 66 134 M 66 136 L 66 136 M 66 138 L 66 138 M 66 140 L 66 145 M 66 147 L 66 152 M 66 154 L 66 161 M 66 163 L 66 165 M 66 168 L 66 168 M 66 172 L 66 172 M 66 174 L 66 174 M 66 176 L 66 177 M 66 179 L 66 186 M 66 188 L 66 188 M 66 190 L 66 191 M 66 193 L 66 195 M 66 197 L 66 198 M 66 200 L 66 200 M 66 203 L 66 203 M 66 205 L 66 207 M 68 75 L 68 92 M 68 94 L 68 97 M 68 99 L 68 102 M 68 104 L 68 104 M 68 106 L 68 122 M 68 124 L 68 136 M 68 138 L 68 142 M 68 144 L 68 144 M 68 147 L 68 149 M 68 151 L 68 153 M 68 155 L 68 156 M 68 158 L 68 164 M 68 166 L 68 166 M 68 169 L 68 171 M 68 173 L 68 175 M 68 177 L 68 177 M 68 180 L 68 180 M 68 183 L 68 188 M 68 190 L 68 191 M 68 193 L 68 194 M 68 196 L 68 199 M 68 202 L 68 207 M 68 210 M 70 75 L 70 87 M 70 89 L 70 89 M 70 91 L 70 95 M 70 97 L 70 112 M 70 114 L 70 123 M 70 126 L 70 130 M 70 132 L 70 143 M 70 145 L 70 155 M 70 157 L 70 158 M 70 162 L 70 163 M 70 165 L 70 165 M 70 167 L 70 167 M 70 169 L 70 170 M 70 173 L 70 176 M 70 178 L 70 179 M 70 181 L 70 185 M 70 187 L 70 187 M 70 192 L 70 192 M 70 194 L 70 197 M 70 201 L 70 201 M 70 203 L 70 206 M 70 208 L 70 208 M 72 75 L 72 97 M 72 99 L 72 107 M 72 109 L 72 109 M 72 112 L 72 122 M 72 124 L 72 124 M 72 127 L 72 137 M 72 139 L 72 143 M 72 145 L 72 147 M 72 149 L 72 151 M 72 153 L 72 153 M 72 155 L 72 158 M 72 160 L 72 161 M 72 163 L 72 168 M 72 170 L 72 170 M 72 172 L 72 173 M 72 175 L 72 177 M 72 179 L 72 179 M 72 181 L 72 183 M 72 185 L 72 185 M 72 187 L 72 191 M 72 193 L 72 202 M 72 205 L 72 206 M 72 209 L 72 209 M 74 75 L 74 98 M 74 100 L 74 130 M 74 132 L 74 138 M 74 140 L 74 141 M 74 143 L 74 147 M 74 149 L 74 150 M 74 152 L 74 154 M 74 157 L 74 159 M 74 161 L 74 163 M 74 165 L 74 167 M 74 169 L 74 171 M 74 173 L 74 192 M 74 194 L 74 196 M 74 198 L 74 198 M 74 201 L 74 204 M 74 207 M 76 75 L 76 92 M 76 95 L 76 103 M 76 105 L 76 106 M 76 108 L 76 110 M 76 112 L 76 123 M 76 125 L 76 130 M 76 132 L 76 132 M 76 134 L 76 134 M 76 136 L 76 144 M 76 146 L 76 149 M 76 151 L 76 156 M 76 158 L 76 160 M 76 163 L 76 168 M 76 170 L 76 170 M 76 172 L 76 172 M 76 175 L 76 175 M 76 177 L 76 178 M 76 181 L 76 182 M 76 184 L 76 185 M 76 187 L 76 187 M 76 189 L 76 189 M 76 193 L 76 194 M 76 196 L 76 196 M 76 198 L 76 198 M 76 201 L 76 204 M 76 206 L 76 208 M 78 75 L 78 116 M 78 118 L 78 128 M 78 130 L 78 131 M 78 133 L 78 133 M 78 137 L 78 148 M 78 150 L 78 150 M 78 152 L 78 154 M 78 156 L 78 171 M 78 173 L 78 173 M 78 175 L 78 176 M 78 178 L 78 179 M 78 182 L 78 183 M 78 185 L 78 186 M 78 188 L 78 189 M 78 191 L 78 191 M 78 194 L 78 194 M 78 196 L 78 197 M 78 199 L 78 199 M 78 204 L 78 205 M 78 207 L 78 207 M 78 209 M 80 75 L 80 121 M 80 123 L 80 123 M 80 125 L 80 125 M 80 127 L 80 132 M 80 134 L 80 134 M 80 136 L 80 136 M 80 138 L 80 140 M 80 142 L 80 146 M 80 149 L 80 149 M 80 151 L 80 151 M 80 153 L 80 155 M 80 157 L 80 163 M 80 165 L 80 172 M 80 175 L 80 177 M 80 179 L 80 180 M 80 182 L 80 183 M 80 185 L 80 189 M 80 191 L 80 191 M 80 195 L 80 198 M 80 202 L 80 202 M 80 204 L 80 206 M 80 209 L 80 209 M 82 75 L 82 92 M 82 94 L 82 94 M 82 96 L 82 109 M 82 111 L 82 129 M 82 132 L 82 136 M 82 138 L 82 138 M 82 140 L 82 140 M 82 143 L 82 153 M 82 155 L 82 156 M 82 158 L 82 160 M 82 163 L 82 172 M 82 175 L 82 175 M 82 178 L 82 178 M 82 180 L 82 183 M 82 185 L 82 185 M 82 187 L 82 194 M 82 198 L 82 199 M 82 203 L 82 204 M 82 207 L 82 209 M 84 75 L 84 84 M 84 86 L 84 100 M 84 102 L 84 103 M 84 105 L 84 111 M 84 115 L 84 116 M 84 118 L 84 120 M 84 122 L 84 127 M 84 129 L 84 135 M 84 137 L 84 139 M 84 141 L 84 143 M 84 145 L 84 148 M 84 152 L 84 154 M 84 156 L 84 156 M 84 158 L 84 165 M 84 169 L 84 170 M 84 172 L 84 172 M 84 175 L 84 175 M 84 177 L 84 177 M 84 179 L 84 183 M 84 187 L 84 190 M 84 192 L 84 193 M 84 195 L 84 201 M 84 204 M 86 75 L 86 95 M 86 97 L 86 100 M 86 102 L 86 123 M 86 125 L 86 125 M 86 127 L 86 127 M 86 129 L 86 132 M 86 135 L 86 138 M 86 141 L 86 147 M 86 149 L 86 151 M 86 153 L 86 156 M 86 159 L 86 159 M 86 161 L 86 168 M 86 170 L 86 174 M 86 176 L 86 177 M 86 181 L 86 184 M 86 186 L 86 186 M 86 190 L 86 195 M 86 197 L 86 197 M 86 201 L 86 201 M 86 206 L 86 206 M 86 208 M 88 75 L 88 81 M 88 83 L 88 90 M 88 92 L 88 102 M 88 104 L 88 112 M 88 114 L 88 128 M 88 130 L 88 132 M 88 135 L 88 156 M 88 158 L 88 160 M 88 163 L 88 170 M 88 172 L 88 173 M 88 177 L 88 179 M 88 183 L 88 183 M 88 185 L 88 187 M 88 190 L 88 190 M 88 192 L 88 192 M 88 194 L 88 197 M 88 199 L 88 200 M 88 202 L 88 206 M 88 210 M 90 75 L 90 101 M 90 103 L 90 116 M 90 118 L 90 122 M 90 124 L 90 125 M 90 127 L 90 131 M 90 133 L 90 141 M 90 143 L 90 143 M 90 145 L 90 148 M 90 150 L 90 154 M 90 157 L 90 159 M 90 161 L 90 162 M 90 164 L 90 164 M 90 166 L 90 170 M 90 172 L 90 173 M 90 175 L 90 175 M 90 177 L 90 181 M 90 184 L 90 184 M 90 188 L 90 191 M 90 193 L 90 197 M 90 199 L 90 199 M 90 201 L 90 201 M 90 203 L 90 206 M 90 208 L 90 209 M 92 75 L 92 108 M 92 110 L 92 114 M 92 116 L 92 133 M 92 136 L 92 137 M 92 139 L 92 144 M 92 146 L 92 147 M 92 149 L 92 153 M 92 156 L 92 163 M 92 165 L 92 166 M 92 168 L 92 168 M 92 170 L 92 173 M 92 175 L 92 176 M 92 179 L 92 180 M 92 182 L 92 182 M 92 185 L 92 186 M 92 189 L 92 192 M 92 194 L 92 199 M 92 202 L 92 202 M 92 204 L 92 205 M 92 207 L 92 209 M 94 75 L 94 124 M 94 126 L 94 126 M 94 129 L 94 130 M 94 132 L 94 137 M 94 139 L 94 140 M 94 143 L 94 146 M 94 148 L 94 160 M 94 163 L 94 165 M 94 167 L 94 177 M 94 179 L 94 182 M 94 184 L 94 184 M 94 186 L 94 189 M 94 192 L 94 192 M 94 194 L 94 197 M 94 199 L 94 199 M 94 201 L 94 201 M 94 203 L 94 205 M 94 209 M 96 75 L 96 85 M 96 87 L 96 106 M 96 109 L 96 124 M 96 126 L 96 126 M 96 128 L 96 135 M 96 138 L 96 138 M 96 140 L 96 141 M 96 143 L 96 154 M 96 156 L 96 165 M 96 167 L 96 170 M 96 172 L 96 174 M 96 177 L 96 181 M 96 183 L 96 184 M 96 186 L 96 186 M 96 190 L 96 190 M 96 192 L 96 192 M 96 195 L 96 200 M 96 203 L 96 204 M 96 208 L 96 209 M 98 75 L 98 104 M 98 106 L 98 110 M 98 113 L 98 128 M 98 130 L 98 131 M 98 133 L 98 133 M 98 135 L 98 156 M 98 158 L 98 160 M 98 162 L 98 162 M 98 164 L 98 171 M 98 173 L 98 174 M 98 178 L 98 185 M 98 189 L 98 190 M 98 192 L 98 193 M 98 195 L 98 195 M 98 197 L 98 204 M 98 206 L 98 206 M 98 210 M 100 75 L 100 103 M 100 105 L 100 132 M 100 135 L 100 140 M 100 142 L 100 143 M 100 145 L 100 154 M 100 156 L 100 156 M 100 158 L 100 160 M 100 162 L 100 162 M 100 164 L 100 164 M 100 166 L 100 169 M 100 174 L 100 174 M 100 177 L 100 179 M 100 181 L 100 185 M 100 187 L 100 190 M 100 192 L 100 192 M 100 194 L 100 197 M 100 199 L 100 200 M 100 202 L 100 204 M 100 207 L 100 207 M 100 209 M 102 75 L 102 95 M 102 97 L 102 99 M 102 101 L 102 101 M 102 103 L 102 106 M 102 108 L 102 114 M 102 116 L 102 120 M 102 122 L 102 124 M 102 127 L 102 130 M 102 132 L 102 135 M 102 137 L 102 140 M 102 142 L 102 142 M 102 144 L 102 145 M 102 149 L 102 151 M 102 153 L 102 153 M 102 155 L 102 162 M 102 164 L 102 164 M 102 166 L 102 166 M 102 168 L 102 171 M 102 173 L 102 176 M 102 179 L 102 179 M 102 181 L 102 186 M 102 188 L 102 188 M 102 190 L 102 194 M 102 196 L 102 197 M 102 199 L 102 199 M 102 201 L 102 203 M 102 205 L 102 206 M 102 208 M 104 75 L 104 84 M 104 86 L 104 91 M 104 93 L 104 98 M 104 100 L 104 122 M 104 124 L 104 134 M 104 136 L 104 138 M 104 140 L 104 141 M 104 143 L 104 148 M 104 150 L 104 152 M 104 154 L 104 155 M 104 157 L 104 164 M 104 166 L 104 166 M 104 168 L 104 178 M 104 180 L 104 182 M 104 184 L 104 188 M 104 190 L 104 191 M 104 193 L 104 194 M 104 196 L 104 197 M 104 199 L 104 199 M 104 201 L 104 201 M 104 203 L 104 203 M 104 205 L 104 206 M 104 209 M 106 75 L 106 91 M 106 93 L 106 105 M 106 107 L 106 113 M 106 116 L 106 119 M 106 121 L 106 122 M 106 124 L 106 126 M 106 128 L 106 132 M 106 134 L 106 135 M 106 138 L 106 139 M 106 142 L 106 147 M 106 149 L 106 149 M 106 152 L 106 152 M 106 155 L 106 164 M 106 166 L 106 168 M 106 170 L 106 170 M 106 172 L 106 177 M 106 181 L 106 182 M 106 184 L 106 185 M 106 187 L 106 187 M 106 189 L 106 191 M 106 193 L 106 194 M 106 196 L 106 200 M 106 202 L 106 203 M 106 205 M 108 75 L 108 110 M 108 112 L 108 112 M 108 114 L 108 133 M 108 135 L 108 135 M 108 137 L 108 152 M 108 155 L 108 156 M 108 158 L 108 159 M 108 161 L 108 161 M 108 163 L 108 176 M 108 178 L 108 193 M 108 195 L 108 200 M 108 202 L 108 205 M 108 209 M 110 75 L 110 101 M 110 103 L 110 125 M 110 127 L 110 130 M 110 132 L 110 139 M 110 141 L 110 142 M 110 146 L 110 146 M 110 148 L 110 152 M 110 154 L 110 164 M 110 168 L 110 177 M 110 179 L 110 179 M 110 181 L 110 184 M 110 186 L 110 188 M 110 190 L 110 194 M 110 197 L 110 198 M 110 201 L 110 202 M 110 204 L 110 204 M 110 206 L 110 206 M 110 208 M 112 75 L 112 96 M 112 98 L 112 99 M 112 101 L 112 114 M 112 116 L 112 127 M 112 129 L 112 129 M 112 131 L 112 136 M 112 138 L 112 138 M 112 141 L 112 142 M 112 145 L 112 145 M 112 148 L 112 149 M 112 151 L 112 151 M 112 154 L 112 154 M 112 157 L 112 159 M 112 164 L 112 169 M 112 171 L 112 173 M 112 176 L 112 176 M 112 179 L 112 179 M 112 185 L 112 186 M 112 189 L 112 189 M 112 191 L 112 194 M 112 196 L 112 196 M 112 199 L 112 199 M 112 203 L 112 203 M 112 205 L 112 205 M 112 207 L 112 207 M 112 209 L 112 209 M 114 75 L 114 116 M 114 118 L 114 120 M 114 122 L 114 131 M 114 133 L 114 138 M 114 140 L 114 142 M 114 144 L 114 149 M 114 151 L 114 151 M 114 153 L 114 156 M 114 159 L 114 163 M 114 165 L 114 165 M 114 167 L 114 167 M 114 169 L 114 174 M 114 176 L 114 180 M 114 182 L 114 183 M 114 185 L 114 188 M 114 191 L 114 191 M 114 194 L 114 195 M 114 198 L 114 199 M 114 201 L 114 201 M 114 203 L 114 203 M 114 207 M 116 75 L 116 106 M 116 108 L 116 109 M 116 111 L 116 111 M 116 113 L 116 116 M 116 118 L 116 119 M 116 121 L 116 136 M 116 138 L 116 143 M 116 145 L 116 146 M 116 148 L 116 148 M 116 150 L 116 151 M 116 153 L 116 156 M 116 158 L 116 158 M 116 161 L 116 166 M 116 169 L 116 170 M 116 172 L 116 177 M 116 179 L 116 183 M 116 185 L 116 185 M 116 188 L 116 192 M 116 195 L 116 200 M 116 203 L 116 204 M 116 206 L 116 206 M 118 75 L 118 138 M 118 140 L 118 149 M 118 151 L 118 155 M 118 157 L 118 158 M 118 160 L 118 163 M 118 165 L 118 165 M 118 168 L 118 173 M 118 175 L 118 179 M 118 181 L 118 181 M 118 183 L 118 186 M 118 189 L 118 189 M 118 191 L 118 193 M 118 197 L 118 197 M 118 199 L 118 201 M 118 204 L 118 204 M 118 206 L 118 207 M 118 209 M 120 75 L 120 118 M 120 120 L 120 127 M 120 129 L 120 136 M 120 138 L 120 142 M 120 144 L 120 158 M 120 160 L 120 160 M 120 164 L 120 164 M 120 166 L 120 169 M 120 171 L 120 171 M 120 173 L 120 173 M 120 175 L 120 176 M 120 178 L 120 182 M 120 184 L 120 187 M 120 189 L 120 189 M 120 192 L 120 193 M 120 197 L 120 198 M 120 201 L 120 202 M 120 204 L 120 204 M 120 208 L 120 208 M 120 210 M 122 75 L 122 89 M 122 91 L 122 92 M 122 94 L 122 100 M 122 102 L 122 107 M 122 110 L 122 115 M 122 117 L 122 117 M 122 119 L 122 124 M 122 126 L 122 130 M 122 132 L 122 135 M 122 137 L 122 141 M 122 143 L 122 148 M 122 150 L 122 153 M 122 155 L 122 159 M 122 161 L 122 163 M 122 165 L 122 168 M 122 170 L 122 170 M 122 172 L 122 172 M 122 174 L 122 179 M 122 183 L 122 190 M 122 193 L 122 195 M 122 197 L 122 198 M 122 201 L 122 201 M 122 204 L 122 204 M 122 206 L 122 206 M 122 208 L 122 208 M 122 210 M 124 75 L 124 85 M 124 87 L 124 88 M 124 90 L 124 111 M 124 113 L 124 124 M 124 127 L 124 134 M 124 137 L 124 149 M 124 152 L 124 155 M 124 157 L 124 167 M 124 169 L 124 171 M 124 173 L 124 179 M 124 182 L 124 182 M 124 185 L 124 186 M 124 190 L 124 190 M 124 192 L 124 192 M 124 194 L 124 195 M 124 197 L 124 200 M 124 202 L 124 202 M 124 205 L 124 208 M 124 210 M 126 75 L 126 127 M 126 129 L 126 131 M 126 133 L 126 133 M 126 135 L 126 136 M 126 138 L 126 144 M 126 146 L 126 150 M 126 152 L 126 152 M 126 154 L 126 156 M 126 159 L 126 162 M 126 167 L 126 177 M 126 179 L 126 183 M 126 185 L 126 185 M 126 187 L 126 189 M 126 191 L 126 197 M 126 199 L 126 200 M 126 203 L 126 204 M 126 206 M 128 75 L 128 99 M 128 101 L 128 109 M 128 111 L 128 113 M 128 115 L 128 132 M 128 134 L 128 134 M 128 136 L 128 147 M 128 151 L 128 151 M 128 153 L 128 160 M 128 162 L 128 163 M 128 166 L 128 168 M 128 172 L 128 173 M 128 175 L 128 177 M 128 179 L 128 179 M 128 181 L 128 183 M 128 186 L 128 187 M 128 191 L 128 191 M 128 194 L 128 195 M 128 197 L 128 197 M 128 199 L 128 200 M 128 202 L 128 203 M 128 206 L 128 207 M 130 75 L 130 97 M 130 99 L 130 100 M 130 102 L 130 110 M 130 112 L 130 114 M 130 116 L 130 133 M 130 135 L 130 142 M 130 144 L 130 147 M 130 149 L 130 151 M 130 153 L 130 154 M 130 156 L 130 156 M 130 158 L 130 159 M 130 161 L 130 163 M 130 166 L 130 168 M 130 170 L 130 174 M 130 177 L 130 180 M 130 182 L 130 190 M 130 194 L 130 196 M 130 198 L 130 198 M 130 201 L 130 204 M 130 206 M 132 75 L 132 103 M 132 105 L 132 107 M 132 109 L 132 110 M 132 112 L 132 120 M 132 122 L 132 122 M 132 124 L 132 128 M 132 130 L 132 135 M 132 137 L 132 140 M 132 142 L 132 142 M 132 144 L 132 160 M 132 163 L 132 169 M 132 171 L 132 175 M 132 179 L 132 183 M 132 185 L 132 189 M 132 192 L 132 192 M 132 194 L 132 194 M 132 196 L 132 198 M 132 201 L 132 202 M 132 206 L 132 206 M 132 208 L 132 208 M 134 75 L 134 97 M 134 99 L 134 118 M 134 120 L 134 136 M 134 138 L 134 140 M 134 142 L 134 142 M 134 145 L 134 148 M 134 152 L 134 158 M 134 160 L 134 162 M 134 164 L 134 165 M 134 167 L 134 167 M 134 170 L 134 174 M 134 178 L 134 184 M 134 187 L 134 192 M 134 195 L 134 195 M 134 197 L 134 199 M 134 201 L 134 201 M 134 203 L 134 204 M 134 206 L 134 209 M 136 75 L 136 77 M 136 79 L 136 83 M 136 85 L 136 86 M 136 88 L 136 92 M 136 94 L 136 100 M 136 102 L 136 107 M 136 109 L 136 116 M 136 118 L 136 133 M 136 135 L 136 142 M 136 145 L 136 151 M 136 153 L 136 157 M 136 159 L 136 172 M 136 175 L 136 178 M 136 180 L 136 180 M 136 182 L 136 189 M 136 191 L 136 192 M 136 194 L 136 196 M 136 198 L 136 201 M 136 203 L 136 206 M 136 208 L 136 209 M 138 75 L 138 84 M 138 86 L 138 115 M 138 117 L 138 118 M 138 120 L 138 129 M 138 131 L 138 133 M 138 135 L 138 155 M 138 157 L 138 158 M 138 160 L 138 164 M 138 166 L 138 182 M 138 185 L 138 185 M 138 187 L 138 188 M 138 190 L 138 195 M 138 197 L 138 197 M 138 201 L 138 206 M 138 208 L 138 208 M 138 210 M 140 75 L 140 103 M 140 105 L 140 116 M 140 118 L 140 118 M 140 120 L 140 123 M 140 126 L 140 129 M 140 131 L 140 136 M 140 138 L 140 138 M 140 141 L 140 142 M 140 144 L 140 150 M 140 152 L 140 153 M 140 155 L 140 158 M 140 160 L 140 164 M 140 166 L 140 166 M 140 168 L 140 168 M 140 170 L 140 170 M 140 172 L 140 174 M 140 176 L 140 176 M 140 178 L 140 180 M 140 182 L 140 182 M 140 185 L 140 185 M 140 187 L 140 187 M 140 190 L 140 204 M 140 206 L 140 209 M 142 75 L 142 122 M 142 124 L 142 126 M 142 128 L 142 131 M 142 133 L 142 133 M 142 135 L 142 145 M 142 147 L 142 147 M 142 149 L 142 150 M 142 152 L 142 155 M 142 158 L 142 162 M 142 164 L 142 178 M 142 181 L 142 181 M 142 184 L 142 185 M 142 190 L 142 192 M 142 194 L 142 200 M 142 202 L 142 202 M 142 207 M 144 75 L 144 104 M 144 106 L 144 107 M 144 109 L 144 115 M 144 117 L 144 118 M 144 120 L 144 125 M 144 127 L 144 129 M 144 132 L 144 132 M 144 134 L 144 136 M 144 138 L 144 149 M 144 152 L 144 152 M 144 154 L 144 158 M 144 161 L 144 164 M 144 167 L 144 167 M 144 170 L 144 174 M 144 177 L 144 177 M 144 179 L 144 180 M 144 182 L 144 183 M 144 185 L 144 186 M 144 190 L 144 190 M 144 194 L 144 195 M 144 198 L 144 198 M 144 200 L 144 203 M 144 205 L 144 207 M 144 209 M 146 75 L 146 85 M 146 87 L 146 93 M 146 95 L 146 112 M 146 114 L 146 136 M 146 138 L 146 139 M 146 141 L 146 141 M 146 143 L 146 150 M 146 152 L 146 153 M 146 155 L 146 156 M 146 159 L 146 164 M 146 168 L 146 184 M 146 186 L 146 188 M 146 190 L 146 192 M 146 194 L 146 194 M 146 197 L 146 198 M 146 200 L 146 203 M 146 205 M 148 75 L 148 85 M 148 87 L 148 103 M 148 105 L 148 108 M 148 110 L 148 117 M 148 120 L 148 128 M 148 130 L 148 147 M 148 149 L 148 155 M 148 157 L 148 157 M 148 159 L 148 165 M 148 168 L 148 169 M 148 171 L 148 174 M 148 176 L 148 183 M 148 185 L 148 185 M 148 187 L 148 189 M 148 192 L 148 195 M 148 197 L 148 197 M 148 199 L 148 200 M 148 202 L 148 202 M 148 206 L 148 208 M 150 75 L 150 92 M 150 94 L 150 99 M 150 101 L 150 117 M 150 119 L 150 123 M 150 125 L 150 128 M 150 130 L 150 136 M 150 138 L 150 141 M 150 143 L 150 144 M 150 148 L 150 156 M 150 158 L 150 161 M 150 163 L 150 176 M 150 178 L 150 182 M 150 184 L 150 184 M 150 186 L 150 186 M 150 189 L 150 189 M 150 192 L 150 194 M 150 196 L 150 197 M 150 200 L 150 200 M 150 202 L 150 203 M 150 205 L 150 205 M 150 207 L 150 207 M 150 210 M 152 75 L 152 85 M 152 87 L 152 91 M 152 93 L 152 109 M 152 111 L 152 117 M 152 119 L 152 130 M 152 132 L 152 134 M 152 136 L 152 149 M 152 151 L 152 166 M 152 170 L 152 170 M 152 177 L 152 179 M 152 182 L 152 186 M 152 188 L 152 189 M 152 191 L 152 193 M 152 195 L 152 195 M 152 197 L 152 202 M 152 204 L 152 205 M 152 209 M 154 75 L 154 84 M 154 86 L 154 103 M 154 105 L 154 111 M 154 113 L 154 115 M 154 118 L 154 122 M 154 124 L 154 141 M 154 143 L 154 148 M 154 150 L 154 153 M 154 155 L 154 159 M 154 162 L 154 162 M 154 164 L 154 167 M 154 169 L 154 169 M 154 171 L 154 171 M 154 173 L 154 176 M 154 180 L 154 183 M 154 186 L 154 191 M 154 193 L 154 193 M 154 199 L 154 200 M 154 203 L 154 205 M 154 209 M 156 75 L 156 108 M 156 110 L 156 115 M 156 117 L 156 121 M 156 123 L 156 144 M 156 146 L 156 146 M 156 148 L 156 154 M 156 156 L 156 157 M 156 159 L 156 161 M 156 163 L 156 169 M 156 171 L 156 171 M 156 173 L 156 179 M 156 181 L 156 181 M 156 183 L 156 183 M 156 185 L 156 191 M 156 193 L 156 194 M 156 196 L 156 200 M 156 202 L 156 202 M 156 204 L 156 208 M 156 210 M 158 75 L 158 98 M 158 100 L 158 105 M 158 107 L 158 141 M 158 143 L 158 145 M 158 147 L 158 148 M 158 150 L 158 154 M 158 157 L 158 158 M 158 160 L 158 169 M 158 171 L 158 171 M 158 173 L 158 176 M 158 178 L 158 178 M 158 180 L 158 187 M 158 189 L 158 190 M 158 193 L 158 200 M 158 202 L 158 203 M 158 205 L 158 205 M 158 207 L 158 208 M 158 210 M 160 75 L 160 92 M 160 94 L 160 134 M 160 136 L 160 138 M 160 140 L 160 142 M 160 144 L 160 145 M 160 147 L 160 147 M 160 151 L 160 160 M 160 162 L 160 163 M 160 165 L 160 165 M 160 167 L 160 167 M 160 169 L 160 174 M 160 176 L 160 177 M 160 179 L 160 180 M 160 183 L 160 187 M 160 190 L 160 193 M 160 196 L 160 196 M 160 199 L 160 203 M 160 205 M 162 75 L 162 87 M 162 89 L 162 105 M 162 107 L 162 107 M 162 109 L 162 122 M 162 124 L 162 130 M 162 133 L 162 136 M 162 138 L 162 139 M 162 141 L 162 141 M 162 143 L 162 155 M 162 157 L 162 171 M 162 174 L 162 177 M 162 179 L 162 185 M 162 187 L 162 189 M 162 192 L 162 192 M 162 197 L 162 203 M 162 205 L 162 207 M 162 210 M 164 75 L 164 100 M 164 102 L 164 105 M 164 107 L 164 112 M 164 115 L 164 119 M 164 121 L 164 121 M 164 123 L 164 124 M 164 126 L 164 130 M 164 134 L 164 136 M 164 138 L 164 139 M 164 142 L 164 145 M 164 147 L 164 147 M 164 150 L 164 151 M 164 153 L 164 157 M 164 159 L 164 167 M 164 169 L 164 169 M 164 171 L 164 173 M 164 175 L 164 175 M 164 177 L 164 186 M 164 189 L 164 190 M 164 192 L 164 192 M 164 196 L 164 196 M 164 200 L 164 202 M 164 204 L 164 205 M 164 207 L 164 209 M 166 75 L 166 117 M 166 119 L 166 127 M 166 129 L 166 129 M 166 133 L 166 135 M 166 137 L 166 143 M 166 145 L 166 149 M 166 151 L 166 169 M 166 171 L 166 172 M 166 175 L 166 175 M 166 177 L 166 179 M 166 182 L 166 187 M 166 190 L 166 192 M 166 194 L 166 194 M 166 196 L 166 196 M 166 199 L 166 201 M 166 203 L 166 203 M 166 205 L 166 205 M 166 207 L 166 207 M 168 75 L 168 94 M 168 96 L 168 97 M 168 99 L 168 100 M 168 102 L 168 102 M 168 104 L 168 105 M 168 107 L 168 117 M 168 119 L 168 119 M 168 123 L 168 123 M 168 125 L 168 133 M 168 135 L 168 140 M 168 142 L 168 142 M 168 144 L 168 152 M 168 155 L 168 158 M 168 160 L 168 171 M 168 173 L 168 175 M 168 177 L 168 177 M 168 180 L 168 183 M 168 185 L 168 188 M 168 191 L 168 194 M 168 196 L 168 197 M 168 199 L 168 201 M 168 203 L 168 207 M 168 209 M 170 75 L 170 110 M 170 112 L 170 113 M 170 115 L 170 115 M 170 117 L 170 127 M 170 129 L 170 137 M 170 140 L 170 140 M 170 142 L 170 147 M 170 149 L 170 150 M 170 153 L 170 154 M 170 156 L 170 159 M 170 161 L 170 167 M 170 170 L 170 174 M 170 177 L 170 177 M 170 181 L 170 183 M 170 185 L 170 186 M 170 189 L 170 189 M 170 193 L 170 193 M 170 197 L 170 198 M 170 200 L 170 200 M 170 205 M 172 75 L 172 92 M 172 94 L 172 112 M 172 114 L 172 116 M 172 118 L 172 119 M 172 121 L 172 121 M 172 123 L 172 127 M 172 129 L 172 134 M 172 137 L 172 142 M 172 144 L 172 152 M 172 154 L 172 160 M 172 162 L 172 162 M 172 164 L 172 169 M 172 173 L 172 173 M 172 175 L 172 178 M 172 180 L 172 180 M 172 183 L 172 183 M 172 187 L 172 195 M 172 197 L 172 198 M 172 205 L 172 205 M 172 208 L 172 209 M 174 75 L 174 77 M 174 79 L 174 104 M 174 106 L 174 115 M 174 117 L 174 125 M 174 127 L 174 128 M 174 130 L 174 134 M 174 137 L 174 145 M 174 147 L 174 147 M 174 149 L 174 150 M 174 152 L 174 160 M 174 162 L 174 167 M 174 169 L 174 173 M 174 176 L 174 181 M 174 184 L 174 186 M 174 188 L 174 190 M 174 193 L 174 194 M 174 196 L 174 199 M 174 202 L 174 202 M 174 205 L 174 205 M 174 207 L 174 207 M 174 209 L 174 209 M 176 75 L 176 81 M 176 83 L 176 104 M 176 107 L 176 109 M 176 111 L 176 113 M 176 115 L 176 115 M 176 117 L 176 121 M 176 124 L 176 134 M 176 136 L 176 136 M 176 138 L 176 148 M 176 150 L 176 150 M 176 152 L 176 154 M 176 156 L 176 160 M 176 162 L 176 163 M 176 165 L 176 169 M 176 172 L 176 172 M 176 174 L 176 177 M 176 179 L 176 180 M 176 186 L 176 187 M 176 190 L 176 194 M 176 197 L 176 197 M 176 199 L 176 200 M 176 202 L 176 203 M 176 205 L 176 209 M 178 75 L 178 104 M 178 106 L 178 106 M 178 109 L 178 110 M 178 112 L 178 117 M 178 119 L 178 120 M 178 123 L 178 144 M 178 146 L 178 146 M 178 148 L 178 150 M 178 152 L 178 155 M 178 157 L 178 159 M 178 164 L 178 165 M 178 167 L 178 169 M 178 174 L 178 174 M 178 178 L 178 181 M 178 184 L 178 193 M 178 196 L 178 202 M 178 205 L 178 205 M 178 208 L 178 209 M 180 75 L 180 82 M 180 84 L 180 91 M 180 93 L 180 102 M 180 104 L 180 118 M 180 120 L 180 127 M 180 129 L 180 130 M 180 132 L 180 147 M 180 149 L 180 151 M 180 153 L 180 156 M 180 158 L 180 161 M 180 163 L 180 164 M 180 167 L 180 170 M 180 172 L 180 172 M 180 174 L 180 174 M 180 176 L 180 176 M 180 182 L 180 184 M 180 187 L 180 187 M 180 189 L 180 189 M 180 192 L 180 192 M 180 194 L 180 195 M 180 197 L 180 197 M 180 200 L 180 201 M 180 203 L 180 204 M 180 206 L 180 208 M 182 75 L 182 119 M 182 121 L 182 121 M 182 123 L 182 133 M 182 135 L 182 140 M 182 142 L 182 142 M 182 144 L 182 151 M 182 153 L 182 159 M 182 161 L 182 166 M 182 168 L 182 172 M 182 174 L 182 176 M 182 178 L 182 179 M 182 181 L 182 181 M 182 183 L 182 185 M 182 187 L 182 190 M 182 192 L 182 196 M 182 200 L 182 202 M 182 204 L 182 204 M 182 207 L 182 209 M 184 75 L 184 88 M 184 90 L 184 99 M 184 101 L 184 104 M 184 106 L 184 108 M 184 110 L 184 112 M 184 114 L 184 120 M 184 122 L 184 128 M 184 130 L 184 137 M 184 139 L 184 147 M 184 149 L 184 159 M 184 161 L 184 161 M 184 164 L 184 166 M 184 169 L 184 170 M 184 174 L 184 176 M 184 179 L 184 182 M 184 184 L 184 186 M 184 189 L 184 189 M 184 191 L 184 198 M 184 200 L 184 200 M 184 202 L 184 202 M 184 205 M 186 75 L 186 104 M 186 106 L 186 115 M 186 117 L 186 119 M 186 121 L 186 140 M 186 142 L 186 154 M 186 156 L 186 159 M 186 161 L 186 166 M 186 169 L 186 174 M 186 176 L 186 177 M 186 179 L 186 180 M 186 183 L 186 185 M 186 188 L 186 190 M 186 192 L 186 193 M 186 195 L 186 198 M 186 200 L 186 202 M 186 204 L 186 205 M 186 208 L 186 208 M 186 210 M 188 75 L 188 76 M 188 78 L 188 120 M 188 122 L 188 127 M 188 129 L 188 132 M 188 135 L 188 135 M 188 138 L 188 140 M 188 143 L 188 144 M 188 146 L 188 147 M 188 149 L 188 154 M 188 158 L 188 159 M 188 161 L 188 161 M 188 163 L 188 163 M 188 165 L 188 165 M 188 167 L 188 168 M 188 170 L 188 171 M 188 173 L 188 173 M 188 175 L 188 181 M 188 183 L 188 183 M 188 185 L 188 185 M 188 191 L 188 194 M 188 196 L 188 196 M 188 198 L 188 198 M 188 200 L 188 203 M 188 205 L 188 205 M 188 207 L 188 208 M 188 210 M 190 75 L 190 92 M 190 94 L 190 94 M 190 96 L 190 115 M 190 117 L 190 128 M 190 130 L 190 136 M 190 139 L 190 148 M 190 150 L 190 152 M 190 154 L 190 154 M 190 156 L 190 156 M 190 158 L 190 163 M 190 165 L 190 166 M 190 168 L 190 172 M 190 174 L 190 174 M 190 177 L 190 188 M 190 190 L 190 190 M 190 192 L 190 192 M 190 194 L 190 197 M 190 199 L 190 199 M 190 204 L 190 204 M 190 206 L 190 206 M 190 208 M 192 75 L 192 97 M 192 99 L 192 111 M 192 113 L 192 118 M 192 120 L 192 122 M 192 124 L 192 137 M 192 139 L 192 143 M 192 145 L 192 145 M 192 147 L 192 150 M 192 152 L 192 154 M 192 156 L 192 165 M 192 167 L 192 167 M 192 171 L 192 185 M 192 187 L 192 192 M 192 194 L 192 196 M 192 198 L 192 203 M 192 205 L 192 207 M 192 209 M 194 75 L 194 101 M 194 103 L 194 109 M 194 111 L 194 120 M 194 122 L 194 126 M 194 128 L 194 129 M 194 131 L 194 131 M 194 133 L 194 137 M 194 139 L 194 139 M 194 141 L 194 146 M 194 148 L 194 154 M 194 156 L 194 157 M 194 159 L 194 164 M 194 167 L 194 168 M 194 171 L 194 176 M 194 178 L 194 178 M 194 180 L 194 186 M 194 188 L 194 192 M 194 194 L 194 194 M 194 196 L 194 197 M 194 201 L 194 201 M 194 204 L 194 204 M 194 208 L 194 208 M 194 210 M 196 75 L 196 130 M 196 132 L 196 136 M 196 138 L 196 146 M 196 148 L 196 149 M 196 152 L 196 154 M 196 156 L 196 161 M 196 163 L 196 163 M 196 165 L 196 165 M 196 167 L 196 169 M 196 171 L 196 182 M 196 188 L 196 189 M 196 192 L 196 192 M 196 194 L 196 194 M 196 196 L 196 197 M 196 199 L 196 200 M 196 202 L 196 202 M 196 205 L 196 205 M 196 207 L 196 209 M 198 75 L 198 91 M 198 93 L 198 102 M 198 104 L 198 104 M 198 106 L 198 124 M 198 126 L 198 129 M 198 131 L 198 135 M 198 137 L 198 143 M 198 145 L 198 147 M 198 149 L 198 152 M 198 155 L 198 156 M 198 158 L 198 163 M 198 165 L 198 165 M 198 168 L 198 170 M 198 172 L 198 172 M 198 174 L 198 179 M 198 181 L 198 183 M 198 185 L 198 186 M 198 188 L 198 189 M 198 192 L 198 199 M 198 201 L 198 201 M 198 203 L 198 203 M 198 205 L 198 206 M 198 209 M 200 75 L 200 81 M 200 83 L 200 116 M 200 118 L 200 118 M 200 120 L 200 136 M 200 138 L 200 138 M 200 141 L 200 142 M 200 145 L 200 152 M 200 154 L 200 156 M 200 158 L 200 158 M 200 161 L 200 162 M 200 164 L 200 172 M 200 174 L 200 176 M 200 179 L 200 180 M 200 182 L 200 182 M 200 185 L 200 188 M 200 191 L 200 197 M 200 199 L 200 206 M 200 208 L 200 209 M 202 75 L 202 96 M 202 98 L 202 111 M 202 113 L 202 113 M 202 115 L 202 119 M 202 121 L 202 124 M 202 126 L 202 128 M 202 130 L 202 130 M 202 132 L 202 134 M 202 136 L 202 139 M 202 141 L 202 145 M 202 147 L 202 151 M 202 153 L 202 153 M 202 155 L 202 156 M 202 158 L 202 161 M 202 163 L 202 163 M 202 165 L 202 166 M 202 169 L 202 176 M 202 179 L 202 179 M 202 182 L 202 185 M 202 187 L 202 187 M 202 189 L 202 191 M 202 194 L 202 195 M 202 197 L 202 199 M 202 204 L 202 205 M 202 207 L 202 207 M 202 209 M 204 75 L 204 80 M 204 82 L 204 122 M 204 124 L 204 136 M 204 138 L 204 139 M 204 141 L 204 146 M 204 148 L 204 156 M 204 158 L 204 159 M 204 161 L 204 161 M 204 163 L 204 166 M 204 168 L 204 168 M 204 170 L 204 174 M 204 176 L 204 176 M 204 178 L 204 181 M 204 183 L 204 185 M 204 187 L 204 187 M 204 189 L 204 190 M 204 192 L 204 194 M 204 198 L 204 198 M 204 200 L 204 207 M 204 209 L 204 209 M 206 75 L 206 92 M 206 94 L 206 100 M 206 102 L 206 105 M 206 107 L 206 109 M 206 112 L 206 112 M 206 114 L 206 128 M 206 130 L 206 133 M 206 137 L 206 148 M 206 150 L 206 151 M 206 153 L 206 153 M 206 155 L 206 158 M 206 161 L 206 164 M 206 166 L 206 174 M 206 176 L 206 179 M 206 183 L 206 185 M 206 187 L 206 187 M 206 189 L 206 190 M 206 193 L 206 196 M 206 198 L 206 203 M 206 205 L 206 207 M 206 209 L 206 209 M 208 75 L 208 120 M 208 122 L 208 124 M 208 126 L 208 127 M 208 130 L 208 135 M 208 137 L 208 141 M 208 143 L 208 144 M 208 146 L 208 146 M 208 148 L 208 153 M 208 155 L 208 158 M 208 160 L 208 160 M 208 162 L 208 166 M 208 169 L 208 170 M 208 173 L 208 173 M 208 176 L 208 180 M 208 184 L 208 184 M 208 186 L 208 188 M 208 190 L 208 191 M 208 194 L 208 199 M 208 202 L 208 202 M 208 204 L 208 205 M 208 210 M 210 75 L 210 100 M 210 102 L 210 106 M 210 108 L 210 119 M 210 121 L 210 131 M 210 133 L 210 136 M 210 138 L 210 145 M 210 147 L 210 149 M 210 151 L 210 152 M 210 154 L 210 156 M 210 158 L 210 166 M 210 169 L 210 174 M 210 176 L 210 179 M 210 182 L 210 182 M 210 184 L 210 184 M 210 186 L 210 194 M 210 196 L 210 196 M 210 198 L 210 200 M 210 202 L 210 207 M 210 209 M 212 75 L 212 76 M 212 78 L 212 95 M 212 97 L 212 114 M 212 116 L 212 121 M 212 124 L 212 125 M 212 127 L 212 131 M 212 133 L 212 147 M 212 149 L 212 150 M 212 154 L 212 160 M 212 162 L 212 162 M 212 165 L 212 170 M 212 172 L 212 172 M 212 174 L 212 178 M 212 180 L 212 184 M 212 187 L 212 187 M 212 189 L 212 203 M 212 206 L 212 206 M 212 209 L 212 209 M 214 75 L 214 78 M 214 80 L 214 108 M 214 110 L 214 134 M 214 136 L 214 138 M 214 140 L 214 140 M 214 142 L 214 142 M 214 144 L 214 153 M 214 155 L 214 157 M 214 161 L 214 163 M 214 165 L 214 167 M 214 169 L 214 170 M 214 172 L 214 180 M 214 185 L 214 185 M 214 188 L 214 191 M 214 193 L 214 193 M 214 196 L 214 197 M 214 199 L 214 205 M 214 207 L 214 208 M 216 75 L 216 114 M 216 116 L 216 126 M 216 128 L 216 131 M 216 133 L 216 139 M 216 141 L 216 147 M 216 151 L 216 151 M 216 154 L 216 158 M 216 160 L 216 161 M 216 164 L 216 164 M 216 166 L 216 167 M 216 169 L 216 170 M 216 172 L 216 172 M 216 175 L 216 175 M 216 177 L 216 179 M 216 181 L 216 184 M 216 187 L 216 187 M 216 191 L 216 191 M 216 193 L 216 193 M 216 195 L 216 197 M 216 202 L 216 202 M 216 205 L 216 207 M 216 209 M 218 75 L 218 78 M 218 80 L 218 105 M 218 107 L 218 118 M 218 121 L 218 124 M 218 126 L 218 131 M 218 133 L 218 133 M 218 135 L 218 136 M 218 138 L 218 138 M 218 140 L 218 147 M 218 149 L 218 150 M 218 152 L 218 154 M 218 156 L 218 157 M 218 159 L 218 159 M 218 161 L 218 162 M 218 165 L 218 171 M 218 178 L 218 178 M 218 180 L 218 180 M 218 183 L 218 186 M 218 188 L 218 188 M 218 190 L 218 191 M 218 194 L 218 194 M 218 196 L 218 196 M 218 198 L 218 198 M 218 200 L 218 200 M 218 202 L 218 205 M 218 208 L 218 208 M 218 210 M 220 75 L 220 107 M 220 109 L 220 109 M 220 111 L 220 119 M 220 121 L 220 122 M 220 125 L 220 135 M 220 139 L 220 152 M 220 154 L 220 160 M 220 162 L 220 163 M 220 165 L 220 166 M 220 169 L 220 176 M 220 178 L 220 181 M 220 183 L 220 184 M 220 187 L 220 194 M 220 197 L 220 198 M 220 200 L 220 203 M 220 205 L 220 205 M 220 207 L 220 209 M 222 75 L 222 80 M 222 82 L 222 106 M 222 108 L 222 114 M 222 116 L 222 127 M 222 129 L 222 144 M 222 146 L 222 148 M 222 151 L 222 153 M 222 155 L 222 156 M 222 158 L 222 165 M 222 167 L 222 167 M 222 169 L 222 169 M 222 171 L 222 172 M 222 174 L 222 175 M 222 178 L 222 185 M 222 187 L 222 193 M 222 195 L 222 195 M 222 197 L 222 199 M 222 201 L 222 203 M 222 205 L 222 205 M 222 207 L 222 207 M 224 75 L 224 104 M 224 106 L 224 107 M 224 109 L 224 111 M 224 114 L 224 141 M 224 143 L 224 144 M 224 146 L 224 147 M 224 150 L 224 151 M 224 154 L 224 154 M 224 157 L 224 158 M 224 160 L 224 164 M 224 166 L 224 166 M 224 170 L 224 170 M 224 172 L 224 173 M 224 175 L 224 180 M 224 183 L 224 187 M 224 189 L 224 190 M 224 193 L 224 195 M 224 197 L 224 198 M 224 200 L 224 200 M 224 204 L 224 204 M 224 206 L 224 209 M 226 75 L 226 94 M 226 96 L 226 96 M 226 98 L 226 101 M 226 103 L 226 103 M 226 105 L 226 114 M 226 116 L 226 120 M 226 122 L 226 122 M 226 124 L 226 136 M 226 138 L 226 142 M 226 144 L 226 147 M 226 149 L 226 154 M 226 156 L 226 156 M 226 159 L 226 169 M 226 171 L 226 173 M 226 177 L 226 180 M 226 182 L 226 186 M 226 188 L 226 188 M 226 191 L 226 192 M 226 194 L 226 198 M 226 200 L 226 202 M 226 205 L 226 205 M 226 207 L 226 208 M 228 75 L 228 92 M 228 94 L 228 95 M 228 97 L 228 118 M 228 121 L 228 121 M 228 124 L 228 139 M 228 141 L 228 141 M 228 143 L 228 144 M 228 146 L 228 149 M 228 152 L 228 152 M 228 154 L 228 155 M 228 158 L 228 158 M 228 161 L 228 162 M 228 164 L 228 166 M 228 168 L 228 169 M 228 172 L 228 174 M 228 176 L 228 176 M 228 178 L 228 178 M 228 180 L 228 182 M 228 184 L 228 185 M 228 187 L 228 192 M 228 195 L 228 196 M 228 198 L 228 199 M 228 202 L 228 208 M 230 75 L 230 94 M 230 96 L 230 98 M 230 100 L 230 104 M 230 106 L 230 117 M 230 119 L 230 123 M 230 125 L 230 141 M 230 143 L 230 149 M 230 151 L 230 155 M 230 157 L 230 157 M 230 159 L 230 159 M 230 161 L 230 161 M 230 163 L 230 165 M 230 167 L 230 167 M 230 169 L 230 170 M 230 173 L 230 174 M 230 177 L 230 178 M 230 180 L 230 180 M 230 183 L 230 183 M 230 185 L 230 185 M 230 188 L 230 189 M 230 191 L 230 191 M 230 193 L 230 196 M 230 198 L 230 200 M 230 203 L 230 204 M 230 206 M 232 75 L 232 85 M 232 87 L 232 110 M 232 112 L 232 114 M 232 116 L 232 127 M 232 129 L 232 138 M 232 140 L 232 150 M 232 153 L 232 158 M 232 161 L 232 161 M 232 163 L 232 163 M 232 165 L 232 169 M 232 171 L 232 171 M 232 174 L 232 180 M 232 182 L 232 183 M 232 186 L 232 190 M 232 194 L 232 194 M 232 197 L 232 197 M 232 199 L 232 199 M 232 201 L 232 206 M 232 208 L 232 209 M 234 75 L 234 82 M 234 84 L 234 98 M 234 100 L 234 118 M 234 120 L 234 120 M 234 124 L 234 133 M 234 135 L 234 140 M 234 142 L 234 143 M 234 147 L 234 149 M 234 151 L 234 151 M 234 153 L 234 153 M 234 155 L 234 155 M 234 160 L 234 164 M 234 166 L 234 167 M 234 169 L 234 169 M 234 172 L 234 172 M 234 174 L 234 184 M 234 186 L 234 187 M 234 189 L 234 191 M 234 193 L 234 193 M 234 195 L 234 197 M 234 199 L 234 201 M 234 203 L 234 205 M 234 208 M 236 75 L 236 111 M 236 113 L 236 122 M 236 124 L 236 127 M 236 129 L 236 129 M 236 131 L 236 136 M 236 138 L 236 140 M 236 142 L 236 147 M 236 149 L 236 151 M 236 153 L 236 154 M 236 156 L 236 159 M 236 162 L 236 166 M 236 168 L 236 173 M 236 175 L 236 175 M 236 177 L 236 177 M 236 179 L 236 179 M 236 186 L 236 192 M 236 194 L 236 195 M 236 200 L 236 202 M 236 205 L 236 207 M 236 209 M 238 75 L 238 108 M 238 110 L 238 112 M 238 114 L 238 117 M 238 120 L 238 134 M 238 137 L 238 140 M 238 142 L 238 143 M 238 145 L 238 146 M 238 149 L 238 155 M 238 157 L 238 171 M 238 173 L 238 174 M 238 176 L 238 177 M 238 179 L 238 180 M 238 182 L 238 183 M 238 186 L 238 186 M 238 188 L 238 188 M 238 190 L 238 190 M 238 192 L 238 192 M 238 194 L 238 194 M 238 198 L 238 198 M 238 201 L 238 203 M 238 205 L 238 205 M 238 207 L 238 209 M 240 75 L 240 85 M 240 87 L 240 94 M 240 96 L 240 105 M 240 107 L 240 110 M 240 113 L 240 113 M 240 115 L 240 121 M 240 124 L 240 133 M 240 135 L 240 139 M 240 141 L 240 155 M 240 157 L 240 159 M 240 161 L 240 161 M 240 166 L 240 173 M 240 176 L 240 177 M 240 179 L 240 182 M 240 184 L 240 184 M 240 187 L 240 194 M 240 198 L 240 199 M 240 202 L 240 202 M 240 205 L 240 205 M 240 208 M 242 75 L 242 93 M 242 96 L 242 110 M 242 112 L 242 113 M 242 115 L 242 120 M 242 122 L 242 122 M 242 124 L 242 126 M 242 128 L 242 131 M 242 133 L 242 133 M 242 136 L 242 150 M 242 152 L 242 153 M 242 156 L 242 158 M 242 161 L 242 168 M 242 170 L 242 173 M 242 175 L 242 175 M 242 177 L 242 177 M 242 179 L 242 180 M 242 184 L 242 185 M 242 187 L 242 189 M 242 192 L 242 193 M 242 195 L 242 195 M 242 198 L 242 199 M 242 204 M 244 75 L 244 86 M 244 88 L 244 97 M 244 99 L 244 118 M 244 120 L 244 124 M 244 126 L 244 132 M 244 134 L 244 138 M 244 140 L 244 144 M 244 146 L 244 151 M 244 153 L 244 156 M 244 159 L 244 160 M 244 162 L 244 162 M 244 164 L 244 165 M 244 167 L 244 171 M 244 173 L 244 176 M 244 178 L 244 179 M 244 181 L 244 184 M 244 186 L 244 187 M 244 189 L 244 196 M 244 198 L 244 203 M 244 205 L 244 207 M 246 75 L 246 88 M 246 90 L 246 96 M 246 98 L 246 98 M 246 101 L 246 105 M 246 107 L 246 112 M 246 114 L 246 114 M 246 116 L 246 123 M 246 125 L 246 125 M 246 129 L 246 131 M 246 133 L 246 135 M 246 137 L 246 138 M 246 141 L 246 142 M 246 144 L 246 147 M 246 150 L 246 151 M 246 153 L 246 153 M 246 155 L 246 158 M 246 160 L 246 170 M 246 172 L 246 174 M 246 177 L 246 178 M 246 180 L 246 182 M 246 184 L 246 184 M 246 186 L 246 189 M 246 192 L 246 192 M 246 196 L 246 196 M 246 199 L 246 199 M 246 201 L 246 203 M 246 205 L 246 205 M 246 207 L 246 207 M 246 209 M 248 75 L 248 86 M 248 88 L 248 94 M 248 96 L 248 107 M 248 109 L 248 109 M 248 111 L 248 117 M 248 119 L 248 125 M 248 127 L 248 129 M 248 131 L 248 137 M 248 139 L 248 148 M 248 150 L 248 158 M 248 160 L 248 174 M 248 176 L 248 178 M 248 180 L 248 180 M 248 183 L 248 183 M 248 186 L 248 186 M 248 190 L 248 192 M 248 194 L 248 197 M 248 199 L 248 201 M 248 206 L 248 208 M 248 210 M 250 75 L 250 93 M 250 95 L 250 111 M 250 113 L 250 120 M 250 122 L 250 130 M 250 132 L 250 136 M 250 138 L 250 140 M 250 142 L 250 154 M 250 156 L 250 167 M 250 169 L 250 177 M 250 179 L 250 182 M 250 185 L 250 188 M 250 190 L 250 191 M 250 196 L 250 200 M 250 202 L 250 203 M 250 205 L 250 205 M 250 207 M 252 75 L 252 102 M 252 104 L 252 107 M 252 109 L 252 110 M 252 112 L 252 119 M 252 121 L 252 124 M 252 126 L 252 133 M 252 135 L 252 143 M 252 145 L 252 145 M 252 147 L 252 150 M 252 153 L 252 154 M 252 156 L 252 162 M 252 164 L 252 164 M 252 167 L 252 167 M 252 170 L 252 176 M 252 178 L 252 179 M 252 182 L 252 183 M 252 185 L 252 187 M 252 189 L 252 189 M 252 191 L 252 195 M 252 197 L 252 200 M 252 202 L 252 208 M 254 75 L 254 102 M 254 104 L 254 113 M 254 116 L 254 118 M 254 120 L 254 124 M 254 128 L 254 130 M 254 132 L 254 136 M 254 139 L 254 146 M 254 148 L 254 148 M 254 150 L 254 150 M 254 152 L 254 154 M 254 156 L 254 157 M 254 159 L 254 164 M 254 167 L 254 167 M 254 169 L 254 172 M 254 174 L 254 177 M 254 180 L 254 188 M 254 190 L 254 192 M 254 194 L 254 195 M 254 198 L 254 199 M 254 205 L 254 208 M 254 210 M 256 75 L 256 78 M 256 80 L 256 90 M 256 92 L 256 104 M 256 106 L 256 107 M 256 109 L 256 109 M 256 111 L 256 112 M 256 114 L 256 114 M 256 116 L 256 122 M 256 126 L 256 135 M 256 137 L 256 138 M 256 140 L 256 141 M 256 144 L 256 145 M 256 148 L 256 149 M 256 151 L 256 154 M 256 156 L 256 157 M 256 159 L 256 162 M 256 164 L 256 165 M 256 167 L 256 168 M 256 171 L 256 174 M 256 176 L 256 177 M 256 179 L 256 182 M 256 184 L 256 189 M 256 191 L 256 191 M 256 196 L 256 196 M 256 198 L 256 198 M 256 200 L 256 200 M 256 202 L 256 207 M 256 209 L 256 209 M 258 75 L 258 106 M 258 108 L 258 115 M 258 117 L 258 118 M 258 120 L 258 121 M 258 123 L 258 129 M 258 131 L 258 135 M 258 137 L 258 141 M 258 143 L 258 147 M 258 149 L 258 153 M 258 155 L 258 158 M 258 161 L 258 161 M 258 163 L 258 165 M 258 168 L 258 169 M 258 171 L 258 173 M 258 175 L 258 175 M 258 179 L 258 184 M 258 186 L 258 191 M 258 195 L 258 195 M 258 197 L 258 198 M 258 200 L 258 201 M 258 206 L 258 206 M 258 208 M 260 75 L 260 116 M 260 118 L 260 118 M 260 120 L 260 122 M 260 124 L 260 138 M 260 140 L 260 141 M 260 143 L 260 148 M 260 150 L 260 151 M 260 153 L 260 153 M 260 155 L 260 170 M 260 172 L 260 175 M 260 177 L 260 181 M 260 183 L 260 183 M 260 185 L 260 187 M 260 189 L 260 191 M 260 193 L 260 194 M 260 197 L 260 198 M 260 200 L 260 203 M 260 205 L 260 205 M 260 207 L 260 207 M 260 210 M 262 75 L 262 98 M 262 100 L 262 114 M 262 116 L 262 135 M 262 137 L 262 137 M 262 139 L 262 142 M 262 144 L 262 145 M 262 149 L 262 156 M 262 158 L 262 158 M 262 160 L 262 161 M 262 165 L 262 168 M 262 170 L 262 170 M 262 172 L 262 174 M 262 176 L 262 179 M 262 181 L 262 184 M 262 187 L 262 187 M 262 190 L 262 190 M 262 192 L 262 193 M 262 195 L 262 198 M 262 200 L 262 205 M 262 207 L 262 207 M 262 209 M 264 75 L 264 91 M 264 93 L 264 97 M 264 99 L 264 101 M 264 103 L 264 114 M 264 116 L 264 118 M 264 120 L 264 126 M 264 128 L 264 128 M 264 130 L 264 145 M 264 147 L 264 151 M 264 153 L 264 158 M 264 160 L 264 161 M 264 163 L 264 164 M 264 167 L 264 167 M 264 169 L 264 170 M 264 174 L 264 181 M 264 183 L 264 184 M 264 186 L 264 186 M 264 188 L 264 189 M 264 192 L 264 201 M 264 203 L 264 205 M 264 207 L 264 209 M 266 75 L 266 115 M 266 117 L 266 119 M 266 121 L 266 128 M 266 130 L 266 130 M 266 133 L 266 133 M 266 135 L 266 136 M 266 138 L 266 139 M 266 141 L 266 148 M 266 150 L 266 151 M 266 153 L 266 154 M 266 156 L 266 158 M 266 161 L 266 162 M 266 166 L 266 173 M 266 177 L 266 178 M 266 180 L 266 183 M 266 185 L 266 185 M 266 188 L 266 189 M 266 191 L 266 195 M 266 197 L 266 197 M 266 200 L 266 202 M 266 204 L 266 205 M 266 207 L 266 207 M 266 209 M 268 75 L 268 81 M 268 83 L 268 99 M 268 101 L 268 104 M 268 106 L 268 114 M 268 116 L 268 117 M 268 119 L 268 120 M 268 122 L 268 125 M 268 128 L 268 135 M 268 138 L 268 142 M 268 145 L 268 151 M 268 153 L 268 158 M 268 160 L 268 162 M 268 164 L 268 171 M 268 174 L 268 174 M 268 176 L 268 179 M 268 184 L 268 186 M 268 188 L 268 189 M 268 191 L 268 192 M 268 195 L 268 197 M 268 200 L 268 201 M 268 203 L 268 203 M 268 205 L 268 207 M 270 75 L 270 113 M 270 115 L 270 129 M 270 132 L 270 133 M 270 135 L 270 146 M 270 148 L 270 148 M 270 150 L 270 158 M 270 160 L 270 160 M 270 162 L 270 171 M 270 173 L 270 174 M 270 177 L 270 182 M 270 184 L 270 185 M 270 188 L 270 191 M 270 193 L 270 200 M 270 203 L 270 207 M 270 210 M 272 75 L 272 118 M 272 120 L 272 121 M 272 123 L 272 123 M 272 125 L 272 126 M 272 128 L 272 129 M 272 131 L 272 131 M 272 133 L 272 136 M 272 139 L 272 152 M 272 154 L 272 157 M 272 159 L 272 160 M 272 163 L 272 164 M 272 166 L 272 166 M 272 168 L 272 176 M 272 178 L 272 181 M 272 186 L 272 188 M 272 191 L 272 191 M 272 193 L 272 195 M 272 197 L 272 201 M 272 204 L 272 206 M 272 208 L 272 209 M 274 75 L 274 90 M 274 92 L 274 119 M 274 122 L 274 130 M 274 132 L 274 133 M 274 135 L 274 138 M 274 140 L 274 151 M 274 153 L 274 158 M 274 160 L 274 164 M 274 166 L 274 169 M 274 171 L 274 172 M 274 174 L 274 177 M 274 179 L 274 182 M 274 184 L 274 184 M 274 186 L 274 186 M 274 188 L 274 189 M 274 191 L 274 192 M 274 194 L 274 194 M 274 198 L 274 198 M 274 200 L 274 200 M 274 202 L 274 202 M 274 204 L 274 204 M 274 207 L 274 209 M 276 75 L 276 92 M 276 94 L 276 108 M 276 112 L 276 115 M 276 117 L 276 135 M 276 137 L 276 138 M 276 141 L 276 142 M 276 144 L 276 146 M 276 148 L 276 150 M 276 152 L 276 156 M 276 159 L 276 160 M 276 163 L 276 163 M 276 165 L 276 166 M 276 169 L 276 171 M 276 173 L 276 175 M 276 177 L 276 182 M 276 186 L 276 191 M 276 193 L 276 193 M 276 195 L 276 198 M 276 200 L 276 200 M 276 203 L 276 206 M 276 208 L 276 208 M 276 210 M 278 75 L 278 85 M 278 87 L 278 102 M 278 104 L 278 118 M 278 120 L 278 127 M 278 129 L 278 131 M 278 133 L 278 133 M 278 135 L 278 136 M 278 138 L 278 139 M 278 142 L 278 143 M 278 146 L 278 155 M 278 157 L 278 161 M 278 165 L 278 166 M 278 168 L 278 168 M 278 170 L 278 175 M 278 178 L 278 180 M 278 182 L 278 182 M 278 184 L 278 185 M 278 187 L 278 187 M 278 189 L 278 195 M 278 197 L 278 200 M 278 202 L 278 202 M 278 204 L 278 206 M 278 210 M 280 75 L 280 106 M 280 108 L 280 110 M 280 112 L 280 117 M 280 119 L 280 122 M 280 124 L 280 128 M 280 130 L 280 130 M 280 132 L 280 139 M 280 142 L 280 146 M 280 148 L 280 159 M 280 161 L 280 164 M 280 166 L 280 167 M 280 169 L 280 180 M 280 182 L 280 184 M 280 187 L 280 188 M 280 190 L 280 190 M 280 194 L 280 197 M 280 199 L 280 201 M 280 205 L 280 205 M 280 208 L 280 208 M 282 75 L 282 94 M 282 96 L 282 99 M 282 101 L 282 103 M 282 105 L 282 113 M 282 115 L 282 115 M 282 117 L 282 122 M 282 125 L 282 132 M 282 136 L 282 140 M 282 143 L 282 146 M 282 148 L 282 151 M 282 153 L 282 154 M 282 158 L 282 159 M 282 163 L 282 165 M 282 168 L 282 168 M 282 171 L 282 172 M 282 174 L 282 175 M 282 177 L 282 177 M 282 179 L 282 183 M 282 185 L 282 185 M 282 188 L 282 189 M 282 192 L 282 197 M 282 199 L 282 200 M 282 203 L 282 203 M 282 205 L 282 206 M 282 208 M 284 75 L 284 102 M 284 105 L 284 105 M 284 107 L 284 117 M 284 119 L 284 123 M 284 125 L 284 130 M 284 132 L 284 141 M 284 143 L 284 148 M 284 150 L 284 150 M 284 153 L 284 162 M 284 165 L 284 168 M 284 170 L 284 173 M 284 176 L 284 176 M 284 178 L 284 178 M 284 181 L 284 183 M 284 185 L 284 185 M 284 187 L 284 190 M 284 194 L 284 195 M 284 198 L 284 199 M 284 202 L 284 202 M 284 204 L 284 205 M 284 209 L 284 209 M 286 75 L 286 94 M 286 96 L 286 98 M 286 100 L 286 110 M 286 113 L 286 124 M 286 126 L 286 132 M 286 134 L 286 145 M 286 147 L 286 148 M 286 150 L 286 158 M 286 161 L 286 163 M 286 165 L 286 176 M 286 178 L 286 178 M 286 180 L 286 184 M 286 187 L 286 190 M 286 192 L 286 193 M 286 195 L 286 195 M 286 197 L 286 199 M 286 201 L 286 201 M 286 203 L 286 204 M 286 207 M 288 75 L 288 125 M 288 127 L 288 129 M 288 131 L 288 132 M 288 134 L 288 137 M 288 139 L 288 145 M 288 147 L 288 149 M 288 151 L 288 155 M 288 158 L 288 164 M 288 166 L 288 174 M 288 176 L 288 182 M 288 185 L 288 187 M 288 190 L 288 190 M 288 192 L 288 194 M 288 199 L 288 199 M 288 201 L 288 201 M 288 203 L 288 203 M 288 206 L 288 209 M 290 75 L 290 90 M 290 92 L 290 94 M 290 96 L 290 101 M 290 104 L 290 111 M 290 114 L 290 122 M 290 124 L 290 146 M 290 148 L 290 150 M 290 152 L 290 152 M 290 154 L 290 154 M 290 156 L 290 157 M 290 160 L 290 163 M 290 165 L 290 167 M 290 169 L 290 169 M 290 171 L 290 173 M 290 175 L 290 175 M 290 177 L 290 181 M 290 184 L 290 184 M 290 187 L 290 187 M 290 189 L 290 191 M 290 194 L 290 194 M 290 196 L 290 196 M 290 199 L 290 201 M 290 203 L 290 203 M 290 207 L 290 209 M 292 75 L 292 84 M 292 86 L 292 96 M 292 98 L 292 128 M 292 130 L 292 132 M 292 134 L 292 139 M 292 141 L 292 150 M 292 152 L 292 158 M 292 160 L 292 163 M 292 165 L 292 166 M 292 170 L 292 170 M 292 172 L 292 181 M 292 183 L 292 192 M 292 194 L 292 197 M 292 199 L 292 203 M 292 205 L 292 205 M 292 207 L 292 208 M 292 210 M 294 75 L 294 97 M 294 99 L 294 108 M 294 110 L 294 112 M 294 114 L 294 115 M 294 117 L 294 123 M 294 125 L 294 125 M 294 127 L 294 130 M 294 134 L 294 140 M 294 142 L 294 142 M 294 144 L 294 146 M 294 148 L 294 152 M 294 154 L 294 159 M 294 161 L 294 166 M 294 168 L 294 168 M 294 171 L 294 172 M 294 174 L 294 174 M 294 176 L 294 176 M 294 182 L 294 185 M 294 189 L 294 190 M 294 192 L 294 194 M 294 196 L 294 198 M 294 201 L 294 201 M 294 203 L 294 204 M 294 207 L 294 208 M 294 210 M 296 75 L 296 109 M 296 111 L 296 121 M 296 123 L 296 131 M 296 134 L 296 135 M 296 137 L 296 141 M 296 143 L 296 145 M 296 147 L 296 149 M 296 151 L 296 151 M 296 156 L 296 157 M 296 159 L 296 173 M 296 175 L 296 175 M 296 178 L 296 178 M 296 181 L 296 181 M 296 183 L 296 183 M 296 185 L 296 186 M 296 189 L 296 191 M 296 193 L 296 193 M 296 196 L 296 207 M 296 209 L 296 209 M 298 75 L 298 93 M 298 95 L 298 112 M 298 115 L 298 124 M 298 126 L 298 135 M 298 137 L 298 144 M 298 146 L 298 147 M 298 149 L 298 151 M 298 153 L 298 155 M 298 157 L 298 164 M 298 167 L 298 168 M 298 171 L 298 174 M 298 178 L 298 179 M 298 182 L 298 183 M 298 185 L 298 185 M 298 187 L 298 187 M 298 189 L 298 192 M 298 194 L 298 196 M 298 199 L 298 203 M 298 210" stroke="black" stroke-width="1" fill="none"></path><path d="M 0 75 L 20 20 M 5 75 L 25 20 M 10 75 L 30 20 M 15 75 L 35 20 M 20 75 L 40 20 M 25 75 L 45 20 M 30 75 L 50 20 M 35 75 L 55 20 M 40 75 L 60 20 M 45 75 L 65 20 M 50 75 L 70 20 M 55 75 L 75 20 M 60 75 L 80 20 M 65 75 L 85 20 M 70 75 L 90 20 M 75 75 L 95 20 M 80 75 L 100 20 M 85 75 L 105 20 M 90 75 L 110 20 M 95 75 L 115 20 M 100 75 L 120 20 M 105 75 L 125 20 M 110 75 L 130 20 M 115 75 L 135 20 M 120 75 L 140 20 M 125 75 L 145 20 M 130 75 L 150 20 M 135 75 L 155 20 M 140 75 L 160 20 M 145 75 L 165 20 M 150 75 L 170 20 M 155 75 L 175 20 M 160 75 L 180 20 M 165 75 L 185 20 M 170 75 L 190 20 M 175 75 L 195 20 M 180 75 L 200 20 M 185 75 L 205 20 M 190 75 L 210 20 M 195 75 L 215 20 M 200 75 L 220 20 M 205 75 L 225 20 M 210 75 L 230 20 M 215 75 L 235 20 M 220 75 L 240 20 M 225 75 L 245 20 M 230 75 L 250 20 M 235 75 L 255 20 M 240 75 L 260 20 M 245 75 L 265 20 M 250 75 L 270 20 M 255 75 L 275 20 M 260 75 L 280 20 M 265 75 L 285 20 M 270 75 L 290 20 M 275 75 L 295 20 M 280 75 L 300 20 M 285 75 L 305 20 M 290 75 L 310 20 M 295 75 L 315 20" stroke="black" stroke-width="1" fill="none"></path><path d="M 47.9296 189.55 L 77.9296 189.55 L 47.9296 10 M 23.4045 161.97 L 53.4045 161.97 L 23.4045 10 M 52.6857 167.802 L 82.6857 167.802 L 52.6857 10 M 78.1859 176.868 L 108.186 176.868 L 78.1859 10 M 77.5231 182.157 L 107.523 182.157 L 77.5231 10 M 45.5043 171.162 L 75.5043 171.162 L 45.5043 10" stroke="black" stroke-width="1" fill="none"></path></svg>
