<svg version="1.1" xmlns:xlink="http://www.w3.org/1999/xlink" xmlns="http://www.w3.org/2000/svg"><path d="M 49.5 49.5 L 49.5 50.5 L 50.5 50.5 L 50.5 49.5 L 49.5 49.5 M 49 49 L 49 51 L 51 51 L 51 49 L 49 49 M 48 48 L 48 52 L 52 52 L 52 48 L 48 48 M 46.5 46.5 L 46.5 53.5 L 53.5 53.5 L 53.5 46.5 L 46.5 46.5 M 43.5 43.5 L 43.5 56.5 L 56.5 56.5 L 56.5 43.5 L 43.5 43.5 M 43 43 L 43 57 L 57 57 L 57 43 L 43 43 M 42 42 L 42 58 L 58 58 L 58 42 L 42 42 M 41.5 41.5 L 41.5 58.5 L 58.5 58.5 L 58.5 41.5 L 41.5 41.5 M 41 41 L 41 59 L 59 59 L 59 41 L 41 41 M 40.5 40.5 L 40.5 59.5 L 59.5 59.5 L 59.5 40.5 L 40.5 40.5 M 40 40 L 40 60 L 60 60 L 60 40 L 40 40 M 89.5 49.5 L 89.5 50.5 L 90.5 50.5 L 90.5 49.5 L 89.5 49.5 M 89 49 L 89 51 L 91 51 L 91 49 L 89 49 M 88.5 48.5 L 88.5 51.5 L 91.5 51.5 L 91.5 48.5 L 88.5 48.5 M 87.5 47.5 L 87.5 52.5 L 92.5 52.5 L 92.5 47.5 L 87.5 47.5 M 86.5 46.5 L 86.5 53.5 L 93.5 53.5 L 93.5 46.5 L 86.5 46.5 M 86 46 L 86 54 L 94 54 L 94 46 L 86 46 M 85.5 45.5 L 85.5 54.5 L 94.5 54.5 L 94.5 45.5 L 85.5 45.5 M 85 45 L 85 55 L 95 55 L 95 45 L 85 45 M 83 43 L 83 57 L 97 57 L 97 43 L 83 43 M 81 41 L 81 59 L 99 59 L 99 41 L 81 41 M 80.5 40.5 L 80.5 59.5 L 99.5 59.5 L 99.5 40.5 L 80.5 40.5 M 80 40 L 80 60 L 100 60 L 100 40 L 80 40 M 129.5 49.5 L 129.5 50.5 L 130.5 50.5 L 130.5 49.5 L 129.5 49.5 M 129 49 L 129 51 L 131 51 L 131 49 L 129 49 M 127 47 L 127 53 L 133 53 L 133 47 L 127 47 M 126.5 46.5 L 126.5 53.5 L 133.5 53.5 L 133.5 46.5 L 126.5 46.5 M 126 46 L 126 54 L 134 54 L 134 46 L 126 46 M 125.5 45.5 L 125.5 54.5 L 134.5 54.5 L 134.5 45.5 L 125.5 45.5 M 124.5 44.5 L 124.5 55.5 L 135.5 55.5 L 135.5 44.5 L 124.5 44.5 M 121 41 L 121 59 L 139 59 L 139 41 L 121 41 M 120.5 40.5 L 120.5 59.5 L 139.5 59.5 L 139.5 40.5 L 120.5 40.5 M 120 40 L 120 60 L 140 60 L 140 40 L 120 40 M 169.5 49.5 L 169.5 50.5 L 170.5 50.5 L 170.5 49.5 L 169.5 49.5 M 168.5 48.5 L 168.5 51.5 L 171.5 51.5 L 171.5 48.5 L 168.5 48.5 M 168 48 L 168 52 L 172 52 L 172 48 L 168 48 M 166 46 L 166 54 L 174 54 L 174 46 L 166 46 M 164 44 L 164 56 L 176 56 L 176 44 L 164 44 M 163 43 L 163 57 L 177 57 L 177 43 L 163 43 M 162.5 42.5 L 162.5 57.5 L 177.5 57.5 L 177.5 42.5 L 162.5 42.5 M 161.5 41.5 L 161.5 58.5 L 178.5 58.5 L 178.5 41.5 L 161.5 41.5 M 161 41 L 161 59 L 179 59 L 179 41 L 161 41 M 160 40 L 160 60 L 180 60 L 180 40 L 160 40 M 209.5 49.5 L 209.5 50.5 L 210.5 50.5 L 210.5 49.5 L 209.5 49.5 M 208.5 48.5 L 208.5 51.5 L 211.5 51.5 L 211.5 48.5 L 208.5 48.5 M 208 48 L 208 52 L 212 52 L 212 48 L 208 48 M 207 47 L 207 53 L 213 53 L 213 47 L 207 47 M 206 46 L 206 54 L 214 54 L 214 46 L 206 46 M 205.5 45.5 L 205.5 54.5 L 214.5 54.5 L 214.5 45.5 L 205.5 45.5 M 203 43 L 203 57 L 217 57 L 217 43 L 203 43 M 202.5 42.5 L 202.5 57.5 L 217.5 57.5 L 217.5 42.5 L 202.5 42.5 M 201.5 41.5 L 201.5 58.5 L 218.5 58.5 L 218.5 41.5 L 201.5 41.5 M 201 41 L 201 59 L 219 59 L 219 41 L 201 41 M 249.5 49.5 L 249.5 50.5 L 250.5 50.5 L 250.5 49.5 L 249.5 49.5 M 248 48 L 248 52 L 252 52 L 252 48 L 248 48 M 246 46 L 246 54 L 254 54 L 254 46 L 246 46 M 245.5 45.5 L 245.5 54.5 L 254.5 54.5 L 254.5 45.5 L 245.5 45.5 M 243 43 L 243 57 L 257 57 L 257 43 L 243 43 M 242.5 42.5 L 242.5 57.5 L 257.5 57.5 L 257.5 42.5 L 242.5 42.5 M 242 42 L 242 58 L 258 58 L 258 42 L 242 42 M 289.5 49.5 L 289.5 50.5 L 290.5 50.5 L 290.5 49.5 L 289.5 49.5 M 289 49 L 289 51 L 291 51 L 291 49 L 289 49 M 288 48 L 288 52 L 292 52 L 292 48 L 288 48 M 287 47 L 287 53 L 293 53 L 293 47 L 287 47 M 286.5 46.5 L 286.5 53.5 L 293.5 53.5 L 293.5 46.5 L 286.5 46.5 M 285.5 45.5 L 285.5 54.5 L 294.5 54.5 L 294.5 45.5 L 285.5 45.5 M 284.5 44.5 L 284.5 55.5 L 295.5 55.5 L 295.5 44.5 L 284.5 44.5 M 283 43 L 283 57 L 297 57 L 297 43 L 283 43 M 281.5 41.5 L 281.5 58.5 L 298.5 58.5 L 298.5 41.5 L 281.5 41.5 M 281 41 L 281 59 L 299 59 L 299 41 L 281 41 M 280.5 40.5 L 280.5 59.5 L 299.5 59.5 L 299.5 40.5 L 280.5 40.5 M 327 47 L 327 53 L 333 53 L 333 47 L 327 47 M 326.5 46.5 L 326.5 53.5 L 333.5 53.5 L 333.5 46.5 L 326.5 46.5 M 325 45 L 325 55 L 335 55 L 335 45 L 325 45 M 324.5 44.5 L 324.5 55.5 L 335.5 55.5 L 335.5 44.5 L 324.5 44.5 M 323 43 L 323 57 L 337 57 L 337 43 L 323 43 M 322 42 L 322 58 L 338 58 L 338 42 L 322 42 M 321.5 41.5 L 321.5 58.5 L 338.5 58.5 L 338.5 41.5 L 321.5 41.5 M 321 41 L 321 59 L 339 59 L 339 41 L 321 41 M 368.5 48.5 L 368.5 51.5 L 371.5 51.5 L 371.5 48.5 L 368.5 48.5 M 368 48 L 368 52 L 372 52 L 372 48 L 368 48 M 367.5 47.5 L 367.5 52.5 L 372.5 52.5 L 372.5 47.5 L 367.5 47.5 M 366.5 46.5 L 366.5 53.5 L 373.5 53.5 L 373.5 46.5 L 366.5 46.5 M 365 45 L 365 55 L 375 55 L 375 45 L 365 45 M 364.5 44.5 L 364.5 55.5 L 375.5 55.5 L 375.5 44.5 L 364.5 44.5 M 364 44 L 364 56 L 376 56 L 376 44 L 364 44 M 362 42 L 362 58 L 378 58 L 378 42 L 362 42 M 361.5 41.5 L 361.5 58.5 L 378.5 58.5 L 378.5 41.5 L 361.5 41.5 M 361 41 L 361 59 L 379 59 L 379 41 L 361 41 M 408.5 48.5 L 408.5 51.5 L 411.5 51.5 L 411.5 48.5 L 408.5 48.5 M 408 48 L 408 52 L 412 52 L 412 48 L 408 48 M 407.5 47.5 L 407.5 52.5 L 412.5 52.5 L 412.5 47.5 L 407.5 47.5 M 407 47 L 407 53 L 413 53 L 413 47 L 407 47 M 406.5 46.5 L 406.5 53.5 L 413.5 53.5 L 413.5 46.5 L 406.5 46.5 M 405.5 45.5 L 405.5 54.5 L 414.5 54.5 L 414.5 45.5 L 405.5 45.5 M 405 45 L 405 55 L 415 55 L 415 45 L 405 45 M 404.5 44.5 L 404.5 55.5 L 415.5 55.5 L 415.5 44.5 L 404.5 44.5 M 404 44 L 404 56 L 416 56 L 416 44 L 404 44 M 403.5 43.5 L 403.5 56.5 L 416.5 56.5 L 416.5 43.5 L 403.5 43.5 M 402 42 L 402 58 L 418 58 L 418 42 L 402 42 M 400 40 L 400 60 L 420 60 L 420 40 L 400 40 M 49.5 89.5 L 49.5 90.5 L 50.5 90.5 L 50.5 89.5 L 49.5 89.5 M 49 89 L 49 91 L 51 91 L 51 89 L 49 89 M 48.5 88.5 L 48.5 91.5 L 51.5 91.5 L 51.5 88.5 L 48.5 88.5 M 48 88 L 48 92 L 52 92 L 52 88 L 48 88 M 47.5 87.5 L 47.5 92.5 L 52.5 92.5 L 52.5 87.5 L 47.5 87.5 M 47 87 L 47 93 L 53 93 L 53 87 L 47 87 M 46 86 L 46 94 L 54 94 L 54 86 L 46 86 M 45.5 85.5 L 45.5 94.5 L 54.5 94.5 L 54.5 85.5 L 45.5 85.5 M 45 85 L 45 95 L 55 95 L 55 85 L 45 85 M 44 84 L 44 96 L 56 96 L 56 84 L 44 84 M 43.5 83.5 L 43.5 96.5 L 56.5 96.5 L 56.5 83.5 L 43.5 83.5 M 42.5 82.5 L 42.5 97.5 L 57.5 97.5 L 57.5 82.5 L 42.5 82.5 M 42 82 L 42 98 L 58 98 L 58 82 L 42 82 M 89 89 L 89 91 L 91 91 L 91 89 L 89 89 M 88.5 88.5 L 88.5 91.5 L 91.5 91.5 L 91.5 88.5 L 88.5 88.5 M 87.5 87.5 L 87.5 92.5 L 92.5 92.5 L 92.5 87.5 L 87.5 87.5 M 86.5 86.5 L 86.5 93.5 L 93.5 93.5 L 93.5 86.5 L 86.5 86.5 M 86 86 L 86 94 L 94 94 L 94 86 L 86 86 M 85 85 L 85 95 L 95 95 L 95 85 L 85 85 M 84 84 L 84 96 L 96 96 L 96 84 L 84 84 M 83 83 L 83 97 L 97 97 L 97 83 L 83 83 M 82.5 82.5 L 82.5 97.5 L 97.5 97.5 L 97.5 82.5 L 82.5 82.5 M 82 82 L 82 98 L 98 98 L 98 82 L 82 82 M 81.5 81.5 L 81.5 98.5 L 98.5 98.5 L 98.5 81.5 L 81.5 81.5 M 80.5 80.5 L 80.5 99.5 L 99.5 99.5 L 99.5 80.5 L 80.5 80.5 M 129 89 L 129 91 L 131 91 L 131 89 L 129 89 M 126.5 86.5 L 126.5 93.5 L 133.5 93.5 L 133.5 86.5 L 126.5 86.5 M 126 86 L 126 94 L 134 94 L 134 86 L 126 86 M 125.5 85.5 L 125.5 94.5 L 134.5 94.5 L 134.5 85.5 L 125.5 85.5 M 124 84 L 124 96 L 136 96 L 136 84 L 124 84 M 121.5 81.5 L 121.5 98.5 L 138.5 98.5 L 138.5 81.5 L 121.5 81.5 M 166 86 L 166 94 L 174 94 L 174 86 L 166 86 M 164.5 84.5 L 164.5 95.5 L 175.5 95.5 L 175.5 84.5 L 164.5 84.5 M 164 84 L 164 96 L 176 96 L 176 84 L 164 84 M 163 83 L 163 97 L 177 97 L 177 83 L 163 83 M 162.5 82.5 L 162.5 97.5 L 177.5 97.5 L 177.5 82.5 L 162.5 82.5 M 162 82 L 162 98 L 178 98 L 178 82 L 162 82 M 160.5 80.5 L 160.5 99.5 L 179.5 99.5 L 179.5 80.5 L 160.5 80.5 M 160 80 L 160 100 L 180 100 L 180 80 L 160 80 M 209 89 L 209 91 L 211 91 L 211 89 L 209 89 M 208 88 L 208 92 L 212 92 L 212 88 L 208 88 M 207 87 L 207 93 L 213 93 L 213 87 L 207 87 M 206.5 86.5 L 206.5 93.5 L 213.5 93.5 L 213.5 86.5 L 206.5 86.5 M 205.5 85.5 L 205.5 94.5 L 214.5 94.5 L 214.5 85.5 L 205.5 85.5 M 205 85 L 205 95 L 215 95 L 215 85 L 205 85 M 204 84 L 204 96 L 216 96 L 216 84 L 204 84 M 202.5 82.5 L 202.5 97.5 L 217.5 97.5 L 217.5 82.5 L 202.5 82.5 M 200.5 80.5 L 200.5 99.5 L 219.5 99.5 L 219.5 80.5 L 200.5 80.5 M 200 80 L 200 100 L 220 100 L 220 80 L 200 80 M 249 89 L 249 91 L 251 91 L 251 89 L 249 89 M 248.5 88.5 L 248.5 91.5 L 251.5 91.5 L 251.5 88.5 L 248.5 88.5 M 247 87 L 247 93 L 253 93 L 253 87 L 247 87 M 246 86 L 246 94 L 254 94 L 254 86 L 246 86 M 245.5 85.5 L 245.5 94.5 L 254.5 94.5 L 254.5 85.5 L 245.5 85.5 M 245 85 L 245 95 L 255 95 L 255 85 L 245 85 M 244.5 84.5 L 244.5 95.5 L 255.5 95.5 L 255.5 84.5 L 244.5 84.5 M 244 84 L 244 96 L 256 96 L 256 84 L 244 84 M 243.5 83.5 L 243.5 96.5 L 256.5 96.5 L 256.5 83.5 L 243.5 83.5 M 243 83 L 243 97 L 257 97 L 257 83 L 243 83 M 242 82 L 242 98 L 258 98 L 258 82 L 242 82 M 241.5 81.5 L 241.5 98.5 L 258.5 98.5 L 258.5 81.5 L 241.5 81.5 M 240.5 80.5 L 240.5 99.5 L 259.5 99.5 L 259.5 80.5 L 240.5 80.5 M 240 80 L 240 100 L 260 100 L 260 80 L 240 80 M 288.5 88.5 L 288.5 91.5 L 291.5 91.5 L 291.5 88.5 L 288.5 88.5 M 287.5 87.5 L 287.5 92.5 L 292.5 92.5 L 292.5 87.5 L 287.5 87.5 M 287 87 L 287 93 L 293 93 L 293 87 L 287 87 M 286.5 86.5 L 286.5 93.5 L 293.5 93.5 L 293.5 86.5 L 286.5 86.5 M 284 84 L 284 96 L 296 96 L 296 84 L 284 84 M 282 82 L 282 98 L 298 98 L 298 82 L 282 82 M 281 81 L 281 99 L 299 99 L 299 81 L 281 81 M 280 80 L 280 100 L 300 100 L 300 80 L 280 80 M 329 89 L 329 91 L 331 91 L 331 89 L 329 89 M 328 88 L 328 92 L 332 92 L 332 88 L 328 88 M 327 87 L 327 93 L 333 93 L 333 87 L 327 87 M 326.5 86.5 L 326.5 93.5 L 333.5 93.5 L 333.5 86.5 L 326.5 86.5 M 326 86 L 326 94 L 334 94 L 334 86 L 326 86 M 325.5 85.5 L 325.5 94.5 L 334.5 94.5 L 334.5 85.5 L 325.5 85.5 M 325 85 L 325 95 L 335 95 L 335 85 L 325 85 M 323.5 83.5 L 323.5 96.5 L 336.5 96.5 L 336.5 83.5 L 323.5 83.5 M 322.5 82.5 L 322.5 97.5 L 337.5 97.5 L 337.5 82.5 L 322.5 82.5 M 321.5 81.5 L 321.5 98.5 L 338.5 98.5 L 338.5 81.5 L 321.5 81.5 M 321 81 L 321 99 L 339 99 L 339 81 L 321 81 M 320.5 80.5 L 320.5 99.5 L 339.5 99.5 L 339.5 80.5 L 320.5 80.5 M 320 80 L 320 100 L 340 100 L 340 80 L 320 80 M 369.5 89.5 L 369.5 90.5 L 370.5 90.5 L 370.5 89.5 L 369.5 89.5 M 369 89 L 369 91 L 371 91 L 371 89 L 369 89 M 368.5 88.5 L 368.5 91.5 L 371.5 91.5 L 371.5 88.5 L 368.5 88.5 M 367.5 87.5 L 367.5 92.5 L 372.5 92.5 L 372.5 87.5 L 367.5 87.5 M 367 87 L 367 93 L 373 93 L 373 87 L 367 87 M 366.5 86.5 L 366.5 93.5 L 373.5 93.5 L 373.5 86.5 L 366.5 86.5 M 365.5 85.5 L 365.5 94.5 L 374.5 94.5 L 374.5 85.5 L 365.5 85.5 M 365 85 L 365 95 L 375 95 L 375 85 L 365 85 M 364.5 84.5 L 364.5 95.5 L 375.5 95.5 L 375.5 84.5 L 364.5 84.5 M 364 84 L 364 96 L 376 96 L 376 84 L 364 84 M 363.5 83.5 L 363.5 96.5 L 376.5 96.5 L 376.5 83.5 L 363.5 83.5 M 363 83 L 363 97 L 377 97 L 377 83 L 363 83 M 362.5 82.5 L 362.5 97.5 L 377.5 97.5 L 377.5 82.5 L 362.5 82.5 M 361.5 81.5 L 361.5 98.5 L 378.5 98.5 L 378.5 81.5 L 361.5 81.5 M 361 81 L 361 99 L 379 99 L 379 81 L 361 81 M 360.5 80.5 L 360.5 99.5 L 379.5 99.5 L 379.5 80.5 L 360.5 80.5 M 409.5 89.5 L 409.5 90.5 L 410.5 90.5 L 410.5 89.5 L 409.5 89.5 M 409 89 L 409 91 L 411 91 L 411 89 L 409 89 M 408 88 L 408 92 L 412 92 L 412 88 L 408 88 M 407 87 L 407 93 L 413 93 L 413 87 L 407 87 M 404 84 L 404 96 L 416 96 L 416 84 L 404 84 M 403.5 83.5 L 403.5 96.5 L 416.5 96.5 L 416.5 83.5 L 403.5 83.5 M 403 83 L 403 97 L 417 97 L 417 83 L 403 83 M 402.5 82.5 L 402.5 97.5 L 417.5 97.5 L 417.5 82.5 L 402.5 82.5 M 402 82 L 402 98 L 418 98 L 418 82 L 402 82 M 401.5 81.5 L 401.5 98.5 L 418.5 98.5 L 418.5 81.5 L 401.5 81.5 M 401 81 L 401 99 L 419 99 L 419 81 L 401 81 M 400.5 80.5 L 400.5 99.5 L 419.5 99.5 L 419.5 80.5 L 400.5 80.5 M 400 80 L 400 100 L 420 100 L 420 80 L 400 80 M 49 129 L 49 131 L 51 131 L 51 129 L 49 129 M 47.5 127.5 L 47.5 132.5 L 52.5 132.5 L 52.5 127.5 L 47.5 127.5 M 47 127 L 47 133 L 53 133 L 53 127 L 47 127 M 46.5 126.5 L 46.5 133.5 L 53.5 133.5 L 53.5 126.5 L 46.5 126.5 M 46 126 L 46 134 L 54 134 L 54 126 L 46 126 M 45.5 125.5 L 45.5 134.5 L 54.5 134.5 L 54.5 125.5 L 45.5 125.5 M 43 123 L 43 137 L 57 137 L 57 123 L 43 123 M 42.5 122.5 L 42.5 137.5 L 57.5 137.5 L 57.5 122.5 L 42.5 122.5 M 42 122 L 42 138 L 58 138 L 58 122 L 42 122 M 41 121 L 41 139 L 59 139 L 59 121 L 41 121 M 40.5 120.5 L 40.5 139.5 L 59.5 139.5 L 59.5 120.5 L 40.5 120.5 M 40 120 L 40 140 L 60 140 L 60 120 L 40 120 M 89.5 129.5 L 89.5 130.5 L 90.5 130.5 L 90.5 129.5 L 89.5 129.5 M 88.5 128.5 L 88.5 131.5 L 91.5 131.5 L 91.5 128.5 L 88.5 128.5 M 88 128 L 88 132 L 92 132 L 92 128 L 88 128 M 87.5 127.5 L 87.5 132.5 L 92.5 132.5 L 92.5 127.5 L 87.5 127.5 M 85.5 125.5 L 85.5 134.5 L 94.5 134.5 L 94.5 125.5 L 85.5 125.5 M 84.5 124.5 L 84.5 135.5 L 95.5 135.5 L 95.5 124.5 L 84.5 124.5 M 83.5 123.5 L 83.5 136.5 L 96.5 136.5 L 96.5 123.5 L 83.5 123.5 M 82 122 L 82 138 L 98 138 L 98 122 L 82 122 M 81.5 121.5 L 81.5 138.5 L 98.5 138.5 L 98.5 121.5 L 81.5 121.5 M 81 121 L 81 139 L 99 139 L 99 121 L 81 121 M 129.5 129.5 L 129.5 130.5 L 130.5 130.5 L 130.5 129.5 L 129.5 129.5 M 128.5 128.5 L 128.5 131.5 L 131.5 131.5 L 131.5 128.5 L 128.5 128.5 M 126.5 126.5 L 126.5 133.5 L 133.5 133.5 L 133.5 126.5 L 126.5 126.5 M 125 125 L 125 135 L 135 135 L 135 125 L 125 125 M 124.5 124.5 L 124.5 135.5 L 135.5 135.5 L 135.5 124.5 L 124.5 124.5 M 124 124 L 124 136 L 136 136 L 136 124 L 124 124 M 123.5 123.5 L 123.5 136.5 L 136.5 136.5 L 136.5 123.5 L 123.5 123.5 M 122.5 122.5 L 122.5 137.5 L 137.5 137.5 L 137.5 122.5 L 122.5 122.5 M 122 122 L 122 138 L 138 138 L 138 122 L 122 122 M 121 121 L 121 139 L 139 139 L 139 121 L 121 121 M 169 129 L 169 131 L 171 131 L 171 129 L 169 129 M 166.5 126.5 L 166.5 133.5 L 173.5 133.5 L 173.5 126.5 L 166.5 126.5 M 166 126 L 166 134 L 174 134 L 174 126 L 166 126 M 163.5 123.5 L 163.5 136.5 L 176.5 136.5 L 176.5 123.5 L 163.5 123.5 M 163 123 L 163 137 L 177 137 L 177 123 L 163 123 M 209 129 L 209 131 L 211 131 L 211 129 L 209 129 M 208.5 128.5 L 208.5 131.5 L 211.5 131.5 L 211.5 128.5 L 208.5 128.5 M 208 128 L 208 132 L 212 132 L 212 128 L 208 128 M 207 127 L 207 133 L 213 133 L 213 127 L 207 127 M 206.5 126.5 L 206.5 133.5 L 213.5 133.5 L 213.5 126.5 L 206.5 126.5 M 206 126 L 206 134 L 214 134 L 214 126 L 206 126 M 205.5 125.5 L 205.5 134.5 L 214.5 134.5 L 214.5 125.5 L 205.5 125.5 M 204.5 124.5 L 204.5 135.5 L 215.5 135.5 L 215.5 124.5 L 204.5 124.5 M 201 121 L 201 139 L 219 139 L 219 121 L 201 121 M 200.5 120.5 L 200.5 139.5 L 219.5 139.5 L 219.5 120.5 L 200.5 120.5 M 249.5 129.5 L 249.5 130.5 L 250.5 130.5 L 250.5 129.5 L 249.5 129.5 M 249 129 L 249 131 L 251 131 L 251 129 L 249 129 M 248 128 L 248 132 L 252 132 L 252 128 L 248 128 M 245 125 L 245 135 L 255 135 L 255 125 L 245 125 M 244 124 L 244 136 L 256 136 L 256 124 L 244 124 M 242.5 122.5 L 242.5 137.5 L 257.5 137.5 L 257.5 122.5 L 242.5 122.5 M 241.5 121.5 L 241.5 138.5 L 258.5 138.5 L 258.5 121.5 L 241.5 121.5 M 241 121 L 241 139 L 259 139 L 259 121 L 241 121 M 240.5 120.5 L 240.5 139.5 L 259.5 139.5 L 259.5 120.5 L 240.5 120.5 M 289 129 L 289 131 L 291 131 L 291 129 L 289 129 M 288.5 128.5 L 288.5 131.5 L 291.5 131.5 L 291.5 128.5 L 288.5 128.5 M 287.5 127.5 L 287.5 132.5 L 292.5 132.5 L 292.5 127.5 L 287.5 127.5 M 287 127 L 287 133 L 293 133 L 293 127 L 287 127 M 285.5 125.5 L 285.5 134.5 L 294.5 134.5 L 294.5 125.5 L 285.5 125.5 M 283.5 123.5 L 283.5 136.5 L 296.5 136.5 L 296.5 123.5 L 283.5 123.5 M 282.5 122.5 L 282.5 137.5 L 297.5 137.5 L 297.5 122.5 L 282.5 122.5 M 282 122 L 282 138 L 298 138 L 298 122 L 282 122 M 281.5 121.5 L 281.5 138.5 L 298.5 138.5 L 298.5 121.5 L 281.5 121.5 M 281 121 L 281 139 L 299 139 L 299 121 L 281 121 M 329.5 129.5 L 329.5 130.5 L 330.5 130.5 L 330.5 129.5 L 329.5 129.5 M 329 129 L 329 131 L 331 131 L 331 129 L 329 129 M 327.5 127.5 L 327.5 132.5 L 332.5 132.5 L 332.5 127.5 L 327.5 127.5 M 326.5 126.5 L 326.5 133.5 L 333.5 133.5 L 333.5 126.5 L 326.5 126.5 M 326 126 L 326 134 L 334 134 L 334 126 L 326 126 M 325 125 L 325 135 L 335 135 L 335 125 L 325 125 M 322.5 122.5 L 322.5 137.5 L 337.5 137.5 L 337.5 122.5 L 322.5 122.5 M 322 122 L 322 138 L 338 138 L 338 122 L 322 122 M 320.5 120.5 L 320.5 139.5 L 339.5 139.5 L 339.5 120.5 L 320.5 120.5 M 369.5 129.5 L 369.5 130.5 L 370.5 130.5 L 370.5 129.5 L 369.5 129.5 M 369 129 L 369 131 L 371 131 L 371 129 L 369 129 M 368 128 L 368 132 L 372 132 L 372 128 L 368 128 M 367.5 127.5 L 367.5 132.5 L 372.5 132.5 L 372.5 127.5 L 367.5 127.5 M 366.5 126.5 L 366.5 133.5 L 373.5 133.5 L 373.5 126.5 L 366.5 126.5 M 365 125 L 365 135 L 375 135 L 375 125 L 365 125 M 363.5 123.5 L 363.5 136.5 L 376.5 136.5 L 376.5 123.5 L 363.5 123.5 M 363 123 L 363 137 L 377 137 L 377 123 L 363 123 M 362.5 122.5 L 362.5 137.5 L 377.5 137.5 L 377.5 122.5 L 362.5 122.5 M 362 122 L 362 138 L 378 138 L 378 122 L 362 122 M 361 121 L 361 139 L 379 139 L 379 121 L 361 121 M 409.5 129.5 L 409.5 130.5 L 410.5 130.5 L 410.5 129.5 L 409.5 129.5 M 409 129 L 409 131 L 411 131 L 411 129 L 409 129 M 406.5 126.5 L 406.5 133.5 L 413.5 133.5 L 413.5 126.5 L 406.5 126.5 M 406 126 L 406 134 L 414 134 L 414 126 L 406 126 M 405 125 L 405 135 L 415 135 L 415 125 L 405 125 M 404 124 L 404 136 L 416 136 L 416 124 L 404 124 M 403.5 123.5 L 403.5 136.5 L 416.5 136.5 L 416.5 123.5 L 403.5 123.5 M 403 123 L 403 137 L 417 137 L 417 123 L 403 123 M 402 122 L 402 138 L 418 138 L 418 122 L 402 122 M 400 120 L 400 140 L 420 140 L 420 120 L 400 120 M 49.5 169.5 L 49.5 170.5 L 50.5 170.5 L 50.5 169.5 L 49.5 169.5 M 49 169 L 49 171 L 51 171 L 51 169 L 49 169 M 47.5 167.5 L 47.5 172.5 L 52.5 172.5 L 52.5 167.5 L 47.5 167.5 M 46.5 166.5 L 46.5 173.5 L 53.5 173.5 L 53.5 166.5 L 46.5 166.5 M 45.5 165.5 L 45.5 174.5 L 54.5 174.5 L 54.5 165.5 L 45.5 165.5 M 44.5 164.5 L 44.5 175.5 L 55.5 175.5 L 55.5 164.5 L 44.5 164.5 M 43.5 163.5 L 43.5 176.5 L 56.5 176.5 L 56.5 163.5 L 43.5 163.5 M 42.5 162.5 L 42.5 177.5 L 57.5 177.5 L 57.5 162.5 L 42.5 162.5 M 41.5 161.5 L 41.5 178.5 L 58.5 178.5 L 58.5 161.5 L 41.5 161.5 M 40 160 L 40 180 L 60 180 L 60 160 L 40 160 M 89 169 L 89 171 L 91 171 L 91 169 L 89 169 M 88.5 168.5 L 88.5 171.5 L 91.5 171.5 L 91.5 168.5 L 88.5 168.5 M 88 168 L 88 172 L 92 172 L 92 168 L 88 168 M 87 167 L 87 173 L 93 173 L 93 167 L 87 167 M 86.5 166.5 L 86.5 173.5 L 93.5 173.5 L 93.5 166.5 L 86.5 166.5 M 86 166 L 86 174 L 94 174 L 94 166 L 86 166 M 84.5 164.5 L 84.5 175.5 L 95.5 175.5 L 95.5 164.5 L 84.5 164.5 M 84 164 L 84 176 L 96 176 L 96 164 L 84 164 M 83.5 163.5 L 83.5 176.5 L 96.5 176.5 L 96.5 163.5 L 83.5 163.5 M 83 163 L 83 177 L 97 177 L 97 163 L 83 163 M 82.5 162.5 L 82.5 177.5 L 97.5 177.5 L 97.5 162.5 L 82.5 162.5 M 82 162 L 82 178 L 98 178 L 98 162 L 82 162 M 80.5 160.5 L 80.5 179.5 L 99.5 179.5 L 99.5 160.5 L 80.5 160.5 M 129.5 169.5 L 129.5 170.5 L 130.5 170.5 L 130.5 169.5 L 129.5 169.5 M 128.5 168.5 L 128.5 171.5 L 131.5 171.5 L 131.5 168.5 L 128.5 168.5 M 127 167 L 127 173 L 133 173 L 133 167 L 127 167 M 126.5 166.5 L 126.5 173.5 L 133.5 173.5 L 133.5 166.5 L 126.5 166.5 M 125.5 165.5 L 125.5 174.5 L 134.5 174.5 L 134.5 165.5 L 125.5 165.5 M 125 165 L 125 175 L 135 175 L 135 165 L 125 165 M 124 164 L 124 176 L 136 176 L 136 164 L 124 164 M 121.5 161.5 L 121.5 178.5 L 138.5 178.5 L 138.5 161.5 L 121.5 161.5 M 121 161 L 121 179 L 139 179 L 139 161 L 121 161 M 120.5 160.5 L 120.5 179.5 L 139.5 179.5 L 139.5 160.5 L 120.5 160.5 M 169.5 169.5 L 169.5 170.5 L 170.5 170.5 L 170.5 169.5 L 169.5 169.5 M 169 169 L 169 171 L 171 171 L 171 169 L 169 169 M 168.5 168.5 L 168.5 171.5 L 171.5 171.5 L 171.5 168.5 L 168.5 168.5 M 168 168 L 168 172 L 172 172 L 172 168 L 168 168 M 167 167 L 167 173 L 173 173 L 173 167 L 167 167 M 166.5 166.5 L 166.5 173.5 L 173.5 173.5 L 173.5 166.5 L 166.5 166.5 M 165 165 L 165 175 L 175 175 L 175 165 L 165 165 M 163.5 163.5 L 163.5 176.5 L 176.5 176.5 L 176.5 163.5 L 163.5 163.5 M 163 163 L 163 177 L 177 177 L 177 163 L 163 163 M 162 162 L 162 178 L 178 178 L 178 162 L 162 162 M 161.5 161.5 L 161.5 178.5 L 178.5 178.5 L 178.5 161.5 L 161.5 161.5 M 161 161 L 161 179 L 179 179 L 179 161 L 161 161 M 160.5 160.5 L 160.5 179.5 L 179.5 179.5 L 179.5 160.5 L 160.5 160.5 M 209 169 L 209 171 L 211 171 L 211 169 L 209 169 M 208.5 168.5 L 208.5 171.5 L 211.5 171.5 L 211.5 168.5 L 208.5 168.5 M 206.5 166.5 L 206.5 173.5 L 213.5 173.5 L 213.5 166.5 L 206.5 166.5 M 205 165 L 205 175 L 215 175 L 215 165 L 205 165 M 204 164 L 204 176 L 216 176 L 216 164 L 204 164 M 202 162 L 202 178 L 218 178 L 218 162 L 202 162 M 201.5 161.5 L 201.5 178.5 L 218.5 178.5 L 218.5 161.5 L 201.5 161.5 M 200.5 160.5 L 200.5 179.5 L 219.5 179.5 L 219.5 160.5 L 200.5 160.5 M 249 169 L 249 171 L 251 171 L 251 169 L 249 169 M 248 168 L 248 172 L 252 172 L 252 168 L 248 168 M 247.5 167.5 L 247.5 172.5 L 252.5 172.5 L 252.5 167.5 L 247.5 167.5 M 247 167 L 247 173 L 253 173 L 253 167 L 247 167 M 246.5 166.5 L 246.5 173.5 L 253.5 173.5 L 253.5 166.5 L 246.5 166.5 M 245.5 165.5 L 245.5 174.5 L 254.5 174.5 L 254.5 165.5 L 245.5 165.5 M 244.5 164.5 L 244.5 175.5 L 255.5 175.5 L 255.5 164.5 L 244.5 164.5 M 244 164 L 244 176 L 256 176 L 256 164 L 244 164 M 243 163 L 243 177 L 257 177 L 257 163 L 243 163 M 242 162 L 242 178 L 258 178 L 258 162 L 242 162 M 241.5 161.5 L 241.5 178.5 L 258.5 178.5 L 258.5 161.5 L 241.5 161.5 M 240 160 L 240 180 L 260 180 L 260 160 L 240 160 M 289.5 169.5 L 289.5 170.5 L 290.5 170.5 L 290.5 169.5 L 289.5 169.5 M 289 169 L 289 171 L 291 171 L 291 169 L 289 169 M 285 165 L 285 175 L 295 175 L 295 165 L 285 165 M 283.5 163.5 L 283.5 176.5 L 296.5 176.5 L 296.5 163.5 L 283.5 163.5 M 283 163 L 283 177 L 297 177 L 297 163 L 283 163 M 282.5 162.5 L 282.5 177.5 L 297.5 177.5 L 297.5 162.5 L 282.5 162.5 M 282 162 L 282 178 L 298 178 L 298 162 L 282 162 M 281 161 L 281 179 L 299 179 L 299 161 L 281 161 M 280 160 L 280 180 L 300 180 L 300 160 L 280 160 M 329.5 169.5 L 329.5 170.5 L 330.5 170.5 L 330.5 169.5 L 329.5 169.5 M 329 169 L 329 171 L 331 171 L 331 169 L 329 169 M 328 168 L 328 172 L 332 172 L 332 168 L 328 168 M 326.5 166.5 L 326.5 173.5 L 333.5 173.5 L 333.5 166.5 L 326.5 166.5 M 325.5 165.5 L 325.5 174.5 L 334.5 174.5 L 334.5 165.5 L 325.5 165.5 M 325 165 L 325 175 L 335 175 L 335 165 L 325 165 M 323 163 L 323 177 L 337 177 L 337 163 L 323 163 M 322.5 162.5 L 322.5 177.5 L 337.5 177.5 L 337.5 162.5 L 322.5 162.5 M 322 162 L 322 178 L 338 178 L 338 162 L 322 162 M 369.5 169.5 L 369.5 170.5 L 370.5 170.5 L 370.5 169.5 L 369.5 169.5 M 369 169 L 369 171 L 371 171 L 371 169 L 369 169 M 368.5 168.5 L 368.5 171.5 L 371.5 171.5 L 371.5 168.5 L 368.5 168.5 M 368 168 L 368 172 L 372 172 L 372 168 L 368 168 M 367 167 L 367 173 L 373 173 L 373 167 L 367 167 M 366.5 166.5 L 366.5 173.5 L 373.5 173.5 L 373.5 166.5 L 366.5 166.5 M 366 166 L 366 174 L 374 174 L 374 166 L 366 166 M 365 165 L 365 175 L 375 175 L 375 165 L 365 165 M 364.5 164.5 L 364.5 175.5 L 375.5 175.5 L 375.5 164.5 L 364.5 164.5 M 364 164 L 364 176 L 376 176 L 376 164 L 364 164 M 362.5 162.5 L 362.5 177.5 L 377.5 177.5 L 377.5 162.5 L 362.5 162.5 M 361.5 161.5 L 361.5 178.5 L 378.5 178.5 L 378.5 161.5 L 361.5 161.5 M 361 161 L 361 179 L 379 179 L 379 161 L 361 161 M 360.5 160.5 L 360.5 179.5 L 379.5 179.5 L 379.5 160.5 L 360.5 160.5 M 360 160 L 360 180 L 380 180 L 380 160 L 360 160 M 409 169 L 409 171 L 411 171 L 411 169 L 409 169 M 408.5 168.5 L 408.5 171.5 L 411.5 171.5 L 411.5 168.5 L 408.5 168.5 M 408 168 L 408 172 L 412 172 L 412 168 L 408 168 M 407 167 L 407 173 L 413 173 L 413 167 L 407 167 M 406.5 166.5 L 406.5 173.5 L 413.5 173.5 L 413.5 166.5 L 406.5 166.5 M 402 162 L 402 178 L 418 178 L 418 162 L 402 162 M 400.5 160.5 L 400.5 179.5 L 419.5 179.5 L 419.5 160.5 L 400.5 160.5 M 400 160 L 400 180 L 420 180 L 420 160 L 400 160 M 47 207 L 47 213 L 53 213 L 53 207 L 47 207 M 45.5 205.5 L 45.5 214.5 L 54.5 214.5 L 54.5 205.5 L 45.5 205.5 M 45 205 L 45 215 L 55 215 L 55 205 L 45 205 M 43.5 203.5 L 43.5 216.5 L 56.5 216.5 L 56.5 203.5 L 43.5 203.5 M 42.5 202.5 L 42.5 217.5 L 57.5 217.5 L 57.5 202.5 L 42.5 202.5 M 42 202 L 42 218 L 58 218 L 58 202 L 42 202 M 41.5 201.5 L 41.5 218.5 L 58.5 218.5 L 58.5 201.5 L 41.5 201.5 M 40.5 200.5 L 40.5 219.5 L 59.5 219.5 L 59.5 200.5 L 40.5 200.5 M 40 200 L 40 220 L 60 220 L 60 200 L 40 200 M 89.5 209.5 L 89.5 210.5 L 90.5 210.5 L 90.5 209.5 L 89.5 209.5 M 89 209 L 89 211 L 91 211 L 91 209 L 89 209 M 88.5 208.5 L 88.5 211.5 L 91.5 211.5 L 91.5 208.5 L 88.5 208.5 M 88 208 L 88 212 L 92 212 L 92 208 L 88 208 M 87.5 207.5 L 87.5 212.5 L 92.5 212.5 L 92.5 207.5 L 87.5 207.5 M 85.5 205.5 L 85.5 214.5 L 94.5 214.5 L 94.5 205.5 L 85.5 205.5 M 85 205 L 85 215 L 95 215 L 95 205 L 85 205 M 84.5 204.5 L 84.5 215.5 L 95.5 215.5 L 95.5 204.5 L 84.5 204.5 M 84 204 L 84 216 L 96 216 L 96 204 L 84 204 M 83.5 203.5 L 83.5 216.5 L 96.5 216.5 L 96.5 203.5 L 83.5 203.5 M 83 203 L 83 217 L 97 217 L 97 203 L 83 203 M 82.5 202.5 L 82.5 217.5 L 97.5 217.5 L 97.5 202.5 L 82.5 202.5 M 82 202 L 82 218 L 98 218 L 98 202 L 82 202 M 81 201 L 81 219 L 99 219 L 99 201 L 81 201 M 129.5 209.5 L 129.5 210.5 L 130.5 210.5 L 130.5 209.5 L 129.5 209.5 M 128.5 208.5 L 128.5 211.5 L 131.5 211.5 L 131.5 208.5 L 128.5 208.5 M 128 208 L 128 212 L 132 212 L 132 208 L 128 208 M 127.5 207.5 L 127.5 212.5 L 132.5 212.5 L 132.5 207.5 L 127.5 207.5 M 126 206 L 126 214 L 134 214 L 134 206 L 126 206 M 125.5 205.5 L 125.5 214.5 L 134.5 214.5 L 134.5 205.5 L 125.5 205.5 M 125 205 L 125 215 L 135 215 L 135 205 L 125 205 M 124.5 204.5 L 124.5 215.5 L 135.5 215.5 L 135.5 204.5 L 124.5 204.5 M 122 202 L 122 218 L 138 218 L 138 202 L 122 202 M 120.5 200.5 L 120.5 219.5 L 139.5 219.5 L 139.5 200.5 L 120.5 200.5 M 120 200 L 120 220 L 140 220 L 140 200 L 120 200 M 169 209 L 169 211 L 171 211 L 171 209 L 169 209 M 168.5 208.5 L 168.5 211.5 L 171.5 211.5 L 171.5 208.5 L 168.5 208.5 M 167.5 207.5 L 167.5 212.5 L 172.5 212.5 L 172.5 207.5 L 167.5 207.5 M 166.5 206.5 L 166.5 213.5 L 173.5 213.5 L 173.5 206.5 L 166.5 206.5 M 166 206 L 166 214 L 174 214 L 174 206 L 166 206 M 165 205 L 165 215 L 175 215 L 175 205 L 165 205 M 164.5 204.5 L 164.5 215.5 L 175.5 215.5 L 175.5 204.5 L 164.5 204.5 M 164 204 L 164 216 L 176 216 L 176 204 L 164 204 M 162.5 202.5 L 162.5 217.5 L 177.5 217.5 L 177.5 202.5 L 162.5 202.5 M 162 202 L 162 218 L 178 218 L 178 202 L 162 202 M 161.5 201.5 L 161.5 218.5 L 178.5 218.5 L 178.5 201.5 L 161.5 201.5 M 208.5 208.5 L 208.5 211.5 L 211.5 211.5 L 211.5 208.5 L 208.5 208.5 M 207.5 207.5 L 207.5 212.5 L 212.5 212.5 L 212.5 207.5 L 207.5 207.5 M 206.5 206.5 L 206.5 213.5 L 213.5 213.5 L 213.5 206.5 L 206.5 206.5 M 205.5 205.5 L 205.5 214.5 L 214.5 214.5 L 214.5 205.5 L 205.5 205.5 M 204.5 204.5 L 204.5 215.5 L 215.5 215.5 L 215.5 204.5 L 204.5 204.5 M 203.5 203.5 L 203.5 216.5 L 216.5 216.5 L 216.5 203.5 L 203.5 203.5 M 203 203 L 203 217 L 217 217 L 217 203 L 203 203 M 202.5 202.5 L 202.5 217.5 L 217.5 217.5 L 217.5 202.5 L 202.5 202.5 M 202 202 L 202 218 L 218 218 L 218 202 L 202 202 M 201.5 201.5 L 201.5 218.5 L 218.5 218.5 L 218.5 201.5 L 201.5 201.5 M 200.5 200.5 L 200.5 219.5 L 219.5 219.5 L 219.5 200.5 L 200.5 200.5 M 200 200 L 200 220 L 220 220 L 220 200 L 200 200 M 249.5 209.5 L 249.5 210.5 L 250.5 210.5 L 250.5 209.5 L 249.5 209.5 M 248.5 208.5 L 248.5 211.5 L 251.5 211.5 L 251.5 208.5 L 248.5 208.5 M 247 207 L 247 213 L 253 213 L 253 207 L 247 207 M 245.5 205.5 L 245.5 214.5 L 254.5 214.5 L 254.5 205.5 L 245.5 205.5 M 245 205 L 245 215 L 255 215 L 255 205 L 245 205 M 243.5 203.5 L 243.5 216.5 L 256.5 216.5 L 256.5 203.5 L 243.5 203.5 M 242.5 202.5 L 242.5 217.5 L 257.5 217.5 L 257.5 202.5 L 242.5 202.5 M 242 202 L 242 218 L 258 218 L 258 202 L 242 202 M 241.5 201.5 L 241.5 218.5 L 258.5 218.5 L 258.5 201.5 L 241.5 201.5 M 241 201 L 241 219 L 259 219 L 259 201 L 241 201 M 240 200 L 240 220 L 260 220 L 260 200 L 240 200 M 289.5 209.5 L 289.5 210.5 L 290.5 210.5 L 290.5 209.5 L 289.5 209.5 M 288.5 208.5 L 288.5 211.5 L 291.5 211.5 L 291.5 208.5 L 288.5 208.5 M 287.5 207.5 L 287.5 212.5 L 292.5 212.5 L 292.5 207.5 L 287.5 207.5 M 287 207 L 287 213 L 293 213 L 293 207 L 287 207 M 286 206 L 286 214 L 294 214 L 294 206 L 286 206 M 285 205 L 285 215 L 295 215 L 295 205 L 285 205 M 284.5 204.5 L 284.5 215.5 L 295.5 215.5 L 295.5 204.5 L 284.5 204.5 M 284 204 L 284 216 L 296 216 L 296 204 L 284 204 M 283 203 L 283 217 L 297 217 L 297 203 L 283 203 M 282.5 202.5 L 282.5 217.5 L 297.5 217.5 L 297.5 202.5 L 282.5 202.5 M 281 201 L 281 219 L 299 219 L 299 201 L 281 201 M 280 200 L 280 220 L 300 220 L 300 200 L 280 200 M 328 208 L 328 212 L 332 212 L 332 208 L 328 208 M 327.5 207.5 L 327.5 212.5 L 332.5 212.5 L 332.5 207.5 L 327.5 207.5 M 327 207 L 327 213 L 333 213 L 333 207 L 327 207 M 325 205 L 325 215 L 335 215 L 335 205 L 325 205 M 324.5 204.5 L 324.5 215.5 L 335.5 215.5 L 335.5 204.5 L 324.5 204.5 M 323 203 L 323 217 L 337 217 L 337 203 L 323 203 M 322.5 202.5 L 322.5 217.5 L 337.5 217.5 L 337.5 202.5 L 322.5 202.5 M 322 202 L 322 218 L 338 218 L 338 202 L 322 202 M 321.5 201.5 L 321.5 218.5 L 338.5 218.5 L 338.5 201.5 L 321.5 201.5 M 320.5 200.5 L 320.5 219.5 L 339.5 219.5 L 339.5 200.5 L 320.5 200.5 M 320 200 L 320 220 L 340 220 L 340 200 L 320 200 M 369 209 L 369 211 L 371 211 L 371 209 L 369 209 M 366 206 L 366 214 L 374 214 L 374 206 L 366 206 M 365.5 205.5 L 365.5 214.5 L 374.5 214.5 L 374.5 205.5 L 365.5 205.5 M 365 205 L 365 215 L 375 215 L 375 205 L 365 205 M 364.5 204.5 L 364.5 215.5 L 375.5 215.5 L 375.5 204.5 L 364.5 204.5 M 364 204 L 364 216 L 376 216 L 376 204 L 364 204 M 363.5 203.5 L 363.5 216.5 L 376.5 216.5 L 376.5 203.5 L 363.5 203.5 M 363 203 L 363 217 L 377 217 L 377 203 L 363 203 M 362.5 202.5 L 362.5 217.5 L 377.5 217.5 L 377.5 202.5 L 362.5 202.5 M 409.5 209.5 L 409.5 210.5 L 410.5 210.5 L 410.5 209.5 L 409.5 209.5 M 407.5 207.5 L 407.5 212.5 L 412.5 212.5 L 412.5 207.5 L 407.5 207.5 M 407 207 L 407 213 L 413 213 L 413 207 L 407 207 M 406.5 206.5 L 406.5 213.5 L 413.5 213.5 L 413.5 206.5 L 406.5 206.5 M 406 206 L 406 214 L 414 214 L 414 206 L 406 206 M 404.5 204.5 L 404.5 215.5 L 415.5 215.5 L 415.5 204.5 L 404.5 204.5 M 403.5 203.5 L 403.5 216.5 L 416.5 216.5 L 416.5 203.5 L 403.5 203.5 M 403 203 L 403 217 L 417 217 L 417 203 L 403 203 M 402.5 202.5 L 402.5 217.5 L 417.5 217.5 L 417.5 202.5 L 402.5 202.5 M 400.5 200.5 L 400.5 219.5 L 419.5 219.5 L 419.5 200.5 L 400.5 200.5 M 400 200 L 400 220 L 420 220 L 420 200 L 400 200 M 48.5 248.5 L 48.5 251.5 L 51.5 251.5 L 51.5 248.5 L 48.5 248.5 M 48 248 L 48 252 L 52 252 L 52 248 L 48 248 M 47.5 247.5 L 47.5 252.5 L 52.5 252.5 L 52.5 247.5 L 47.5 247.5 M 46 246 L 46 254 L 54 254 L 54 246 L 46 246 M 45.5 245.5 L 45.5 254.5 L 54.5 254.5 L 54.5 245.5 L 45.5 245.5 M 44 244 L 44 256 L 56 256 L 56 244 L 44 244 M 43 243 L 43 257 L 57 257 L 57 243 L 43 243 M 41.5 241.5 L 41.5 258.5 L 58.5 258.5 L 58.5 241.5 L 41.5 241.5 M 40 240 L 40 260 L 60 260 L 60 240 L 40 240 M 89 249 L 89 251 L 91 251 L 91 249 L 89 249 M 88.5 248.5 L 88.5 251.5 L 91.5 251.5 L 91.5 248.5 L 88.5 248.5 M 87 247 L 87 253 L 93 253 L 93 247 L 87 247 M 86.5 246.5 L 86.5 253.5 L 93.5 253.5 L 93.5 246.5 L 86.5 246.5 M 84 244 L 84 256 L 96 256 L 96 244 L 84 244 M 83 243 L 83 257 L 97 257 L 97 243 L 83 243 M 80.5 240.5 L 80.5 259.5 L 99.5 259.5 L 99.5 240.5 L 80.5 240.5 M 80 240 L 80 260 L 100 260 L 100 240 L 80 240 M 127.5 247.5 L 127.5 252.5 L 132.5 252.5 L 132.5 247.5 L 127.5 247.5 M 127 247 L 127 253 L 133 253 L 133 247 L 127 247 M 126.5 246.5 L 126.5 253.5 L 133.5 253.5 L 133.5 246.5 L 126.5 246.5 M 126 246 L 126 254 L 134 254 L 134 246 L 126 246 M 124.5 244.5 L 124.5 255.5 L 135.5 255.5 L 135.5 244.5 L 124.5 244.5 M 124 244 L 124 256 L 136 256 L 136 244 L 124 244 M 123 243 L 123 257 L 137 257 L 137 243 L 123 243 M 122 242 L 122 258 L 138 258 L 138 242 L 122 242 M 121 241 L 121 259 L 139 259 L 139 241 L 121 241 M 120.5 240.5 L 120.5 259.5 L 139.5 259.5 L 139.5 240.5 L 120.5 240.5 M 120 240 L 120 260 L 140 260 L 140 240 L 120 240 M 169.5 249.5 L 169.5 250.5 L 170.5 250.5 L 170.5 249.5 L 169.5 249.5 M 169 249 L 169 251 L 171 251 L 171 249 L 169 249 M 168 248 L 168 252 L 172 252 L 172 248 L 168 248 M 166.5 246.5 L 166.5 253.5 L 173.5 253.5 L 173.5 246.5 L 166.5 246.5 M 164 244 L 164 256 L 176 256 L 176 244 L 164 244 M 162.5 242.5 L 162.5 257.5 L 177.5 257.5 L 177.5 242.5 L 162.5 242.5 M 160.5 240.5 L 160.5 259.5 L 179.5 259.5 L 179.5 240.5 L 160.5 240.5 M 160 240 L 160 260 L 180 260 L 180 240 L 160 240 M 209.5 249.5 L 209.5 250.5 L 210.5 250.5 L 210.5 249.5 L 209.5 249.5 M 207 247 L 207 253 L 213 253 L 213 247 L 207 247 M 206.5 246.5 L 206.5 253.5 L 213.5 253.5 L 213.5 246.5 L 206.5 246.5 M 206 246 L 206 254 L 214 254 L 214 246 L 206 246 M 205.5 245.5 L 205.5 254.5 L 214.5 254.5 L 214.5 245.5 L 205.5 245.5 M 204 244 L 204 256 L 216 256 L 216 244 L 204 244 M 203 243 L 203 257 L 217 257 L 217 243 L 203 243 M 202.5 242.5 L 202.5 257.5 L 217.5 257.5 L 217.5 242.5 L 202.5 242.5 M 200 240 L 200 260 L 220 260 L 220 240 L 200 240 M 249 249 L 249 251 L 251 251 L 251 249 L 249 249 M 248.5 248.5 L 248.5 251.5 L 251.5 251.5 L 251.5 248.5 L 248.5 248.5 M 248 248 L 248 252 L 252 252 L 252 248 L 248 248 M 247.5 247.5 L 247.5 252.5 L 252.5 252.5 L 252.5 247.5 L 247.5 247.5 M 246.5 246.5 L 246.5 253.5 L 253.5 253.5 L 253.5 246.5 L 246.5 246.5 M 246 246 L 246 254 L 254 254 L 254 246 L 246 246 M 244.5 244.5 L 244.5 255.5 L 255.5 255.5 L 255.5 244.5 L 244.5 244.5 M 243 243 L 243 257 L 257 257 L 257 243 L 243 243 M 242.5 242.5 L 242.5 257.5 L 257.5 257.5 L 257.5 242.5 L 242.5 242.5 M 242 242 L 242 258 L 258 258 L 258 242 L 242 242 M 241 241 L 241 259 L 259 259 L 259 241 L 241 241 M 287 247 L 287 253 L 293 253 L 293 247 L 287 247 M 281 241 L 281 259 L 299 259 L 299 241 L 281 241 M 280 240 L 280 260 L 300 260 L 300 240 L 280 240 M 329 249 L 329 251 L 331 251 L 331 249 L 329 249 M 328.5 248.5 L 328.5 251.5 L 331.5 251.5 L 331.5 248.5 L 328.5 248.5 M 327.5 247.5 L 327.5 252.5 L 332.5 252.5 L 332.5 247.5 L 327.5 247.5 M 327 247 L 327 253 L 333 253 L 333 247 L 327 247 M 325.5 245.5 L 325.5 254.5 L 334.5 254.5 L 334.5 245.5 L 325.5 245.5 M 325 245 L 325 255 L 335 255 L 335 245 L 325 245 M 324.5 244.5 L 324.5 255.5 L 335.5 255.5 L 335.5 244.5 L 324.5 244.5 M 324 244 L 324 256 L 336 256 L 336 244 L 324 244 M 323.5 243.5 L 323.5 256.5 L 336.5 256.5 L 336.5 243.5 L 323.5 243.5 M 322 242 L 322 258 L 338 258 L 338 242 L 322 242 M 320.5 240.5 L 320.5 259.5 L 339.5 259.5 L 339.5 240.5 L 320.5 240.5 M 320 240 L 320 260 L 340 260 L 340 240 L 320 240 M 368.5 248.5 L 368.5 251.5 L 371.5 251.5 L 371.5 248.5 L 368.5 248.5 M 368 248 L 368 252 L 372 252 L 372 248 L 368 248 M 367.5 247.5 L 367.5 252.5 L 372.5 252.5 L 372.5 247.5 L 367.5 247.5 M 367 247 L 367 253 L 373 253 L 373 247 L 367 247 M 366.5 246.5 L 366.5 253.5 L 373.5 253.5 L 373.5 246.5 L 366.5 246.5 M 364.5 244.5 L 364.5 255.5 L 375.5 255.5 L 375.5 244.5 L 364.5 244.5 M 364 244 L 364 256 L 376 256 L 376 244 L 364 244 M 362 242 L 362 258 L 378 258 L 378 242 L 362 242 M 361.5 241.5 L 361.5 258.5 L 378.5 258.5 L 378.5 241.5 L 361.5 241.5 M 360.5 240.5 L 360.5 259.5 L 379.5 259.5 L 379.5 240.5 L 360.5 240.5 M 407 247 L 407 253 L 413 253 L 413 247 L 407 247 M 406.5 246.5 L 406.5 253.5 L 413.5 253.5 L 413.5 246.5 L 406.5 246.5 M 405 245 L 405 255 L 415 255 L 415 245 L 405 245 M 404.5 244.5 L 404.5 255.5 L 415.5 255.5 L 415.5 244.5 L 404.5 244.5 M 404 244 L 404 256 L 416 256 L 416 244 L 404 244 M 403.5 243.5 L 403.5 256.5 L 416.5 256.5 L 416.5 243.5 L 403.5 243.5 M 403 243 L 403 257 L 417 257 L 417 243 L 403 243 M 402.5 242.5 L 402.5 257.5 L 417.5 257.5 L 417.5 242.5 L 402.5 242.5 M 400.5 240.5 L 400.5 259.5 L 419.5 259.5 L 419.5 240.5 L 400.5 240.5 M 400 240 L 400 260 L 420 260 L 420 240 L 400 240 M 49.5 289.5 L 49.5 290.5 L 50.5 290.5 L 50.5 289.5 L 49.5 289.5 M 48 288 L 48 292 L 52 292 L 52 288 L 48 288 M 47.5 287.5 L 47.5 292.5 L 52.5 292.5 L 52.5 287.5 L 47.5 287.5 M 45 285 L 45 295 L 55 295 L 55 285 L 45 285 M 44 284 L 44 296 L 56 296 L 56 284 L 44 284 M 42 282 L 42 298 L 58 298 L 58 282 L 42 282 M 41.5 281.5 L 41.5 298.5 L 58.5 298.5 L 58.5 281.5 L 41.5 281.5 M 89 289 L 89 291 L 91 291 L 91 289 L 89 289 M 88.5 288.5 L 88.5 291.5 L 91.5 291.5 L 91.5 288.5 L 88.5 288.5 M 87.5 287.5 L 87.5 292.5 L 92.5 292.5 L 92.5 287.5 L 87.5 287.5 M 86.5 286.5 L 86.5 293.5 L 93.5 293.5 L 93.5 286.5 L 86.5 286.5 M 86 286 L 86 294 L 94 294 L 94 286 L 86 286 M 84 284 L 84 296 L 96 296 L 96 284 L 84 284 M 83 283 L 83 297 L 97 297 L 97 283 L 83 283 M 82.5 282.5 L 82.5 297.5 L 97.5 297.5 L 97.5 282.5 L 82.5 282.5 M 82 282 L 82 298 L 98 298 L 98 282 L 82 282 M 81.5 281.5 L 81.5 298.5 L 98.5 298.5 L 98.5 281.5 L 81.5 281.5 M 80.5 280.5 L 80.5 299.5 L 99.5 299.5 L 99.5 280.5 L 80.5 280.5 M 129.5 289.5 L 129.5 290.5 L 130.5 290.5 L 130.5 289.5 L 129.5 289.5 M 129 289 L 129 291 L 131 291 L 131 289 L 129 289 M 127.5 287.5 L 127.5 292.5 L 132.5 292.5 L 132.5 287.5 L 127.5 287.5 M 127 287 L 127 293 L 133 293 L 133 287 L 127 287 M 126 286 L 126 294 L 134 294 L 134 286 L 126 286 M 125.5 285.5 L 125.5 294.5 L 134.5 294.5 L 134.5 285.5 L 125.5 285.5 M 125 285 L 125 295 L 135 295 L 135 285 L 125 285 M 124.5 284.5 L 124.5 295.5 L 135.5 295.5 L 135.5 284.5 L 124.5 284.5 M 121.5 281.5 L 121.5 298.5 L 138.5 298.5 L 138.5 281.5 L 121.5 281.5 M 121 281 L 121 299 L 139 299 L 139 281 L 121 281 M 120.5 280.5 L 120.5 299.5 L 139.5 299.5 L 139.5 280.5 L 120.5 280.5 M 120 280 L 120 300 L 140 300 L 140 280 L 120 280 M 169 289 L 169 291 L 171 291 L 171 289 L 169 289 M 168.5 288.5 L 168.5 291.5 L 171.5 291.5 L 171.5 288.5 L 168.5 288.5 M 167.5 287.5 L 167.5 292.5 L 172.5 292.5 L 172.5 287.5 L 167.5 287.5 M 167 287 L 167 293 L 173 293 L 173 287 L 167 287 M 165.5 285.5 L 165.5 294.5 L 174.5 294.5 L 174.5 285.5 L 165.5 285.5 M 164.5 284.5 L 164.5 295.5 L 175.5 295.5 L 175.5 284.5 L 164.5 284.5 M 163 283 L 163 297 L 177 297 L 177 283 L 163 283 M 160 280 L 160 300 L 180 300 L 180 280 L 160 280 M 209.5 289.5 L 209.5 290.5 L 210.5 290.5 L 210.5 289.5 L 209.5 289.5 M 208.5 288.5 L 208.5 291.5 L 211.5 291.5 L 211.5 288.5 L 208.5 288.5 M 208 288 L 208 292 L 212 292 L 212 288 L 208 288 M 207.5 287.5 L 207.5 292.5 L 212.5 292.5 L 212.5 287.5 L 207.5 287.5 M 207 287 L 207 293 L 213 293 L 213 287 L 207 287 M 206 286 L 206 294 L 214 294 L 214 286 L 206 286 M 205.5 285.5 L 205.5 294.5 L 214.5 294.5 L 214.5 285.5 L 205.5 285.5 M 205 285 L 205 295 L 215 295 L 215 285 L 205 285 M 204 284 L 204 296 L 216 296 L 216 284 L 204 284 M 200.5 280.5 L 200.5 299.5 L 219.5 299.5 L 219.5 280.5 L 200.5 280.5 M 200 280 L 200 300 L 220 300 L 220 280 L 200 280 M 249.5 289.5 L 249.5 290.5 L 250.5 290.5 L 250.5 289.5 L 249.5 289.5 M 248 288 L 248 292 L 252 292 L 252 288 L 248 288 M 246 286 L 246 294 L 254 294 L 254 286 L 246 286 M 245 285 L 245 295 L 255 295 L 255 285 L 245 285 M 244.5 284.5 L 244.5 295.5 L 255.5 295.5 L 255.5 284.5 L 244.5 284.5 M 244 284 L 244 296 L 256 296 L 256 284 L 244 284 M 242.5 282.5 L 242.5 297.5 L 257.5 297.5 L 257.5 282.5 L 242.5 282.5 M 241.5 281.5 L 241.5 298.5 L 258.5 298.5 L 258.5 281.5 L 241.5 281.5 M 241 281 L 241 299 L 259 299 L 259 281 L 241 281 M 240 280 L 240 300 L 260 300 L 260 280 L 240 280 M 289.5 289.5 L 289.5 290.5 L 290.5 290.5 L 290.5 289.5 L 289.5 289.5 M 287 287 L 287 293 L 293 293 L 293 287 L 287 287 M 286 286 L 286 294 L 294 294 L 294 286 L 286 286 M 285.5 285.5 L 285.5 294.5 L 294.5 294.5 L 294.5 285.5 L 285.5 285.5 M 285 285 L 285 295 L 295 295 L 295 285 L 285 285 M 283 283 L 283 297 L 297 297 L 297 283 L 283 283 M 281.5 281.5 L 281.5 298.5 L 298.5 298.5 L 298.5 281.5 L 281.5 281.5 M 280.5 280.5 L 280.5 299.5 L 299.5 299.5 L 299.5 280.5 L 280.5 280.5 M 280 280 L 280 300 L 300 300 L 300 280 L 280 280 M 329 289 L 329 291 L 331 291 L 331 289 L 329 289 M 328 288 L 328 292 L 332 292 L 332 288 L 328 288 M 327.5 287.5 L 327.5 292.5 L 332.5 292.5 L 332.5 287.5 L 327.5 287.5 M 327 287 L 327 293 L 333 293 L 333 287 L 327 287 M 326.5 286.5 L 326.5 293.5 L 333.5 293.5 L 333.5 286.5 L 326.5 286.5 M 325 285 L 325 295 L 335 295 L 335 285 L 325 285 M 324.5 284.5 L 324.5 295.5 L 335.5 295.5 L 335.5 284.5 L 324.5 284.5 M 324 284 L 324 296 L 336 296 L 336 284 L 324 284 M 323.5 283.5 L 323.5 296.5 L 336.5 296.5 L 336.5 283.5 L 323.5 283.5 M 323 283 L 323 297 L 337 297 L 337 283 L 323 283 M 322.5 282.5 L 322.5 297.5 L 337.5 297.5 L 337.5 282.5 L 322.5 282.5 M 321.5 281.5 L 321.5 298.5 L 338.5 298.5 L 338.5 281.5 L 321.5 281.5 M 321 281 L 321 299 L 339 299 L 339 281 L 321 281 M 320 280 L 320 300 L 340 300 L 340 280 L 320 280 M 369.5 289.5 L 369.5 290.5 L 370.5 290.5 L 370.5 289.5 L 369.5 289.5 M 369 289 L 369 291 L 371 291 L 371 289 L 369 289 M 368.5 288.5 L 368.5 291.5 L 371.5 291.5 L 371.5 288.5 L 368.5 288.5 M 366 286 L 366 294 L 374 294 L 374 286 L 366 286 M 365.5 285.5 L 365.5 294.5 L 374.5 294.5 L 374.5 285.5 L 365.5 285.5 M 363.5 283.5 L 363.5 296.5 L 376.5 296.5 L 376.5 283.5 L 363.5 283.5 M 363 283 L 363 297 L 377 297 L 377 283 L 363 283 M 362.5 282.5 L 362.5 297.5 L 377.5 297.5 L 377.5 282.5 L 362.5 282.5 M 361 281 L 361 299 L 379 299 L 379 281 L 361 281 M 360.5 280.5 L 360.5 299.5 L 379.5 299.5 L 379.5 280.5 L 360.5 280.5 M 409 289 L 409 291 L 411 291 L 411 289 L 409 289 M 408 288 L 408 292 L 412 292 L 412 288 L 408 288 M 407.5 287.5 L 407.5 292.5 L 412.5 292.5 L 412.5 287.5 L 407.5 287.5 M 407 287 L 407 293 L 413 293 L 413 287 L 407 287 M 405 285 L 405 295 L 415 295 L 415 285 L 405 285 M 404 284 L 404 296 L 416 296 L 416 284 L 404 284 M 403.5 283.5 L 403.5 296.5 L 416.5 296.5 L 416.5 283.5 L 403.5 283.5 M 402 282 L 402 298 L 418 298 L 418 282 L 402 282 M 401.5 281.5 L 401.5 298.5 L 418.5 298.5 L 418.5 281.5 L 401.5 281.5 M 401 281 L 401 299 L 419 299 L 419 281 L 401 281 M 400 280 L 400 300 L 420 300 L 420 280 L 400 280 M 48 328 L 48 332 L 52 332 L 52 328 L 48 328 M 46 326 L 46 334 L 54 334 L 54 326 L 46 326 M 45 325 L 45 335 L 55 335 L 55 325 L 45 325 M 44.5 324.5 L 44.5 335.5 L 55.5 335.5 L 55.5 324.5 L 44.5 324.5 M 43.5 323.5 L 43.5 336.5 L 56.5 336.5 L 56.5 323.5 L 43.5 323.5 M 41 321 L 41 339 L 59 339 L 59 321 L 41 321 M 89.5 329.5 L 89.5 330.5 L 90.5 330.5 L 90.5 329.5 L 89.5 329.5 M 89 329 L 89 331 L 91 331 L 91 329 L 89 329 M 86 326 L 86 334 L 94 334 L 94 326 L 86 326 M 84.5 324.5 L 84.5 335.5 L 95.5 335.5 L 95.5 324.5 L 84.5 324.5 M 83.5 323.5 L 83.5 336.5 L 96.5 336.5 L 96.5 323.5 L 83.5 323.5 M 82.5 322.5 L 82.5 337.5 L 97.5 337.5 L 97.5 322.5 L 82.5 322.5 M 82 322 L 82 338 L 98 338 L 98 322 L 82 322 M 81 321 L 81 339 L 99 339 L 99 321 L 81 321 M 80.5 320.5 L 80.5 339.5 L 99.5 339.5 L 99.5 320.5 L 80.5 320.5 M 129.5 329.5 L 129.5 330.5 L 130.5 330.5 L 130.5 329.5 L 129.5 329.5 M 129 329 L 129 331 L 131 331 L 131 329 L 129 329 M 127.5 327.5 L 127.5 332.5 L 132.5 332.5 L 132.5 327.5 L 127.5 327.5 M 127 327 L 127 333 L 133 333 L 133 327 L 127 327 M 124.5 324.5 L 124.5 335.5 L 135.5 335.5 L 135.5 324.5 L 124.5 324.5 M 124 324 L 124 336 L 136 336 L 136 324 L 124 324 M 123.5 323.5 L 123.5 336.5 L 136.5 336.5 L 136.5 323.5 L 123.5 323.5 M 123 323 L 123 337 L 137 337 L 137 323 L 123 323 M 122.5 322.5 L 122.5 337.5 L 137.5 337.5 L 137.5 322.5 L 122.5 322.5 M 122 322 L 122 338 L 138 338 L 138 322 L 122 322 M 121.5 321.5 L 121.5 338.5 L 138.5 338.5 L 138.5 321.5 L 121.5 321.5 M 121 321 L 121 339 L 139 339 L 139 321 L 121 321 M 120 320 L 120 340 L 140 340 L 140 320 L 120 320 M 169 329 L 169 331 L 171 331 L 171 329 L 169 329 M 168 328 L 168 332 L 172 332 L 172 328 L 168 328 M 166 326 L 166 334 L 174 334 L 174 326 L 166 326 M 165 325 L 165 335 L 175 335 L 175 325 L 165 325 M 163.5 323.5 L 163.5 336.5 L 176.5 336.5 L 176.5 323.5 L 163.5 323.5 M 162.5 322.5 L 162.5 337.5 L 177.5 337.5 L 177.5 322.5 L 162.5 322.5 M 161.5 321.5 L 161.5 338.5 L 178.5 338.5 L 178.5 321.5 L 161.5 321.5 M 161 321 L 161 339 L 179 339 L 179 321 L 161 321 M 160.5 320.5 L 160.5 339.5 L 179.5 339.5 L 179.5 320.5 L 160.5 320.5 M 209.5 329.5 L 209.5 330.5 L 210.5 330.5 L 210.5 329.5 L 209.5 329.5 M 208.5 328.5 L 208.5 331.5 L 211.5 331.5 L 211.5 328.5 L 208.5 328.5 M 208 328 L 208 332 L 212 332 L 212 328 L 208 328 M 207.5 327.5 L 207.5 332.5 L 212.5 332.5 L 212.5 327.5 L 207.5 327.5 M 207 327 L 207 333 L 213 333 L 213 327 L 207 327 M 206.5 326.5 L 206.5 333.5 L 213.5 333.5 L 213.5 326.5 L 206.5 326.5 M 206 326 L 206 334 L 214 334 L 214 326 L 206 326 M 203 323 L 203 337 L 217 337 L 217 323 L 203 323 M 202.5 322.5 L 202.5 337.5 L 217.5 337.5 L 217.5 322.5 L 202.5 322.5 M 202 322 L 202 338 L 218 338 L 218 322 L 202 322 M 201.5 321.5 L 201.5 338.5 L 218.5 338.5 L 218.5 321.5 L 201.5 321.5 M 200.5 320.5 L 200.5 339.5 L 219.5 339.5 L 219.5 320.5 L 200.5 320.5 M 249.5 329.5 L 249.5 330.5 L 250.5 330.5 L 250.5 329.5 L 249.5 329.5 M 248 328 L 248 332 L 252 332 L 252 328 L 248 328 M 247.5 327.5 L 247.5 332.5 L 252.5 332.5 L 252.5 327.5 L 247.5 327.5 M 246.5 326.5 L 246.5 333.5 L 253.5 333.5 L 253.5 326.5 L 246.5 326.5 M 244 324 L 244 336 L 256 336 L 256 324 L 244 324 M 243.5 323.5 L 243.5 336.5 L 256.5 336.5 L 256.5 323.5 L 243.5 323.5 M 243 323 L 243 337 L 257 337 L 257 323 L 243 323 M 242.5 322.5 L 242.5 337.5 L 257.5 337.5 L 257.5 322.5 L 242.5 322.5 M 240.5 320.5 L 240.5 339.5 L 259.5 339.5 L 259.5 320.5 L 240.5 320.5 M 240 320 L 240 340 L 260 340 L 260 320 L 240 320 M 289.5 329.5 L 289.5 330.5 L 290.5 330.5 L 290.5 329.5 L 289.5 329.5 M 288 328 L 288 332 L 292 332 L 292 328 L 288 328 M 284.5 324.5 L 284.5 335.5 L 295.5 335.5 L 295.5 324.5 L 284.5 324.5 M 283.5 323.5 L 283.5 336.5 L 296.5 336.5 L 296.5 323.5 L 283.5 323.5 M 283 323 L 283 337 L 297 337 L 297 323 L 283 323 M 282.5 322.5 L 282.5 337.5 L 297.5 337.5 L 297.5 322.5 L 282.5 322.5 M 281 321 L 281 339 L 299 339 L 299 321 L 281 321 M 280.5 320.5 L 280.5 339.5 L 299.5 339.5 L 299.5 320.5 L 280.5 320.5 M 280 320 L 280 340 L 300 340 L 300 320 L 280 320 M 329.5 329.5 L 329.5 330.5 L 330.5 330.5 L 330.5 329.5 L 329.5 329.5 M 328.5 328.5 L 328.5 331.5 L 331.5 331.5 L 331.5 328.5 L 328.5 328.5 M 327 327 L 327 333 L 333 333 L 333 327 L 327 327 M 326.5 326.5 L 326.5 333.5 L 333.5 333.5 L 333.5 326.5 L 326.5 326.5 M 325.5 325.5 L 325.5 334.5 L 334.5 334.5 L 334.5 325.5 L 325.5 325.5 M 325 325 L 325 335 L 335 335 L 335 325 L 325 325 M 322.5 322.5 L 322.5 337.5 L 337.5 337.5 L 337.5 322.5 L 322.5 322.5 M 321.5 321.5 L 321.5 338.5 L 338.5 338.5 L 338.5 321.5 L 321.5 321.5 M 368.5 328.5 L 368.5 331.5 L 371.5 331.5 L 371.5 328.5 L 368.5 328.5 M 368 328 L 368 332 L 372 332 L 372 328 L 368 328 M 367.5 327.5 L 367.5 332.5 L 372.5 332.5 L 372.5 327.5 L 367.5 327.5 M 367 327 L 367 333 L 373 333 L 373 327 L 367 327 M 366 326 L 366 334 L 374 334 L 374 326 L 366 326 M 365.5 325.5 L 365.5 334.5 L 374.5 334.5 L 374.5 325.5 L 365.5 325.5 M 365 325 L 365 335 L 375 335 L 375 325 L 365 325 M 363.5 323.5 L 363.5 336.5 L 376.5 336.5 L 376.5 323.5 L 363.5 323.5 M 363 323 L 363 337 L 377 337 L 377 323 L 363 323 M 362.5 322.5 L 362.5 337.5 L 377.5 337.5 L 377.5 322.5 L 362.5 322.5 M 362 322 L 362 338 L 378 338 L 378 322 L 362 322 M 361.5 321.5 L 361.5 338.5 L 378.5 338.5 L 378.5 321.5 L 361.5 321.5 M 360.5 320.5 L 360.5 339.5 L 379.5 339.5 L 379.5 320.5 L 360.5 320.5 M 360 320 L 360 340 L 380 340 L 380 320 L 360 320 M 409.5 329.5 L 409.5 330.5 L 410.5 330.5 L 410.5 329.5 L 409.5 329.5 M 408.5 328.5 L 408.5 331.5 L 411.5 331.5 L 411.5 328.5 L 408.5 328.5 M 407 327 L 407 333 L 413 333 L 413 327 L 407 327 M 406.5 326.5 L 406.5 333.5 L 413.5 333.5 L 413.5 326.5 L 406.5 326.5 M 404.5 324.5 L 404.5 335.5 L 415.5 335.5 L 415.5 324.5 L 404.5 324.5 M 404 324 L 404 336 L 416 336 L 416 324 L 404 324 M 403.5 323.5 L 403.5 336.5 L 416.5 336.5 L 416.5 323.5 L 403.5 323.5 M 403 323 L 403 337 L 417 337 L 417 323 L 403 323 M 402.5 322.5 L 402.5 337.5 L 417.5 337.5 L 417.5 322.5 L 402.5 322.5 M 402 322 L 402 338 L 418 338 L 418 322 L 402 322 M 401 321 L 401 339 L 419 339 L 419 321 L 401 321 M 400.5 320.5 L 400.5 339.5 L 419.5 339.5 L 419.5 320.5 L 400.5 320.5 M 49 369 L 49 371 L 51 371 L 51 369 L 49 369 M 48 368 L 48 372 L 52 372 L 52 368 L 48 368 M 47.5 367.5 L 47.5 372.5 L 52.5 372.5 L 52.5 367.5 L 47.5 367.5 M 46.5 366.5 L 46.5 373.5 L 53.5 373.5 L 53.5 366.5 L 46.5 366.5 M 46 366 L 46 374 L 54 374 L 54 366 L 46 366 M 45.5 365.5 L 45.5 374.5 L 54.5 374.5 L 54.5 365.5 L 45.5 365.5 M 43.5 363.5 L 43.5 376.5 L 56.5 376.5 L 56.5 363.5 L 43.5 363.5 M 40.5 360.5 L 40.5 379.5 L 59.5 379.5 L 59.5 360.5 L 40.5 360.5 M 40 360 L 40 380 L 60 380 L 60 360 L 40 360 M 88.5 368.5 L 88.5 371.5 L 91.5 371.5 L 91.5 368.5 L 88.5 368.5 M 87 367 L 87 373 L 93 373 L 93 367 L 87 367 M 86.5 366.5 L 86.5 373.5 L 93.5 373.5 L 93.5 366.5 L 86.5 366.5 M 86 366 L 86 374 L 94 374 L 94 366 L 86 366 M 85.5 365.5 L 85.5 374.5 L 94.5 374.5 L 94.5 365.5 L 85.5 365.5 M 85 365 L 85 375 L 95 375 L 95 365 L 85 365 M 84.5 364.5 L 84.5 375.5 L 95.5 375.5 L 95.5 364.5 L 84.5 364.5 M 84 364 L 84 376 L 96 376 L 96 364 L 84 364 M 83.5 363.5 L 83.5 376.5 L 96.5 376.5 L 96.5 363.5 L 83.5 363.5 M 83 363 L 83 377 L 97 377 L 97 363 L 83 363 M 82.5 362.5 L 82.5 377.5 L 97.5 377.5 L 97.5 362.5 L 82.5 362.5 M 81 361 L 81 379 L 99 379 L 99 361 L 81 361 M 80.5 360.5 L 80.5 379.5 L 99.5 379.5 L 99.5 360.5 L 80.5 360.5 M 80 360 L 80 380 L 100 380 L 100 360 L 80 360 M 129 369 L 129 371 L 131 371 L 131 369 L 129 369 M 127 367 L 127 373 L 133 373 L 133 367 L 127 367 M 126.5 366.5 L 126.5 373.5 L 133.5 373.5 L 133.5 366.5 L 126.5 366.5 M 126 366 L 126 374 L 134 374 L 134 366 L 126 366 M 125.5 365.5 L 125.5 374.5 L 134.5 374.5 L 134.5 365.5 L 125.5 365.5 M 124 364 L 124 376 L 136 376 L 136 364 L 124 364 M 123.5 363.5 L 123.5 376.5 L 136.5 376.5 L 136.5 363.5 L 123.5 363.5 M 122.5 362.5 L 122.5 377.5 L 137.5 377.5 L 137.5 362.5 L 122.5 362.5 M 121.5 361.5 L 121.5 378.5 L 138.5 378.5 L 138.5 361.5 L 121.5 361.5 M 120.5 360.5 L 120.5 379.5 L 139.5 379.5 L 139.5 360.5 L 120.5 360.5 M 120 360 L 120 380 L 140 380 L 140 360 L 120 360 M 169.5 369.5 L 169.5 370.5 L 170.5 370.5 L 170.5 369.5 L 169.5 369.5 M 166 366 L 166 374 L 174 374 L 174 366 L 166 366 M 163.5 363.5 L 163.5 376.5 L 176.5 376.5 L 176.5 363.5 L 163.5 363.5 M 163 363 L 163 377 L 177 377 L 177 363 L 163 363 M 162.5 362.5 L 162.5 377.5 L 177.5 377.5 L 177.5 362.5 L 162.5 362.5 M 161 361 L 161 379 L 179 379 L 179 361 L 161 361 M 160.5 360.5 L 160.5 379.5 L 179.5 379.5 L 179.5 360.5 L 160.5 360.5 M 160 360 L 160 380 L 180 380 L 180 360 L 160 360 M 209.5 369.5 L 209.5 370.5 L 210.5 370.5 L 210.5 369.5 L 209.5 369.5 M 208.5 368.5 L 208.5 371.5 L 211.5 371.5 L 211.5 368.5 L 208.5 368.5 M 208 368 L 208 372 L 212 372 L 212 368 L 208 368 M 207.5 367.5 L 207.5 372.5 L 212.5 372.5 L 212.5 367.5 L 207.5 367.5 M 207 367 L 207 373 L 213 373 L 213 367 L 207 367 M 205 365 L 205 375 L 215 375 L 215 365 L 205 365 M 203 363 L 203 377 L 217 377 L 217 363 L 203 363 M 202 362 L 202 378 L 218 378 L 218 362 L 202 362 M 201.5 361.5 L 201.5 378.5 L 218.5 378.5 L 218.5 361.5 L 201.5 361.5 M 201 361 L 201 379 L 219 379 L 219 361 L 201 361 M 200.5 360.5 L 200.5 379.5 L 219.5 379.5 L 219.5 360.5 L 200.5 360.5 M 200 360 L 200 380 L 220 380 L 220 360 L 200 360 M 249.5 369.5 L 249.5 370.5 L 250.5 370.5 L 250.5 369.5 L 249.5 369.5 M 248.5 368.5 L 248.5 371.5 L 251.5 371.5 L 251.5 368.5 L 248.5 368.5 M 248 368 L 248 372 L 252 372 L 252 368 L 248 368 M 247.5 367.5 L 247.5 372.5 L 252.5 372.5 L 252.5 367.5 L 247.5 367.5 M 247 367 L 247 373 L 253 373 L 253 367 L 247 367 M 246.5 366.5 L 246.5 373.5 L 253.5 373.5 L 253.5 366.5 L 246.5 366.5 M 244.5 364.5 L 244.5 375.5 L 255.5 375.5 L 255.5 364.5 L 244.5 364.5 M 244 364 L 244 376 L 256 376 L 256 364 L 244 364 M 243.5 363.5 L 243.5 376.5 L 256.5 376.5 L 256.5 363.5 L 243.5 363.5 M 243 363 L 243 377 L 257 377 L 257 363 L 243 363 M 242.5 362.5 L 242.5 377.5 L 257.5 377.5 L 257.5 362.5 L 242.5 362.5 M 241 361 L 241 379 L 259 379 L 259 361 L 241 361 M 240.5 360.5 L 240.5 379.5 L 259.5 379.5 L 259.5 360.5 L 240.5 360.5 M 240 360 L 240 380 L 260 380 L 260 360 L 240 360 M 289.5 369.5 L 289.5 370.5 L 290.5 370.5 L 290.5 369.5 L 289.5 369.5 M 288.5 368.5 L 288.5 371.5 L 291.5 371.5 L 291.5 368.5 L 288.5 368.5 M 287 367 L 287 373 L 293 373 L 293 367 L 287 367 M 286.5 366.5 L 286.5 373.5 L 293.5 373.5 L 293.5 366.5 L 286.5 366.5 M 285 365 L 285 375 L 295 375 L 295 365 L 285 365 M 284.5 364.5 L 284.5 375.5 L 295.5 375.5 L 295.5 364.5 L 284.5 364.5 M 284 364 L 284 376 L 296 376 L 296 364 L 284 364 M 283.5 363.5 L 283.5 376.5 L 296.5 376.5 L 296.5 363.5 L 283.5 363.5 M 283 363 L 283 377 L 297 377 L 297 363 L 283 363 M 282.5 362.5 L 282.5 377.5 L 297.5 377.5 L 297.5 362.5 L 282.5 362.5 M 282 362 L 282 378 L 298 378 L 298 362 L 282 362 M 281 361 L 281 379 L 299 379 L 299 361 L 281 361 M 280 360 L 280 380 L 300 380 L 300 360 L 280 360 M 329.5 369.5 L 329.5 370.5 L 330.5 370.5 L 330.5 369.5 L 329.5 369.5 M 328.5 368.5 L 328.5 371.5 L 331.5 371.5 L 331.5 368.5 L 328.5 368.5 M 324.5 364.5 L 324.5 375.5 L 335.5 375.5 L 335.5 364.5 L 324.5 364.5 M 324 364 L 324 376 L 336 376 L 336 364 L 324 364 M 323.5 363.5 L 323.5 376.5 L 336.5 376.5 L 336.5 363.5 L 323.5 363.5 M 322.5 362.5 L 322.5 377.5 L 337.5 377.5 L 337.5 362.5 L 322.5 362.5 M 369.5 369.5 L 369.5 370.5 L 370.5 370.5 L 370.5 369.5 L 369.5 369.5 M 369 369 L 369 371 L 371 371 L 371 369 L 369 369 M 368.5 368.5 L 368.5 371.5 L 371.5 371.5 L 371.5 368.5 L 368.5 368.5 M 368 368 L 368 372 L 372 372 L 372 368 L 368 368 M 367.5 367.5 L 367.5 372.5 L 372.5 372.5 L 372.5 367.5 L 367.5 367.5 M 367 367 L 367 373 L 373 373 L 373 367 L 367 367 M 366.5 366.5 L 366.5 373.5 L 373.5 373.5 L 373.5 366.5 L 366.5 366.5 M 366 366 L 366 374 L 374 374 L 374 366 L 366 366 M 365 365 L 365 375 L 375 375 L 375 365 L 365 365 M 364.5 364.5 L 364.5 375.5 L 375.5 375.5 L 375.5 364.5 L 364.5 364.5 M 364 364 L 364 376 L 376 376 L 376 364 L 364 364 M 363.5 363.5 L 363.5 376.5 L 376.5 376.5 L 376.5 363.5 L 363.5 363.5 M 362 362 L 362 378 L 378 378 L 378 362 L 362 362 M 360.5 360.5 L 360.5 379.5 L 379.5 379.5 L 379.5 360.5 L 360.5 360.5 M 409 369 L 409 371 L 411 371 L 411 369 L 409 369 M 408.5 368.5 L 408.5 371.5 L 411.5 371.5 L 411.5 368.5 L 408.5 368.5 M 408 368 L 408 372 L 412 372 L 412 368 L 408 368 M 407 367 L 407 373 L 413 373 L 413 367 L 407 367 M 405.5 365.5 L 405.5 374.5 L 414.5 374.5 L 414.5 365.5 L 405.5 365.5 M 405 365 L 405 375 L 415 375 L 415 365 L 405 365 M 404 364 L 404 376 L 416 376 L 416 364 L 404 364 M 403 363 L 403 377 L 417 377 L 417 363 L 403 363 M 402 362 L 402 378 L 418 378 L 418 362 L 402 362 M 401.5 361.5 L 401.5 378.5 L 418.5 378.5 L 418.5 361.5 L 401.5 361.5 M 400.5 360.5 L 400.5 379.5 L 419.5 379.5 L 419.5 360.5 L 400.5 360.5 M 49.5 409.5 L 49.5 410.5 L 50.5 410.5 L 50.5 409.5 L 49.5 409.5 M 49 409 L 49 411 L 51 411 L 51 409 L 49 409 M 47 407 L 47 413 L 53 413 L 53 407 L 47 407 M 46.5 406.5 L 46.5 413.5 L 53.5 413.5 L 53.5 406.5 L 46.5 406.5 M 45 405 L 45 415 L 55 415 L 55 405 L 45 405 M 44.5 404.5 L 44.5 415.5 L 55.5 415.5 L 55.5 404.5 L 44.5 404.5 M 43 403 L 43 417 L 57 417 L 57 403 L 43 403 M 42 402 L 42 418 L 58 418 L 58 402 L 42 402 M 41 401 L 41 419 L 59 419 L 59 401 L 41 401 M 40.5 400.5 L 40.5 419.5 L 59.5 419.5 L 59.5 400.5 L 40.5 400.5 M 40 400 L 40 420 L 60 420 L 60 400 L 40 400 M 89 409 L 89 411 L 91 411 L 91 409 L 89 409 M 88 408 L 88 412 L 92 412 L 92 408 L 88 408 M 87.5 407.5 L 87.5 412.5 L 92.5 412.5 L 92.5 407.5 L 87.5 407.5 M 86.5 406.5 L 86.5 413.5 L 93.5 413.5 L 93.5 406.5 L 86.5 406.5 M 86 406 L 86 414 L 94 414 L 94 406 L 86 406 M 85.5 405.5 L 85.5 414.5 L 94.5 414.5 L 94.5 405.5 L 85.5 405.5 M 84 404 L 84 416 L 96 416 L 96 404 L 84 404 M 83 403 L 83 417 L 97 417 L 97 403 L 83 403 M 81 401 L 81 419 L 99 419 L 99 401 L 81 401 M 80.5 400.5 L 80.5 419.5 L 99.5 419.5 L 99.5 400.5 L 80.5 400.5 M 129.5 409.5 L 129.5 410.5 L 130.5 410.5 L 130.5 409.5 L 129.5 409.5 M 128 408 L 128 412 L 132 412 L 132 408 L 128 408 M 127.5 407.5 L 127.5 412.5 L 132.5 412.5 L 132.5 407.5 L 127.5 407.5 M 127 407 L 127 413 L 133 413 L 133 407 L 127 407 M 126.5 406.5 L 126.5 413.5 L 133.5 413.5 L 133.5 406.5 L 126.5 406.5 M 124 404 L 124 416 L 136 416 L 136 404 L 124 404 M 123 403 L 123 417 L 137 417 L 137 403 L 123 403 M 121.5 401.5 L 121.5 418.5 L 138.5 418.5 L 138.5 401.5 L 121.5 401.5 M 121 401 L 121 419 L 139 419 L 139 401 L 121 401 M 120.5 400.5 L 120.5 419.5 L 139.5 419.5 L 139.5 400.5 L 120.5 400.5 M 167 407 L 167 413 L 173 413 L 173 407 L 167 407 M 166.5 406.5 L 166.5 413.5 L 173.5 413.5 L 173.5 406.5 L 166.5 406.5 M 166 406 L 166 414 L 174 414 L 174 406 L 166 406 M 165 405 L 165 415 L 175 415 L 175 405 L 165 405 M 163.5 403.5 L 163.5 416.5 L 176.5 416.5 L 176.5 403.5 L 163.5 403.5 M 163 403 L 163 417 L 177 417 L 177 403 L 163 403 M 161 401 L 161 419 L 179 419 L 179 401 L 161 401 M 160.5 400.5 L 160.5 419.5 L 179.5 419.5 L 179.5 400.5 L 160.5 400.5 M 160 400 L 160 420 L 180 420 L 180 400 L 160 400 M 209.5 409.5 L 209.5 410.5 L 210.5 410.5 L 210.5 409.5 L 209.5 409.5 M 208 408 L 208 412 L 212 412 L 212 408 L 208 408 M 207.5 407.5 L 207.5 412.5 L 212.5 412.5 L 212.5 407.5 L 207.5 407.5 M 207 407 L 207 413 L 213 413 L 213 407 L 207 407 M 206.5 406.5 L 206.5 413.5 L 213.5 413.5 L 213.5 406.5 L 206.5 406.5 M 204 404 L 204 416 L 216 416 L 216 404 L 204 404 M 203.5 403.5 L 203.5 416.5 L 216.5 416.5 L 216.5 403.5 L 203.5 403.5 M 202 402 L 202 418 L 218 418 L 218 402 L 202 402 M 201.5 401.5 L 201.5 418.5 L 218.5 418.5 L 218.5 401.5 L 201.5 401.5 M 201 401 L 201 419 L 219 419 L 219 401 L 201 401 M 200.5 400.5 L 200.5 419.5 L 219.5 419.5 L 219.5 400.5 L 200.5 400.5 M 200 400 L 200 420 L 220 420 L 220 400 L 200 400 M 249 409 L 249 411 L 251 411 L 251 409 L 249 409 M 248.5 408.5 L 248.5 411.5 L 251.5 411.5 L 251.5 408.5 L 248.5 408.5 M 247.5 407.5 L 247.5 412.5 L 252.5 412.5 L 252.5 407.5 L 247.5 407.5 M 247 407 L 247 413 L 253 413 L 253 407 L 247 407 M 246 406 L 246 414 L 254 414 L 254 406 L 246 406 M 245 405 L 245 415 L 255 415 L 255 405 L 245 405 M 244.5 404.5 L 244.5 415.5 L 255.5 415.5 L 255.5 404.5 L 244.5 404.5 M 243 403 L 243 417 L 257 417 L 257 403 L 243 403 M 241 401 L 241 419 L 259 419 L 259 401 L 241 401 M 240.5 400.5 L 240.5 419.5 L 259.5 419.5 L 259.5 400.5 L 240.5 400.5 M 289.5 409.5 L 289.5 410.5 L 290.5 410.5 L 290.5 409.5 L 289.5 409.5 M 288.5 408.5 L 288.5 411.5 L 291.5 411.5 L 291.5 408.5 L 288.5 408.5 M 288 408 L 288 412 L 292 412 L 292 408 L 288 408 M 287.5 407.5 L 287.5 412.5 L 292.5 412.5 L 292.5 407.5 L 287.5 407.5 M 286.5 406.5 L 286.5 413.5 L 293.5 413.5 L 293.5 406.5 L 286.5 406.5 M 286 406 L 286 414 L 294 414 L 294 406 L 286 406 M 284 404 L 284 416 L 296 416 L 296 404 L 284 404 M 283.5 403.5 L 283.5 416.5 L 296.5 416.5 L 296.5 403.5 L 283.5 403.5 M 283 403 L 283 417 L 297 417 L 297 403 L 283 403 M 282.5 402.5 L 282.5 417.5 L 297.5 417.5 L 297.5 402.5 L 282.5 402.5 M 281 401 L 281 419 L 299 419 L 299 401 L 281 401 M 280.5 400.5 L 280.5 419.5 L 299.5 419.5 L 299.5 400.5 L 280.5 400.5 M 280 400 L 280 420 L 300 420 L 300 400 L 280 400 M 329.5 409.5 L 329.5 410.5 L 330.5 410.5 L 330.5 409.5 L 329.5 409.5 M 329 409 L 329 411 L 331 411 L 331 409 L 329 409 M 327.5 407.5 L 327.5 412.5 L 332.5 412.5 L 332.5 407.5 L 327.5 407.5 M 327 407 L 327 413 L 333 413 L 333 407 L 327 407 M 326.5 406.5 L 326.5 413.5 L 333.5 413.5 L 333.5 406.5 L 326.5 406.5 M 325.5 405.5 L 325.5 414.5 L 334.5 414.5 L 334.5 405.5 L 325.5 405.5 M 324.5 404.5 L 324.5 415.5 L 335.5 415.5 L 335.5 404.5 L 324.5 404.5 M 324 404 L 324 416 L 336 416 L 336 404 L 324 404 M 323 403 L 323 417 L 337 417 L 337 403 L 323 403 M 321 401 L 321 419 L 339 419 L 339 401 L 321 401 M 320.5 400.5 L 320.5 419.5 L 339.5 419.5 L 339.5 400.5 L 320.5 400.5 M 369.5 409.5 L 369.5 410.5 L 370.5 410.5 L 370.5 409.5 L 369.5 409.5 M 366 406 L 366 414 L 374 414 L 374 406 L 366 406 M 365.5 405.5 L 365.5 414.5 L 374.5 414.5 L 374.5 405.5 L 365.5 405.5 M 365 405 L 365 415 L 375 415 L 375 405 L 365 405 M 364.5 404.5 L 364.5 415.5 L 375.5 415.5 L 375.5 404.5 L 364.5 404.5 M 364 404 L 364 416 L 376 416 L 376 404 L 364 404 M 362.5 402.5 L 362.5 417.5 L 377.5 417.5 L 377.5 402.5 L 362.5 402.5 M 361.5 401.5 L 361.5 418.5 L 378.5 418.5 L 378.5 401.5 L 361.5 401.5 M 360.5 400.5 L 360.5 419.5 L 379.5 419.5 L 379.5 400.5 L 360.5 400.5 M 360 400 L 360 420 L 380 420 L 380 400 L 360 400 M 409 409 L 409 411 L 411 411 L 411 409 L 409 409 M 408 408 L 408 412 L 412 412 L 412 408 L 408 408 M 407.5 407.5 L 407.5 412.5 L 412.5 412.5 L 412.5 407.5 L 407.5 407.5 M 406.5 406.5 L 406.5 413.5 L 413.5 413.5 L 413.5 406.5 L 406.5 406.5 M 406 406 L 406 414 L 414 414 L 414 406 L 406 406 M 404.5 404.5 L 404.5 415.5 L 415.5 415.5 L 415.5 404.5 L 404.5 404.5 M 404 404 L 404 416 L 416 416 L 416 404 L 404 404 M 403.5 403.5 L 403.5 416.5 L 416.5 416.5 L 416.5 403.5 L 403.5 403.5 M 402.5 402.5 L 402.5 417.5 L 417.5 417.5 L 417.5 402.5 L 402.5 402.5 M 401.5 401.5 L 401.5 418.5 L 418.5 418.5 L 418.5 401.5 L 401.5 401.5 M 401 401 L 401 419 L 419 419 L 419 401 L 401 401 M 400.5 400.5 L 400.5 419.5 L 419.5 419.5 L 419.5 400.5 L 400.5 400.5" stroke="black" stroke-width="1" fill="none"></path></svg>
