<svg version="1.1" xmlns:xlink="http://www.w3.org/1999/xlink" xmlns="http://www.w3.org/2000/svg"><path d="M 49.5 49.5 L 49.5 50.5 L 50.5 50.5 L 50.5 49.5 L 49.5 49.5 M 48.5 48.5 L 48.5 51.5 L 51.5 51.5 L 51.5 48.5 L 48.5 48.5 M 46.5 46.5 L 46.5 53.5 L 53.5 53.5 L 53.5 46.5 L 46.5 46.5 M 45.5 45.5 L 45.5 54.5 L 54.5 54.5 L 54.5 45.5 L 45.5 45.5 M 43.5 43.5 L 43.5 56.5 L 56.5 56.5 L 56.5 43.5 L 43.5 43.5 M 41.5 41.5 L 41.5 58.5 L 58.5 58.5 L 58.5 41.5 L 41.5 41.5 M 87.5 47.5 L 87.5 52.5 L 92.5 52.5 L 92.5 47.5 L 87.5 47.5 M 86.5 46.5 L 86.5 53.5 L 93.5 53.5 L 93.5 46.5 L 86.5 46.5 M 84.5 44.5 L 84.5 55.5 L 95.5 55.5 L 95.5 44.5 L 84.5 44.5 M 83.5 43.5 L 83.5 56.5 L 96.5 56.5 L 96.5 43.5 L 83.5 43.5 M 82.5 42.5 L 82.5 57.5 L 97.5 57.5 L 97.5 42.5 L 82.5 42.5 M 81.5 41.5 L 81.5 58.5 L 98.5 58.5 L 98.5 41.5 L 81.5 41.5 M 80.5 40.5 L 80.5 59.5 L 99.5 59.5 L 99.5 40.5 L 80.5 40.5 M 129.5 49.5 L 129.5 50.5 L 130.5 50.5 L 130.5 49.5 L 129.5 49.5 M 128.5 48.5 L 128.5 51.5 L 131.5 51.5 L 131.5 48.5 L 128.5 48.5 M 127.5 47.5 L 127.5 52.5 L 132.5 52.5 L 132.5 47.5 L 127.5 47.5 M 125.5 45.5 L 125.5 54.5 L 134.5 54.5 L 134.5 45.5 L 125.5 45.5 M 123.5 43.5 L 123.5 56.5 L 136.5 56.5 L 136.5 43.5 L 123.5 43.5 M 122.5 42.5 L 122.5 57.5 L 137.5 57.5 L 137.5 42.5 L 122.5 42.5 M 121.5 41.5 L 121.5 58.5 L 138.5 58.5 L 138.5 41.5 L 121.5 41.5 M 120.5 40.5 L 120.5 59.5 L 139.5 59.5 L 139.5 40.5 L 120.5 40.5 M 169.5 49.5 L 169.5 50.5 L 170.5 50.5 L 170.5 49.5 L 169.5 49.5 M 166.5 46.5 L 166.5 53.5 L 173.5 53.5 L 173.5 46.5 L 166.5 46.5 M 162.5 42.5 L 162.5 57.5 L 177.5 57.5 L 177.5 42.5 L 162.5 42.5 M 161.5 41.5 L 161.5 58.5 L 178.5 58.5 L 178.5 41.5 L 161.5 41.5 M 160.5 40.5 L 160.5 59.5 L 179.5 59.5 L 179.5 40.5 L 160.5 40.5 M 209.5 49.5 L 209.5 50.5 L 210.5 50.5 L 210.5 49.5 L 209.5 49.5 M 208.5 48.5 L 208.5 51.5 L 211.5 51.5 L 211.5 48.5 L 208.5 48.5 M 204.5 44.5 L 204.5 55.5 L 215.5 55.5 L 215.5 44.5 L 204.5 44.5 M 203.5 43.5 L 203.5 56.5 L 216.5 56.5 L 216.5 43.5 L 203.5 43.5 M 202.5 42.5 L 202.5 57.5 L 217.5 57.5 L 217.5 42.5 L 202.5 42.5 M 201.5 41.5 L 201.5 58.5 L 218.5 58.5 L 218.5 41.5 L 201.5 41.5 M 200.5 40.5 L 200.5 59.5 L 219.5 59.5 L 219.5 40.5 L 200.5 40.5 M 249.5 49.5 L 249.5 50.5 L 250.5 50.5 L 250.5 49.5 L 249.5 49.5 M 246.5 46.5 L 246.5 53.5 L 253.5 53.5 L 253.5 46.5 L 246.5 46.5 M 242.5 42.5 L 242.5 57.5 L 257.5 57.5 L 257.5 42.5 L 242.5 42.5 M 241.5 41.5 L 241.5 58.5 L 258.5 58.5 L 258.5 41.5 L 241.5 41.5 M 240.5 40.5 L 240.5 59.5 L 259.5 59.5 L 259.5 40.5 L 240.5 40.5 M 289.5 49.5 L 289.5 50.5 L 290.5 50.5 L 290.5 49.5 L 289.5 49.5 M 287.5 47.5 L 287.5 52.5 L 292.5 52.5 L 292.5 47.5 L 287.5 47.5 M 286.5 46.5 L 286.5 53.5 L 293.5 53.5 L 293.5 46.5 L 286.5 46.5 M 284.5 44.5 L 284.5 55.5 L 295.5 55.5 L 295.5 44.5 L 284.5 44.5 M 283.5 43.5 L 283.5 56.5 L 296.5 56.5 L 296.5 43.5 L 283.5 43.5 M 282.5 42.5 L 282.5 57.5 L 297.5 57.5 L 297.5 42.5 L 282.5 42.5 M 328.5 48.5 L 328.5 51.5 L 331.5 51.5 L 331.5 48.5 L 328.5 48.5 M 326.5 46.5 L 326.5 53.5 L 333.5 53.5 L 333.5 46.5 L 326.5 46.5 M 325.5 45.5 L 325.5 54.5 L 334.5 54.5 L 334.5 45.5 L 325.5 45.5 M 323.5 43.5 L 323.5 56.5 L 336.5 56.5 L 336.5 43.5 L 323.5 43.5 M 322.5 42.5 L 322.5 57.5 L 337.5 57.5 L 337.5 42.5 L 322.5 42.5 M 320.5 40.5 L 320.5 59.5 L 339.5 59.5 L 339.5 40.5 L 320.5 40.5 M 369.5 49.5 L 369.5 50.5 L 370.5 50.5 L 370.5 49.5 L 369.5 49.5 M 367.5 47.5 L 367.5 52.5 L 372.5 52.5 L 372.5 47.5 L 367.5 47.5 M 366.5 46.5 L 366.5 53.5 L 373.5 53.5 L 373.5 46.5 L 366.5 46.5 M 365.5 45.5 L 365.5 54.5 L 374.5 54.5 L 374.5 45.5 L 365.5 45.5 M 364.5 44.5 L 364.5 55.5 L 375.5 55.5 L 375.5 44.5 L 364.5 44.5 M 362.5 42.5 L 362.5 57.5 L 377.5 57.5 L 377.5 42.5 L 362.5 42.5 M 361.5 41.5 L 361.5 58.5 L 378.5 58.5 L 378.5 41.5 L 361.5 41.5 M 407.5 47.5 L 407.5 52.5 L 412.5 52.5 L 412.5 47.5 L 407.5 47.5 M 406.5 46.5 L 406.5 53.5 L 413.5 53.5 L 413.5 46.5 L 406.5 46.5 M 405.5 45.5 L 405.5 54.5 L 414.5 54.5 L 414.5 45.5 L 405.5 45.5 M 403.5 43.5 L 403.5 56.5 L 416.5 56.5 L 416.5 43.5 L 403.5 43.5 M 402.5 42.5 L 402.5 57.5 L 417.5 57.5 L 417.5 42.5 L 402.5 42.5 M 400.5 40.5 L 400.5 59.5 L 419.5 59.5 L 419.5 40.5 L 400.5 40.5 M 49.5 89.5 L 49.5 90.5 L 50.5 90.5 L 50.5 89.5 L 49.5 89.5 M 48.5 88.5 L 48.5 91.5 L 51.5 91.5 L 51.5 88.5 L 48.5 88.5 M 46.5 86.5 L 46.5 93.5 L 53.5 93.5 L 53.5 86.5 L 46.5 86.5 M 42.5 82.5 L 42.5 97.5 L 57.5 97.5 L 57.5 82.5 L 42.5 82.5 M 41.5 81.5 L 41.5 98.5 L 58.5 98.5 L 58.5 81.5 L 41.5 81.5 M 40.5 80.5 L 40.5 99.5 L 59.5 99.5 L 59.5 80.5 L 40.5 80.5 M 88.5 88.5 L 88.5 91.5 L 91.5 91.5 L 91.5 88.5 L 88.5 88.5 M 87.5 87.5 L 87.5 92.5 L 92.5 92.5 L 92.5 87.5 L 87.5 87.5 M 86.5 86.5 L 86.5 93.5 L 93.5 93.5 L 93.5 86.5 L 86.5 86.5 M 85.5 85.5 L 85.5 94.5 L 94.5 94.5 L 94.5 85.5 L 85.5 85.5 M 84.5 84.5 L 84.5 95.5 L 95.5 95.5 L 95.5 84.5 L 84.5 84.5 M 83.5 83.5 L 83.5 96.5 L 96.5 96.5 L 96.5 83.5 L 83.5 83.5 M 129.5 89.5 L 129.5 90.5 L 130.5 90.5 L 130.5 89.5 L 129.5 89.5 M 128.5 88.5 L 128.5 91.5 L 131.5 91.5 L 131.5 88.5 L 128.5 88.5 M 127.5 87.5 L 127.5 92.5 L 132.5 92.5 L 132.5 87.5 L 127.5 87.5 M 126.5 86.5 L 126.5 93.5 L 133.5 93.5 L 133.5 86.5 L 126.5 86.5 M 124.5 84.5 L 124.5 95.5 L 135.5 95.5 L 135.5 84.5 L 124.5 84.5 M 123.5 83.5 L 123.5 96.5 L 136.5 96.5 L 136.5 83.5 L 123.5 83.5 M 121.5 81.5 L 121.5 98.5 L 138.5 98.5 L 138.5 81.5 L 121.5 81.5 M 169.5 89.5 L 169.5 90.5 L 170.5 90.5 L 170.5 89.5 L 169.5 89.5 M 168.5 88.5 L 168.5 91.5 L 171.5 91.5 L 171.5 88.5 L 168.5 88.5 M 166.5 86.5 L 166.5 93.5 L 173.5 93.5 L 173.5 86.5 L 166.5 86.5 M 163.5 83.5 L 163.5 96.5 L 176.5 96.5 L 176.5 83.5 L 163.5 83.5 M 162.5 82.5 L 162.5 97.5 L 177.5 97.5 L 177.5 82.5 L 162.5 82.5 M 161.5 81.5 L 161.5 98.5 L 178.5 98.5 L 178.5 81.5 L 161.5 81.5 M 209.5 89.5 L 209.5 90.5 L 210.5 90.5 L 210.5 89.5 L 209.5 89.5 M 206.5 86.5 L 206.5 93.5 L 213.5 93.5 L 213.5 86.5 L 206.5 86.5 M 204.5 84.5 L 204.5 95.5 L 215.5 95.5 L 215.5 84.5 L 204.5 84.5 M 203.5 83.5 L 203.5 96.5 L 216.5 96.5 L 216.5 83.5 L 203.5 83.5 M 200.5 80.5 L 200.5 99.5 L 219.5 99.5 L 219.5 80.5 L 200.5 80.5 M 249.5 89.5 L 249.5 90.5 L 250.5 90.5 L 250.5 89.5 L 249.5 89.5 M 248.5 88.5 L 248.5 91.5 L 251.5 91.5 L 251.5 88.5 L 248.5 88.5 M 246.5 86.5 L 246.5 93.5 L 253.5 93.5 L 253.5 86.5 L 246.5 86.5 M 244.5 84.5 L 244.5 95.5 L 255.5 95.5 L 255.5 84.5 L 244.5 84.5 M 243.5 83.5 L 243.5 96.5 L 256.5 96.5 L 256.5 83.5 L 243.5 83.5 M 242.5 82.5 L 242.5 97.5 L 257.5 97.5 L 257.5 82.5 L 242.5 82.5 M 288.5 88.5 L 288.5 91.5 L 291.5 91.5 L 291.5 88.5 L 288.5 88.5 M 287.5 87.5 L 287.5 92.5 L 292.5 92.5 L 292.5 87.5 L 287.5 87.5 M 286.5 86.5 L 286.5 93.5 L 293.5 93.5 L 293.5 86.5 L 286.5 86.5 M 285.5 85.5 L 285.5 94.5 L 294.5 94.5 L 294.5 85.5 L 285.5 85.5 M 283.5 83.5 L 283.5 96.5 L 296.5 96.5 L 296.5 83.5 L 283.5 83.5 M 280.5 80.5 L 280.5 99.5 L 299.5 99.5 L 299.5 80.5 L 280.5 80.5 M 329.5 89.5 L 329.5 90.5 L 330.5 90.5 L 330.5 89.5 L 329.5 89.5 M 328.5 88.5 L 328.5 91.5 L 331.5 91.5 L 331.5 88.5 L 328.5 88.5 M 325.5 85.5 L 325.5 94.5 L 334.5 94.5 L 334.5 85.5 L 325.5 85.5 M 324.5 84.5 L 324.5 95.5 L 335.5 95.5 L 335.5 84.5 L 324.5 84.5 M 323.5 83.5 L 323.5 96.5 L 336.5 96.5 L 336.5 83.5 L 323.5 83.5 M 322.5 82.5 L 322.5 97.5 L 337.5 97.5 L 337.5 82.5 L 322.5 82.5 M 368.5 88.5 L 368.5 91.5 L 371.5 91.5 L 371.5 88.5 L 368.5 88.5 M 367.5 87.5 L 367.5 92.5 L 372.5 92.5 L 372.5 87.5 L 367.5 87.5 M 366.5 86.5 L 366.5 93.5 L 373.5 93.5 L 373.5 86.5 L 366.5 86.5 M 365.5 85.5 L 365.5 94.5 L 374.5 94.5 L 374.5 85.5 L 365.5 85.5 M 364.5 84.5 L 364.5 95.5 L 375.5 95.5 L 375.5 84.5 L 364.5 84.5 M 363.5 83.5 L 363.5 96.5 L 376.5 96.5 L 376.5 83.5 L 363.5 83.5 M 361.5 81.5 L 361.5 98.5 L 378.5 98.5 L 378.5 81.5 L 361.5 81.5 M 360.5 80.5 L 360.5 99.5 L 379.5 99.5 L 379.5 80.5 L 360.5 80.5 M 409.5 89.5 L 409.5 90.5 L 410.5 90.5 L 410.5 89.5 L 409.5 89.5 M 408.5 88.5 L 408.5 91.5 L 411.5 91.5 L 411.5 88.5 L 408.5 88.5 M 407.5 87.5 L 407.5 92.5 L 412.5 92.5 L 412.5 87.5 L 407.5 87.5 M 404.5 84.5 L 404.5 95.5 L 415.5 95.5 L 415.5 84.5 L 404.5 84.5 M 400.5 80.5 L 400.5 99.5 L 419.5 99.5 L 419.5 80.5 L 400.5 80.5 M 49.5 129.5 L 49.5 130.5 L 50.5 130.5 L 50.5 129.5 L 49.5 129.5 M 48.5 128.5 L 48.5 131.5 L 51.5 131.5 L 51.5 128.5 L 48.5 128.5 M 47.5 127.5 L 47.5 132.5 L 52.5 132.5 L 52.5 127.5 L 47.5 127.5 M 46.5 126.5 L 46.5 133.5 L 53.5 133.5 L 53.5 126.5 L 46.5 126.5 M 45.5 125.5 L 45.5 134.5 L 54.5 134.5 L 54.5 125.5 L 45.5 125.5 M 44.5 124.5 L 44.5 135.5 L 55.5 135.5 L 55.5 124.5 L 44.5 124.5 M 42.5 122.5 L 42.5 137.5 L 57.5 137.5 L 57.5 122.5 L 42.5 122.5 M 41.5 121.5 L 41.5 138.5 L 58.5 138.5 L 58.5 121.5 L 41.5 121.5 M 40.5 120.5 L 40.5 139.5 L 59.5 139.5 L 59.5 120.5 L 40.5 120.5 M 88.5 128.5 L 88.5 131.5 L 91.5 131.5 L 91.5 128.5 L 88.5 128.5 M 87.5 127.5 L 87.5 132.5 L 92.5 132.5 L 92.5 127.5 L 87.5 127.5 M 85.5 125.5 L 85.5 134.5 L 94.5 134.5 L 94.5 125.5 L 85.5 125.5 M 84.5 124.5 L 84.5 135.5 L 95.5 135.5 L 95.5 124.5 L 84.5 124.5 M 82.5 122.5 L 82.5 137.5 L 97.5 137.5 L 97.5 122.5 L 82.5 122.5 M 128.5 128.5 L 128.5 131.5 L 131.5 131.5 L 131.5 128.5 L 128.5 128.5 M 127.5 127.5 L 127.5 132.5 L 132.5 132.5 L 132.5 127.5 L 127.5 127.5 M 125.5 125.5 L 125.5 134.5 L 134.5 134.5 L 134.5 125.5 L 125.5 125.5 M 123.5 123.5 L 123.5 136.5 L 136.5 136.5 L 136.5 123.5 L 123.5 123.5 M 122.5 122.5 L 122.5 137.5 L 137.5 137.5 L 137.5 122.5 L 122.5 122.5 M 121.5 121.5 L 121.5 138.5 L 138.5 138.5 L 138.5 121.5 L 121.5 121.5 M 120.5 120.5 L 120.5 139.5 L 139.5 139.5 L 139.5 120.5 L 120.5 120.5 M 168.5 128.5 L 168.5 131.5 L 171.5 131.5 L 171.5 128.5 L 168.5 128.5 M 166.5 126.5 L 166.5 133.5 L 173.5 133.5 L 173.5 126.5 L 166.5 126.5 M 165.5 125.5 L 165.5 134.5 L 174.5 134.5 L 174.5 125.5 L 165.5 125.5 M 164.5 124.5 L 164.5 135.5 L 175.5 135.5 L 175.5 124.5 L 164.5 124.5 M 163.5 123.5 L 163.5 136.5 L 176.5 136.5 L 176.5 123.5 L 163.5 123.5 M 161.5 121.5 L 161.5 138.5 L 178.5 138.5 L 178.5 121.5 L 161.5 121.5 M 209.5 129.5 L 209.5 130.5 L 210.5 130.5 L 210.5 129.5 L 209.5 129.5 M 208.5 128.5 L 208.5 131.5 L 211.5 131.5 L 211.5 128.5 L 208.5 128.5 M 207.5 127.5 L 207.5 132.5 L 212.5 132.5 L 212.5 127.5 L 207.5 127.5 M 203.5 123.5 L 203.5 136.5 L 216.5 136.5 L 216.5 123.5 L 203.5 123.5 M 202.5 122.5 L 202.5 137.5 L 217.5 137.5 L 217.5 122.5 L 202.5 122.5 M 201.5 121.5 L 201.5 138.5 L 218.5 138.5 L 218.5 121.5 L 201.5 121.5 M 248.5 128.5 L 248.5 131.5 L 251.5 131.5 L 251.5 128.5 L 248.5 128.5 M 244.5 124.5 L 244.5 135.5 L 255.5 135.5 L 255.5 124.5 L 244.5 124.5 M 243.5 123.5 L 243.5 136.5 L 256.5 136.5 L 256.5 123.5 L 243.5 123.5 M 288.5 128.5 L 288.5 131.5 L 291.5 131.5 L 291.5 128.5 L 288.5 128.5 M 285.5 125.5 L 285.5 134.5 L 294.5 134.5 L 294.5 125.5 L 285.5 125.5 M 282.5 122.5 L 282.5 137.5 L 297.5 137.5 L 297.5 122.5 L 282.5 122.5 M 280.5 120.5 L 280.5 139.5 L 299.5 139.5 L 299.5 120.5 L 280.5 120.5 M 329.5 129.5 L 329.5 130.5 L 330.5 130.5 L 330.5 129.5 L 329.5 129.5 M 328.5 128.5 L 328.5 131.5 L 331.5 131.5 L 331.5 128.5 L 328.5 128.5 M 327.5 127.5 L 327.5 132.5 L 332.5 132.5 L 332.5 127.5 L 327.5 127.5 M 326.5 126.5 L 326.5 133.5 L 333.5 133.5 L 333.5 126.5 L 326.5 126.5 M 325.5 125.5 L 325.5 134.5 L 334.5 134.5 L 334.5 125.5 L 325.5 125.5 M 324.5 124.5 L 324.5 135.5 L 335.5 135.5 L 335.5 124.5 L 324.5 124.5 M 321.5 121.5 L 321.5 138.5 L 338.5 138.5 L 338.5 121.5 L 321.5 121.5 M 320.5 120.5 L 320.5 139.5 L 339.5 139.5 L 339.5 120.5 L 320.5 120.5 M 368.5 128.5 L 368.5 131.5 L 371.5 131.5 L 371.5 128.5 L 368.5 128.5 M 366.5 126.5 L 366.5 133.5 L 373.5 133.5 L 373.5 126.5 L 366.5 126.5 M 365.5 125.5 L 365.5 134.5 L 374.5 134.5 L 374.5 125.5 L 365.5 125.5 M 364.5 124.5 L 364.5 135.5 L 375.5 135.5 L 375.5 124.5 L 364.5 124.5 M 363.5 123.5 L 363.5 136.5 L 376.5 136.5 L 376.5 123.5 L 363.5 123.5 M 361.5 121.5 L 361.5 138.5 L 378.5 138.5 L 378.5 121.5 L 361.5 121.5 M 360.5 120.5 L 360.5 139.5 L 379.5 139.5 L 379.5 120.5 L 360.5 120.5 M 408.5 128.5 L 408.5 131.5 L 411.5 131.5 L 411.5 128.5 L 408.5 128.5 M 406.5 126.5 L 406.5 133.5 L 413.5 133.5 L 413.5 126.5 L 406.5 126.5 M 405.5 125.5 L 405.5 134.5 L 414.5 134.5 L 414.5 125.5 L 405.5 125.5 M 401.5 121.5 L 401.5 138.5 L 418.5 138.5 L 418.5 121.5 L 401.5 121.5 M 400.5 120.5 L 400.5 139.5 L 419.5 139.5 L 419.5 120.5 L 400.5 120.5 M 48.5 168.5 L 48.5 171.5 L 51.5 171.5 L 51.5 168.5 L 48.5 168.5 M 47.5 167.5 L 47.5 172.5 L 52.5 172.5 L 52.5 167.5 L 47.5 167.5 M 44.5 164.5 L 44.5 175.5 L 55.5 175.5 L 55.5 164.5 L 44.5 164.5 M 42.5 162.5 L 42.5 177.5 L 57.5 177.5 L 57.5 162.5 L 42.5 162.5 M 41.5 161.5 L 41.5 178.5 L 58.5 178.5 L 58.5 161.5 L 41.5 161.5 M 40.5 160.5 L 40.5 179.5 L 59.5 179.5 L 59.5 160.5 L 40.5 160.5 M 89.5 169.5 L 89.5 170.5 L 90.5 170.5 L 90.5 169.5 L 89.5 169.5 M 88.5 168.5 L 88.5 171.5 L 91.5 171.5 L 91.5 168.5 L 88.5 168.5 M 87.5 167.5 L 87.5 172.5 L 92.5 172.5 L 92.5 167.5 L 87.5 167.5 M 86.5 166.5 L 86.5 173.5 L 93.5 173.5 L 93.5 166.5 L 86.5 166.5 M 84.5 164.5 L 84.5 175.5 L 95.5 175.5 L 95.5 164.5 L 84.5 164.5 M 83.5 163.5 L 83.5 176.5 L 96.5 176.5 L 96.5 163.5 L 83.5 163.5 M 82.5 162.5 L 82.5 177.5 L 97.5 177.5 L 97.5 162.5 L 82.5 162.5 M 81.5 161.5 L 81.5 178.5 L 98.5 178.5 L 98.5 161.5 L 81.5 161.5 M 80.5 160.5 L 80.5 179.5 L 99.5 179.5 L 99.5 160.5 L 80.5 160.5 M 127.5 167.5 L 127.5 172.5 L 132.5 172.5 L 132.5 167.5 L 127.5 167.5 M 125.5 165.5 L 125.5 174.5 L 134.5 174.5 L 134.5 165.5 L 125.5 165.5 M 124.5 164.5 L 124.5 175.5 L 135.5 175.5 L 135.5 164.5 L 124.5 164.5 M 123.5 163.5 L 123.5 176.5 L 136.5 176.5 L 136.5 163.5 L 123.5 163.5 M 122.5 162.5 L 122.5 177.5 L 137.5 177.5 L 137.5 162.5 L 122.5 162.5 M 120.5 160.5 L 120.5 179.5 L 139.5 179.5 L 139.5 160.5 L 120.5 160.5 M 169.5 169.5 L 169.5 170.5 L 170.5 170.5 L 170.5 169.5 L 169.5 169.5 M 168.5 168.5 L 168.5 171.5 L 171.5 171.5 L 171.5 168.5 L 168.5 168.5 M 164.5 164.5 L 164.5 175.5 L 175.5 175.5 L 175.5 164.5 L 164.5 164.5 M 162.5 162.5 L 162.5 177.5 L 177.5 177.5 L 177.5 162.5 L 162.5 162.5 M 160.5 160.5 L 160.5 179.5 L 179.5 179.5 L 179.5 160.5 L 160.5 160.5 M 208.5 168.5 L 208.5 171.5 L 211.5 171.5 L 211.5 168.5 L 208.5 168.5 M 206.5 166.5 L 206.5 173.5 L 213.5 173.5 L 213.5 166.5 L 206.5 166.5 M 204.5 164.5 L 204.5 175.5 L 215.5 175.5 L 215.5 164.5 L 204.5 164.5 M 203.5 163.5 L 203.5 176.5 L 216.5 176.5 L 216.5 163.5 L 203.5 163.5 M 202.5 162.5 L 202.5 177.5 L 217.5 177.5 L 217.5 162.5 L 202.5 162.5 M 201.5 161.5 L 201.5 178.5 L 218.5 178.5 L 218.5 161.5 L 201.5 161.5 M 200.5 160.5 L 200.5 179.5 L 219.5 179.5 L 219.5 160.5 L 200.5 160.5 M 249.5 169.5 L 249.5 170.5 L 250.5 170.5 L 250.5 169.5 L 249.5 169.5 M 247.5 167.5 L 247.5 172.5 L 252.5 172.5 L 252.5 167.5 L 247.5 167.5 M 245.5 165.5 L 245.5 174.5 L 254.5 174.5 L 254.5 165.5 L 245.5 165.5 M 243.5 163.5 L 243.5 176.5 L 256.5 176.5 L 256.5 163.5 L 243.5 163.5 M 242.5 162.5 L 242.5 177.5 L 257.5 177.5 L 257.5 162.5 L 242.5 162.5 M 241.5 161.5 L 241.5 178.5 L 258.5 178.5 L 258.5 161.5 L 241.5 161.5 M 240.5 160.5 L 240.5 179.5 L 259.5 179.5 L 259.5 160.5 L 240.5 160.5 M 289.5 169.5 L 289.5 170.5 L 290.5 170.5 L 290.5 169.5 L 289.5 169.5 M 288.5 168.5 L 288.5 171.5 L 291.5 171.5 L 291.5 168.5 L 288.5 168.5 M 287.5 167.5 L 287.5 172.5 L 292.5 172.5 L 292.5 167.5 L 287.5 167.5 M 285.5 165.5 L 285.5 174.5 L 294.5 174.5 L 294.5 165.5 L 285.5 165.5 M 284.5 164.5 L 284.5 175.5 L 295.5 175.5 L 295.5 164.5 L 284.5 164.5 M 283.5 163.5 L 283.5 176.5 L 296.5 176.5 L 296.5 163.5 L 283.5 163.5 M 281.5 161.5 L 281.5 178.5 L 298.5 178.5 L 298.5 161.5 L 281.5 161.5 M 280.5 160.5 L 280.5 179.5 L 299.5 179.5 L 299.5 160.5 L 280.5 160.5 M 329.5 169.5 L 329.5 170.5 L 330.5 170.5 L 330.5 169.5 L 329.5 169.5 M 328.5 168.5 L 328.5 171.5 L 331.5 171.5 L 331.5 168.5 L 328.5 168.5 M 327.5 167.5 L 327.5 172.5 L 332.5 172.5 L 332.5 167.5 L 327.5 167.5 M 326.5 166.5 L 326.5 173.5 L 333.5 173.5 L 333.5 166.5 L 326.5 166.5 M 325.5 165.5 L 325.5 174.5 L 334.5 174.5 L 334.5 165.5 L 325.5 165.5 M 323.5 163.5 L 323.5 176.5 L 336.5 176.5 L 336.5 163.5 L 323.5 163.5 M 322.5 162.5 L 322.5 177.5 L 337.5 177.5 L 337.5 162.5 L 322.5 162.5 M 321.5 161.5 L 321.5 178.5 L 338.5 178.5 L 338.5 161.5 L 321.5 161.5 M 369.5 169.5 L 369.5 170.5 L 370.5 170.5 L 370.5 169.5 L 369.5 169.5 M 368.5 168.5 L 368.5 171.5 L 371.5 171.5 L 371.5 168.5 L 368.5 168.5 M 366.5 166.5 L 366.5 173.5 L 373.5 173.5 L 373.5 166.5 L 366.5 166.5 M 364.5 164.5 L 364.5 175.5 L 375.5 175.5 L 375.5 164.5 L 364.5 164.5 M 360.5 160.5 L 360.5 179.5 L 379.5 179.5 L 379.5 160.5 L 360.5 160.5 M 408.5 168.5 L 408.5 171.5 L 411.5 171.5 L 411.5 168.5 L 408.5 168.5 M 407.5 167.5 L 407.5 172.5 L 412.5 172.5 L 412.5 167.5 L 407.5 167.5 M 406.5 166.5 L 406.5 173.5 L 413.5 173.5 L 413.5 166.5 L 406.5 166.5 M 405.5 165.5 L 405.5 174.5 L 414.5 174.5 L 414.5 165.5 L 405.5 165.5 M 404.5 164.5 L 404.5 175.5 L 415.5 175.5 L 415.5 164.5 L 404.5 164.5 M 403.5 163.5 L 403.5 176.5 L 416.5 176.5 L 416.5 163.5 L 403.5 163.5 M 402.5 162.5 L 402.5 177.5 L 417.5 177.5 L 417.5 162.5 L 402.5 162.5 M 401.5 161.5 L 401.5 178.5 L 418.5 178.5 L 418.5 161.5 L 401.5 161.5 M 400.5 160.5 L 400.5 179.5 L 419.5 179.5 L 419.5 160.5 L 400.5 160.5 M 48.5 208.5 L 48.5 211.5 L 51.5 211.5 L 51.5 208.5 L 48.5 208.5 M 45.5 205.5 L 45.5 214.5 L 54.5 214.5 L 54.5 205.5 L 45.5 205.5 M 44.5 204.5 L 44.5 215.5 L 55.5 215.5 L 55.5 204.5 L 44.5 204.5 M 43.5 203.5 L 43.5 216.5 L 56.5 216.5 L 56.5 203.5 L 43.5 203.5 M 42.5 202.5 L 42.5 217.5 L 57.5 217.5 L 57.5 202.5 L 42.5 202.5 M 41.5 201.5 L 41.5 218.5 L 58.5 218.5 L 58.5 201.5 L 41.5 201.5 M 89.5 209.5 L 89.5 210.5 L 90.5 210.5 L 90.5 209.5 L 89.5 209.5 M 86.5 206.5 L 86.5 213.5 L 93.5 213.5 L 93.5 206.5 L 86.5 206.5 M 85.5 205.5 L 85.5 214.5 L 94.5 214.5 L 94.5 205.5 L 85.5 205.5 M 84.5 204.5 L 84.5 215.5 L 95.5 215.5 L 95.5 204.5 L 84.5 204.5 M 82.5 202.5 L 82.5 217.5 L 97.5 217.5 L 97.5 202.5 L 82.5 202.5 M 81.5 201.5 L 81.5 218.5 L 98.5 218.5 L 98.5 201.5 L 81.5 201.5 M 80.5 200.5 L 80.5 219.5 L 99.5 219.5 L 99.5 200.5 L 80.5 200.5 M 129.5 209.5 L 129.5 210.5 L 130.5 210.5 L 130.5 209.5 L 129.5 209.5 M 128.5 208.5 L 128.5 211.5 L 131.5 211.5 L 131.5 208.5 L 128.5 208.5 M 127.5 207.5 L 127.5 212.5 L 132.5 212.5 L 132.5 207.5 L 127.5 207.5 M 126.5 206.5 L 126.5 213.5 L 133.5 213.5 L 133.5 206.5 L 126.5 206.5 M 125.5 205.5 L 125.5 214.5 L 134.5 214.5 L 134.5 205.5 L 125.5 205.5 M 121.5 201.5 L 121.5 218.5 L 138.5 218.5 L 138.5 201.5 L 121.5 201.5 M 169.5 209.5 L 169.5 210.5 L 170.5 210.5 L 170.5 209.5 L 169.5 209.5 M 167.5 207.5 L 167.5 212.5 L 172.5 212.5 L 172.5 207.5 L 167.5 207.5 M 165.5 205.5 L 165.5 214.5 L 174.5 214.5 L 174.5 205.5 L 165.5 205.5 M 164.5 204.5 L 164.5 215.5 L 175.5 215.5 L 175.5 204.5 L 164.5 204.5 M 163.5 203.5 L 163.5 216.5 L 176.5 216.5 L 176.5 203.5 L 163.5 203.5 M 162.5 202.5 L 162.5 217.5 L 177.5 217.5 L 177.5 202.5 L 162.5 202.5 M 160.5 200.5 L 160.5 219.5 L 179.5 219.5 L 179.5 200.5 L 160.5 200.5 M 209.5 209.5 L 209.5 210.5 L 210.5 210.5 L 210.5 209.5 L 209.5 209.5 M 207.5 207.5 L 207.5 212.5 L 212.5 212.5 L 212.5 207.5 L 207.5 207.5 M 203.5 203.5 L 203.5 216.5 L 216.5 216.5 L 216.5 203.5 L 203.5 203.5 M 202.5 202.5 L 202.5 217.5 L 217.5 217.5 L 217.5 202.5 L 202.5 202.5 M 200.5 200.5 L 200.5 219.5 L 219.5 219.5 L 219.5 200.5 L 200.5 200.5 M 249.5 209.5 L 249.5 210.5 L 250.5 210.5 L 250.5 209.5 L 249.5 209.5 M 248.5 208.5 L 248.5 211.5 L 251.5 211.5 L 251.5 208.5 L 248.5 208.5 M 247.5 207.5 L 247.5 212.5 L 252.5 212.5 L 252.5 207.5 L 247.5 207.5 M 246.5 206.5 L 246.5 213.5 L 253.5 213.5 L 253.5 206.5 L 246.5 206.5 M 245.5 205.5 L 245.5 214.5 L 254.5 214.5 L 254.5 205.5 L 245.5 205.5 M 244.5 204.5 L 244.5 215.5 L 255.5 215.5 L 255.5 204.5 L 244.5 204.5 M 242.5 202.5 L 242.5 217.5 L 257.5 217.5 L 257.5 202.5 L 242.5 202.5 M 288.5 208.5 L 288.5 211.5 L 291.5 211.5 L 291.5 208.5 L 288.5 208.5 M 287.5 207.5 L 287.5 212.5 L 292.5 212.5 L 292.5 207.5 L 287.5 207.5 M 283.5 203.5 L 283.5 216.5 L 296.5 216.5 L 296.5 203.5 L 283.5 203.5 M 282.5 202.5 L 282.5 217.5 L 297.5 217.5 L 297.5 202.5 L 282.5 202.5 M 327.5 207.5 L 327.5 212.5 L 332.5 212.5 L 332.5 207.5 L 327.5 207.5 M 326.5 206.5 L 326.5 213.5 L 333.5 213.5 L 333.5 206.5 L 326.5 206.5 M 324.5 204.5 L 324.5 215.5 L 335.5 215.5 L 335.5 204.5 L 324.5 204.5 M 323.5 203.5 L 323.5 216.5 L 336.5 216.5 L 336.5 203.5 L 323.5 203.5 M 320.5 200.5 L 320.5 219.5 L 339.5 219.5 L 339.5 200.5 L 320.5 200.5 M 368.5 208.5 L 368.5 211.5 L 371.5 211.5 L 371.5 208.5 L 368.5 208.5 M 367.5 207.5 L 367.5 212.5 L 372.5 212.5 L 372.5 207.5 L 367.5 207.5 M 366.5 206.5 L 366.5 213.5 L 373.5 213.5 L 373.5 206.5 L 366.5 206.5 M 364.5 204.5 L 364.5 215.5 L 375.5 215.5 L 375.5 204.5 L 364.5 204.5 M 363.5 203.5 L 363.5 216.5 L 376.5 216.5 L 376.5 203.5 L 363.5 203.5 M 362.5 202.5 L 362.5 217.5 L 377.5 217.5 L 377.5 202.5 L 362.5 202.5 M 361.5 201.5 L 361.5 218.5 L 378.5 218.5 L 378.5 201.5 L 361.5 201.5 M 409.5 209.5 L 409.5 210.5 L 410.5 210.5 L 410.5 209.5 L 409.5 209.5 M 402.5 202.5 L 402.5 217.5 L 417.5 217.5 L 417.5 202.5 L 402.5 202.5 M 401.5 201.5 L 401.5 218.5 L 418.5 218.5 L 418.5 201.5 L 401.5 201.5 M 49.5 249.5 L 49.5 250.5 L 50.5 250.5 L 50.5 249.5 L 49.5 249.5 M 48.5 248.5 L 48.5 251.5 L 51.5 251.5 L 51.5 248.5 L 48.5 248.5 M 47.5 247.5 L 47.5 252.5 L 52.5 252.5 L 52.5 247.5 L 47.5 247.5 M 46.5 246.5 L 46.5 253.5 L 53.5 253.5 L 53.5 246.5 L 46.5 246.5 M 45.5 245.5 L 45.5 254.5 L 54.5 254.5 L 54.5 245.5 L 45.5 245.5 M 40.5 240.5 L 40.5 259.5 L 59.5 259.5 L 59.5 240.5 L 40.5 240.5 M 88.5 248.5 L 88.5 251.5 L 91.5 251.5 L 91.5 248.5 L 88.5 248.5 M 85.5 245.5 L 85.5 254.5 L 94.5 254.5 L 94.5 245.5 L 85.5 245.5 M 84.5 244.5 L 84.5 255.5 L 95.5 255.5 L 95.5 244.5 L 84.5 244.5 M 83.5 243.5 L 83.5 256.5 L 96.5 256.5 L 96.5 243.5 L 83.5 243.5 M 82.5 242.5 L 82.5 257.5 L 97.5 257.5 L 97.5 242.5 L 82.5 242.5 M 81.5 241.5 L 81.5 258.5 L 98.5 258.5 L 98.5 241.5 L 81.5 241.5 M 129.5 249.5 L 129.5 250.5 L 130.5 250.5 L 130.5 249.5 L 129.5 249.5 M 128.5 248.5 L 128.5 251.5 L 131.5 251.5 L 131.5 248.5 L 128.5 248.5 M 127.5 247.5 L 127.5 252.5 L 132.5 252.5 L 132.5 247.5 L 127.5 247.5 M 125.5 245.5 L 125.5 254.5 L 134.5 254.5 L 134.5 245.5 L 125.5 245.5 M 124.5 244.5 L 124.5 255.5 L 135.5 255.5 L 135.5 244.5 L 124.5 244.5 M 121.5 241.5 L 121.5 258.5 L 138.5 258.5 L 138.5 241.5 L 121.5 241.5 M 167.5 247.5 L 167.5 252.5 L 172.5 252.5 L 172.5 247.5 L 167.5 247.5 M 165.5 245.5 L 165.5 254.5 L 174.5 254.5 L 174.5 245.5 L 165.5 245.5 M 164.5 244.5 L 164.5 255.5 L 175.5 255.5 L 175.5 244.5 L 164.5 244.5 M 163.5 243.5 L 163.5 256.5 L 176.5 256.5 L 176.5 243.5 L 163.5 243.5 M 162.5 242.5 L 162.5 257.5 L 177.5 257.5 L 177.5 242.5 L 162.5 242.5 M 161.5 241.5 L 161.5 258.5 L 178.5 258.5 L 178.5 241.5 L 161.5 241.5 M 209.5 249.5 L 209.5 250.5 L 210.5 250.5 L 210.5 249.5 L 209.5 249.5 M 208.5 248.5 L 208.5 251.5 L 211.5 251.5 L 211.5 248.5 L 208.5 248.5 M 205.5 245.5 L 205.5 254.5 L 214.5 254.5 L 214.5 245.5 L 205.5 245.5 M 203.5 243.5 L 203.5 256.5 L 216.5 256.5 L 216.5 243.5 L 203.5 243.5 M 202.5 242.5 L 202.5 257.5 L 217.5 257.5 L 217.5 242.5 L 202.5 242.5 M 201.5 241.5 L 201.5 258.5 L 218.5 258.5 L 218.5 241.5 L 201.5 241.5 M 200.5 240.5 L 200.5 259.5 L 219.5 259.5 L 219.5 240.5 L 200.5 240.5 M 246.5 246.5 L 246.5 253.5 L 253.5 253.5 L 253.5 246.5 L 246.5 246.5 M 245.5 245.5 L 245.5 254.5 L 254.5 254.5 L 254.5 245.5 L 245.5 245.5 M 244.5 244.5 L 244.5 255.5 L 255.5 255.5 L 255.5 244.5 L 244.5 244.5 M 243.5 243.5 L 243.5 256.5 L 256.5 256.5 L 256.5 243.5 L 243.5 243.5 M 242.5 242.5 L 242.5 257.5 L 257.5 257.5 L 257.5 242.5 L 242.5 242.5 M 241.5 241.5 L 241.5 258.5 L 258.5 258.5 L 258.5 241.5 L 241.5 241.5 M 240.5 240.5 L 240.5 259.5 L 259.5 259.5 L 259.5 240.5 L 240.5 240.5 M 289.5 249.5 L 289.5 250.5 L 290.5 250.5 L 290.5 249.5 L 289.5 249.5 M 288.5 248.5 L 288.5 251.5 L 291.5 251.5 L 291.5 248.5 L 288.5 248.5 M 286.5 246.5 L 286.5 253.5 L 293.5 253.5 L 293.5 246.5 L 286.5 246.5 M 285.5 245.5 L 285.5 254.5 L 294.5 254.5 L 294.5 245.5 L 285.5 245.5 M 284.5 244.5 L 284.5 255.5 L 295.5 255.5 L 295.5 244.5 L 284.5 244.5 M 283.5 243.5 L 283.5 256.5 L 296.5 256.5 L 296.5 243.5 L 283.5 243.5 M 280.5 240.5 L 280.5 259.5 L 299.5 259.5 L 299.5 240.5 L 280.5 240.5 M 327.5 247.5 L 327.5 252.5 L 332.5 252.5 L 332.5 247.5 L 327.5 247.5 M 326.5 246.5 L 326.5 253.5 L 333.5 253.5 L 333.5 246.5 L 326.5 246.5 M 325.5 245.5 L 325.5 254.5 L 334.5 254.5 L 334.5 245.5 L 325.5 245.5 M 324.5 244.5 L 324.5 255.5 L 335.5 255.5 L 335.5 244.5 L 324.5 244.5 M 322.5 242.5 L 322.5 257.5 L 337.5 257.5 L 337.5 242.5 L 322.5 242.5 M 369.5 249.5 L 369.5 250.5 L 370.5 250.5 L 370.5 249.5 L 369.5 249.5 M 368.5 248.5 L 368.5 251.5 L 371.5 251.5 L 371.5 248.5 L 368.5 248.5 M 364.5 244.5 L 364.5 255.5 L 375.5 255.5 L 375.5 244.5 L 364.5 244.5 M 363.5 243.5 L 363.5 256.5 L 376.5 256.5 L 376.5 243.5 L 363.5 243.5 M 362.5 242.5 L 362.5 257.5 L 377.5 257.5 L 377.5 242.5 L 362.5 242.5 M 360.5 240.5 L 360.5 259.5 L 379.5 259.5 L 379.5 240.5 L 360.5 240.5 M 408.5 248.5 L 408.5 251.5 L 411.5 251.5 L 411.5 248.5 L 408.5 248.5 M 407.5 247.5 L 407.5 252.5 L 412.5 252.5 L 412.5 247.5 L 407.5 247.5 M 406.5 246.5 L 406.5 253.5 L 413.5 253.5 L 413.5 246.5 L 406.5 246.5 M 404.5 244.5 L 404.5 255.5 L 415.5 255.5 L 415.5 244.5 L 404.5 244.5 M 401.5 241.5 L 401.5 258.5 L 418.5 258.5 L 418.5 241.5 L 401.5 241.5 M 400.5 240.5 L 400.5 259.5 L 419.5 259.5 L 419.5 240.5 L 400.5 240.5 M 49.5 289.5 L 49.5 290.5 L 50.5 290.5 L 50.5 289.5 L 49.5 289.5 M 48.5 288.5 L 48.5 291.5 L 51.5 291.5 L 51.5 288.5 L 48.5 288.5 M 45.5 285.5 L 45.5 294.5 L 54.5 294.5 L 54.5 285.5 L 45.5 285.5 M 43.5 283.5 L 43.5 296.5 L 56.5 296.5 L 56.5 283.5 L 43.5 283.5 M 41.5 281.5 L 41.5 298.5 L 58.5 298.5 L 58.5 281.5 L 41.5 281.5 M 89.5 289.5 L 89.5 290.5 L 90.5 290.5 L 90.5 289.5 L 89.5 289.5 M 87.5 287.5 L 87.5 292.5 L 92.5 292.5 L 92.5 287.5 L 87.5 287.5 M 86.5 286.5 L 86.5 293.5 L 93.5 293.5 L 93.5 286.5 L 86.5 286.5 M 85.5 285.5 L 85.5 294.5 L 94.5 294.5 L 94.5 285.5 L 85.5 285.5 M 83.5 283.5 L 83.5 296.5 L 96.5 296.5 L 96.5 283.5 L 83.5 283.5 M 80.5 280.5 L 80.5 299.5 L 99.5 299.5 L 99.5 280.5 L 80.5 280.5 M 129.5 289.5 L 129.5 290.5 L 130.5 290.5 L 130.5 289.5 L 129.5 289.5 M 128.5 288.5 L 128.5 291.5 L 131.5 291.5 L 131.5 288.5 L 128.5 288.5 M 127.5 287.5 L 127.5 292.5 L 132.5 292.5 L 132.5 287.5 L 127.5 287.5 M 126.5 286.5 L 126.5 293.5 L 133.5 293.5 L 133.5 286.5 L 126.5 286.5 M 125.5 285.5 L 125.5 294.5 L 134.5 294.5 L 134.5 285.5 L 125.5 285.5 M 124.5 284.5 L 124.5 295.5 L 135.5 295.5 L 135.5 284.5 L 124.5 284.5 M 123.5 283.5 L 123.5 296.5 L 136.5 296.5 L 136.5 283.5 L 123.5 283.5 M 122.5 282.5 L 122.5 297.5 L 137.5 297.5 L 137.5 282.5 L 122.5 282.5 M 169.5 289.5 L 169.5 290.5 L 170.5 290.5 L 170.5 289.5 L 169.5 289.5 M 168.5 288.5 L 168.5 291.5 L 171.5 291.5 L 171.5 288.5 L 168.5 288.5 M 167.5 287.5 L 167.5 292.5 L 172.5 292.5 L 172.5 287.5 L 167.5 287.5 M 166.5 286.5 L 166.5 293.5 L 173.5 293.5 L 173.5 286.5 L 166.5 286.5 M 165.5 285.5 L 165.5 294.5 L 174.5 294.5 L 174.5 285.5 L 165.5 285.5 M 164.5 284.5 L 164.5 295.5 L 175.5 295.5 L 175.5 284.5 L 164.5 284.5 M 163.5 283.5 L 163.5 296.5 L 176.5 296.5 L 176.5 283.5 L 163.5 283.5 M 161.5 281.5 L 161.5 298.5 L 178.5 298.5 L 178.5 281.5 L 161.5 281.5 M 209.5 289.5 L 209.5 290.5 L 210.5 290.5 L 210.5 289.5 L 209.5 289.5 M 207.5 287.5 L 207.5 292.5 L 212.5 292.5 L 212.5 287.5 L 207.5 287.5 M 204.5 284.5 L 204.5 295.5 L 215.5 295.5 L 215.5 284.5 L 204.5 284.5 M 203.5 283.5 L 203.5 296.5 L 216.5 296.5 L 216.5 283.5 L 203.5 283.5 M 201.5 281.5 L 201.5 298.5 L 218.5 298.5 L 218.5 281.5 L 201.5 281.5 M 200.5 280.5 L 200.5 299.5 L 219.5 299.5 L 219.5 280.5 L 200.5 280.5 M 249.5 289.5 L 249.5 290.5 L 250.5 290.5 L 250.5 289.5 L 249.5 289.5 M 248.5 288.5 L 248.5 291.5 L 251.5 291.5 L 251.5 288.5 L 248.5 288.5 M 247.5 287.5 L 247.5 292.5 L 252.5 292.5 L 252.5 287.5 L 247.5 287.5 M 243.5 283.5 L 243.5 296.5 L 256.5 296.5 L 256.5 283.5 L 243.5 283.5 M 242.5 282.5 L 242.5 297.5 L 257.5 297.5 L 257.5 282.5 L 242.5 282.5 M 241.5 281.5 L 241.5 298.5 L 258.5 298.5 L 258.5 281.5 L 241.5 281.5 M 240.5 280.5 L 240.5 299.5 L 259.5 299.5 L 259.5 280.5 L 240.5 280.5 M 289.5 289.5 L 289.5 290.5 L 290.5 290.5 L 290.5 289.5 L 289.5 289.5 M 288.5 288.5 L 288.5 291.5 L 291.5 291.5 L 291.5 288.5 L 288.5 288.5 M 287.5 287.5 L 287.5 292.5 L 292.5 292.5 L 292.5 287.5 L 287.5 287.5 M 286.5 286.5 L 286.5 293.5 L 293.5 293.5 L 293.5 286.5 L 286.5 286.5 M 284.5 284.5 L 284.5 295.5 L 295.5 295.5 L 295.5 284.5 L 284.5 284.5 M 283.5 283.5 L 283.5 296.5 L 296.5 296.5 L 296.5 283.5 L 283.5 283.5 M 281.5 281.5 L 281.5 298.5 L 298.5 298.5 L 298.5 281.5 L 281.5 281.5 M 280.5 280.5 L 280.5 299.5 L 299.5 299.5 L 299.5 280.5 L 280.5 280.5 M 327.5 287.5 L 327.5 292.5 L 332.5 292.5 L 332.5 287.5 L 327.5 287.5 M 326.5 286.5 L 326.5 293.5 L 333.5 293.5 L 333.5 286.5 L 326.5 286.5 M 324.5 284.5 L 324.5 295.5 L 335.5 295.5 L 335.5 284.5 L 324.5 284.5 M 323.5 283.5 L 323.5 296.5 L 336.5 296.5 L 336.5 283.5 L 323.5 283.5 M 322.5 282.5 L 322.5 297.5 L 337.5 297.5 L 337.5 282.5 L 322.5 282.5 M 321.5 281.5 L 321.5 298.5 L 338.5 298.5 L 338.5 281.5 L 321.5 281.5 M 368.5 288.5 L 368.5 291.5 L 371.5 291.5 L 371.5 288.5 L 368.5 288.5 M 367.5 287.5 L 367.5 292.5 L 372.5 292.5 L 372.5 287.5 L 367.5 287.5 M 365.5 285.5 L 365.5 294.5 L 374.5 294.5 L 374.5 285.5 L 365.5 285.5 M 363.5 283.5 L 363.5 296.5 L 376.5 296.5 L 376.5 283.5 L 363.5 283.5 M 360.5 280.5 L 360.5 299.5 L 379.5 299.5 L 379.5 280.5 L 360.5 280.5 M 409.5 289.5 L 409.5 290.5 L 410.5 290.5 L 410.5 289.5 L 409.5 289.5 M 408.5 288.5 L 408.5 291.5 L 411.5 291.5 L 411.5 288.5 L 408.5 288.5 M 406.5 286.5 L 406.5 293.5 L 413.5 293.5 L 413.5 286.5 L 406.5 286.5 M 404.5 284.5 L 404.5 295.5 L 415.5 295.5 L 415.5 284.5 L 404.5 284.5 M 403.5 283.5 L 403.5 296.5 L 416.5 296.5 L 416.5 283.5 L 403.5 283.5 M 401.5 281.5 L 401.5 298.5 L 418.5 298.5 L 418.5 281.5 L 401.5 281.5 M 48.5 328.5 L 48.5 331.5 L 51.5 331.5 L 51.5 328.5 L 48.5 328.5 M 46.5 326.5 L 46.5 333.5 L 53.5 333.5 L 53.5 326.5 L 46.5 326.5 M 45.5 325.5 L 45.5 334.5 L 54.5 334.5 L 54.5 325.5 L 45.5 325.5 M 44.5 324.5 L 44.5 335.5 L 55.5 335.5 L 55.5 324.5 L 44.5 324.5 M 43.5 323.5 L 43.5 336.5 L 56.5 336.5 L 56.5 323.5 L 43.5 323.5 M 41.5 321.5 L 41.5 338.5 L 58.5 338.5 L 58.5 321.5 L 41.5 321.5 M 89.5 329.5 L 89.5 330.5 L 90.5 330.5 L 90.5 329.5 L 89.5 329.5 M 88.5 328.5 L 88.5 331.5 L 91.5 331.5 L 91.5 328.5 L 88.5 328.5 M 87.5 327.5 L 87.5 332.5 L 92.5 332.5 L 92.5 327.5 L 87.5 327.5 M 86.5 326.5 L 86.5 333.5 L 93.5 333.5 L 93.5 326.5 L 86.5 326.5 M 85.5 325.5 L 85.5 334.5 L 94.5 334.5 L 94.5 325.5 L 85.5 325.5 M 84.5 324.5 L 84.5 335.5 L 95.5 335.5 L 95.5 324.5 L 84.5 324.5 M 83.5 323.5 L 83.5 336.5 L 96.5 336.5 L 96.5 323.5 L 83.5 323.5 M 80.5 320.5 L 80.5 339.5 L 99.5 339.5 L 99.5 320.5 L 80.5 320.5 M 129.5 329.5 L 129.5 330.5 L 130.5 330.5 L 130.5 329.5 L 129.5 329.5 M 128.5 328.5 L 128.5 331.5 L 131.5 331.5 L 131.5 328.5 L 128.5 328.5 M 127.5 327.5 L 127.5 332.5 L 132.5 332.5 L 132.5 327.5 L 127.5 327.5 M 124.5 324.5 L 124.5 335.5 L 135.5 335.5 L 135.5 324.5 L 124.5 324.5 M 122.5 322.5 L 122.5 337.5 L 137.5 337.5 L 137.5 322.5 L 122.5 322.5 M 120.5 320.5 L 120.5 339.5 L 139.5 339.5 L 139.5 320.5 L 120.5 320.5 M 167.5 327.5 L 167.5 332.5 L 172.5 332.5 L 172.5 327.5 L 167.5 327.5 M 166.5 326.5 L 166.5 333.5 L 173.5 333.5 L 173.5 326.5 L 166.5 326.5 M 165.5 325.5 L 165.5 334.5 L 174.5 334.5 L 174.5 325.5 L 165.5 325.5 M 164.5 324.5 L 164.5 335.5 L 175.5 335.5 L 175.5 324.5 L 164.5 324.5 M 162.5 322.5 L 162.5 337.5 L 177.5 337.5 L 177.5 322.5 L 162.5 322.5 M 160.5 320.5 L 160.5 339.5 L 179.5 339.5 L 179.5 320.5 L 160.5 320.5 M 209.5 329.5 L 209.5 330.5 L 210.5 330.5 L 210.5 329.5 L 209.5 329.5 M 208.5 328.5 L 208.5 331.5 L 211.5 331.5 L 211.5 328.5 L 208.5 328.5 M 206.5 326.5 L 206.5 333.5 L 213.5 333.5 L 213.5 326.5 L 206.5 326.5 M 203.5 323.5 L 203.5 336.5 L 216.5 336.5 L 216.5 323.5 L 203.5 323.5 M 201.5 321.5 L 201.5 338.5 L 218.5 338.5 L 218.5 321.5 L 201.5 321.5 M 200.5 320.5 L 200.5 339.5 L 219.5 339.5 L 219.5 320.5 L 200.5 320.5 M 246.5 326.5 L 246.5 333.5 L 253.5 333.5 L 253.5 326.5 L 246.5 326.5 M 245.5 325.5 L 245.5 334.5 L 254.5 334.5 L 254.5 325.5 L 245.5 325.5 M 244.5 324.5 L 244.5 335.5 L 255.5 335.5 L 255.5 324.5 L 244.5 324.5 M 242.5 322.5 L 242.5 337.5 L 257.5 337.5 L 257.5 322.5 L 242.5 322.5 M 289.5 329.5 L 289.5 330.5 L 290.5 330.5 L 290.5 329.5 L 289.5 329.5 M 288.5 328.5 L 288.5 331.5 L 291.5 331.5 L 291.5 328.5 L 288.5 328.5 M 287.5 327.5 L 287.5 332.5 L 292.5 332.5 L 292.5 327.5 L 287.5 327.5 M 286.5 326.5 L 286.5 333.5 L 293.5 333.5 L 293.5 326.5 L 286.5 326.5 M 284.5 324.5 L 284.5 335.5 L 295.5 335.5 L 295.5 324.5 L 284.5 324.5 M 283.5 323.5 L 283.5 336.5 L 296.5 336.5 L 296.5 323.5 L 283.5 323.5 M 282.5 322.5 L 282.5 337.5 L 297.5 337.5 L 297.5 322.5 L 282.5 322.5 M 280.5 320.5 L 280.5 339.5 L 299.5 339.5 L 299.5 320.5 L 280.5 320.5 M 329.5 329.5 L 329.5 330.5 L 330.5 330.5 L 330.5 329.5 L 329.5 329.5 M 328.5 328.5 L 328.5 331.5 L 331.5 331.5 L 331.5 328.5 L 328.5 328.5 M 325.5 325.5 L 325.5 334.5 L 334.5 334.5 L 334.5 325.5 L 325.5 325.5 M 323.5 323.5 L 323.5 336.5 L 336.5 336.5 L 336.5 323.5 L 323.5 323.5 M 322.5 322.5 L 322.5 337.5 L 337.5 337.5 L 337.5 322.5 L 322.5 322.5 M 321.5 321.5 L 321.5 338.5 L 338.5 338.5 L 338.5 321.5 L 321.5 321.5 M 320.5 320.5 L 320.5 339.5 L 339.5 339.5 L 339.5 320.5 L 320.5 320.5 M 368.5 328.5 L 368.5 331.5 L 371.5 331.5 L 371.5 328.5 L 368.5 328.5 M 367.5 327.5 L 367.5 332.5 L 372.5 332.5 L 372.5 327.5 L 367.5 327.5 M 366.5 326.5 L 366.5 333.5 L 373.5 333.5 L 373.5 326.5 L 366.5 326.5 M 364.5 324.5 L 364.5 335.5 L 375.5 335.5 L 375.5 324.5 L 364.5 324.5 M 363.5 323.5 L 363.5 336.5 L 376.5 336.5 L 376.5 323.5 L 363.5 323.5 M 406.5 326.5 L 406.5 333.5 L 413.5 333.5 L 413.5 326.5 L 406.5 326.5 M 405.5 325.5 L 405.5 334.5 L 414.5 334.5 L 414.5 325.5 L 405.5 325.5 M 404.5 324.5 L 404.5 335.5 L 415.5 335.5 L 415.5 324.5 L 404.5 324.5 M 401.5 321.5 L 401.5 338.5 L 418.5 338.5 L 418.5 321.5 L 401.5 321.5 M 400.5 320.5 L 400.5 339.5 L 419.5 339.5 L 419.5 320.5 L 400.5 320.5 M 44.5 364.5 L 44.5 375.5 L 55.5 375.5 L 55.5 364.5 L 44.5 364.5 M 42.5 362.5 L 42.5 377.5 L 57.5 377.5 L 57.5 362.5 L 42.5 362.5 M 41.5 361.5 L 41.5 378.5 L 58.5 378.5 L 58.5 361.5 L 41.5 361.5 M 40.5 360.5 L 40.5 379.5 L 59.5 379.5 L 59.5 360.5 L 40.5 360.5 M 88.5 368.5 L 88.5 371.5 L 91.5 371.5 L 91.5 368.5 L 88.5 368.5 M 87.5 367.5 L 87.5 372.5 L 92.5 372.5 L 92.5 367.5 L 87.5 367.5 M 86.5 366.5 L 86.5 373.5 L 93.5 373.5 L 93.5 366.5 L 86.5 366.5 M 85.5 365.5 L 85.5 374.5 L 94.5 374.5 L 94.5 365.5 L 85.5 365.5 M 84.5 364.5 L 84.5 375.5 L 95.5 375.5 L 95.5 364.5 L 84.5 364.5 M 83.5 363.5 L 83.5 376.5 L 96.5 376.5 L 96.5 363.5 L 83.5 363.5 M 81.5 361.5 L 81.5 378.5 L 98.5 378.5 L 98.5 361.5 L 81.5 361.5 M 80.5 360.5 L 80.5 379.5 L 99.5 379.5 L 99.5 360.5 L 80.5 360.5 M 129.5 369.5 L 129.5 370.5 L 130.5 370.5 L 130.5 369.5 L 129.5 369.5 M 128.5 368.5 L 128.5 371.5 L 131.5 371.5 L 131.5 368.5 L 128.5 368.5 M 127.5 367.5 L 127.5 372.5 L 132.5 372.5 L 132.5 367.5 L 127.5 367.5 M 126.5 366.5 L 126.5 373.5 L 133.5 373.5 L 133.5 366.5 L 126.5 366.5 M 125.5 365.5 L 125.5 374.5 L 134.5 374.5 L 134.5 365.5 L 125.5 365.5 M 124.5 364.5 L 124.5 375.5 L 135.5 375.5 L 135.5 364.5 L 124.5 364.5 M 121.5 361.5 L 121.5 378.5 L 138.5 378.5 L 138.5 361.5 L 121.5 361.5 M 120.5 360.5 L 120.5 379.5 L 139.5 379.5 L 139.5 360.5 L 120.5 360.5 M 169.5 369.5 L 169.5 370.5 L 170.5 370.5 L 170.5 369.5 L 169.5 369.5 M 168.5 368.5 L 168.5 371.5 L 171.5 371.5 L 171.5 368.5 L 168.5 368.5 M 167.5 367.5 L 167.5 372.5 L 172.5 372.5 L 172.5 367.5 L 167.5 367.5 M 166.5 366.5 L 166.5 373.5 L 173.5 373.5 L 173.5 366.5 L 166.5 366.5 M 165.5 365.5 L 165.5 374.5 L 174.5 374.5 L 174.5 365.5 L 165.5 365.5 M 164.5 364.5 L 164.5 375.5 L 175.5 375.5 L 175.5 364.5 L 164.5 364.5 M 162.5 362.5 L 162.5 377.5 L 177.5 377.5 L 177.5 362.5 L 162.5 362.5 M 209.5 369.5 L 209.5 370.5 L 210.5 370.5 L 210.5 369.5 L 209.5 369.5 M 207.5 367.5 L 207.5 372.5 L 212.5 372.5 L 212.5 367.5 L 207.5 367.5 M 206.5 366.5 L 206.5 373.5 L 213.5 373.5 L 213.5 366.5 L 206.5 366.5 M 205.5 365.5 L 205.5 374.5 L 214.5 374.5 L 214.5 365.5 L 205.5 365.5 M 202.5 362.5 L 202.5 377.5 L 217.5 377.5 L 217.5 362.5 L 202.5 362.5 M 201.5 361.5 L 201.5 378.5 L 218.5 378.5 L 218.5 361.5 L 201.5 361.5 M 200.5 360.5 L 200.5 379.5 L 219.5 379.5 L 219.5 360.5 L 200.5 360.5 M 249.5 369.5 L 249.5 370.5 L 250.5 370.5 L 250.5 369.5 L 249.5 369.5 M 247.5 367.5 L 247.5 372.5 L 252.5 372.5 L 252.5 367.5 L 247.5 367.5 M 244.5 364.5 L 244.5 375.5 L 255.5 375.5 L 255.5 364.5 L 244.5 364.5 M 241.5 361.5 L 241.5 378.5 L 258.5 378.5 L 258.5 361.5 L 241.5 361.5 M 240.5 360.5 L 240.5 379.5 L 259.5 379.5 L 259.5 360.5 L 240.5 360.5 M 288.5 368.5 L 288.5 371.5 L 291.5 371.5 L 291.5 368.5 L 288.5 368.5 M 287.5 367.5 L 287.5 372.5 L 292.5 372.5 L 292.5 367.5 L 287.5 367.5 M 285.5 365.5 L 285.5 374.5 L 294.5 374.5 L 294.5 365.5 L 285.5 365.5 M 283.5 363.5 L 283.5 376.5 L 296.5 376.5 L 296.5 363.5 L 283.5 363.5 M 282.5 362.5 L 282.5 377.5 L 297.5 377.5 L 297.5 362.5 L 282.5 362.5 M 280.5 360.5 L 280.5 379.5 L 299.5 379.5 L 299.5 360.5 L 280.5 360.5 M 329.5 369.5 L 329.5 370.5 L 330.5 370.5 L 330.5 369.5 L 329.5 369.5 M 328.5 368.5 L 328.5 371.5 L 331.5 371.5 L 331.5 368.5 L 328.5 368.5 M 327.5 367.5 L 327.5 372.5 L 332.5 372.5 L 332.5 367.5 L 327.5 367.5 M 325.5 365.5 L 325.5 374.5 L 334.5 374.5 L 334.5 365.5 L 325.5 365.5 M 324.5 364.5 L 324.5 375.5 L 335.5 375.5 L 335.5 364.5 L 324.5 364.5 M 323.5 363.5 L 323.5 376.5 L 336.5 376.5 L 336.5 363.5 L 323.5 363.5 M 321.5 361.5 L 321.5 378.5 L 338.5 378.5 L 338.5 361.5 L 321.5 361.5 M 367.5 367.5 L 367.5 372.5 L 372.5 372.5 L 372.5 367.5 L 367.5 367.5 M 365.5 365.5 L 365.5 374.5 L 374.5 374.5 L 374.5 365.5 L 365.5 365.5 M 363.5 363.5 L 363.5 376.5 L 376.5 376.5 L 376.5 363.5 L 363.5 363.5 M 361.5 361.5 L 361.5 378.5 L 378.5 378.5 L 378.5 361.5 L 361.5 361.5 M 409.5 369.5 L 409.5 370.5 L 410.5 370.5 L 410.5 369.5 L 409.5 369.5 M 407.5 367.5 L 407.5 372.5 L 412.5 372.5 L 412.5 367.5 L 407.5 367.5 M 406.5 366.5 L 406.5 373.5 L 413.5 373.5 L 413.5 366.5 L 406.5 366.5 M 405.5 365.5 L 405.5 374.5 L 414.5 374.5 L 414.5 365.5 L 405.5 365.5 M 404.5 364.5 L 404.5 375.5 L 415.5 375.5 L 415.5 364.5 L 404.5 364.5 M 403.5 363.5 L 403.5 376.5 L 416.5 376.5 L 416.5 363.5 L 403.5 363.5 M 401.5 361.5 L 401.5 378.5 L 418.5 378.5 L 418.5 361.5 L 401.5 361.5 M 400.5 360.5 L 400.5 379.5 L 419.5 379.5 L 419.5 360.5 L 400.5 360.5 M 49.5 409.5 L 49.5 410.5 L 50.5 410.5 L 50.5 409.5 L 49.5 409.5 M 47.5 407.5 L 47.5 412.5 L 52.5 412.5 L 52.5 407.5 L 47.5 407.5 M 44.5 404.5 L 44.5 415.5 L 55.5 415.5 L 55.5 404.5 L 44.5 404.5 M 41.5 401.5 L 41.5 418.5 L 58.5 418.5 L 58.5 401.5 L 41.5 401.5 M 40.5 400.5 L 40.5 419.5 L 59.5 419.5 L 59.5 400.5 L 40.5 400.5 M 88.5 408.5 L 88.5 411.5 L 91.5 411.5 L 91.5 408.5 L 88.5 408.5 M 87.5 407.5 L 87.5 412.5 L 92.5 412.5 L 92.5 407.5 L 87.5 407.5 M 85.5 405.5 L 85.5 414.5 L 94.5 414.5 L 94.5 405.5 L 85.5 405.5 M 84.5 404.5 L 84.5 415.5 L 95.5 415.5 L 95.5 404.5 L 84.5 404.5 M 83.5 403.5 L 83.5 416.5 L 96.5 416.5 L 96.5 403.5 L 83.5 403.5 M 82.5 402.5 L 82.5 417.5 L 97.5 417.5 L 97.5 402.5 L 82.5 402.5 M 80.5 400.5 L 80.5 419.5 L 99.5 419.5 L 99.5 400.5 L 80.5 400.5 M 129.5 409.5 L 129.5 410.5 L 130.5 410.5 L 130.5 409.5 L 129.5 409.5 M 127.5 407.5 L 127.5 412.5 L 132.5 412.5 L 132.5 407.5 L 127.5 407.5 M 125.5 405.5 L 125.5 414.5 L 134.5 414.5 L 134.5 405.5 L 125.5 405.5 M 124.5 404.5 L 124.5 415.5 L 135.5 415.5 L 135.5 404.5 L 124.5 404.5 M 122.5 402.5 L 122.5 417.5 L 137.5 417.5 L 137.5 402.5 L 122.5 402.5 M 120.5 400.5 L 120.5 419.5 L 139.5 419.5 L 139.5 400.5 L 120.5 400.5 M 169.5 409.5 L 169.5 410.5 L 170.5 410.5 L 170.5 409.5 L 169.5 409.5 M 168.5 408.5 L 168.5 411.5 L 171.5 411.5 L 171.5 408.5 L 168.5 408.5 M 166.5 406.5 L 166.5 413.5 L 173.5 413.5 L 173.5 406.5 L 166.5 406.5 M 165.5 405.5 L 165.5 414.5 L 174.5 414.5 L 174.5 405.5 L 165.5 405.5 M 164.5 404.5 L 164.5 415.5 L 175.5 415.5 L 175.5 404.5 L 164.5 404.5 M 163.5 403.5 L 163.5 416.5 L 176.5 416.5 L 176.5 403.5 L 163.5 403.5 M 162.5 402.5 L 162.5 417.5 L 177.5 417.5 L 177.5 402.5 L 162.5 402.5 M 160.5 400.5 L 160.5 419.5 L 179.5 419.5 L 179.5 400.5 L 160.5 400.5 M 208.5 408.5 L 208.5 411.5 L 211.5 411.5 L 211.5 408.5 L 208.5 408.5 M 206.5 406.5 L 206.5 413.5 L 213.5 413.5 L 213.5 406.5 L 206.5 406.5 M 205.5 405.5 L 205.5 414.5 L 214.5 414.5 L 214.5 405.5 L 205.5 405.5 M 204.5 404.5 L 204.5 415.5 L 215.5 415.5 L 215.5 404.5 L 204.5 404.5 M 201.5 401.5 L 201.5 418.5 L 218.5 418.5 L 218.5 401.5 L 201.5 401.5 M 200.5 400.5 L 200.5 419.5 L 219.5 419.5 L 219.5 400.5 L 200.5 400.5 M 249.5 409.5 L 249.5 410.5 L 250.5 410.5 L 250.5 409.5 L 249.5 409.5 M 248.5 408.5 L 248.5 411.5 L 251.5 411.5 L 251.5 408.5 L 248.5 408.5 M 246.5 406.5 L 246.5 413.5 L 253.5 413.5 L 253.5 406.5 L 246.5 406.5 M 245.5 405.5 L 245.5 414.5 L 254.5 414.5 L 254.5 405.5 L 245.5 405.5 M 244.5 404.5 L 244.5 415.5 L 255.5 415.5 L 255.5 404.5 L 244.5 404.5 M 243.5 403.5 L 243.5 416.5 L 256.5 416.5 L 256.5 403.5 L 243.5 403.5 M 241.5 401.5 L 241.5 418.5 L 258.5 418.5 L 258.5 401.5 L 241.5 401.5 M 240.5 400.5 L 240.5 419.5 L 259.5 419.5 L 259.5 400.5 L 240.5 400.5 M 288.5 408.5 L 288.5 411.5 L 291.5 411.5 L 291.5 408.5 L 288.5 408.5 M 286.5 406.5 L 286.5 413.5 L 293.5 413.5 L 293.5 406.5 L 286.5 406.5 M 282.5 402.5 L 282.5 417.5 L 297.5 417.5 L 297.5 402.5 L 282.5 402.5 M 281.5 401.5 L 281.5 418.5 L 298.5 418.5 L 298.5 401.5 L 281.5 401.5 M 280.5 400.5 L 280.5 419.5 L 299.5 419.5 L 299.5 400.5 L 280.5 400.5 M 329.5 409.5 L 329.5 410.5 L 330.5 410.5 L 330.5 409.5 L 329.5 409.5 M 328.5 408.5 L 328.5 411.5 L 331.5 411.5 L 331.5 408.5 L 328.5 408.5 M 327.5 407.5 L 327.5 412.5 L 332.5 412.5 L 332.5 407.5 L 327.5 407.5 M 326.5 406.5 L 326.5 413.5 L 333.5 413.5 L 333.5 406.5 L 326.5 406.5 M 325.5 405.5 L 325.5 414.5 L 334.5 414.5 L 334.5 405.5 L 325.5 405.5 M 320.5 400.5 L 320.5 419.5 L 339.5 419.5 L 339.5 400.5 L 320.5 400.5 M 369.5 409.5 L 369.5 410.5 L 370.5 410.5 L 370.5 409.5 L 369.5 409.5 M 365.5 405.5 L 365.5 414.5 L 374.5 414.5 L 374.5 405.5 L 365.5 405.5 M 364.5 404.5 L 364.5 415.5 L 375.5 415.5 L 375.5 404.5 L 364.5 404.5 M 363.5 403.5 L 363.5 416.5 L 376.5 416.5 L 376.5 403.5 L 363.5 403.5 M 362.5 402.5 L 362.5 417.5 L 377.5 417.5 L 377.5 402.5 L 362.5 402.5 M 360.5 400.5 L 360.5 419.5 L 379.5 419.5 L 379.5 400.5 L 360.5 400.5 M 409.5 409.5 L 409.5 410.5 L 410.5 410.5 L 410.5 409.5 L 409.5 409.5 M 407.5 407.5 L 407.5 412.5 L 412.5 412.5 L 412.5 407.5 L 407.5 407.5 M 406.5 406.5 L 406.5 413.5 L 413.5 413.5 L 413.5 406.5 L 406.5 406.5 M 405.5 405.5 L 405.5 414.5 L 414.5 414.5 L 414.5 405.5 L 405.5 405.5 M 402.5 402.5 L 402.5 417.5 L 417.5 417.5 L 417.5 402.5 L 402.5 402.5 M 401.5 401.5 L 401.5 418.5 L 418.5 418.5 L 418.5 401.5 L 401.5 401.5 M 400.5 400.5 L 400.5 419.5 L 419.5 419.5 L 419.5 400.5 L 400.5 400.5" stroke="black" stroke-width="1" fill="none"></path></svg>
