<svg version="1.1" xmlns:xlink="http://www.w3.org/1999/xlink" xmlns="http://www.w3.org/2000/svg"><polygon points="268.897,193.449 265.748,187.671 260.894,183.227 254.861,180.6 248.302,180.072 241.926,181.702 236.425,185.313 232.393,190.514 230.267,196.741 230.278,203.322 232.423,209.543 236.472,214.73 241.985,218.324 248.365,219.933 254.923,219.385 260.947,216.738 265.787,212.279 268.917,206.491 270,200" stroke="black" stroke-width="1" fill="none"></polygon><polygon points="218.773,193.103 215.284,187.101 209.954,182.653 203.424,180.295 196.482,180.312 189.963,182.701 184.654,187.174 181.194,193.193 180,200.032 181.216,206.867 184.695,212.875 190.018,217.331 196.544,219.699 203.487,219.694 210.009,217.315 215.325,212.85 218.795,206.837 220,200" stroke="black" stroke-width="1" fill="none"></polygon><polygon points="168.628,192.719 164.742,186.485 158.868,182.073 151.797,180.081 144.484,180.776 137.914,184.065 132.976,189.503 130.334,196.358 130.346,203.704 133.009,210.551 137.965,215.974 144.545,219.242 151.86,219.913 158.925,217.898 164.785,213.468 168.651,207.221 170,200" stroke="black" stroke-width="1" fill="none"></polygon><polygon points="118.455,192.291 114.103,185.819 107.606,181.503 99.9522,180 92.3059,181.539 85.8297,185.886 81.5087,192.379 80,200.032 81.5331,207.679 85.8748,214.159 92.3647,218.485 100.016,220 107.665,218.473 114.148,214.137 118.479,207.65 120,200" stroke="black" stroke-width="1" fill="none"></polygon><polygon points="68.2466,191.811 63.3415,185.1 56.1318,180.963 47.863,180.114 39.9632,182.701 33.7972,188.275 30.43,195.875 30.4433,204.187 33.8347,211.776 40.0184,217.331 47.9263,219.892 56.1925,219.017 63.3889,214.857 68.2726,208.131 70,200" stroke="black" stroke-width="1" fill="none"></polygon><polygon points="267.994,141.269 262.427,134.329 254.402,130.49 245.505,130.512 237.498,134.389 231.965,141.355 230,150.032 231.992,158.702 237.548,165.651 245.567,169.503 254.464,169.496 262.477,165.631 268.021,158.674 270,150" stroke="black" stroke-width="1" fill="none"></polygon><polygon points="217.682,140.654 211.317,133.51 202.362,130.14 192.867,131.315 185.004,136.767 180.573,145.247 180.588,154.815 185.046,163.281 192.926,168.707 202.425,169.852 211.369,166.454 217.711,159.29 220,150" stroke="black" stroke-width="1" fill="none"></polygon><polygon points="167.291,139.949 159.954,132.653 149.952,130 139.963,132.701 132.661,140.032 130,150.032 132.693,160.023 140.018,167.331 150.016,170 160.009,167.315 167.323,159.995 170,150" stroke="black" stroke-width="1" fill="none"></polygon><polygon points="116.794,139.139 108.261,131.786 97.1079,130.21 86.8722,134.912 80.8004,144.399 80.8183,155.662 86.9203,165.13 97.1709,169.799 108.319,168.188 116.828,160.808 120,150" stroke="black" stroke-width="1" fill="none"></polygon><polygon points="66.1466,138.198 56.1318,130.963 43.7773,130.993 33.7972,138.275 30,150.032 33.8347,161.776 43.8378,169.027 56.1925,169.017 66.1841,161.751 70,150" stroke="black" stroke-width="1" fill="none"></polygon><polygon points="265.284,87.1009 253.424,80.2953 239.963,82.7008 231.194,93.1929 231.216,106.867 240.018,117.331 253.487,119.694 265.325,112.85 270,100" stroke="black" stroke-width="1" fill="none"></polygon><polygon points="214.103,85.8185 199.952,80.0001 185.83,85.886 180,100.032 185.875,114.159 200.016,120 214.148,114.137 220,100" stroke="black" stroke-width="1" fill="none"></polygon><polygon points="162.427,84.3294 145.505,80.5116 131.965,91.3551 131.992,108.702 145.567,119.503 162.477,115.631 170,100" stroke="black" stroke-width="1" fill="none"></polygon><polygon points="109.954,82.653 89.9632,82.7008 80,100.032 90.0184,117.331 110.009,117.315 120,100" stroke="black" stroke-width="1" fill="none"></polygon><polygon points="56.1318,80.9632 33.7972,88.2752 33.8347,111.776 56.1925,119.017 70,100" stroke="black" stroke-width="1" fill="none"></polygon><polygon points="249.952,30.0001 230,50.0319 250.016,70 270,50" stroke="black" stroke-width="1" fill="none"></polygon><polygon points="189.963,32.7008 190.018,67.3311 220,50" stroke="black" stroke-width="1" fill="none"></polygon><polygon points="130,50.0319 170,50" stroke="black" stroke-width="1" fill="none"></polygon><polygon points="120,50" stroke="black" stroke-width="1" fill="none"></polygon><polygon points="" stroke="black" stroke-width="1" fill="none"></polygon></svg>
