<svg version="1.1" xmlns:xlink="http://www.w3.org/1999/xlink" xmlns="http://www.w3.org/2000/svg"><path d="M 308 320 A 8 8 0 0 1 308 320 L 308 340 A 12 12 0 0 0 320 352 A 8 8 0 0 1 328 360 A 8 8 0 0 1 320 368 A 8 8 0 0 1 312 360 L 312 340 L 312 320 A 8 8 0 0 1 320 312 A 8 8 0 0 1 328 320 L 328 340 A 8 8 0 0 1 320 348 A 8 8 0 0 1 312 340 L 312 320 A 8 8 0 0 1 320 312 L 340 312 A 8 8 0 0 1 348 320 A 12 12 0 0 0 360 332 L 380 332 A 12 12 0 0 0 392 320 A 8 8 0 0 1 400 312 A 12 12 0 0 0 412 300 L 412 280 A 8 8 0 0 1 420 272 A 8 8 0 0 1 428 280 A 12 12 0 0 0 440 292 A 12 12 0 0 0 452 280 A 8 8 0 0 1 460 272 A 8 8 0 0 1 468 280 A 8 8 0 0 1 460 288 L 440 288 L 420 288 L 400 288 L 380 288 A 12 12 0 0 0 368 300 L 368 320 L 368 340 A 8 8 0 0 1 360 348 L 340 348 A 8 8 0 0 1 332 340 A 8 8 0 0 1 340 332 A 8 8 0 0 1 348 340 A 12 12 0 0 0 360 352 A 8 8 0 0 1 368 360 L 308 300 L 308 280 A 12 12 0 0 1 320 268 A 12 12 0 0 1 332 280 A 8 8 0 0 0 340 288 L 360 288 A 8 8 0 0 0 368 280 L 368 260 A 12 12 0 0 1 380 248 A 12 12 0 0 1 392 260 A 12 12 0 0 1 380 272 A 8 8 0 0 0 372 280 A 12 12 0 0 1 360 292 A 12 12 0 0 1 348 280 L 348 260 A 8 8 0 0 0 340 252 A 12 12 0 0 1 328 240 A 8 8 0 0 0 320 232 A 12 12 0 0 1 308 220 L 308 200 A 8 8 0 0 0 300 192 A 8 8 0 0 0 292 200 A 12 12 0 0 1 280 212 A 8 8 0 0 0 272 220 A 8 8 0 0 0 280 228 A 12 12 0 0 1 292 240 A 12 12 0 0 1 280 252 A 12 12 0 0 1 268 240 A 12 12 0 0 1 280 228 L 300 228 L 320 228 L 340 228 A 12 12 0 0 1 352 240 A 12 12 0 0 1 340 252 A 8 8 0 0 0 332 260 L 332 280 L 332 300 A 12 12 0 0 1 320 312 L 300 312 A 8 8 0 0 0 292 320 A 12 12 0 0 1 280 332 A 12 12 0 0 1 268 320 A 8 8 0 0 0 260 312 L 240 312 A 12 12 0 0 1 228 300 A 12 12 0 0 1 240 288 L 260 288 A 12 12 0 0 1 272 300 A 12 12 0 0 1 260 312 A 12 12 0 0 1 248 300 L 248 280 A 12 12 0 0 1 260 268 L 280 268 A 12 12 0 0 1 292 280 L 292 300 A 8 8 0 0 0 300 308 A 12 12 0 0 1 312 320 L 312 340 A 8 8 0 0 0 320 348 A 12 12 0 0 1 332 360 A 12 12 0 0 1 320 372 A 12 12 0 0 1 308 360 L 308 340 L 308 320 A 12 12 0 0 1 320 308 A 12 12 0 0 1 332 320 L 332 340 A 12 12 0 0 1 320 352 A 12 12 0 0 1 308 340 L 308 320 A 12 12 0 0 1 320 308 L 340 308 A 12 12 0 0 1 352 320 A 8 8 0 0 0 360 328 L 380 328 A 8 8 0 0 0 388 320 A 12 12 0 0 1 400 308 A 8 8 0 0 0 408 300 L 408 280 A 12 12 0 0 1 420 268 A 12 12 0 0 1 432 280 A 8 8 0 0 0 440 288 A 8 8 0 0 0 448 280 A 12 12 0 0 1 460 268 A 12 12 0 0 1 472 280 A 12 12 0 0 1 460 292 L 440 292 L 420 292 L 400 292 L 380 292 A 8 8 0 0 0 372 300 L 372 320 L 372 340 A 12 12 0 0 1 360 352 L 340 352 A 12 12 0 0 1 328 340 A 12 12 0 0 1 340 328 A 12 12 0 0 1 352 340 A 8 8 0 0 0 360 348 A 12 12 0 0 1 372 360 M 310 320 A 10 10 0 0 1 310 320 L 310 340 A 10 10 0 0 0 320 350 A 10 10 0 0 1 330 360 A 10 10 0 0 1 320 370 A 10 10 0 0 1 310 360 L 310 340 L 310 320 A 10 10 0 0 1 320 310 A 10 10 0 0 1 330 320 L 330 340 A 10 10 0 0 1 320 350 A 10 10 0 0 1 310 340 L 310 320 A 10 10 0 0 1 320 310 L 340 310 A 10 10 0 0 1 350 320 A 10 10 0 0 0 360 330 L 380 330 A 10 10 0 0 0 390 320 A 10 10 0 0 1 400 310 A 10 10 0 0 0 410 300 L 410 280 A 10 10 0 0 1 420 270 A 10 10 0 0 1 430 280 A 10 10 0 0 0 440 290 A 10 10 0 0 0 450 280 A 10 10 0 0 1 460 270 A 10 10 0 0 1 470 280 A 10 10 0 0 1 460 290 L 440 290 L 420 290 L 400 290 L 380 290 A 10 10 0 0 0 370 300 L 370 320 L 370 340 A 10 10 0 0 1 360 350 L 340 350 A 10 10 0 0 1 330 340 A 10 10 0 0 1 340 330 A 10 10 0 0 1 350 340 A 10 10 0 0 0 360 350 A 10 10 0 0 1 370 360 L 310 300 L 310 280 A 10 10 0 0 1 320 270 A 10 10 0 0 1 330 280 A 10 10 0 0 0 340 290 L 360 290 A 10 10 0 0 0 370 280 L 370 260 A 10 10 0 0 1 380 250 A 10 10 0 0 1 390 260 A 10 10 0 0 1 380 270 A 10 10 0 0 0 370 280 A 10 10 0 0 1 360 290 A 10 10 0 0 1 350 280 L 350 260 A 10 10 0 0 0 340 250 A 10 10 0 0 1 330 240 A 10 10 0 0 0 320 230 A 10 10 0 0 1 310 220 L 310 200 A 10 10 0 0 0 300 190 A 10 10 0 0 0 290 200 A 10 10 0 0 1 280 210 A 10 10 0 0 0 270 220 A 10 10 0 0 0 280 230 A 10 10 0 0 1 290 240 A 10 10 0 0 1 280 250 A 10 10 0 0 1 270 240 A 10 10 0 0 1 280 230 L 300 230 L 320 230 L 340 230 A 10 10 0 0 1 350 240 A 10 10 0 0 1 340 250 A 10 10 0 0 0 330 260 L 330 280 L 330 300 A 10 10 0 0 1 320 310 L 300 310 A 10 10 0 0 0 290 320 A 10 10 0 0 1 280 330 A 10 10 0 0 1 270 320 A 10 10 0 0 0 260 310 L 240 310 A 10 10 0 0 1 230 300 A 10 10 0 0 1 240 290 L 260 290 A 10 10 0 0 1 270 300 A 10 10 0 0 1 260 310 A 10 10 0 0 1 250 300 L 250 280 A 10 10 0 0 1 260 270 L 280 270 A 10 10 0 0 1 290 280 L 290 300 A 10 10 0 0 0 300 310 A 10 10 0 0 1 310 320 M 312 320 L 312 300 L 312 280 A 8 8 0 0 1 320 272 A 8 8 0 0 1 328 280 A 12 12 0 0 0 340 292 L 360 292 A 12 12 0 0 0 372 280 L 372 260 A 8 8 0 0 1 380 252 A 8 8 0 0 1 388 260 A 8 8 0 0 1 380 268 A 12 12 0 0 0 368 280 A 8 8 0 0 1 360 288 A 8 8 0 0 1 352 280 L 352 260 A 12 12 0 0 0 340 248 A 8 8 0 0 1 332 240 A 12 12 0 0 0 320 228 A 8 8 0 0 1 312 220 L 312 200 A 12 12 0 0 0 300 188 A 12 12 0 0 0 288 200 A 8 8 0 0 1 280 208 A 12 12 0 0 0 268 220 A 12 12 0 0 0 280 232 A 8 8 0 0 1 288 240 A 8 8 0 0 1 280 248 A 8 8 0 0 1 272 240 A 8 8 0 0 1 280 232 L 300 232 L 320 232 L 340 232 A 8 8 0 0 1 348 240 A 8 8 0 0 1 340 248 A 12 12 0 0 0 328 260 L 328 280 L 328 300 A 8 8 0 0 1 320 308 L 300 308 A 12 12 0 0 0 288 320 A 8 8 0 0 1 280 328 A 8 8 0 0 1 272 320 A 12 12 0 0 0 260 308 L 240 308 A 8 8 0 0 1 232 300 A 8 8 0 0 1 240 292 L 260 292 A 8 8 0 0 1 268 300 A 8 8 0 0 1 260 308 A 8 8 0 0 1 252 300 L 252 280 A 8 8 0 0 1 260 272 L 280 272 A 8 8 0 0 1 288 280 L 288 300 A 12 12 0 0 0 300 312 A 8 8 0 0 1 308 320" stroke="black" stroke-width="1" fill="none"></path><path d="M 328 340 A 12 12 0 0 1 340 328 A 12 12 0 0 1 352 340 A 8 8 0 0 0 360 348 L 380 348 L 400 348 A 12 12 0 0 1 412 360 A 12 12 0 0 1 400 372 L 380 372 A 12 12 0 0 1 368 360 L 368 340 A 12 12 0 0 1 380 328 L 400 328 A 12 12 0 0 1 412 340 A 12 12 0 0 1 400 352 A 12 12 0 0 1 388 340 L 388 320 A 8 8 0 0 0 380 312 A 12 12 0 0 1 368 300 A 12 12 0 0 1 380 288 A 12 12 0 0 1 392 300 A 12 12 0 0 1 380 312 A 8 8 0 0 0 372 320 A 12 12 0 0 1 360 332 A 12 12 0 0 1 348 320 A 12 12 0 0 1 360 308 A 8 8 0 0 0 368 300 A 8 8 0 0 0 360 292 A 12 12 0 0 1 348 280 A 8 8 0 0 0 340 272 A 8 8 0 0 0 332 280 L 332 300 A 12 12 0 0 1 320 312 A 12 12 0 0 1 308 300 A 12 12 0 0 1 320 288 A 8 8 0 0 0 328 280 L 328 260 L 328 240 A 12 12 0 0 1 340 228 A 12 12 0 0 1 352 240 A 8 8 0 0 0 360 248 A 12 12 0 0 1 372 260 L 372 280 A 8 8 0 0 0 380 288 A 12 12 0 0 1 392 300 A 12 12 0 0 1 380 312 A 8 8 0 0 0 372 320 A 8 8 0 0 0 380 328 L 400 328 L 420 328 L 440 328 L 460 328 A 12 12 0 0 1 472 340 A 12 12 0 0 1 460 352 L 440 352 A 12 12 0 0 1 428 340 A 8 8 0 0 0 420 332 A 8 8 0 0 0 412 340 A 12 12 0 0 1 400 352 A 12 12 0 0 1 388 340 A 12 12 0 0 1 400 328 A 12 12 0 0 1 412 340 A 12 12 0 0 1 400 352 L 380 352 L 360 352 A 12 12 0 0 1 348 340 A 8 8 0 0 0 340 332 A 12 12 0 0 1 328 320 A 8 8 0 0 0 320 312 A 12 12 0 0 1 308 300 A 12 12 0 0 1 320 288 L 340 288 A 12 12 0 0 1 352 300 A 12 12 0 0 1 340 312 L 320 312 A 8 8 0 0 0 312 320 A 8 8 0 0 0 320 328 A 8 8 0 0 0 328 320 L 328 300 A 8 8 0 0 0 320 292 A 12 12 0 0 1 308 280 A 12 12 0 0 1 320 268 A 8 8 0 0 0 328 260 A 12 12 0 0 1 340 248 L 360 248 L 380 248 A 8 8 0 0 0 388 240 A 12 12 0 0 1 400 228 A 12 12 0 0 1 412 240 A 8 8 0 0 0 420 248 A 12 12 0 0 1 432 260 A 12 12 0 0 1 420 272 A 8 8 0 0 0 412 280 A 12 12 0 0 1 400 292 A 8 8 0 0 0 392 300 L 392 320 A 12 12 0 0 1 380 332 A 12 12 0 0 1 368 320 A 12 12 0 0 1 380 308 A 8 8 0 0 0 388 300 A 12 12 0 0 1 400 288 M 330 340 A 10 10 0 0 1 340 330 A 10 10 0 0 1 350 340 A 10 10 0 0 0 360 350 L 380 350 L 400 350 A 10 10 0 0 1 410 360 A 10 10 0 0 1 400 370 L 380 370 A 10 10 0 0 1 370 360 L 370 340 A 10 10 0 0 1 380 330 L 400 330 A 10 10 0 0 1 410 340 A 10 10 0 0 1 400 350 A 10 10 0 0 1 390 340 L 390 320 A 10 10 0 0 0 380 310 A 10 10 0 0 1 370 300 A 10 10 0 0 1 380 290 A 10 10 0 0 1 390 300 A 10 10 0 0 1 380 310 A 10 10 0 0 0 370 320 A 10 10 0 0 1 360 330 A 10 10 0 0 1 350 320 A 10 10 0 0 1 360 310 A 10 10 0 0 0 370 300 A 10 10 0 0 0 360 290 A 10 10 0 0 1 350 280 A 10 10 0 0 0 340 270 A 10 10 0 0 0 330 280 L 330 300 A 10 10 0 0 1 320 310 A 10 10 0 0 1 310 300 A 10 10 0 0 1 320 290 A 10 10 0 0 0 330 280 L 330 260 L 330 240 A 10 10 0 0 1 340 230 A 10 10 0 0 1 350 240 A 10 10 0 0 0 360 250 A 10 10 0 0 1 370 260 L 370 280 A 10 10 0 0 0 380 290 A 10 10 0 0 1 390 300 A 10 10 0 0 1 380 310 A 10 10 0 0 0 370 320 A 10 10 0 0 0 380 330 L 400 330 L 420 330 L 440 330 L 460 330 A 10 10 0 0 1 470 340 A 10 10 0 0 1 460 350 L 440 350 A 10 10 0 0 1 430 340 A 10 10 0 0 0 420 330 A 10 10 0 0 0 410 340 A 10 10 0 0 1 400 350 A 10 10 0 0 1 390 340 A 10 10 0 0 1 400 330 A 10 10 0 0 1 410 340 A 10 10 0 0 1 400 350 L 380 350 L 360 350 A 10 10 0 0 1 350 340 A 10 10 0 0 0 340 330 A 10 10 0 0 1 330 320 A 10 10 0 0 0 320 310 A 10 10 0 0 1 310 300 A 10 10 0 0 1 320 290 L 340 290 A 10 10 0 0 1 350 300 A 10 10 0 0 1 340 310 L 320 310 A 10 10 0 0 0 310 320 A 10 10 0 0 0 320 330 A 10 10 0 0 0 330 320 L 330 300 A 10 10 0 0 0 320 290 A 10 10 0 0 1 310 280 A 10 10 0 0 1 320 270 A 10 10 0 0 0 330 260 A 10 10 0 0 1 340 250 L 360 250 L 380 250 A 10 10 0 0 0 390 240 A 10 10 0 0 1 400 230 A 10 10 0 0 1 410 240 A 10 10 0 0 0 420 250 A 10 10 0 0 1 430 260 A 10 10 0 0 1 420 270 A 10 10 0 0 0 410 280 A 10 10 0 0 1 400 290 A 10 10 0 0 0 390 300 L 390 320 A 10 10 0 0 1 380 330 A 10 10 0 0 1 370 320 A 10 10 0 0 1 380 310 A 10 10 0 0 0 390 300 A 10 10 0 0 1 400 290 M 332 340 A 8 8 0 0 1 340 332 A 8 8 0 0 1 348 340 A 12 12 0 0 0 360 352 L 380 352 L 400 352 A 8 8 0 0 1 408 360 A 8 8 0 0 1 400 368 L 380 368 A 8 8 0 0 1 372 360 L 372 340 A 8 8 0 0 1 380 332 L 400 332 A 8 8 0 0 1 408 340 A 8 8 0 0 1 400 348 A 8 8 0 0 1 392 340 L 392 320 A 12 12 0 0 0 380 308 A 8 8 0 0 1 372 300 A 8 8 0 0 1 380 292 A 8 8 0 0 1 388 300 A 8 8 0 0 1 380 308 A 12 12 0 0 0 368 320 A 8 8 0 0 1 360 328 A 8 8 0 0 1 352 320 A 8 8 0 0 1 360 312 A 12 12 0 0 0 372 300 A 12 12 0 0 0 360 288 A 8 8 0 0 1 352 280 A 12 12 0 0 0 340 268 A 12 12 0 0 0 328 280 L 328 300 A 8 8 0 0 1 320 308 A 8 8 0 0 1 312 300 A 8 8 0 0 1 320 292 A 12 12 0 0 0 332 280 L 332 260 L 332 240 A 8 8 0 0 1 340 232 A 8 8 0 0 1 348 240 A 12 12 0 0 0 360 252 A 8 8 0 0 1 368 260 L 368 280 A 12 12 0 0 0 380 292 A 8 8 0 0 1 388 300 A 8 8 0 0 1 380 308 A 12 12 0 0 0 368 320 A 12 12 0 0 0 380 332 L 400 332 L 420 332 L 440 332 L 460 332 A 8 8 0 0 1 468 340 A 8 8 0 0 1 460 348 L 440 348 A 8 8 0 0 1 432 340 A 12 12 0 0 0 420 328 A 12 12 0 0 0 408 340 A 8 8 0 0 1 400 348 A 8 8 0 0 1 392 340 A 8 8 0 0 1 400 332 A 8 8 0 0 1 408 340 A 8 8 0 0 1 400 348 L 380 348 L 360 348 A 8 8 0 0 1 352 340 A 12 12 0 0 0 340 328 A 8 8 0 0 1 332 320 A 12 12 0 0 0 320 308 A 8 8 0 0 1 312 300 A 8 8 0 0 1 320 292 L 340 292 A 8 8 0 0 1 348 300 A 8 8 0 0 1 340 308 L 320 308 A 12 12 0 0 0 308 320 A 12 12 0 0 0 320 332 A 12 12 0 0 0 332 320 L 332 300 A 12 12 0 0 0 320 288 A 8 8 0 0 1 312 280 A 8 8 0 0 1 320 272 A 12 12 0 0 0 332 260 A 8 8 0 0 1 340 252 L 360 252 L 380 252 A 12 12 0 0 0 392 240 A 8 8 0 0 1 400 232 A 8 8 0 0 1 408 240 A 12 12 0 0 0 420 252 A 8 8 0 0 1 428 260 A 8 8 0 0 1 420 268 A 12 12 0 0 0 408 280 A 8 8 0 0 1 400 288 A 12 12 0 0 0 388 300 L 388 320 A 8 8 0 0 1 380 328 A 8 8 0 0 1 372 320 A 8 8 0 0 1 380 312 A 12 12 0 0 0 392 300 A 8 8 0 0 1 400 292" stroke="black" stroke-width="1" fill="none"></path><path d="M 348 360 L 348 340 L 348 320 L 348 300 L 348 280 A 8 8 0 0 0 340 272 L 320 272 A 12 12 0 0 1 308 260 A 8 8 0 0 0 300 252 A 12 12 0 0 1 288 240 A 12 12 0 0 1 300 228 A 12 12 0 0 1 312 240 A 8 8 0 0 0 320 248 A 12 12 0 0 1 332 260 A 8 8 0 0 0 340 268 A 12 12 0 0 1 352 280 L 352 300 A 12 12 0 0 1 340 312 A 12 12 0 0 1 328 300 A 12 12 0 0 1 340 288 A 12 12 0 0 1 352 300 L 352 320 L 352 340 A 8 8 0 0 0 360 348 A 8 8 0 0 0 368 340 L 368 320 L 368 300 A 12 12 0 0 1 380 288 L 400 288 L 420 288 L 440 288 L 460 288 A 8 8 0 0 0 468 280 A 8 8 0 0 0 460 272 A 12 12 0 0 1 448 260 A 8 8 0 0 0 440 252 A 12 12 0 0 1 428 240 L 428 220 A 8 8 0 0 0 420 212 L 400 212 A 12 12 0 0 1 388 200 L 388 180 L 388 160 L 388 140 L 388 120 A 8 8 0 0 0 380 112 A 12 12 0 0 1 368 100 L 368 80 A 12 12 0 0 1 380 68 L 400 68 L 420 68 L 440 68 A 12 12 0 0 1 452 80 A 8 8 0 0 0 460 88 A 8 8 0 0 0 468 80 L 468 60 A 12 12 0 0 1 480 48 A 12 12 0 0 1 492 60 L 492 80 L 492 100 A 12 12 0 0 1 480 112 L 460 112 A 12 12 0 0 1 448 100 A 8 8 0 0 0 440 92 L 420 92 A 8 8 0 0 0 412 100 A 12 12 0 0 1 400 112 A 8 8 0 0 0 392 120 L 392 140 L 392 160 A 12 12 0 0 1 380 172 A 8 8 0 0 0 372 180 L 372 200 L 372 220 A 12 12 0 0 1 360 232 A 12 12 0 0 1 348 220 A 12 12 0 0 1 360 208 L 380 208 A 12 12 0 0 1 392 220 L 392 240 L 392 260 A 12 12 0 0 1 380 272 A 8 8 0 0 0 372 280 A 12 12 0 0 1 360 292 L 340 292 L 320 292 A 12 12 0 0 1 308 280 A 12 12 0 0 1 320 268 L 340 268 A 8 8 0 0 0 348 260 A 12 12 0 0 1 360 248 L 380 248 A 8 8 0 0 0 388 240 L 388 220 L 388 200 L 388 180 L 388 160 A 8 8 0 0 0 380 152 A 8 8 0 0 0 372 160 L 372 180 L 372 200 M 350 360 L 350 340 L 350 320 L 350 300 L 350 280 A 10 10 0 0 0 340 270 L 320 270 A 10 10 0 0 1 310 260 A 10 10 0 0 0 300 250 A 10 10 0 0 1 290 240 A 10 10 0 0 1 300 230 A 10 10 0 0 1 310 240 A 10 10 0 0 0 320 250 A 10 10 0 0 1 330 260 A 10 10 0 0 0 340 270 A 10 10 0 0 1 350 280 L 350 300 A 10 10 0 0 1 340 310 A 10 10 0 0 1 330 300 A 10 10 0 0 1 340 290 A 10 10 0 0 1 350 300 L 350 320 L 350 340 A 10 10 0 0 0 360 350 A 10 10 0 0 0 370 340 L 370 320 L 370 300 A 10 10 0 0 1 380 290 L 400 290 L 420 290 L 440 290 L 460 290 A 10 10 0 0 0 470 280 A 10 10 0 0 0 460 270 A 10 10 0 0 1 450 260 A 10 10 0 0 0 440 250 A 10 10 0 0 1 430 240 L 430 220 A 10 10 0 0 0 420 210 L 400 210 A 10 10 0 0 1 390 200 L 390 180 L 390 160 L 390 140 L 390 120 A 10 10 0 0 0 380 110 A 10 10 0 0 1 370 100 L 370 80 A 10 10 0 0 1 380 70 L 400 70 L 420 70 L 440 70 A 10 10 0 0 1 450 80 A 10 10 0 0 0 460 90 A 10 10 0 0 0 470 80 L 470 60 A 10 10 0 0 1 480 50 A 10 10 0 0 1 490 60 L 490 80 L 490 100 A 10 10 0 0 1 480 110 L 460 110 A 10 10 0 0 1 450 100 A 10 10 0 0 0 440 90 L 420 90 A 10 10 0 0 0 410 100 A 10 10 0 0 1 400 110 A 10 10 0 0 0 390 120 L 390 140 L 390 160 A 10 10 0 0 1 380 170 A 10 10 0 0 0 370 180 L 370 200 L 370 220 A 10 10 0 0 1 360 230 A 10 10 0 0 1 350 220 A 10 10 0 0 1 360 210 L 380 210 A 10 10 0 0 1 390 220 L 390 240 L 390 260 A 10 10 0 0 1 380 270 A 10 10 0 0 0 370 280 A 10 10 0 0 1 360 290 L 340 290 L 320 290 A 10 10 0 0 1 310 280 A 10 10 0 0 1 320 270 L 340 270 A 10 10 0 0 0 350 260 A 10 10 0 0 1 360 250 L 380 250 A 10 10 0 0 0 390 240 L 390 220 L 390 200 L 390 180 L 390 160 A 10 10 0 0 0 380 150 A 10 10 0 0 0 370 160 L 370 180 L 370 200 M 352 360 L 352 340 L 352 320 L 352 300 L 352 280 A 12 12 0 0 0 340 268 L 320 268 A 8 8 0 0 1 312 260 A 12 12 0 0 0 300 248 A 8 8 0 0 1 292 240 A 8 8 0 0 1 300 232 A 8 8 0 0 1 308 240 A 12 12 0 0 0 320 252 A 8 8 0 0 1 328 260 A 12 12 0 0 0 340 272 A 8 8 0 0 1 348 280 L 348 300 A 8 8 0 0 1 340 308 A 8 8 0 0 1 332 300 A 8 8 0 0 1 340 292 A 8 8 0 0 1 348 300 L 348 320 L 348 340 A 12 12 0 0 0 360 352 A 12 12 0 0 0 372 340 L 372 320 L 372 300 A 8 8 0 0 1 380 292 L 400 292 L 420 292 L 440 292 L 460 292 A 12 12 0 0 0 472 280 A 12 12 0 0 0 460 268 A 8 8 0 0 1 452 260 A 12 12 0 0 0 440 248 A 8 8 0 0 1 432 240 L 432 220 A 12 12 0 0 0 420 208 L 400 208 A 8 8 0 0 1 392 200 L 392 180 L 392 160 L 392 140 L 392 120 A 12 12 0 0 0 380 108 A 8 8 0 0 1 372 100 L 372 80 A 8 8 0 0 1 380 72 L 400 72 L 420 72 L 440 72 A 8 8 0 0 1 448 80 A 12 12 0 0 0 460 92 A 12 12 0 0 0 472 80 L 472 60 A 8 8 0 0 1 480 52 A 8 8 0 0 1 488 60 L 488 80 L 488 100 A 8 8 0 0 1 480 108 L 460 108 A 8 8 0 0 1 452 100 A 12 12 0 0 0 440 88 L 420 88 A 12 12 0 0 0 408 100 A 8 8 0 0 1 400 108 A 12 12 0 0 0 388 120 L 388 140 L 388 160 A 8 8 0 0 1 380 168 A 12 12 0 0 0 368 180 L 368 200 L 368 220 A 8 8 0 0 1 360 228 A 8 8 0 0 1 352 220 A 8 8 0 0 1 360 212 L 380 212 A 8 8 0 0 1 388 220 L 388 240 L 388 260 A 8 8 0 0 1 380 268 A 12 12 0 0 0 368 280 A 8 8 0 0 1 360 288 L 340 288 L 320 288 A 8 8 0 0 1 312 280 A 8 8 0 0 1 320 272 L 340 272 A 12 12 0 0 0 352 260 A 8 8 0 0 1 360 252 L 380 252 A 12 12 0 0 0 392 240 L 392 220 L 392 200 L 392 180 L 392 160 A 12 12 0 0 0 380 148 A 12 12 0 0 0 368 160 L 368 180 L 368 200" stroke="black" stroke-width="1" fill="none"></path></svg>
