<svg version="1.1" xmlns:xlink="http://www.w3.org/1999/xlink" xmlns="http://www.w3.org/2000/svg"><path d="M 106.485 93.8688 l 49.9997 -0.159265 M 106.485 93.8688 l 45.6166 -20.4725 M 106.485 93.8688 l 33.3538 -37.2495 M 106.485 93.8688 l 15.3296 -47.592 M 106.485 93.8688 l -5.34256 -49.7138 M 106.485 93.8688 l -25.0919 -43.2481 M 106.485 93.8688 l -40.5069 -29.3119 M 106.485 93.8688 l -48.925 -10.3125 M 106.485 93.8688 l -48.8919 10.4683 M 106.485 93.8688 l -40.4134 29.4408 M 106.485 93.8688 l -24.954 43.3278 M 106.485 93.8688 l -5.18418 49.7305 M 106.485 93.8688 l 15.4811 47.543 M 106.485 93.8688 l 33.4723 37.143 M 106.485 93.8688 l 45.6816 20.3271 M 139.163 127.474 l 49.9997 -0.159265 M 139.163 127.474 l 45.6166 -20.4725 M 139.163 127.474 l 33.3538 -37.2495 M 139.163 127.474 l 15.3296 -47.592 M 139.163 127.474 l -5.34256 -49.7138 M 139.163 127.474 l -25.0919 -43.2481 M 139.163 127.474 l -40.5069 -29.3119 M 139.163 127.474 l -48.925 -10.3125 M 139.163 127.474 l -48.8919 10.4683 M 139.163 127.474 l -40.4134 29.4408 M 139.163 127.474 l -24.954 43.3278 M 139.163 127.474 l -5.18418 49.7305 M 139.163 127.474 l 15.4811 47.543 M 139.163 127.474 l 33.4723 37.143 M 139.163 127.474 l 45.6816 20.3271 M 127.254 106.029 l 49.9997 -0.159265 M 127.254 106.029 l 45.6166 -20.4725 M 127.254 106.029 l 33.3538 -37.2495 M 127.254 106.029 l 15.3296 -47.592 M 127.254 106.029 l -5.34256 -49.7138 M 127.254 106.029 l -25.0919 -43.2481 M 127.254 106.029 l -40.5069 -29.3119 M 127.254 106.029 l -48.925 -10.3125 M 127.254 106.029 l -48.8919 10.4683 M 127.254 106.029 l -40.4134 29.4408 M 127.254 106.029 l -24.954 43.3278 M 127.254 106.029 l -5.18418 49.7305 M 127.254 106.029 l 15.4811 47.543 M 127.254 106.029 l 33.4723 37.143 M 127.254 106.029 l 45.6816 20.3271 M 104.86 138.726 l 49.9997 -0.159265 M 104.86 138.726 l 45.6166 -20.4725 M 104.86 138.726 l 33.3538 -37.2495 M 104.86 138.726 l 15.3296 -47.592 M 104.86 138.726 l -5.34256 -49.7138 M 104.86 138.726 l -25.0919 -43.2481 M 104.86 138.726 l -40.5069 -29.3119 M 104.86 138.726 l -48.925 -10.3125 M 104.86 138.726 l -48.8919 10.4683 M 104.86 138.726 l -40.4134 29.4408 M 104.86 138.726 l -24.954 43.3278 M 104.86 138.726 l -5.18418 49.7305 M 104.86 138.726 l 15.4811 47.543 M 104.86 138.726 l 33.4723 37.143 M 104.86 138.726 l 45.6816 20.3271 M 430 230 l 49.9997 -0.159265 M 430 230 l 45.6166 -20.4725 M 430 230 l 33.3538 -37.2495 M 430 230 l 15.3296 -47.592 M 430 230 l -5.34256 -49.7138 M 430 230 l -25.0919 -43.2481 M 430 230 l -40.5069 -29.3119 M 430 230 l -48.925 -10.3125 M 430 230 l -48.8919 10.4683 M 430 230 l -40.4134 29.4408 M 430 230 l -24.954 43.3278 M 430 230 l -5.18418 49.7305 M 430 230 l 15.4811 47.543 M 430 230 l 33.4723 37.143 M 430 230 l 45.6816 20.3271 M 430 200 l 49.9997 -0.159265 M 430 200 l 44.9841 -21.8273 M 430 200 l 31.0676 -39.1765 M 430 200 l 11.004 -48.7741 M 430 200 l -11.2369 -48.721 M 430 200 l -31.2545 -39.0277 M 430 200 l -45.0879 -21.6122 M 430 200 l -49.9999 0.0796326 M 430 200 l -45.0188 21.7557 M 430 200 l -31.13 39.127 M 430 200 l -11.0817 48.7565 M 430 200 l 11.1593 48.7388 M 430 200 l 31.1923 39.0774 M 430 200 l 45.0534 21.6839 M 430 170 l 49.9997 -0.159265 M 430 170 l 44.2043 -23.3662 M 430 170 l 28.2922 -41.2256 M 430 170 l 5.9052 -49.6501 M 430 170 l -17.8333 -46.7116 M 430 170 l -37.4905 -33.0827 M 430 170 l -48.5675 -11.8825 M 430 170 l -48.5294 12.0371 M 430 170 l -37.3849 33.202 M 430 170 l -17.6844 46.7682 M 430 170 l 6.06332 49.631 M 430 170 l 28.4234 41.1353 M 430 170 l 44.2785 23.2253 M 430 140 l 49.9997 -0.159265 M 430 140 l 43.2281 -25.1263 M 430 140 l 24.885 -43.3675 M 430 140 l -0.119449 -49.9999 M 430 140 l -25.0919 -43.2481 M 430 140 l -43.3476 -24.9195 M 430 140 l -49.9999 0.0796326 M 430 140 l -43.2681 25.0574 M 430 140 l -24.954 43.3278 M 430 140 l 0.0398163 50 M 430 140 l 25.023 43.288 M 430 140 l 43.3079 24.9885 M 430 110 l 49.9997 -0.159265 M 430 110 l 41.9842 -27.1537 M 430 110 l 20.6521 -45.5356 M 430 110 l -7.23037 -49.4745 M 430 110 l -32.8196 -37.721 M 430 110 l -47.9991 -14.0033 M 430 110 l -47.9542 14.1561 M 430 110 l -32.6992 37.8254 M 430 110 l -7.07275 49.4972 M 430 110 l 20.7971 45.4696 M 430 110 l 42.0705 27.0199 M 430 80 l 49.9997 -0.159265 M 430 80 l 40.3664 -29.5051 M 430 80 l 15.3296 -47.592 M 430 80 l -15.5568 -47.5183 M 430 80 l -40.5069 -29.3119 M 430 80 l -49.9999 0.0796326 M 430 80 l -40.4134 29.4408 M 430 80 l -15.4054 47.5676 M 430 80 l 15.4811 47.543 M 430 80 l 40.4602 29.3764 M 400 230 l 49.9997 -0.159265 M 400 230 l 44.9841 -21.8273 M 400 230 l 31.0676 -39.1765 M 400 230 l 11.004 -48.7741 M 400 230 l -11.2369 -48.721 M 400 230 l -31.2545 -39.0277 M 400 230 l -45.0879 -21.6122 M 400 230 l -49.9999 0.0796326 M 400 230 l -45.0188 21.7557 M 400 230 l -31.13 39.127 M 400 230 l -11.0817 48.7565 M 400 230 l 11.1593 48.7388 M 400 230 l 31.1923 39.0774 M 400 230 l 45.0534 21.6839 M 400 200 l 49.9997 -0.159265 M 400 200 l 44.2043 -23.3662 M 400 200 l 28.2922 -41.2256 M 400 200 l 5.9052 -49.6501 M 400 200 l -17.8333 -46.7116 M 400 200 l -37.4905 -33.0827 M 400 200 l -48.5675 -11.8825 M 400 200 l -48.5294 12.0371 M 400 200 l -37.3849 33.202 M 400 200 l -17.6844 46.7682 M 400 200 l 6.06332 49.631 M 400 200 l 28.4234 41.1353 M 400 200 l 44.2785 23.2253 M 400 170 l 49.9997 -0.159265 M 400 170 l 43.2281 -25.1263 M 400 170 l 24.885 -43.3675 M 400 170 l -0.119449 -49.9999 M 400 170 l -25.0919 -43.2481 M 400 170 l -43.3476 -24.9195 M 400 170 l -49.9999 0.0796326 M 400 170 l -43.2681 25.0574 M 400 170 l -24.954 43.3278 M 400 170 l 0.0398163 50 M 400 170 l 25.023 43.288 M 400 170 l 43.3079 24.9885 M 400 140 l 49.9997 -0.159265 M 400 140 l 41.9842 -27.1537 M 400 140 l 20.6521 -45.5356 M 400 140 l -7.23037 -49.4745 M 400 140 l -32.8196 -37.721 M 400 140 l -47.9991 -14.0033 M 400 140 l -47.9542 14.1561 M 400 140 l -32.6992 37.8254 M 400 140 l -7.07275 49.4972 M 400 140 l 20.7971 45.4696 M 400 140 l 42.0705 27.0199 M 400 110 l 49.9997 -0.159265 M 400 110 l 40.3664 -29.5051 M 400 110 l 15.3296 -47.592 M 400 110 l -15.5568 -47.5183 M 400 110 l -40.5069 -29.3119 M 400 110 l -49.9999 0.0796326 M 400 110 l -40.4134 29.4408 M 400 110 l -15.4054 47.5676 M 400 110 l 15.4811 47.543 M 400 110 l 40.4602 29.3764 M 400 80 l 49.9997 -0.159265 M 400 80 l 38.2111 -32.2477 M 400 80 l 8.56039 -49.2617 M 400 80 l -25.0919 -43.2481 M 400 80 l -47.0148 -17.0178 M 400 80 l -46.9604 17.1675 M 400 80 l -24.954 43.3278 M 400 80 l 8.71726 49.2342 M 400 80 l 38.3136 32.1258 M 370 230 l 49.9997 -0.159265 M 370 230 l 44.2043 -23.3662 M 370 230 l 28.2922 -41.2256 M 370 230 l 5.9052 -49.6501 M 370 230 l -17.8333 -46.7116 M 370 230 l -37.4905 -33.0827 M 370 230 l -48.5675 -11.8825 M 370 230 l -48.5294 12.0371 M 370 230 l -37.3849 33.202 M 370 230 l -17.6844 46.7682 M 370 230 l 6.06332 49.631 M 370 230 l 28.4234 41.1353 M 370 230 l 44.2785 23.2253 M 370 200 l 49.9997 -0.159265 M 370 200 l 43.2281 -25.1263 M 370 200 l 24.885 -43.3675 M 370 200 l -0.119449 -49.9999 M 370 200 l -25.0919 -43.2481 M 370 200 l -43.3476 -24.9195 M 370 200 l -49.9999 0.0796326 M 370 200 l -43.2681 25.0574 M 370 200 l -24.954 43.3278 M 370 200 l 0.0398163 50 M 370 200 l 25.023 43.288 M 370 200 l 43.3079 24.9885 M 370 170 l 49.9997 -0.159265 M 370 170 l 41.9842 -27.1537 M 370 170 l 20.6521 -45.5356 M 370 170 l -7.23037 -49.4745 M 370 170 l -32.8196 -37.721 M 370 170 l -47.9991 -14.0033 M 370 170 l -47.9542 14.1561 M 370 170 l -32.6992 37.8254 M 370 170 l -7.07275 49.4972 M 370 170 l 20.7971 45.4696 M 370 170 l 42.0705 27.0199 M 370 140 l 49.9997 -0.159265 M 370 140 l 40.3664 -29.5051 M 370 140 l 15.3296 -47.592 M 370 140 l -15.5568 -47.5183 M 370 140 l -40.5069 -29.3119 M 370 140 l -49.9999 0.0796326 M 370 140 l -40.4134 29.4408 M 370 140 l -15.4054 47.5676 M 370 140 l 15.4811 47.543 M 370 140 l 40.4602 29.3764 M 370 110 l 49.9997 -0.159265 M 370 110 l 38.2111 -32.2477 M 370 110 l 8.56039 -49.2617 M 370 110 l -25.0919 -43.2481 M 370 110 l -47.0148 -17.0178 M 370 110 l -46.9604 17.1675 M 370 110 l -24.954 43.3278 M 370 110 l 8.71726 49.2342 M 370 110 l 38.3136 32.1258 M 370 80 l 49.9997 -0.159265 M 370 80 l 35.2567 -35.4537 M 370 80 l -0.119449 -49.9999 M 370 80 l -35.4257 -35.2849 M 370 80 l -49.9999 0.0796326 M 370 80 l -35.3131 35.3975 M 370 80 l 0.0398163 50 M 370 80 l 35.3694 35.3413 M 340 230 l 49.9997 -0.159265 M 340 230 l 43.2281 -25.1263 M 340 230 l 24.885 -43.3675 M 340 230 l -0.119449 -49.9999 M 340 230 l -25.0919 -43.2481 M 340 230 l -43.3476 -24.9195 M 340 230 l -49.9999 0.0796326 M 340 230 l -43.2681 25.0574 M 340 230 l -24.954 43.3278 M 340 230 l 0.0398163 50 M 340 230 l 25.023 43.288 M 340 230 l 43.3079 24.9885 M 340 200 l 49.9997 -0.159265 M 340 200 l 41.9842 -27.1537 M 340 200 l 20.6521 -45.5356 M 340 200 l -7.23037 -49.4745 M 340 200 l -32.8196 -37.721 M 340 200 l -47.9991 -14.0033 M 340 200 l -47.9542 14.1561 M 340 200 l -32.6992 37.8254 M 340 200 l -7.07275 49.4972 M 340 200 l 20.7971 45.4696 M 340 200 l 42.0705 27.0199 M 340 170 l 49.9997 -0.159265 M 340 170 l 40.3664 -29.5051 M 340 170 l 15.3296 -47.592 M 340 170 l -15.5568 -47.5183 M 340 170 l -40.5069 -29.3119 M 340 170 l -49.9999 0.0796326 M 340 170 l -40.4134 29.4408 M 340 170 l -15.4054 47.5676 M 340 170 l 15.4811 47.543 M 340 170 l 40.4602 29.3764 M 340 140 l 49.9997 -0.159265 M 340 140 l 38.2111 -32.2477 M 340 140 l 8.56039 -49.2617 M 340 140 l -25.0919 -43.2481 M 340 140 l -47.0148 -17.0178 M 340 140 l -46.9604 17.1675 M 340 140 l -24.954 43.3278 M 340 140 l 8.71726 49.2342 M 340 140 l 38.3136 32.1258 M 340 110 l 49.9997 -0.159265 M 340 110 l 35.2567 -35.4537 M 340 110 l -0.119449 -49.9999 M 340 110 l -35.4257 -35.2849 M 340 110 l -49.9999 0.0796326 M 340 110 l -35.3131 35.3975 M 340 110 l 0.0398163 50 M 340 110 l 35.3694 35.3413 M 340 80 l 49.9997 -0.159265 M 340 80 l 31.0676 -39.1765 M 340 80 l -11.2369 -48.721 M 340 80 l -45.0879 -21.6122 M 340 80 l -45.0188 21.7557 M 340 80 l -11.0817 48.7565 M 340 80 l 31.1923 39.0774 M 310 230 l 49.9997 -0.159265 M 310 230 l 41.9842 -27.1537 M 310 230 l 20.6521 -45.5356 M 310 230 l -7.23037 -49.4745 M 310 230 l -32.8196 -37.721 M 310 230 l -47.9991 -14.0033 M 310 230 l -47.9542 14.1561 M 310 230 l -32.6992 37.8254 M 310 230 l -7.07275 49.4972 M 310 230 l 20.7971 45.4696 M 310 230 l 42.0705 27.0199 M 310 200 l 49.9997 -0.159265 M 310 200 l 40.3664 -29.5051 M 310 200 l 15.3296 -47.592 M 310 200 l -15.5568 -47.5183 M 310 200 l -40.5069 -29.3119 M 310 200 l -49.9999 0.0796326 M 310 200 l -40.4134 29.4408 M 310 200 l -15.4054 47.5676 M 310 200 l 15.4811 47.543 M 310 200 l 40.4602 29.3764 M 310 170 l 49.9997 -0.159265 M 310 170 l 38.2111 -32.2477 M 310 170 l 8.56039 -49.2617 M 310 170 l -25.0919 -43.2481 M 310 170 l -47.0148 -17.0178 M 310 170 l -46.9604 17.1675 M 310 170 l -24.954 43.3278 M 310 170 l 8.71726 49.2342 M 310 170 l 38.3136 32.1258 M 310 140 l 49.9997 -0.159265 M 310 140 l 35.2567 -35.4537 M 310 140 l -0.119449 -49.9999 M 310 140 l -35.4257 -35.2849 M 310 140 l -49.9999 0.0796326 M 310 140 l -35.3131 35.3975 M 310 140 l 0.0398163 50 M 310 140 l 35.3694 35.3413 M 310 110 l 49.9997 -0.159265 M 310 110 l 31.0676 -39.1765 M 310 110 l -11.2369 -48.721 M 310 110 l -45.0879 -21.6122 M 310 110 l -45.0188 21.7557 M 310 110 l -11.0817 48.7565 M 310 110 l 31.1923 39.0774 M 310 80 l 49.9997 -0.159265 M 310 80 l 24.885 -43.3675 M 310 80 l -25.0919 -43.2481 M 310 80 l -49.9999 0.0796326 M 310 80 l -24.954 43.3278 M 310 80 l 25.023 43.288 M 280 230 l 49.9997 -0.159265 M 280 230 l 40.3664 -29.5051 M 280 230 l 15.3296 -47.592 M 280 230 l -15.5568 -47.5183 M 280 230 l -40.5069 -29.3119 M 280 230 l -49.9999 0.0796326 M 280 230 l -40.4134 29.4408 M 280 230 l -15.4054 47.5676 M 280 230 l 15.4811 47.543 M 280 230 l 40.4602 29.3764 M 280 200 l 49.9997 -0.159265 M 280 200 l 38.2111 -32.2477 M 280 200 l 8.56039 -49.2617 M 280 200 l -25.0919 -43.2481 M 280 200 l -47.0148 -17.0178 M 280 200 l -46.9604 17.1675 M 280 200 l -24.954 43.3278 M 280 200 l 8.71726 49.2342 M 280 200 l 38.3136 32.1258 M 280 170 l 49.9997 -0.159265 M 280 170 l 35.2567 -35.4537 M 280 170 l -0.119449 -49.9999 M 280 170 l -35.4257 -35.2849 M 280 170 l -49.9999 0.0796326 M 280 170 l -35.3131 35.3975 M 280 170 l 0.0398163 50 M 280 170 l 35.3694 35.3413 M 280 140 l 49.9997 -0.159265 M 280 140 l 31.0676 -39.1765 M 280 140 l -11.2369 -48.721 M 280 140 l -45.0879 -21.6122 M 280 140 l -45.0188 21.7557 M 280 140 l -11.0817 48.7565 M 280 140 l 31.1923 39.0774 M 280 110 l 49.9997 -0.159265 M 280 110 l 24.885 -43.3675 M 280 110 l -25.0919 -43.2481 M 280 110 l -49.9999 0.0796326 M 280 110 l -24.954 43.3278 M 280 110 l 25.023 43.288 M 280 80 l 49.9997 -0.159265 M 280 80 l 15.3296 -47.592 M 280 80 l -40.5069 -29.3119 M 280 80 l -40.4134 29.4408 M 280 80 l 15.4811 47.543" stroke="black" stroke-width="1" fill="none"></path></svg>
