<svg version="1.1" xmlns:xlink="http://www.w3.org/1999/xlink" xmlns="http://www.w3.org/2000/svg"><path d="M 200 200 l 0 -50 l 50 0 m -50 50 l 0 0 m -0 -5 l 21.7945 0 m -21.7945 -5 l 30 0 m -30 -5 l 35.7071 0 m -35.7071 -5 l 40 0 m -40 -5 l 43.3013 0 m -43.3013 -5 l 45.8258 0 m -45.8258 -5 l 47.697 0 m -47.697 -5 l 48.9898 0 m -48.9898 -5 l 49.7494 0 m -49.7494 -5 m 50 0 l 0 0 m -5 -0 l 0 21.7945 m -5 -21.7945 l 0 30 m -5 -30 l 0 35.7071 m -5 -35.7071 l 0 40 m -5 -40 l 0 43.3013 m -5 -43.3013 l 0 45.8258 m -5 -45.8258 l 0 47.697 m -5 -47.697 l 0 48.9898 m -5 -48.9898 l 0 49.7494 m -5 -49.7494 m 0 50 a 50 50 0 0 0 50 -50" stroke="black" stroke-width="1" fill="none"></path></svg>
