<svg version="1.1" xmlns:xlink="http://www.w3.org/1999/xlink" xmlns="http://www.w3.org/2000/svg"><path d="M 100 200 l 500 200 m -502 -200 l 480 200 m -482 -200 l 460 200 m -462 -200 l 440 200 m -442 -200 l 420 200 m -422 -200 l 400 200 m -402 -200 l 380 200 m -382 -200 l 360 200 m -362 -200 l 340 200 m -342 -200 l 320 200 m -322 -200 l 300 200 m -302 -200 l 280 200 m -282 -200 l 260 200 m -262 -200 l 240 200 m -242 -200 l 220 200 m -222 -200 l 200 200 m -202 -200 l 180 200 m -182 -200 l 160 200 m -162 -200 l 140 200 m -142 -200 l 120 200 m -122 -200" stroke="black" stroke-width="1" fill="none"></path><path d="M 500 300 l -460 100 m 470 -100 l -442 100 m 452 -100 l -424 100 m 434 -100 l -406 100 m 416 -100 l -388 100 m 398 -100 l -370 100 m 380 -100 l -352 100 m 362 -100 l -334 100 m 344 -100 l -316 100 m 326 -100 l -298 100 m 308 -100 l -280 100 m 290 -100 l -262 100 m 272 -100 l -244 100 m 254 -100 l -226 100 m 236 -100 l -208 100 m 218 -100 l -190 100 m 200 -100 l -172 100 m 182 -100 l -154 100 m 164 -100 l -136 100 m 146 -100 l -118 100 m 128 -100" stroke="black" stroke-width="1" fill="none"></path><path d="M 100 100 q 125 -100 200 50 m -200 -50 q 100 -75 200 50 m -200 -50 q 75 -50 200 50 m -200 -50 m 200 50 q 125 125 200 50 m -200 -50 q 100 100 200 50 m -200 -50 q 75 75 200 50 m -200 -50 m 200 50 q 100 -100 200 50 m -200 -50 q 75 -75 200 50 m -200 -50 q 50 -50 200 50 m -200 -50 m 200 50" stroke="black" stroke-width="1" fill="none"></path></svg>
