<svg version="1.1" xmlns:xlink="http://www.w3.org/1999/xlink" xmlns="http://www.w3.org/2000/svg"><circle cx="50" cy="50" r="40" stroke="black" stroke-width="1" fill="none"></circle><circle cx="50" cy="100" r="10" stroke="black" stroke-width="1" fill="none"></circle><circle cx="60" cy="109.933" r="10" stroke="black" stroke-width="1" fill="none"></circle><circle cx="70" cy="119.471" r="10" stroke="black" stroke-width="1" fill="none"></circle><circle cx="80" cy="128.232" r="10" stroke="black" stroke-width="1" fill="none"></circle><circle cx="90" cy="135.868" r="10" stroke="black" stroke-width="1" fill="none"></circle><circle cx="100" cy="142.074" r="10" stroke="black" stroke-width="1" fill="none"></circle><circle cx="110" cy="146.602" r="10" stroke="black" stroke-width="1" fill="none"></circle><circle cx="120" cy="149.272" r="10" stroke="black" stroke-width="1" fill="none"></circle><circle cx="130" cy="149.979" r="10" stroke="black" stroke-width="1" fill="none"></circle><circle cx="140" cy="148.692" r="10" stroke="black" stroke-width="1" fill="none"></circle><circle cx="150" cy="145.465" r="10" stroke="black" stroke-width="1" fill="none"></circle><circle cx="160" cy="140.425" r="10" stroke="black" stroke-width="1" fill="none"></circle><circle cx="170" cy="133.773" r="10" stroke="black" stroke-width="1" fill="none"></circle><circle cx="180" cy="125.775" r="10" stroke="black" stroke-width="1" fill="none"></circle><circle cx="190" cy="116.749" r="10" stroke="black" stroke-width="1" fill="none"></circle><circle cx="200" cy="107.056" r="10" stroke="black" stroke-width="1" fill="none"></circle><circle cx="210" cy="97.0813" r="10" stroke="black" stroke-width="1" fill="none"></circle><circle cx="220" cy="87.2229" r="10" stroke="black" stroke-width="1" fill="none"></circle><circle cx="230" cy="77.874" r="10" stroke="black" stroke-width="1" fill="none"></circle><circle cx="240" cy="69.4071" r="10" stroke="black" stroke-width="1" fill="none"></circle><circle cx="250" cy="62.1599" r="10" stroke="black" stroke-width="1" fill="none"></circle><circle cx="260" cy="56.4212" r="10" stroke="black" stroke-width="1" fill="none"></circle><circle cx="270" cy="52.4199" r="10" stroke="black" stroke-width="1" fill="none"></circle><circle cx="280" cy="50.3154" r="10" stroke="black" stroke-width="1" fill="none"></circle><circle cx="290" cy="50.1918" r="10" stroke="black" stroke-width="1" fill="none"></circle><circle cx="300" cy="52.0538" r="10" stroke="black" stroke-width="1" fill="none"></circle><circle cx="310" cy="55.8273" r="10" stroke="black" stroke-width="1" fill="none"></circle><circle cx="320" cy="61.3618" r="10" stroke="black" stroke-width="1" fill="none"></circle><circle cx="330" cy="68.4367" r="10" stroke="black" stroke-width="1" fill="none"></circle><circle cx="340" cy="76.7699" r="10" stroke="black" stroke-width="1" fill="none"></circle><circle cx="350" cy="86.0292" r="10" stroke="black" stroke-width="1" fill="none"></circle><circle cx="360" cy="95.8455" r="10" stroke="black" stroke-width="1" fill="none"></circle></svg>
