<svg version="1.1" xmlns:xlink="http://www.w3.org/1999/xlink" xmlns="http://www.w3.org/2000/svg"><path d="M 103.495 245.175 L 125.736 262.671 L 117.729 286.861 L 92.6753 281.59 L 103.495 245.175 M 92.6753 291.59 L 117.729 296.861 L 117.762 316.193 L 100.756 309.831 L 92.6753 291.59 M 100.756 319.831 L 117.762 326.193 L 126.005 344.764 L 100.344 341.667 L 100.756 319.831 M 100.344 351.667 L 126.005 354.764 L 117.214 367.166 L 87.0548 369.392 L 100.344 351.667 M 87.0548 379.392 L 117.214 377.166 L 111.012 397.209 L 90.3476 399.373 L 87.0548 379.392 M 90.3476 409.373 L 111.012 407.209 L 127.657 431.119 L 111.567 433.179 L 90.3476 409.373 M 111.567 443.179 L 127.657 441.119 L 124.683 458.078 L 96.985 457.066 L 111.567 443.179 M 96.985 467.066 L 124.683 468.078 L 121.168 491.739 L 90.1453 483.395 L 96.985 467.066 M 90.1453 493.395 L 121.168 501.739 L 135.987 526.8 L 113.106 524.962 L 90.1453 493.395 M 113.106 534.962 L 135.987 536.8 L 130.199 553.424 L 103.161 553.395 L 113.106 534.962 M 103.161 563.395 L 130.199 563.424 L 108.58 581.316 L 80.2391 576.927 L 103.161 563.395 M 80.2391 586.927 L 108.58 591.316 L 123.197 612.151 L 91.107 605.812 L 80.2391 586.927 M 91.107 615.812 L 123.197 622.151 L 133.823 631.623 L 111.907 635.656 L 91.107 615.812 M 135.736 262.671 L 157.227 265.344 L 154.145 287.367 L 127.729 286.861 L 135.736 262.671 M 127.729 296.861 L 154.145 297.367 L 143.265 318.611 L 127.762 316.193 L 127.729 296.861 M 127.762 326.193 L 143.265 328.611 L 149.189 347.691 L 136.005 344.764 L 127.762 326.193 M 136.005 354.764 L 149.189 357.691 L 149.627 369.403 L 127.214 367.166 L 136.005 354.764 M 127.214 377.166 L 149.627 379.403 L 142.045 401.24 L 121.012 397.209 L 127.214 377.166 M 121.012 407.209 L 142.045 411.24 L 151.043 433.685 L 137.657 431.119 L 121.012 407.209 M 137.657 441.119 L 151.043 443.685 L 156.481 462.855 L 134.683 458.078 L 137.657 441.119 M 134.683 468.078 L 156.481 472.855 L 158.389 495.613 L 131.168 491.739 L 134.683 468.078 M 131.168 501.739 L 158.389 505.613 L 164.754 526.442 L 145.987 526.8 L 131.168 501.739 M 145.987 536.8 L 164.754 536.442 L 162.492 552.971 L 140.199 553.424 L 145.987 536.8 M 140.199 563.424 L 162.492 562.971 L 144.276 582.157 L 118.58 581.316 L 140.199 563.424 M 118.58 591.316 L 144.276 592.157 L 155.912 610.432 L 133.197 612.151 L 118.58 591.316 M 133.197 622.151 L 155.912 620.432 L 157.955 629.088 L 143.823 631.623 L 133.197 622.151 M 167.227 265.344 L 185.796 261.409 L 190.734 284.052 L 164.145 287.367 L 167.227 265.344 M 164.145 297.367 L 190.734 294.052 L 171.359 318.641 L 153.265 318.611 L 164.145 297.367 M 153.265 328.611 L 171.359 328.641 L 166.981 349.432 L 159.189 347.691 L 153.265 328.611 M 159.189 357.691 L 166.981 359.432 L 173.2 373.835 L 159.627 369.403 L 159.189 357.691 M 159.627 379.403 L 173.2 383.835 L 173.457 406.656 L 152.045 401.24 L 159.627 379.403 M 152.045 411.24 L 173.457 416.656 L 174.903 437.984 L 161.043 433.685 L 152.045 411.24 M 161.043 443.685 L 174.903 447.984 L 182.699 467.641 L 166.481 462.855 L 161.043 443.685 M 166.481 472.855 L 182.699 477.641 L 188.02 496.517 L 168.389 495.613 L 166.481 472.855 M 168.389 505.613 L 188.02 506.517 L 189.283 523.171 L 174.754 526.442 L 168.389 505.613 M 174.754 536.442 L 189.283 533.171 L 190.842 550.758 L 172.492 552.971 L 174.754 536.442 M 172.492 562.971 L 190.842 560.758 L 175.958 579.839 L 154.276 582.157 L 172.492 562.971 M 154.276 592.157 L 175.958 589.839 L 181.343 601.148 L 165.912 610.432 L 154.276 592.157 M 165.912 620.432 L 181.343 611.148 L 178.753 628.577 L 167.955 629.088 L 165.912 620.432 M 195.796 261.409 L 209.521 258.011 L 222.75 280.958 L 200.734 284.052 L 195.796 261.409 M 200.734 294.052 L 222.75 290.958 L 214.101 316.524 L 181.359 318.641 L 200.734 294.052 M 181.359 328.641 L 214.101 326.524 L 200.587 348.225 L 176.981 349.432 L 181.359 328.641 M 176.981 359.432 L 200.587 358.225 L 198.77 376.346 L 183.2 373.835 L 176.981 359.432 M 183.2 383.835 L 198.77 386.346 L 204.587 407.685 L 183.457 406.656 L 183.2 383.835 M 183.457 416.656 L 204.587 417.685 L 208.078 439.3 L 184.903 437.984 L 183.457 416.656 M 184.903 447.984 L 208.078 449.3 L 208.21 468.632 L 192.699 467.641 L 184.903 447.984 M 192.699 477.641 L 208.21 478.632 L 206.432 493.638 L 198.02 496.517 L 192.699 477.641 M 198.02 506.517 L 206.432 503.638 L 214.385 519.142 L 199.283 523.171 L 198.02 506.517 M 199.283 533.171 L 214.385 529.142 L 220 545.752 L 200.842 550.758 L 199.283 533.171 M 200.842 560.758 L 220 555.752 L 212.338 576.93 L 185.958 579.839 L 200.842 560.758 M 185.958 589.839 L 212.338 586.93 L 214.524 601.857 L 191.343 601.148 L 185.958 589.839 M 191.343 611.148 L 214.524 611.857 L 216.481 629.407 L 188.753 628.577 L 191.343 611.148 M 219.521 258.011 L 241.246 261.852 L 252.517 283.413 L 232.75 280.958 L 219.521 258.011 M 232.75 290.958 L 252.517 293.413 L 252.768 317.175 L 224.101 316.524 L 232.75 290.958 M 224.101 326.524 L 252.768 327.175 L 240.937 348.474 L 210.587 348.225 L 224.101 326.524 M 210.587 358.225 L 240.937 358.474 L 229.357 379.048 L 208.77 376.346 L 210.587 358.225 M 208.77 386.346 L 229.357 389.048 L 235.079 408.72 L 214.587 407.685 L 208.77 386.346 M 214.587 417.685 L 235.079 418.72 L 239.99 439.864 L 218.078 439.3 L 214.587 417.685 M 218.078 449.3 L 239.99 449.864 L 233.245 468.691 L 218.21 468.632 L 218.078 449.3 M 218.21 478.632 L 233.245 478.691 L 228.734 493.417 L 216.432 493.638 L 218.21 478.632 M 216.432 503.638 L 228.734 503.417 L 242.731 522.031 L 224.385 519.142 L 216.432 503.638 M 224.385 529.142 L 242.731 532.031 L 249.77 548.794 L 230 545.752 L 224.385 529.142 M 230 555.752 L 249.77 558.794 L 247.833 578.582 L 222.338 576.93 L 230 555.752 M 222.338 586.93 L 247.833 588.582 L 245.119 602.685 L 224.524 601.857 L 222.338 586.93 M 224.524 611.857 L 245.119 612.685 L 252.332 631.377 L 226.481 629.407 L 224.524 611.857 M 251.246 261.852 L 279.997 268.14 L 279.63 288.102 L 262.517 283.413 L 251.246 261.852 M 262.517 293.413 L 279.63 298.102 L 285.502 319.226 L 262.768 317.175 L 262.517 293.413 M 262.768 327.175 L 285.502 329.226 L 284.566 349.435 L 250.937 348.474 L 262.768 327.175 M 250.937 358.474 L 284.566 359.435 L 261.729 381.129 L 239.357 379.048 L 250.937 358.474 M 239.357 389.048 L 261.729 391.129 L 261.142 410.263 L 245.079 408.72 L 239.357 389.048 M 245.079 418.72 L 261.142 420.263 L 265.719 440.366 L 249.99 439.864 L 245.079 418.72 M 249.99 449.864 L 265.719 450.366 L 257.372 468.882 L 243.245 468.691 L 249.99 449.864 M 243.245 478.691 L 257.372 478.882 L 255.367 496.627 L 238.734 493.417 L 243.245 478.691 M 238.734 503.417 L 255.367 506.627 L 270.572 527.397 L 252.731 522.031 L 238.734 503.417 M 252.731 532.031 L 270.572 537.397 L 275.419 555.289 L 259.77 548.794 L 252.731 532.031 M 259.77 558.794 L 275.419 565.289 L 279.04 583.127 L 257.833 578.582 L 259.77 558.794 M 257.833 588.582 L 279.04 593.127 L 273.71 602.586 L 255.119 602.685 L 257.833 588.582 M 255.119 612.685 L 273.71 612.586 L 284.425 633.134 L 262.332 631.377 L 255.119 612.685 M 289.997 268.14 L 313.829 269.993 L 304.577 289.097 L 289.63 288.102 L 289.997 268.14 M 289.63 298.102 L 304.577 299.097 L 315.849 318.394 L 295.502 319.226 L 289.63 298.102 M 295.502 329.226 L 315.849 328.394 L 317.189 348.356 L 294.566 349.435 L 295.502 329.226 M 294.566 359.435 L 317.189 358.356 L 288.047 381.195 L 271.729 381.129 L 294.566 359.435 M 271.729 391.129 L 288.047 391.195 L 283.975 411.67 L 271.142 410.263 L 271.729 391.129 M 271.142 420.263 L 283.975 421.67 L 285.071 441.159 L 275.719 440.366 L 271.142 420.263 M 275.719 450.366 L 285.071 451.159 L 283.494 470.83 L 267.372 468.882 L 275.719 450.366 M 267.372 478.882 L 283.494 480.83 L 287.773 500.204 L 265.367 496.627 L 267.372 478.882 M 265.367 506.627 L 287.773 510.204 L 289.532 528.198 L 280.572 527.397 L 265.367 506.627 M 280.572 537.397 L 289.532 538.198 L 291.343 556.808 L 285.419 555.289 L 280.572 537.397 M 285.419 565.289 L 291.343 566.808 L 302.549 585.945 L 289.04 583.127 L 285.419 565.289 M 289.04 593.127 L 302.549 595.945 L 302.495 601.684 L 283.71 602.586 L 289.04 593.127 M 283.71 612.586 L 302.495 611.684 L 311.304 632.486 L 294.425 633.134 L 283.71 612.586 M 323.829 269.993 L 340.997 268.901 L 329.802 288.231 L 314.577 289.097 L 323.829 269.993 M 314.577 299.097 L 329.802 298.231 L 349.413 316.387 L 325.849 318.394 L 314.577 299.097 M 325.849 328.394 L 349.413 326.387 L 350.357 346.509 L 327.189 348.356 L 325.849 328.394 M 327.189 358.356 L 350.357 356.509 L 318.868 380.221 L 298.047 381.195 L 327.189 358.356 M 298.047 391.195 L 318.868 390.221 L 317.26 410.896 L 293.975 411.67 L 298.047 391.195 M 293.975 421.67 L 317.26 420.896 L 314.8 440.218 L 295.071 441.159 L 293.975 421.67 M 295.071 451.159 L 314.8 450.218 L 315.525 471.421 L 293.494 470.83 L 295.071 451.159 M 293.494 480.83 L 315.525 481.421 L 322.655 501.756 L 297.773 500.204 L 293.494 480.83 M 297.773 510.204 L 322.655 511.756 L 312.686 527.63 L 299.532 528.198 L 297.773 510.204 M 299.532 538.198 L 312.686 537.63 L 316.462 556.522 L 301.343 556.808 L 299.532 538.198 M 301.343 566.808 L 316.462 566.522 L 331.392 587.792 L 312.549 585.945 L 301.343 566.808 M 312.549 595.945 L 331.392 597.792 L 329.952 605.094 L 312.495 601.684 L 312.549 595.945 M 312.495 611.684 L 329.952 615.094 L 340.479 633.545 L 321.304 632.486 L 312.495 611.684 M 350.997 268.901 L 359.48 263.271 L 356.282 285.684 L 339.802 288.231 L 350.997 268.901 M 339.802 298.231 L 356.282 295.684 L 382.856 315.037 L 359.413 316.387 L 339.802 298.231 M 359.413 326.387 L 382.856 325.037 L 381.619 345.841 L 360.357 346.509 L 359.413 326.387 M 360.357 356.509 L 381.619 355.841 L 352.987 378.619 L 328.868 380.221 L 360.357 356.509 M 328.868 390.221 L 352.987 388.619 L 361.345 408.073 L 327.26 410.896 L 328.868 390.221 M 327.26 420.896 L 361.345 418.073 L 354.408 437.048 L 324.8 440.218 L 327.26 420.896 M 324.8 450.218 L 354.408 447.048 L 352.553 470.09 L 325.525 471.421 L 324.8 450.218 M 325.525 481.421 L 352.553 480.09 L 355.966 501.417 L 332.655 501.756 L 325.525 481.421 M 332.655 511.756 L 355.966 511.417 L 339.446 525.843 L 322.686 527.63 L 332.655 511.756 M 322.686 537.63 L 339.446 535.843 L 349.313 554.736 L 326.462 556.522 L 322.686 537.63 M 326.462 566.522 L 349.313 564.736 L 362.429 587.631 L 341.392 587.792 L 326.462 566.522 M 341.392 597.792 L 362.429 597.631 L 350.548 608.799 L 339.952 605.094 L 341.392 597.792 M 339.952 615.094 L 350.548 618.799 L 368.487 637.584 L 350.479 633.545 L 339.952 615.094 M 369.48 263.271 L 380.109 256.27 L 387.012 284.092 L 366.282 285.684 L 369.48 263.271 M 366.282 295.684 L 387.012 294.092 L 409.783 317.404 L 392.856 315.037 L 366.282 295.684 M 392.856 325.037 L 409.783 327.404 L 407.496 348.237 L 391.619 345.841 L 392.856 325.037 M 391.619 355.841 L 407.496 358.237 L 385.019 377.889 L 362.987 378.619 L 391.619 355.841 M 362.987 388.619 L 385.019 387.889 L 398.841 406.599 L 371.345 408.073 L 362.987 388.619 M 371.345 418.073 L 398.841 416.599 L 399.061 434.707 L 364.408 437.048 L 371.345 418.073 M 364.408 447.048 L 399.061 444.707 L 385.544 466.087 L 362.553 470.09 L 364.408 447.048 M 362.553 480.09 L 385.544 476.087 L 381.07 498.357 L 365.966 501.417 L 362.553 480.09 M 365.966 511.417 L 381.07 508.357 L 370.226 525.809 L 349.446 525.843 L 365.966 511.417 M 349.446 535.843 L 370.226 535.809 L 385.099 554.483 L 359.313 554.736 L 349.446 535.843 M 359.313 564.736 L 385.099 564.483 L 387.523 582.73 L 372.429 587.631 L 359.313 564.736 M 372.429 597.631 L 387.523 592.73 L 370.368 608.158 L 360.548 608.799 L 372.429 597.631 M 360.548 618.799 L 370.368 618.158 L 391.299 642.294 L 378.487 637.584 L 360.548 618.799 M 390.109 256.27 L 411.488 256.206 L 420.971 281.915 L 397.012 284.092 L 390.109 256.27 M 397.012 294.092 L 420.971 291.915 L 435.235 316.845 L 419.783 317.404 L 397.012 294.092 M 419.783 327.404 L 435.235 326.845 L 434.746 347.606 L 417.496 348.237 L 419.783 327.404 M 417.496 358.237 L 434.746 357.606 L 417.298 374.882 L 395.019 377.889 L 417.496 358.237 M 395.019 387.889 L 417.298 384.882 L 431.414 404.951 L 408.841 406.599 L 395.019 387.889 M 408.841 416.599 L 431.414 414.951 L 439.443 434.955 L 409.061 434.707 L 408.841 416.599 M 409.061 444.707 L 439.443 444.955 L 418.059 465.062 L 395.544 466.087 L 409.061 444.707 M 395.544 476.087 L 418.059 475.062 L 411.3 496.427 L 391.07 498.357 L 395.544 476.087 M 391.07 508.357 L 411.3 506.427 L 402.938 527.583 L 380.226 525.809 L 391.07 508.357 M 380.226 535.809 L 402.938 537.583 L 412.834 555.973 L 395.099 554.483 L 380.226 535.809 M 395.099 564.483 L 412.834 565.973 L 413.604 577.191 L 397.523 582.73 L 395.099 564.483 M 397.523 592.73 L 413.604 587.191 L 401.998 609.583 L 380.368 608.158 L 397.523 592.73 M 380.368 618.158 L 401.998 619.583 L 420.233 643.45 L 401.299 642.294 L 380.368 618.158 M 421.488 256.206 L 453.836 262.465 L 457.237 278.064 L 430.971 281.915 L 421.488 256.206 M 430.971 291.915 L 457.237 288.064 L 461.45 312.113 L 445.235 316.845 L 430.971 291.915 M 445.235 326.845 L 461.45 322.113 L 464.718 344.367 L 444.746 347.606 L 445.235 326.845 M 444.746 357.606 L 464.718 354.367 L 453.376 368.612 L 427.298 374.882 L 444.746 357.606 M 427.298 384.882 L 453.376 378.612 L 465.099 401.889 L 441.414 404.951 L 427.298 384.882 M 441.414 414.951 L 465.099 411.889 L 475.93 437.046 L 449.443 434.955 L 441.414 414.951 M 449.443 444.955 L 475.93 447.046 L 452.126 467.884 L 428.059 465.062 L 449.443 444.955 M 428.059 475.062 L 452.126 477.884 L 448.721 497.628 L 421.3 496.427 L 428.059 475.062 M 421.3 506.427 L 448.721 507.628 L 439.538 529.775 L 412.938 527.583 L 421.3 506.427 M 412.938 537.583 L 439.538 539.775 L 434.068 557.801 L 422.834 555.973 L 412.938 537.583 M 422.834 565.973 L 434.068 567.801 L 440.531 576.115 L 423.604 577.191 L 422.834 565.973 M 423.604 587.191 L 440.531 586.115 L 447.113 612.531 L 411.998 609.583 L 423.604 587.191 M 411.998 619.583 L 447.113 622.531 L 455.953 641.229 L 430.233 643.45 L 411.998 619.583 M 463.836 262.465 L 491.543 264.841 L 488.724 273.718 L 467.237 278.064 L 463.836 262.465 M 467.237 288.064 L 488.724 283.718 L 492.132 306.118 L 471.45 312.113 L 467.237 288.064 M 471.45 322.113 L 492.132 316.118 L 496.212 342.569 L 474.718 344.367 L 471.45 322.113 M 474.718 354.367 L 496.212 352.569 L 493.904 364.856 L 463.376 368.612 L 474.718 354.367 M 463.376 378.612 L 493.904 374.856 L 502.629 397.696 L 475.099 401.889 L 463.376 378.612 M 475.099 411.889 L 502.629 407.696 L 509.639 438.149 L 485.93 437.046 L 475.099 411.889 M 485.93 447.046 L 509.639 448.149 L 488.166 469.126 L 462.126 467.884 L 485.93 447.046 M 462.126 477.884 L 488.166 479.126 L 486.874 499.062 L 458.721 497.628 L 462.126 477.884 M 458.721 507.628 L 486.874 509.062 L 478.835 529.931 L 449.538 529.775 L 458.721 507.628 M 449.538 539.775 L 478.835 539.931 L 460.948 557.614 L 444.068 557.801 L 449.538 539.775 M 444.068 567.801 L 460.948 567.614 L 470.032 580.914 L 450.531 576.115 L 444.068 567.801 M 450.531 586.115 L 470.032 590.914 L 488.216 614.434 L 457.113 612.531 L 450.531 586.115 M 457.113 622.531 L 488.216 624.434 L 488.349 637.521 L 465.953 641.229 L 457.113 622.531 M 501.543 264.841 L 517.219 263.574 L 515.173 273.904 L 498.724 273.718 L 501.543 264.841 M 498.724 283.718 L 515.173 283.904 L 521.983 307.816 L 502.132 306.118 L 498.724 283.718 M 502.132 316.118 L 521.983 317.816 L 525.972 342.211 L 506.212 342.569 L 502.132 316.118 M 506.212 352.569 L 525.972 352.211 L 528.552 363.315 L 503.904 364.856 L 506.212 352.569 M 503.904 374.856 L 528.552 373.315 L 532.101 398.572 L 512.629 397.696 L 503.904 374.856 M 512.629 407.696 L 532.101 408.572 L 539.816 438.935 L 519.639 438.149 L 512.629 407.696 M 519.639 448.149 L 539.816 448.935 L 519.969 468.021 L 498.166 469.126 L 519.639 448.149 M 498.166 479.126 L 519.969 478.021 L 514.662 498.106 L 496.874 499.062 L 498.166 479.126 M 496.874 509.062 L 514.662 508.106 L 514.651 528.384 L 488.835 529.931 L 496.874 509.062 M 488.835 539.931 L 514.651 538.384 L 496.168 556.42 L 470.948 557.614 L 488.835 539.931 M 470.948 567.614 L 496.168 566.42 L 503.326 583.277 L 480.032 580.914 L 470.948 567.614 M 480.032 590.914 L 503.326 593.277 L 512.524 614.793 L 498.216 614.434 L 480.032 590.914 M 498.216 624.434 L 512.524 624.793 L 510.025 637.24 L 498.349 637.521 L 498.216 624.434 M 527.219 263.574 L 538.522 257.781 L 541.184 277.509 L 525.173 273.904 L 527.219 263.574 M 525.173 283.904 L 541.184 287.509 L 553.857 314.082 L 531.983 307.816 L 525.173 283.904 M 531.983 317.816 L 553.857 324.082 L 559.7 343.289 L 535.972 342.211 L 531.983 317.816 M 535.972 352.211 L 559.7 353.289 L 561.902 366.844 L 538.552 363.315 L 535.972 352.211 M 538.552 373.315 L 561.902 376.844 L 554.888 403.213 L 542.101 398.572 L 538.552 373.315 M 542.101 408.572 L 554.888 413.213 L 566.856 438.612 L 549.816 438.935 L 542.101 408.572 M 549.816 448.935 L 566.856 448.612 L 554.137 464.043 L 529.969 468.021 L 549.816 448.935 M 529.969 478.021 L 554.137 474.043 L 537.61 495.485 L 524.662 498.106 L 529.969 478.021 M 524.662 508.106 L 537.61 505.485 L 543.127 526.597 L 524.651 528.384 L 524.662 508.106 M 524.651 538.384 L 543.127 536.597 L 541.251 555.922 L 506.168 556.42 L 524.651 538.384 M 506.168 566.42 L 541.251 565.922 L 539.84 584.783 L 513.326 583.277 L 506.168 566.42 M 513.326 593.277 L 539.84 594.783 L 530.886 613.901 L 522.524 614.793 L 513.326 593.277 M 522.524 624.793 L 530.886 623.901 L 526.262 640.141 L 520.025 637.24 L 522.524 624.793 M 548.522 257.781 L 570.85 255.061 L 573.747 279.692 L 551.184 277.509 L 548.522 257.781 M 551.184 287.509 L 573.747 289.692 L 587.844 316.36 L 563.857 314.082 L 551.184 287.509 M 563.857 324.082 L 587.844 326.36 L 595.534 344.283 L 569.7 343.289 L 563.857 324.082 M 569.7 353.289 L 595.534 354.283 L 596.035 372.939 L 571.902 366.844 L 569.7 353.289 M 571.902 376.844 L 596.035 382.939 L 580.583 405.742 L 564.888 403.213 L 571.902 376.844 M 564.888 413.213 L 580.583 415.742 L 591.565 436.813 L 576.856 438.612 L 564.888 413.213 M 576.856 448.612 L 591.565 446.813 L 593.144 461.481 L 564.137 464.043 L 576.856 448.612 M 564.137 474.043 L 593.144 471.481 L 573.659 494.754 L 547.61 495.485 L 564.137 474.043 M 547.61 505.485 L 573.659 504.754 L 573.059 527.681 L 553.127 526.597 L 547.61 505.485 M 553.127 536.597 L 573.059 537.681 L 579.711 557.33 L 551.251 555.922 L 553.127 536.597 M 551.251 565.922 L 579.711 567.33 L 572.576 586.376 L 549.84 584.783 L 551.251 565.922 M 549.84 594.783 L 572.576 596.376 L 561.893 613.951 L 540.886 613.901 L 549.84 594.783 M 540.886 623.901 L 561.893 623.951 L 551.81 641.894 L 536.262 640.141 L 540.886 623.901 M 580.85 255.061 L 604.062 260.194 L 605.773 281.179 L 583.747 279.692 L 580.85 255.061 M 583.747 289.692 L 605.773 291.179 L 618.158 316.299 L 597.844 316.36 L 583.747 289.692 M 597.844 326.36 L 618.158 326.299 L 623.438 344.929 L 605.534 344.283 L 597.844 326.36 M 605.534 354.283 L 623.438 354.929 L 625.86 376.666 L 606.035 372.939 L 605.534 354.283 M 606.035 382.939 L 625.86 386.666 L 611.72 406.503 L 590.583 405.742 L 606.035 382.939 M 590.583 415.742 L 611.72 416.503 L 613.317 435.677 L 601.565 436.813 L 590.583 415.742 M 601.565 446.813 L 613.317 445.677 L 626.155 462.947 L 603.144 461.481 L 601.565 446.813 M 603.144 471.481 L 626.155 472.947 L 618.654 494.313 L 583.659 494.754 L 603.144 471.481 M 583.659 504.754 L 618.654 504.313 L 614.329 527.588 L 583.059 527.681 L 583.659 504.754 M 583.059 537.681 L 614.329 537.588 L 614.026 557.035 L 589.711 557.33 L 583.059 537.681 M 589.711 567.33 L 614.026 567.035 L 601.27 587.268 L 582.576 586.376 L 589.711 567.33 M 582.576 596.376 L 601.27 597.268 L 594.273 615.634 L 571.893 613.951 L 582.576 596.376 M 571.893 623.951 L 594.273 625.634 L 583.86 642.224 L 561.81 641.894 L 571.893 623.951 M 614.062 260.194 L 628.459 266.056 L 629.281 283.362 L 615.773 281.179 L 614.062 260.194 M 615.773 291.179 L 629.281 293.362 L 640.741 316.035 L 628.158 316.299 L 615.773 291.179 M 628.158 326.299 L 640.741 326.035 L 644.48 344.461 L 633.438 344.929 L 628.158 326.299 M 633.438 354.929 L 644.48 354.461 L 651.467 377.049 L 635.86 376.666 L 633.438 354.929 M 635.86 386.666 L 651.467 387.049 L 644.626 406.104 L 621.72 406.503 L 635.86 386.666 M 621.72 416.503 L 644.626 416.104 L 639.904 436.223 L 623.317 435.677 L 621.72 416.503 M 623.317 445.677 L 639.904 446.223 L 655.981 466.305 L 636.155 462.947 L 623.317 445.677 M 636.155 472.947 L 655.981 476.305 L 658.434 493.975 L 628.654 494.313 L 636.155 472.947 M 628.654 504.313 L 658.434 503.975 L 655.137 525.803 L 624.329 527.588 L 628.654 504.313 M 624.329 537.588 L 655.137 535.803 L 642.198 554.579 L 624.026 557.035 L 624.329 537.588 M 624.026 567.035 L 642.198 564.579 L 624.437 586.193 L 611.27 587.268 L 624.026 567.035 M 611.27 597.268 L 624.437 596.193 L 624.148 616.242 L 604.273 615.634 L 611.27 597.268 M 604.273 625.634 L 624.148 626.242 L 620.45 642.856 L 593.86 642.224 L 604.273 625.634 M 638.459 266.056 L 651.096 267.373 L 651.594 285.008 L 639.281 283.362 L 638.459 266.056 M 639.281 293.362 L 651.594 295.008 L 662.387 317.183 L 650.741 316.035 L 639.281 293.362 M 650.741 326.035 L 662.387 327.183 L 669.45 343.709 L 654.48 344.461 L 650.741 326.035 M 654.48 354.461 L 669.45 353.709 L 675.873 374.052 L 661.467 377.049 L 654.48 354.461 M 661.467 387.049 L 675.873 384.052 L 673.436 405.212 L 654.626 406.104 L 661.467 387.049 M 654.626 416.104 L 673.436 415.212 L 677.406 436.749 L 649.904 436.223 L 654.626 416.104 M 649.904 446.223 L 677.406 446.749 L 685.655 466.714 L 665.981 466.305 L 649.904 446.223 M 665.981 476.305 L 685.655 476.714 L 687.881 493.057 L 668.434 493.975 L 665.981 476.305 M 668.434 503.975 L 687.881 503.057 L 686.845 523.151 L 665.137 525.803 L 668.434 503.975 M 665.137 535.803 L 686.845 533.151 L 670.118 551.703 L 652.198 554.579 L 665.137 535.803 M 652.198 564.579 L 670.118 561.703 L 649.177 583.205 L 634.437 586.193 L 652.198 564.579 M 634.437 596.193 L 649.177 593.205 L 650.857 614.789 L 634.148 616.242 L 634.437 596.193 M 634.148 626.242 L 650.857 624.789 L 654.105 645.349 L 630.45 642.856 L 634.148 626.242 M 661.096 267.373 L 689.584 267.038 L 687.602 284.149 L 661.594 285.008 L 661.096 267.373 M 661.594 295.008 L 687.602 294.149 L 695.57 317.127 L 672.387 317.183 L 661.594 295.008 M 672.387 327.183 L 695.57 327.127 L 699.579 344.713 L 679.45 343.709 L 672.387 327.183 M 679.45 353.709 L 699.579 354.713 L 701.171 371.946 L 685.873 374.052 L 679.45 353.709 M 685.873 384.052 L 701.171 381.946 L 701.969 403.612 L 683.436 405.212 L 685.873 384.052 M 683.436 415.212 L 701.969 413.612 L 713.355 435.376 L 687.406 436.749 L 683.436 415.212 M 687.406 446.749 L 713.355 445.376 L 714.906 464.372 L 695.655 466.714 L 687.406 446.749 M 695.655 476.714 L 714.906 474.372 L 715.447 491.567 L 697.881 493.057 L 695.655 476.714 M 697.881 503.057 L 715.447 501.567 L 717.907 521.598 L 696.845 523.151 L 697.881 503.057 M 696.845 533.151 L 717.907 531.598 L 704.849 550.934 L 680.118 551.703 L 696.845 533.151 M 680.118 561.703 L 704.849 560.934 L 679.702 582.03 L 659.177 583.205 L 680.118 561.703 M 659.177 593.205 L 679.702 592.03 L 680.887 615.181 L 660.857 614.789 L 659.177 593.205 M 660.857 624.789 L 680.887 625.181 L 687.814 647.504 L 664.105 645.349 L 660.857 624.789 M 699.584 267.038 L 740.064 266.238 L 730.692 282.293 L 697.602 284.149 L 699.584 267.038 M 697.602 294.149 L 730.692 292.293 L 730.299 315.713 L 705.57 317.127 L 697.602 294.149 M 705.57 327.127 L 730.299 325.713 L 726.422 344.889 L 709.579 344.713 L 705.57 327.127 M 709.579 354.713 L 726.422 354.889 L 724.847 369.913 L 711.171 371.946 L 709.579 354.713 M 711.171 381.946 L 724.847 379.913 L 734.611 398.568 L 711.969 403.612 L 711.171 381.946 M 711.969 413.612 L 734.611 408.568 L 746.755 430.495 L 723.355 435.376 L 711.969 413.612 M 723.355 445.376 L 746.755 440.495 L 742.849 457.088 L 724.906 464.372 L 723.355 445.376 M 724.906 474.372 L 742.849 467.088 L 743.128 488.239 L 725.447 491.567 L 724.906 474.372 M 725.447 501.567 L 743.128 498.239 L 748.803 518.574 L 727.907 521.598 L 725.447 501.567 M 727.907 531.598 L 748.803 528.574 L 743.338 548.067 L 714.849 550.934 L 727.907 531.598 M 714.849 560.934 L 743.338 558.067 L 713.995 580.78 L 689.702 582.03 L 714.849 560.934 M 689.702 592.03 L 713.995 590.78 L 707.467 615.615 L 690.887 615.181 L 689.702 592.03 M 690.887 625.181 L 707.467 625.615 L 717.503 647.297 L 697.814 647.504 L 690.887 625.181 M 750.064 266.238 L 775.402 265.825 L 762.48 281.497 L 740.692 282.293 L 750.064 266.238 M 740.692 292.293 L 762.48 291.497 L 758.016 313.159 L 740.299 315.713 L 740.692 292.293 M 740.299 325.713 L 758.016 323.159 L 750.823 341.915 L 736.422 344.889 L 740.299 325.713 M 736.422 354.889 L 750.823 351.915 L 748.562 367.365 L 734.847 369.913 L 736.422 354.889 M 734.847 379.913 L 748.562 377.365 L 767.753 392.032 L 744.611 398.568 L 734.847 379.913 M 744.611 408.568 L 767.753 402.032 L 777.893 425.989 L 756.755 430.495 L 744.611 408.568 M 756.755 440.495 L 777.893 435.989 L 772.081 449.647 L 752.849 457.088 L 756.755 440.495 M 752.849 467.088 L 772.081 459.647 L 774.526 484.044 L 753.128 488.239 L 752.849 467.088 M 753.128 498.239 L 774.526 494.044 L 779.124 510.979 L 758.803 518.574 L 753.128 498.239 M 758.803 528.574 L 779.124 520.979 L 776.329 540.124 L 753.338 548.067 L 758.803 528.574 M 753.338 558.067 L 776.329 550.124 L 747.186 577.964 L 723.995 580.78 L 753.338 558.067 M 723.995 590.78 L 747.186 587.964 L 733.865 614.136 L 717.467 615.615 L 723.995 590.78 M 717.467 625.615 L 733.865 624.136 L 743.693 644.797 L 727.503 647.297 L 717.467 625.615 M 785.402 265.825 L 799.067 264.095 L 788.879 279.604 L 772.48 281.497 L 785.402 265.825 M 772.48 291.497 L 788.879 289.604 L 789.649 309.448 L 768.016 313.159 L 772.48 291.497 M 768.016 323.159 L 789.649 319.448 L 785.851 337.831 L 760.823 341.915 L 768.016 323.159 M 760.823 351.915 L 785.851 347.831 L 777.376 367.164 L 758.562 367.365 L 760.823 351.915 M 758.562 377.365 L 777.376 377.164 L 794.387 393.054 L 777.753 392.032 L 758.562 377.365 M 777.753 402.032 L 794.387 403.054 L 808.49 427.817 L 787.893 425.989 L 777.753 402.032 M 787.893 435.989 L 808.49 437.817 L 804.96 448.939 L 782.081 449.647 L 787.893 435.989 M 782.081 459.647 L 804.96 458.939 L 806.982 482.214 L 784.526 484.044 L 782.081 459.647 M 784.526 494.044 L 806.982 492.214 L 808.176 503.65 L 789.124 510.979 L 784.526 494.044 M 789.124 520.979 L 808.176 513.65 L 804.054 536.737 L 786.329 540.124 L 789.124 520.979 M 786.329 550.124 L 804.054 546.737 L 780.121 577.754 L 757.186 577.964 L 786.329 550.124 M 757.186 587.964 L 780.121 587.754 L 768.578 612.428 L 743.865 614.136 L 757.186 587.964 M 743.865 624.136 L 768.578 622.428 L 772.013 643.912 L 753.693 644.797 L 743.865 624.136" stroke="black" stroke-width="1" fill="none"></path></svg>
