<svg version="1.1" xmlns:xlink="http://www.w3.org/1999/xlink" xmlns="http://www.w3.org/2000/svg"><path d="M 21.1153 174.193 L 21.1153 114.193 L 41.1153 114.193 L 41.1153 134.193 L 21.1153 134.193 M 61.2501 164.977 L 61.2501 104.977 L 81.2501 104.977 L 81.2501 124.977 L 61.2501 124.977 M 145.952 127.338 L 145.952 67.3378 L 165.952 67.3378 L 165.952 87.3378 L 145.952 87.3378 M 186.139 125.674 L 186.139 65.6738 L 206.139 65.6738 L 206.139 85.6738 L 186.139 85.6738 M 260.494 117.048 L 260.494 57.0479 L 280.494 57.0479 L 280.494 77.0479 L 260.494 77.0479" stroke="black" stroke-width="1" fill="none"></path><path d="M 101.978 111.112 L 101.978 51.112 L 121.978 51.112 L 121.978 71.112 L 101.978 71.112" stroke="black" stroke-width="1" fill="none"></path><path d="M 220.901 112.67 L 220.901 52.6695 L 240.901 52.6695 L 240.901 72.6695 L 220.901 72.6695" stroke="black" stroke-width="1" fill="none"></path></svg>
