<svg version="1.1" xmlns:xlink="http://www.w3.org/1999/xlink" xmlns="http://www.w3.org/2000/svg"><path d="M 100 100 L 200 100 M 100 110 L 200 110 M 100 120 L 200 120 M 100 130 L 200 130 M 100 140 L 200 140 M 100 150 L 200 150 M 100 160 L 200 160 M 100 170 L 200 170 M 100 180 L 200 180 M 100 190 L 200 190 M 100 200 L 200 200 M 100 100 L 100 200 M 110 100 L 110 200 M 120 100 L 120 200 M 130 100 L 130 200 M 140 100 L 140 200 M 150 100 L 150 200 M 160 100 L 160 200 M 170 100 L 170 200 M 180 100 L 180 200 M 190 100 L 190 200 M 200 100 L 200 200 M 128 128 L 128 228 M 133 128 L 133 228 M 138 128 L 138 228 M 143 128 L 143 228 M 148 128 L 148 228 M 153 128 L 153 228 M 158 128 L 158 228 M 163 128 L 163 228 M 168 128 L 168 228 M 173 128 L 173 228 M 178 128 L 178 228 M 183 128 L 183 228 M 188 128 L 188 228 M 193 128 L 193 228 M 198 128 L 198 228 M 203 128 L 203 228 M 208 128 L 208 228 M 213 128 L 213 228 M 218 128 L 218 228 M 223 128 L 223 228 M 228 128 L 228 228 M 233 128 L 233 228 M 238 128 L 238 228 M 243 128 L 243 228 M 248 128 L 248 228 M 253 128 L 253 228 M 258 128 L 258 228 M 263 128 L 263 228 M 268 128 L 268 228 M 273 128 L 273 228 M 278 128 L 278 228 M 283 128 L 283 228 M 288 128 L 288 228 M 293 128 L 293 228 M 298 128 L 298 228 M 303 128 L 303 228 M 308 128 L 308 228 M 313 128 L 313 228 M 318 128 L 318 228 M 323 128 L 323 228 M 328 128 L 328 228 M 128 128 L 328 128 M 128 133 L 328 133 M 128 138 L 328 138 M 128 143 L 328 143 M 128 148 L 328 148 M 128 153 L 328 153 M 128 158 L 328 158 M 128 163 L 328 163 M 128 168 L 328 168 M 128 173 L 328 173 M 128 178 L 328 178 M 128 183 L 328 183 M 128 188 L 328 188 M 128 193 L 328 193 M 128 198 L 328 198 M 128 203 L 328 203 M 128 208 L 328 208 M 128 213 L 328 213 M 128 218 L 328 218 M 128 223 L 328 223 M 128 228 L 328 228" stroke="black" stroke-width="1" fill="none"></path><circle cx="64.341" cy="47.5048" r="5" stroke="black" stroke-width="1" fill="none"></circle><circle cx="60.5336" cy="54.4667" r="5" stroke="black" stroke-width="1" fill="none"></circle><circle cx="25.9636" cy="49.049" r="5" stroke="black" stroke-width="1" fill="none"></circle><circle cx="52.5659" cy="50.2271" r="5" stroke="black" stroke-width="1" fill="none"></circle><circle cx="66.0322" cy="53.4467" r="5" stroke="black" stroke-width="1" fill="none"></circle><circle cx="53.7098" cy="55.6103" r="5" stroke="black" stroke-width="1" fill="none"></circle><circle cx="62.002" cy="60.4386" r="5" stroke="black" stroke-width="1" fill="none"></circle><circle cx="81.0958" cy="63.5708" r="5" stroke="black" stroke-width="1" fill="none"></circle><circle cx="79.9887" cy="59.1937" r="5" stroke="black" stroke-width="1" fill="none"></circle><circle cx="107.214" cy="62.4917" r="5" stroke="black" stroke-width="1" fill="none"></circle><circle cx="81.9638" cy="63.2006" r="5" stroke="black" stroke-width="1" fill="none"></circle><circle cx="115.525" cy="61.6483" r="5" stroke="black" stroke-width="1" fill="none"></circle><circle cx="97.2766" cy="66.9832" r="5" stroke="black" stroke-width="1" fill="none"></circle><circle cx="120.795" cy="74.6782" r="5" stroke="black" stroke-width="1" fill="none"></circle><circle cx="123.472" cy="65.8071" r="5" stroke="black" stroke-width="1" fill="none"></circle><circle cx="122.996" cy="72.5726" r="5" stroke="black" stroke-width="1" fill="none"></circle><circle cx="138.852" cy="75.8388" r="5" stroke="black" stroke-width="1" fill="none"></circle><circle cx="147.515" cy="74.381" r="5" stroke="black" stroke-width="1" fill="none"></circle><circle cx="131.114" cy="80.3241" r="5" stroke="black" stroke-width="1" fill="none"></circle><circle cx="127.818" cy="75.4554" r="5" stroke="black" stroke-width="1" fill="none"></circle><circle cx="140.249" cy="81.9624" r="5" stroke="black" stroke-width="1" fill="none"></circle><circle cx="134.561" cy="89.0712" r="5" stroke="black" stroke-width="1" fill="none"></circle><circle cx="131.546" cy="81.5204" r="5" stroke="black" stroke-width="1" fill="none"></circle><circle cx="179.076" cy="86.2041" r="5" stroke="black" stroke-width="1" fill="none"></circle><circle cx="159.938" cy="88.6132" r="5" stroke="black" stroke-width="1" fill="none"></circle><circle cx="169.048" cy="87.9785" r="5" stroke="black" stroke-width="1" fill="none"></circle><circle cx="159.259" cy="94.2419" r="5" stroke="black" stroke-width="1" fill="none"></circle><circle cx="191.445" cy="97.5503" r="5" stroke="black" stroke-width="1" fill="none"></circle><circle cx="195.695" cy="97.2276" r="5" stroke="black" stroke-width="1" fill="none"></circle><circle cx="163.492" cy="94.8683" r="5" stroke="black" stroke-width="1" fill="none"></circle><circle cx="179.443" cy="102.596" r="5" stroke="black" stroke-width="1" fill="none"></circle><circle cx="196.191" cy="100.97" r="5" stroke="black" stroke-width="1" fill="none"></circle><circle cx="179.321" cy="97.7296" r="5" stroke="black" stroke-width="1" fill="none"></circle><circle cx="221.19" cy="102.221" r="5" stroke="black" stroke-width="1" fill="none"></circle><circle cx="201.272" cy="104.341" r="5" stroke="black" stroke-width="1" fill="none"></circle><circle cx="239.365" cy="102.11" r="5" stroke="black" stroke-width="1" fill="none"></circle><circle cx="247.661" cy="107.841" r="5" stroke="black" stroke-width="1" fill="none"></circle><circle cx="246.818" cy="108.667" r="5" stroke="black" stroke-width="1" fill="none"></circle><circle cx="251.757" cy="113.599" r="5" stroke="black" stroke-width="1" fill="none"></circle><circle cx="244.546" cy="110.221" r="5" stroke="black" stroke-width="1" fill="none"></circle><circle cx="238.106" cy="117.364" r="5" stroke="black" stroke-width="1" fill="none"></circle><circle cx="245.969" cy="114.23" r="5" stroke="black" stroke-width="1" fill="none"></circle><circle cx="236.452" cy="124.092" r="5" stroke="black" stroke-width="1" fill="none"></circle><circle cx="240.609" cy="124.802" r="5" stroke="black" stroke-width="1" fill="none"></circle><circle cx="269.391" cy="119.873" r="5" stroke="black" stroke-width="1" fill="none"></circle><circle cx="286.795" cy="125.887" r="5" stroke="black" stroke-width="1" fill="none"></circle><circle cx="276.423" cy="124.556" r="5" stroke="black" stroke-width="1" fill="none"></circle><circle cx="291.415" cy="128.704" r="5" stroke="black" stroke-width="1" fill="none"></circle><circle cx="289.574" cy="134.695" r="5" stroke="black" stroke-width="1" fill="none"></circle><circle cx="309.44" cy="126.383" r="5" stroke="black" stroke-width="1" fill="none"></circle><circle cx="286.828" cy="128.439" r="5" stroke="black" stroke-width="1" fill="none"></circle><circle cx="285.946" cy="135.482" r="5" stroke="black" stroke-width="1" fill="none"></circle><circle cx="317.951" cy="130.324" r="5" stroke="black" stroke-width="1" fill="none"></circle><circle cx="285.08" cy="135.869" r="5" stroke="black" stroke-width="1" fill="none"></circle><circle cx="329.752" cy="142.918" r="5" stroke="black" stroke-width="1" fill="none"></circle><circle cx="337.499" cy="143.753" r="5" stroke="black" stroke-width="1" fill="none"></circle><circle cx="325.275" cy="144.536" r="5" stroke="black" stroke-width="1" fill="none"></circle><circle cx="359.543" cy="148.671" r="5" stroke="black" stroke-width="1" fill="none"></circle><circle cx="342.206" cy="146.047" r="5" stroke="black" stroke-width="1" fill="none"></circle><circle cx="355.634" cy="144.67" r="5" stroke="black" stroke-width="1" fill="none"></circle></svg>
