<svg version="1.1" xmlns:xlink="http://www.w3.org/1999/xlink" xmlns="http://www.w3.org/2000/svg"><path d="M 104.823 98.0089 L 115.784 113.322 L 116.941 132.61 L 108.293 155.876 L 104.771 186.206 L 109.865 213.56 L 108.644 231.117 L 101.106 238.878 L 81.7813 255.891 L 72.9615 277.419 L 78.3352 299.363 L 95.6055 320.104 L 95.6342 328.676 L 96.8066 346.094 L 99.123 372.358 L 103.43 400.556 L 106.312 420.301 L 104.693 439.759 L 98.574 458.93 L 91.3944 487.636 L 89.2029 513.628 L 91.902 531.148 L 99.4916 540.197 L 103.6 566.341 L 104.319 587.969 L 101.703 604.778 L 96.2191 615.788 L 93.1807 627.296 L 93.9888 646.007 L 98.6433 671.921 M 128.526 96.2223 L 136.832 111.299 L 136.621 130.434 L 127.89 153.627 L 124.764 181.122 L 129.361 204.042 L 127.153 219.047 L 118.137 226.138 L 98.536 248.293 L 88.5099 275.027 L 91.1776 300.819 L 105.193 323.806 L 110.633 331.494 L 115.873 348.227 L 120.913 374.008 L 124.102 402.596 L 122.258 422.667 L 117.019 440.722 L 108.387 456.764 L 100.828 481.186 L 100.234 505.82 L 106.111 525.464 L 118.46 540.118 L 120.59 567.718 L 119.85 589.496 L 116.396 605.217 L 111.837 613.346 L 112.266 621.132 L 115.759 637.627 L 122.315 662.83 M 150.417 95.2095 L 156.578 110.112 L 155.506 129.155 L 147.202 152.338 L 144.927 177.628 L 149.434 197.347 L 146.643 211.034 L 136.554 218.689 L 117.472 244.719 L 107.142 274.705 L 108.006 302.395 L 119.45 325.867 L 128.669 332.947 L 136.344 349.275 L 142.475 374.849 L 144.167 404.226 L 139.206 425.209 L 131.957 442.451 L 122.42 455.953 L 114.188 475.988 L 114.028 498.847 L 121.92 520.197 L 137.866 540.038 L 138.538 569.218 L 136.883 591.277 L 133.132 606.041 L 129.55 611.653 L 132.289 616.649 L 137.307 631.861 L 144.606 657.288 M 170.497 94.9703 L 175.02 109.76 L 173.596 128.773 L 166.226 152.007 L 165.263 175.723 L 170.083 193.476 L 167.114 207.08 L 156.357 216.533 L 138.59 245.167 L 128.857 276.454 L 128.819 304.089 L 138.377 326.287 L 149.742 333.037 L 158.219 349.235 L 163.809 374.881 L 163.625 405.445 L 157.156 427.929 L 149.505 444.946 L 140.674 456.496 L 131.473 472.042 L 130.585 492.707 L 139.33 515.346 L 157.709 539.957 L 157.445 570.842 L 155.416 593.313 L 151.912 607.252 L 149.359 610.708 L 153.248 613.848 L 158.633 628.71 L 165.515 655.294 M 188.765 95.5048 L 192.159 110.244 L 190.892 129.287 L 184.965 152.635 L 185.771 175.408 L 191.309 192.43 L 188.567 207.183 L 177.545 219.669 L 161.889 249.637 L 153.656 280.274 L 153.619 305.902 L 161.973 325.065 L 173.852 331.763 L 181.499 348.11 L 184.916 374.105 L 182.476 406.252 L 176.108 430.826 L 169.666 448.207 L 163.149 458.393 L 152.685 469.347 L 149.904 487.402 L 158.339 510.912 L 177.989 539.876 L 177.31 572.589 L 175.45 595.605 L 172.734 608.849 L 171.264 610.511 L 175.144 612.728 L 179.737 628.174 L 185.044 656.848 M 205.221 96.8129 L 207.995 111.563 L 207.393 130.7 L 203.417 154.223 L 206.451 176.682 L 213.111 194.207 L 211.001 211.345 L 200.119 228.097 L 187.369 258.131 L 181.539 286.165 L 182.404 307.833 L 190.239 322.202 L 200.999 329.126 L 206.184 345.898 L 205.795 372.519 L 200.721 406.649 L 196.063 433.901 L 192.438 452.233 L 189.845 461.645 L 177.821 467.904 L 171.987 482.932 L 178.949 506.895 L 198.707 539.794 L 198.133 574.46 L 196.984 598.151 L 195.6 610.832 L 195.264 611.062 L 197.976 613.29 L 200.619 630.253 L 203.191 661.949 M 219.559 97.2737 L 223.126 113.103 L 224.428 133.438 L 223.465 158.279 L 229.157 181.537 L 236.809 200.441 L 235.151 220.61 L 224.181 242.043 L 214.284 270.66 L 211.277 294.257 L 213.937 310.276 L 222.381 318.455 L 230.934 325.734 L 232.592 342.791 L 227.355 369.626 L 219.587 405.165 L 218.013 434.981 L 218.439 454.681 L 220.865 464.263 L 206.961 467.018 L 196.895 479.558 L 200.907 503.799 L 218.997 539.739 L 219.021 575.984 L 218.811 600.342 L 218.689 612.81 L 219.031 612.304 L 219.818 615.141 L 219.796 633.905 L 218.965 668.595 M 232.84 89.9779 L 241.636 111.546 L 248.217 137.96 L 252.584 169.221 L 260.594 195.709 L 266.711 214.374 L 262.683 234.561 L 248.511 256.268 L 236.606 282.349 L 233.662 302.289 L 238.182 314.298 L 250.006 318.593 L 259.143 325.946 L 260.205 341.372 L 253.192 364.871 L 244.441 396.4 L 244.747 424.706 L 247.186 444.889 L 251.756 456.95 L 236.216 463.652 L 222.309 478.901 L 221.958 504.295 L 235.16 539.836 L 236.079 574.641 L 235.385 598.819 L 233.313 612.376 L 231.485 613.357 L 232.358 615.518 L 231.954 632.904 L 230.272 665.516 M 248.867 85.6258 L 260.726 110.418 L 270.421 140.398 L 277.951 175.566 L 287.612 203.992 L 293.117 222.425 L 287.645 242.637 L 271.194 264.626 L 257.133 289.414 L 253.81 307.276 L 259.751 316.856 L 274.582 318.783 L 284.675 327.062 L 285.513 341.709 L 277.094 362.725 L 267.271 390.704 L 268.635 417.331 L 272.264 437.829 L 278.156 452.199 L 261.901 462.324 L 245.87 479.594 L 242.869 505.455 L 252.9 539.907 L 255.146 573.152 L 254.384 597.034 L 250.778 611.567 L 247.125 614.119 L 248.254 616.185 L 247.636 632.777 L 245.271 663.893 M 267.64 84.2176 L 280.396 109.72 L 291.037 140.751 L 299.564 177.312 L 310.21 206.386 L 316.028 224.595 L 310.035 244.838 L 292.231 267.116 L 275.865 291.854 L 271.722 309.218 L 278.641 317.948 L 296.109 319.026 L 307.53 329.083 L 308.515 343.804 L 299.064 363.189 L 288.078 388.075 L 289.678 412.854 L 293.673 433.5 L 300.065 450.013 L 284.016 463.034 L 267.576 481.637 L 263.643 507.278 L 272.217 539.954 L 276.223 571.516 L 275.809 594.988 L 271.085 610.382 L 265.951 614.591 L 267.504 617.145 L 266.841 633.523 L 263.962 663.726 M 289.16 85.7531 L 300.646 109.451 L 310.067 139.021 L 317.423 174.461 L 328.388 202.893 L 335.444 220.883 L 329.855 241.165 L 311.621 263.738 L 292.801 289.67 L 287.397 308.115 L 294.854 317.576 L 314.588 319.321 L 327.708 332.009 L 329.212 347.656 L 319.1 366.262 L 306.862 388.513 L 307.874 411.278 L 311.414 431.903 L 317.483 450.389 L 302.561 465.783 L 287.428 485.032 L 284.278 509.763 L 293.111 539.977 L 299.31 569.733 L 299.659 592.681 L 294.233 608.82 L 287.964 614.773 L 290.109 618.396 L 289.569 635.144 L 286.344 665.015 M 313.426 90.2325 L 321.475 109.613 L 327.51 135.206 L 331.53 167.011 L 342.147 193.511 L 351.365 211.29 L 347.104 231.618 L 329.365 254.493 L 307.943 282.86 L 300.836 303.967 L 308.389 315.739 L 330.018 319.667 L 345.21 335.84 L 347.604 353.266 L 337.202 371.945 L 323.622 392.019 L 323.224 412.601 L 325.487 433.037 L 330.41 453.33 L 317.537 470.57 L 305.426 489.777 L 304.774 512.912 L 315.583 539.974 L 324.406 567.803 L 325.935 590.112 L 320.223 606.882 L 313.162 614.664 L 316.068 619.94 L 315.82 637.638 L 312.418 667.759 M 340.439 97.6556 L 342.884 110.205 L 343.366 129.307 L 341.883 154.964 L 351.486 178.24 L 363.791 195.816 L 361.783 216.195 L 345.462 239.38 L 321.289 271.426 L 312.039 296.775 L 319.247 312.436 L 342.399 320.067 L 360.034 340.575 L 363.691 360.632 L 353.371 380.238 L 338.359 398.592 L 335.729 416.823 L 335.891 436.903 L 338.847 458.833 L 328.943 477.396 L 321.57 495.873 L 325.133 516.723 L 339.632 539.947 L 351.512 565.727 L 354.637 587.282 L 349.055 604.569 L 341.547 614.265 L 345.383 621.774 L 345.595 641.006 L 342.184 671.959 M 359.983 95.326 L 364.429 109.132 L 364.8 128.877 L 361.096 154.563 L 366.375 175.35 L 375.757 188.833 L 373.433 205.897 L 359.404 226.541 L 337.075 262.214 L 327.879 293.446 L 333.757 315.782 L 353.981 330.234 L 367.273 350.364 L 369.281 368.636 L 360.006 385.05 L 347.25 399.269 L 345.367 414.879 L 346.306 434.091 L 350.067 456.903 L 344.629 476.883 L 340.478 496.538 L 343.82 518.612 L 354.654 543.105 L 369.698 568.967 L 376.576 590.941 L 375.232 609.001 L 370.154 620.598 L 371.389 630.012 L 369.723 648.004 L 365.156 674.574 M 379.836 93.7933 L 386.611 108.8 L 387.147 129.11 L 381.445 154.723 L 382.528 173.556 L 389.118 184.188 L 386.692 199.189 L 375.251 218.559 L 355.153 256.222 L 346.342 290.935 L 351.141 317.568 L 368.616 336.759 L 377.771 357.25 L 378.431 374.484 L 370.597 388.462 L 360.292 399.151 L 358.914 412.495 L 360.384 431.187 L 364.702 455.224 L 363.435 476.407 L 362.129 496.802 L 364.803 519.703 L 371.455 545.108 L 388.155 570.884 L 397.314 593.09 L 398.78 611.715 L 395.322 625.221 L 394.589 637.101 L 391.706 654.356 L 386.672 676.984 M 400.218 93.3434 L 409.44 109.265 L 410.261 129.854 L 402.681 155.109 L 399.77 172.496 L 403.857 181.627 L 401.62 195.915 L 393.057 215.362 L 375.47 253.378 L 367.316 289.117 L 371.312 317.595 L 386.32 339.359 L 391.72 361.086 L 391.414 378.158 L 385.402 390.574 L 377.655 398.41 L 376.451 409.853 L 378.122 428.388 L 382.667 454.014 L 385.247 476.172 L 386.466 496.812 L 388.149 520.043 L 390.298 545.863 L 407.13 571.33 L 417.03 593.548 L 419.768 612.52 L 417.044 627.945 L 415.071 642.875 L 411.699 659.974 L 406.928 679.244 M 421.129 93.9763 L 432.918 110.527 L 434.143 131.108 L 424.802 155.719 L 418.099 172.17 L 419.976 181.149 L 418.217 196.076 L 412.824 216.949 L 398.024 253.679 L 390.803 287.993 L 394.269 315.863 L 407.092 338.033 L 409.119 361.872 L 408.228 379.657 L 404.42 391.387 L 399.337 397.048 L 397.978 406.953 L 399.52 425.695 L 403.963 453.274 L 410.066 476.179 L 413.487 496.568 L 413.859 519.632 L 411.183 545.37 L 426.623 570.305 L 435.725 592.317 L 438.197 611.414 L 435.32 628.772 L 432.836 647.333 L 429.705 664.86 L 425.924 681.353 M 442.57 95.6919 L 457.045 112.586 L 458.791 132.873 L 447.809 156.554 L 437.516 172.576 L 437.473 182.756 L 436.484 199.671 L 434.551 223.322 L 422.815 257.128 L 416.801 287.563 L 420.011 312.37 L 430.935 332.781 L 429.969 359.607 L 428.874 378.981 L 427.651 390.901 L 425.339 395.064 L 423.495 403.794 L 424.579 423.107 L 428.59 453.003 L 437.891 476.428 L 443.193 496.069 L 441.932 518.469 L 434.109 543.63 L 446.634 567.81 L 453.4 589.395 L 454.066 608.399 L 450.15 627.7 L 447.884 650.475 L 445.721 669.013 L 443.66 683.313 M 464.541 98.4903 L 481.819 115.441 L 484.206 135.149 L 471.702 157.614 L 458.022 173.715 L 456.348 186.446 L 456.42 206.701 L 458.238 234.479 L 449.844 263.723 L 445.311 287.826 L 448.54 307.119 L 457.846 323.603 L 454.269 354.293 L 453.352 376.13 L 455.095 389.115 L 455.66 392.458 L 453.002 400.378 L 453.298 420.625 L 456.547 453.201 L 468.723 476.919 L 475.583 495.315 L 472.368 516.555 L 459.077 540.641 L 467.163 563.844 L 470.054 584.783 L 467.375 603.474 L 461.534 624.73 L 460.215 652.302 L 459.749 672.433 L 460.136 685.122 M 483.331 107.533 L 501.567 118.205 L 505.447 131.749 L 494.973 148.165 L 483.433 163.991 L 483.702 182.717 L 485.872 209.296 L 489.944 243.726 L 484.075 268.684 L 480.759 285.896 L 483.688 298.78 L 491.277 310.099 L 486.158 343.628 L 483.304 367.762 L 482.716 382.501 L 481.237 387.226 L 478.256 396.833 L 479.331 419.055 L 484.462 453.892 L 497.066 479.794 L 502.886 498.571 L 498.067 518.201 L 482.606 538.683 L 486.572 560.006 L 486.16 580.759 L 481.026 600.933 L 473.975 625.229 L 473.126 655.442 L 473.74 677.097 L 475.819 690.194 M 501.861 114.355 L 519.973 119.8 L 524.898 128.409 L 516.637 140.181 L 507.791 155.745 L 509.999 178.785 L 513.672 209.898 L 518.81 249.082 L 514.998 271.27 L 512.714 283.982 L 515.143 292.77 L 520.955 300.868 L 515.432 336.184 L 511.035 361.762 L 507.764 377.604 L 503.502 383.425 L 499.973 394.518 L 501.855 418.174 L 509.145 454.393 L 521.882 482.912 L 526.613 502.794 L 520.829 521.051 L 504.531 537.681 L 505.542 556.724 L 503.063 577.202 L 496.782 599.083 L 489.357 626.377 L 488.47 658.176 L 489.625 680.788 L 492.822 694.215 M 521.006 117.275 L 538.296 120.251 L 543.568 126.681 L 536.822 136.566 L 529.882 152.054 L 533.15 176.867 L 537.444 209.973 L 542.766 251.371 L 540.748 272.136 L 539.401 282.76 L 541.235 289.861 L 545.274 296.875 L 540.386 333.213 L 535.485 359.472 L 530.573 375.652 L 524 381.787 L 519.497 393.558 L 521.758 417.838 L 530.782 454.627 L 543.907 485.717 L 548.116 507.008 L 541.937 524.195 L 525.368 537.277 L 524.398 553.796 L 520.83 573.749 L 514.38 597.087 L 507.184 627.051 L 505.934 659.917 L 507.304 682.969 L 511.295 696.207 M 540.766 116.294 L 556.536 119.556 L 561.457 126.565 L 555.528 137.321 L 549.708 152.918 L 553.153 176.963 L 557.188 209.52 L 561.813 250.591 L 561.325 271.284 L 560.82 282.229 L 561.965 290.054 L 564.233 298.119 L 561.02 334.716 L 556.657 360.892 L 551.142 376.646 L 542.731 382.313 L 536.828 393.951 L 539.041 418.044 L 549.372 454.594 L 563.143 488.211 L 567.398 511.214 L 561.389 527.634 L 545.118 537.47 L 543.14 551.222 L 539.461 570.4 L 533.819 594.946 L 527.456 627.252 L 525.519 660.667 L 526.779 683.64 L 531.238 696.171 M 561.141 111.41 L 574.694 117.717 L 578.565 128.062 L 572.756 142.445 L 567.268 158.336 L 570.009 179.072 L 572.903 208.541 L 575.951 246.743 L 576.73 268.714 L 576.971 282.389 L 577.333 293.347 L 577.832 304.6 L 577.335 340.692 L 574.548 366.02 L 569.471 380.585 L 559.696 385.002 L 551.965 395.697 L 553.705 418.795 L 564.915 454.296 L 579.588 490.394 L 584.456 515.411 L 579.187 531.367 L 563.781 538.261 L 561.767 549.003 L 558.955 567.156 L 555.101 592.658 L 550.173 626.979 L 547.223 660.425 L 548.049 682.801 L 552.651 694.107 M 582.132 102.624 L 592.769 114.733 L 594.893 131.17 L 588.504 151.937 L 582.562 168.31 L 583.718 183.195 L 584.59 207.035 L 585.179 239.828 L 586.961 264.425 L 587.855 283.24 L 587.338 299.741 L 586.072 316.318 L 589.33 351.141 L 589.16 374.858 L 585.56 387.469 L 574.894 389.855 L 564.908 398.797 L 565.748 420.089 L 577.411 453.73 L 593.243 492.264 L 599.292 519.599 L 595.329 535.395 L 581.356 539.65 L 580.28 547.139 L 579.313 564.015 L 578.225 590.224 L 575.336 626.233 L 571.048 659.192 L 571.114 680.452 L 575.534 690.014 M 605.306 94.4123 L 613.86 111.435 L 613.456 133.972 L 604.096 162.023 L 595.773 181.083 L 595.464 191.231 L 594.781 208.179 L 593.724 231.927 L 593.705 258.892 L 593.288 283.956 L 592.041 307.168 L 590.886 329.686 L 597.137 358.644 L 599.7 378.454 L 598.576 389.114 L 589.474 391.824 L 579.935 401.57 L 581.214 422.768 L 593.312 455.419 L 608.741 495.531 L 615.194 525.422 L 613.038 543.226 L 602.276 548.942 L 604.21 552.152 L 606.004 565.314 L 607.439 588.445 L 605.998 622.87 L 601.116 657 L 600.748 680.061 L 604.897 692.053 M 628.35 89.731 L 636.41 108.553 L 634.177 134.569 L 621.653 167.777 L 610.769 190.745 L 609.685 199.558 L 608.327 211.706 L 606.695 227.188 L 603.808 254.808 L 601.441 283.973 L 599.99 311.782 L 600.292 338.186 L 607.991 360.232 L 612.228 376.355 L 613.005 386.555 L 606.037 391.78 L 598.187 403.686 L 600.399 425.68 L 612.672 457.763 L 626.378 498.288 L 632.247 529.884 L 631.617 549.911 L 624.49 558.37 L 629.45 558.287 L 633.375 567.972 L 636.062 587.521 L 634.985 619.426 L 630.078 654.737 L 629.62 680.304 L 633.611 696.127 M 650.047 87.1829 L 658.67 105.869 L 655.666 133.426 L 641.035 169.854 L 628.306 196.818 L 626.801 206.529 L 625.123 216.11 L 623.272 225.561 L 617.984 252.538 L 614.165 283.545 L 613.009 313.691 L 615.144 342.042 L 623.396 358.639 L 628.414 372.539 L 630.197 383.741 L 624.623 392.209 L 617.967 405.838 L 620.616 428.192 L 632.569 459.271 L 644.108 499.346 L 648.973 531.59 L 649.449 552.784 L 645.537 562.928 L 652.593 561.33 L 657.714 569.351 L 660.72 587.131 L 659.353 617.422 L 654.472 652.58 L 653.972 679.319 L 657.853 697.638 M 670.399 86.7683 L 680.641 103.38 L 677.921 130.542 L 662.241 168.253 L 648.383 199.3 L 646.812 212.143 L 645.17 221.392 L 643.456 227.045 L 636.234 252.083 L 631.46 282.672 L 631.097 312.895 L 635.443 341.255 L 643.354 353.865 L 648.257 367.005 L 650.152 380.672 L 645.232 393.111 L 639.275 408.027 L 641.865 430.304 L 653.003 459.943 L 661.931 498.705 L 665.372 530.541 L 666.534 551.845 L 665.416 562.617 L 673.64 561.281 L 679.023 569.452 L 681.411 587.276 L 679.103 616.86 L 674.296 650.53 L 673.804 677.104 L 677.624 696.584 M 689.404 88.4869 L 702.322 101.088 L 700.944 125.917 L 685.27 162.974 L 671.001 198.193 L 669.72 216.401 L 668.468 227.551 L 667.246 231.641 L 658.558 253.442 L 653.327 281.353 L 654.253 309.394 L 661.188 335.824 L 667.863 345.911 L 671.757 359.752 L 672.87 377.348 L 667.863 394.487 L 662.11 410.253 L 664.147 432.017 L 673.974 459.777 L 679.847 496.365 L 681.444 526.735 L 682.871 547.093 L 684.128 557.437 L 692.592 558.141 L 697.3 568.274 L 698.135 587.955 L 694.234 617.74 L 689.551 648.586 L 689.115 673.661 L 692.925 692.966 M 707.063 92.3389 L 723.714 98.9923 L 724.734 119.552 L 710.124 154.018 L 696.159 193.495 L 695.523 219.303 L 695.017 234.588 L 694.642 239.348 L 684.954 256.615 L 679.764 279.59 L 682.478 303.188 L 692.38 325.749 L 696.924 334.775 L 698.914 350.782 L 698.35 373.769 L 692.518 396.336 L 686.472 412.515 L 687.46 433.329 L 695.482 458.776 L 697.856 492.326 L 697.189 520.174 L 698.462 538.528 L 701.673 547.388 L 709.448 551.908 L 712.546 565.816 L 710.893 589.168 L 704.747 620.061 L 700.237 646.748 L 699.906 668.989 L 703.754 686.784 M 724.746 96.1243 L 744.282 100.847 L 747.693 117.932 L 734.98 147.378 L 720.907 185.864 L 718.902 215.88 L 717.655 234.95 L 717.168 243.074 L 709.174 256.442 L 706.661 274.073 L 712.721 292.851 L 726.249 311.636 L 730.459 323.484 L 731.822 343.797 L 730.339 372.576 L 723.145 399.911 L 714.376 416.625 L 711.154 436.952 L 713.476 460.893 L 711.838 491.73 L 709.909 516.41 L 711.741 531.347 L 717.334 536.541 L 725.388 545.301 L 727.983 563.604 L 725.078 591.402 L 717.217 624.476 L 711.829 647.958 L 711.232 667.504 L 715.426 683.116 M 743.842 97.9895 L 764.052 107.247 L 768.56 123.807 L 757.365 147.668 L 742.286 179.466 L 737.153 207.836 L 733.983 228.157 L 732.775 240.428 L 728.19 252.335 L 729.557 266.991 L 738.986 283.344 L 755.364 300.801 L 761.607 317.108 L 764.146 341.467 L 762.979 373.878 L 754.968 403.766 L 743.1 421.403 L 734.491 442.007 L 729.142 465.579 L 723.672 495.403 L 721.616 518.052 L 724.828 529.873 L 733.308 530.865 L 743.143 541.931 L 746.891 562.851 L 744.53 593.489 L 735.886 628.595 L 728.596 651.398 L 727.451 669.89 L 732.45 684.07 M 763.302 99.75 L 783.632 114.188 L 788.682 130.868 L 778.453 149.791 L 762.564 175.034 L 755.295 201.351 L 751.192 222.514 L 750.256 238.525 L 747.95 249.88 L 751.491 262.826 L 762.583 278.021 L 780.211 295.144 L 788.038 314.04 L 791.3 340.574 L 789.999 374.747 L 781.869 405.986 L 769.42 424.403 L 757.944 445.142 L 747.442 468.202 L 738.644 497.864 L 736.047 519.79 L 740.225 529.801 L 751.179 527.898 L 762.352 540.02 L 766.809 562.276 L 764.549 594.472 L 754.872 630.845 L 745.901 653.481 L 744.428 671.43 L 750.453 684.692 M 783.127 101.406 L 803.022 121.669 L 808.061 139.116 L 798.242 153.746 L 781.74 172.569 L 773.326 196.424 L 769.283 218.023 L 769.61 237.366 L 768.456 249.076 L 772.462 261.578 L 783.511 276.881 L 800.792 294.666 L 809.75 314.28 L 813.286 341.119 L 811.4 375.184 L 803.848 406.571 L 793.337 425.625 L 781.514 446.354 L 768.378 468.76 L 756.755 499.115 L 753.202 521.624 L 757.932 531.132 L 770.946 527.64 L 783.015 539.569 L 787.739 561.878 L 785.137 594.35 L 774.174 631.226 L 763.742 654.207 L 762.162 672.126 L 769.434 684.982 M 803.316 102.956 L 822.223 129.692 L 826.696 148.55 L 816.734 159.532 L 799.815 172.07 L 791.248 193.057 L 788.256 214.684 L 790.839 236.951 L 789.706 249.923 L 792.472 263.248 L 801.771 279.925 L 817.104 299.368 L 826.744 317.829 L 830.102 343.102 L 827.181 375.187 L 820.905 405.52 L 814.852 425.068 L 805.2 445.646 L 791.949 467.254 L 778.006 499.154 L 773.082 523.553 L 777.95 533.865 L 792.608 530.09 L 805.131 540.577 L 809.68 561.658 L 806.293 593.124 L 793.793 629.736 L 782.121 653.576 L 780.655 671.977 L 789.394 684.938 M 823.869 104.402 L 841.234 138.255 L 844.587 159.171 L 833.928 167.151 L 816.788 173.537 L 809.06 191.248 L 808.111 212.495 L 813.94 237.279 L 811.702 252.421 L 811.52 267.834 L 817.361 287.152 L 829.15 309.249 L 839.019 324.687 L 841.75 346.524 L 837.342 374.759 L 833.04 402.834 L 833.963 422.734 L 829.001 443.017 L 818.155 463.684 L 802.395 497.982 L 795.687 525.577 L 800.278 538 L 816.167 535.25 L 828.701 543.045 L 832.631 561.615 L 828.018 590.794 L 813.728 626.377 L 801.037 651.587 L 799.905 670.983 L 810.333 684.563 M 846.076 107.083 L 859.967 145.672 L 860.802 168.517 L 848.582 175.616 L 832.282 178.673 L 827.487 194.146 L 829.891 215.084 L 839.496 241.489 L 834.426 259.88 L 829.697 278.334 L 831.166 300.317 L 839.183 324.198 L 849.534 335.766 L 852.137 353.55 L 846.99 377.548 L 844.338 403.004 L 850.668 422.326 L 849.939 440.935 L 842.149 458.832 L 826.234 493.289 L 818.777 523.429 L 823.232 539.255 L 839.599 540.768 L 850.536 546.073 L 852.495 561.093 L 845.566 585.747 L 829.49 617.674 L 817.287 643.582 L 817.01 663.898 L 828.659 678.622 M 869.932 111.265 L 878.071 147.976 L 875.286 171.087 L 861.577 180.596 L 848.077 186.123 L 847.952 202.26 L 853.729 223.662 L 865.406 250.328 L 856.279 272.379 L 847.539 293.297 L 846.678 315.332 L 854.165 336.977 L 865.988 346.702 L 869.998 362.964 L 866.195 385.763 L 863.071 410.67 L 867.01 428.613 L 865.16 443.757 L 857.522 456.1 L 844.062 484.185 L 838.589 512.541 L 843.676 531.724 L 859.322 541.732 L 866.829 548.359 L 865.568 560.989 L 855.657 579.645 L 838.818 604.32 L 829.679 628.515 L 830.661 648.66 L 841.766 664.754 M 891.785 113.298 L 895.611 147.858 L 890.645 170.962 L 876.887 182.609 L 866.17 190.362 L 869.154 206.947 L 876.74 228.595 L 888.927 255.308 L 876.468 280.59 L 865.066 303.486 L 863.224 325.087 L 871.362 344.106 L 884.043 352.62 L 888.848 367.993 L 885.777 390.225 L 882.003 415.548 L 884.064 433.606 L 881.609 446.776 L 874.635 455.058 L 863.464 476.748 L 859.496 502.606 L 864.735 524.43 L 879.181 542.219 L 884.615 551.767 L 881.515 563.636 L 870.001 577.921 L 853.236 596.514 L 846.656 619.03 L 848.392 639.036 L 858.446 656.534 M 911.634 113.182 L 912.587 145.319 L 906.881 168.143 L 894.513 181.654 L 886.562 191.388 L 891.092 208.205 L 898.924 229.885 L 910.058 256.428 L 894.994 284.512 L 882.279 308.901 L 880.804 329.582 L 890.772 345.585 L 903.7 353.52 L 908.688 368.637 L 905.735 390.936 L 901.135 417.64 L 901.833 437.305 L 899.285 449.994 L 893.491 455.707 L 884.438 470.978 L 881.497 493.623 L 886.409 517.373 L 899.175 542.229 L 903.894 556.296 L 900.335 569.033 L 888.598 580.576 L 872.744 594.256 L 868.217 615.126 L 870.203 635.028 L 878.7 653.962 M 929.48 110.918 L 929 140.359 L 923.992 162.63 L 914.455 177.733 L 909.252 189.202 L 913.765 206.035 L 920.281 227.53 L 928.801 253.687 L 911.856 284.147 L 899.176 309.542 L 899.419 328.816 L 912.397 341.413 L 924.959 349.403 L 929.516 364.896 L 926.07 387.894 L 920.467 416.944 L 920.315 439.709 L 918.188 453.41 L 914.087 458.047 L 906.986 466.875 L 904.592 485.591 L 908.698 510.554 L 919.306 541.762 L 924.666 561.948 L 922.027 577.18 L 911.448 587.609 L 897.343 597.545 L 894.364 616.803 L 896.092 636.634 L 902.529 657.038 M 945.322 106.505 L 944.849 132.977 L 941.98 154.423 L 936.713 170.845 L 934.24 183.803 L 937.174 200.437 L 940.812 221.532 L 945.154 247.087 L 927.054 279.493 L 915.759 305.408 L 919.067 322.789 L 936.236 331.592 L 947.819 340.268 L 951.334 356.771 L 946.782 381.1 L 939.998 413.461 L 939.51 440.818 L 938.319 457.023 L 936.425 462.077 L 931.106 464.438 L 928.78 478.512 L 931.602 503.972 L 939.572 540.818 L 946.93 568.721 L 946.592 588.077 L 938.551 599.021 L 927.033 606.383 L 925.096 624.061 L 926.062 643.854 L 929.931 665.762 M 958.935 100.819 L 960.139 123.525 L 960.492 143.387 L 959.996 160.406 L 959.479 175.02 L 959.53 192.36 L 959.458 213.728 L 959.263 239.123 L 942.009 271.931 L 933.808 297.069 L 940.933 312.103 L 961.956 317.519 L 970.749 327.779 L 971.96 345.927 L 965.587 371.963 L 958.317 407.967 L 959.354 440.844 L 960.427 460.961 L 961.538 468.32 L 957.274 465.248 L 954.004 474.177 L 954.83 498.443 L 959.753 538.046 L 970.246 573.8 L 973.565 598.463 L 969.621 612.116 L 961.543 619.5 L 959.511 636.623 L 958.857 656.737 L 959.58 679.841 M 972.122 99.457 L 976.679 116.018 L 978.522 132.131 L 977.65 147.796 L 974.561 166.246 L 972.641 189.674 L 972.526 215.344 L 974.215 243.257 L 965.12 270.117 L 962.117 290.273 L 969.564 303.659 L 985.668 310.822 L 985.448 324.177 L 981.328 343.966 L 973.307 370.187 L 970.648 406.074 L 979.881 441.046 L 986.798 464.456 L 991.4 476.302 L 984.908 474.525 L 978.103 480.422 L 976.1 498.672 L 978.897 529.277 L 990.947 564.164 L 997.479 591.36 L 998.369 610.839 L 993.768 626.334 L 988.482 648.304 L 984.674 670.257 L 982.345 692.194 M 988.354 98.3343 L 995.779 110.126 L 998.626 123.867 L 996.894 139.556 L 991.045 161.645 L 987.278 189.296 L 987.244 217.403 L 990.943 245.968 L 989.245 267.481 L 990.436 283.928 L 997.199 296.94 L 1007.62 306.966 L 1000.18 322.902 L 992.516 343.815 L 984.637 369.705 L 986.744 404.643 L 1001.74 440.379 L 1012.07 465.747 L 1017.73 480.748 L 1009.11 481.262 L 1000.03 486.182 L 996.454 500.473 L 998.385 524.135 L 1010.47 556.672 L 1018.65 584.87 L 1022.82 608.647 L 1020.96 630.97 L 1013.71 657.107 L 1008.04 680.222 L 1003.95 700.312 M 1007.63 97.451 L 1017.44 105.851 L 1020.8 118.595 L 1017.73 135.684 L 1008.93 161.216 L 1003.44 191.225 L 1003.61 219.905 L 1009.45 247.255 L 1014.38 264.022 L 1018.76 278.033 L 1023.84 291.943 L 1027.82 305.952 L 1014.94 323.952 L 1005.52 345.474 L 999.575 370.517 L 1006.61 403.675 L 1024.93 438.841 L 1036.23 464.835 L 1040.52 481.658 L 1029.88 485.458 L 1019.78 491.457 L 1015.89 503.844 L 1018.22 522.62 L 1028.81 551.324 L 1037.09 578.995 L 1042.97 605.541 L 1043.11 633.406 L 1035.19 663.033 L 1028.95 686.63 L 1024.39 704.197 M 1029.95 96.8069 L 1041.66 103.192 L 1045.06 116.317 L 1040.15 136.182 L 1028.21 164.96 L 1021.13 195.461 L 1021.64 222.848 L 1029.73 247.12 L 1040.54 259.742 L 1047.1 272.589 L 1049.49 288.669 L 1046.25 307.779 L 1029.73 327.328 L 1020.35 348.943 L 1018.12 372.624 L 1030.23 403.17 L 1049.45 436.433 L 1059.3 461.721 L 1059.77 479.032 L 1047.22 487.113 L 1037.36 496.248 L 1034.42 508.788 L 1038.4 524.733 L 1045.98 548.119 L 1052.79 573.735 L 1058.82 601.52 L 1060.22 633.644 L 1052.92 666.082 L 1047.4 689.483 L 1043.66 703.847 M 1055.32 96.4022 L 1068.44 102.148 L 1071.39 117.03 L 1064.16 141.049 L 1048.9 172.876 L 1040.35 202.004 L 1041.31 226.233 L 1051.79 245.562 L 1067.71 254.639 L 1075.45 267.595 L 1074.14 287.119 L 1062.93 312.449 L 1044.55 333.031 L 1037 354.223 L 1040.28 376.026 L 1057.63 403.128 L 1075.31 433.155 L 1081.26 456.403 L 1075.49 472.87 L 1061.12 486.228 L 1052.77 500.554 L 1052.03 515.302 L 1058.92 530.473 L 1061.96 547.058 L 1065.75 569.088 L 1070.38 596.585 L 1072.29 631.683 L 1066.91 666.254 L 1063.4 688.78 L 1061.78 699.262 M 1083.73 96.2367 L 1097.78 102.72 L 1099.79 120.737 L 1089.77 150.286 L 1070.99 184.964 L 1061.09 210.855 L 1062.63 230.061 L 1075.62 242.581 L 1095.89 248.713 L 1103.8 263.052 L 1097.79 287.292 L 1077.85 319.96 L 1059.4 341.059 L 1055.47 361.313 L 1066.05 380.722 L 1088.79 403.548 L 1102.5 429.007 L 1102.12 448.882 L 1087.67 463.173 L 1071.59 482.802 L 1066 504.375 L 1068.73 523.388 L 1079.79 539.841 L 1076.77 548.14 L 1075.96 565.057 L 1077.63 590.735 L 1079.33 627.523 L 1077.15 663.548 L 1076.95 684.522 L 1078.73 690.444 M 104.823 98.0089 L 128.526 96.2223 L 150.417 95.2095 L 170.497 94.9703 L 188.765 95.5048 L 205.221 96.8129 L 219.559 97.2737 L 232.84 89.9779 L 248.867 85.6258 L 267.64 84.2176 L 289.16 85.7531 L 313.426 90.2325 L 340.439 97.6556 L 359.983 95.326 L 379.836 93.7933 L 400.218 93.3434 L 421.129 93.9763 L 442.57 95.6919 L 464.541 98.4903 L 483.331 107.533 L 501.861 114.355 L 521.006 117.275 L 540.766 116.294 L 561.141 111.41 L 582.132 102.624 L 605.306 94.4123 L 628.35 89.731 L 650.047 87.1829 L 670.399 86.7683 L 689.404 88.4869 L 707.063 92.3389 L 724.746 96.1243 L 743.842 97.9895 L 763.302 99.75 L 783.127 101.406 L 803.316 102.956 L 823.869 104.402 L 846.076 107.083 L 869.932 111.265 L 891.785 113.298 L 911.634 113.182 L 929.48 110.918 L 945.322 106.505 L 958.935 100.819 L 972.122 99.457 L 988.354 98.3343 L 1007.63 97.451 L 1029.95 96.8069 L 1055.32 96.4022 L 1083.73 96.2367 M 115.784 113.322 L 136.832 111.299 L 156.578 110.112 L 175.02 109.76 L 192.159 110.244 L 207.995 111.563 L 223.126 113.103 L 241.636 111.546 L 260.726 110.418 L 280.396 109.72 L 300.646 109.451 L 321.475 109.613 L 342.884 110.205 L 364.429 109.132 L 386.611 108.8 L 409.44 109.265 L 432.918 110.527 L 457.045 112.586 L 481.819 115.441 L 501.567 118.205 L 519.973 119.8 L 538.296 120.251 L 556.536 119.556 L 574.694 117.717 L 592.769 114.733 L 613.86 111.435 L 636.41 108.553 L 658.67 105.869 L 680.641 103.38 L 702.322 101.088 L 723.714 98.9923 L 744.282 100.847 L 764.052 107.247 L 783.632 114.188 L 803.022 121.669 L 822.223 129.692 L 841.234 138.255 L 859.967 145.672 L 878.071 147.976 L 895.611 147.858 L 912.587 145.319 L 929 140.359 L 944.849 132.977 L 960.139 123.525 L 976.679 116.018 L 995.779 110.126 L 1017.44 105.851 L 1041.66 103.192 L 1068.44 102.148 L 1097.78 102.72 M 116.941 132.61 L 136.621 130.434 L 155.506 129.155 L 173.596 128.773 L 190.892 129.287 L 207.393 130.7 L 224.428 133.438 L 248.217 137.96 L 270.421 140.398 L 291.037 140.751 L 310.067 139.021 L 327.51 135.206 L 343.366 129.307 L 364.8 128.877 L 387.147 129.11 L 410.261 129.854 L 434.143 131.108 L 458.791 132.873 L 484.206 135.149 L 505.447 131.749 L 524.898 128.409 L 543.568 126.681 L 561.457 126.565 L 578.565 128.062 L 594.893 131.17 L 613.456 133.972 L 634.177 134.569 L 655.666 133.426 L 677.921 130.542 L 700.944 125.917 L 724.734 119.552 L 747.693 117.932 L 768.56 123.807 L 788.682 130.868 L 808.061 139.116 L 826.696 148.55 L 844.587 159.171 L 860.802 168.517 L 875.286 171.087 L 890.645 170.962 L 906.881 168.143 L 923.992 162.63 L 941.98 154.423 L 960.492 143.387 L 978.522 132.131 L 998.626 123.867 L 1020.8 118.595 L 1045.06 116.317 L 1071.39 117.03 L 1099.79 120.737 M 108.293 155.876 L 127.89 153.627 L 147.202 152.338 L 166.226 152.007 L 184.965 152.635 L 203.417 154.223 L 223.465 158.279 L 252.584 169.221 L 277.951 175.566 L 299.564 177.312 L 317.423 174.461 L 331.53 167.011 L 341.883 154.964 L 361.096 154.563 L 381.445 154.723 L 402.681 155.109 L 424.802 155.719 L 447.809 156.554 L 471.702 157.614 L 494.973 148.165 L 516.637 140.181 L 536.822 136.566 L 555.528 137.321 L 572.756 142.445 L 588.504 151.937 L 604.096 162.023 L 621.653 167.777 L 641.035 169.854 L 662.241 168.253 L 685.27 162.974 L 710.124 154.018 L 734.98 147.378 L 757.365 147.668 L 778.453 149.791 L 798.242 153.746 L 816.734 159.532 L 833.928 167.151 L 848.582 175.616 L 861.577 180.596 L 876.887 182.609 L 894.513 181.654 L 914.455 177.733 L 936.713 170.845 L 959.996 160.406 L 977.65 147.796 L 996.894 139.556 L 1017.73 135.684 L 1040.15 136.182 L 1064.16 141.049 L 1089.77 150.286 M 104.771 186.206 L 124.764 181.122 L 144.927 177.628 L 165.263 175.723 L 185.771 175.408 L 206.451 176.682 L 229.157 181.537 L 260.594 195.709 L 287.612 203.992 L 310.21 206.386 L 328.388 202.893 L 342.147 193.511 L 351.486 178.24 L 366.375 175.35 L 382.528 173.556 L 399.77 172.496 L 418.099 172.17 L 437.516 172.576 L 458.022 173.715 L 483.433 163.991 L 507.791 155.745 L 529.882 152.054 L 549.708 152.918 L 567.268 158.336 L 582.562 168.31 L 595.773 181.083 L 610.769 190.745 L 628.306 196.818 L 648.383 199.3 L 671.001 198.193 L 696.159 193.495 L 720.907 185.864 L 742.286 179.466 L 762.564 175.034 L 781.74 172.569 L 799.815 172.07 L 816.788 173.537 L 832.282 178.673 L 848.077 186.123 L 866.17 190.362 L 886.562 191.388 L 909.252 189.202 L 934.24 183.803 L 959.479 175.02 L 974.561 166.246 L 991.045 161.645 L 1008.93 161.216 L 1028.21 164.96 L 1048.9 172.876 L 1070.99 184.964 M 109.865 213.56 L 129.361 204.042 L 149.434 197.347 L 170.083 193.476 L 191.309 192.43 L 213.111 194.207 L 236.809 200.441 L 266.711 214.374 L 293.117 222.425 L 316.028 224.595 L 335.444 220.883 L 351.365 211.29 L 363.791 195.816 L 375.757 188.833 L 389.118 184.188 L 403.857 181.627 L 419.976 181.149 L 437.473 182.756 L 456.348 186.446 L 483.702 182.717 L 509.999 178.785 L 533.15 176.867 L 553.153 176.963 L 570.009 179.072 L 583.718 183.195 L 595.464 191.231 L 609.685 199.558 L 626.801 206.529 L 646.812 212.143 L 669.72 216.401 L 695.523 219.303 L 718.902 215.88 L 737.153 207.836 L 755.295 201.351 L 773.326 196.424 L 791.248 193.057 L 809.06 191.248 L 827.487 194.146 L 847.952 202.26 L 869.154 206.947 L 891.092 208.205 L 913.765 206.035 L 937.174 200.437 L 959.53 192.36 L 972.641 189.674 L 987.278 189.296 L 1003.44 191.225 L 1021.13 195.461 L 1040.35 202.004 L 1061.09 210.855 M 108.644 231.117 L 127.153 219.047 L 146.643 211.034 L 167.114 207.08 L 188.567 207.183 L 211.001 211.345 L 235.151 220.61 L 262.683 234.561 L 287.645 242.637 L 310.035 244.838 L 329.855 241.165 L 347.104 231.618 L 361.783 216.195 L 373.433 205.897 L 386.692 199.189 L 401.62 195.915 L 418.217 196.076 L 436.484 199.671 L 456.42 206.701 L 485.872 209.296 L 513.672 209.898 L 537.444 209.973 L 557.188 209.52 L 572.903 208.541 L 584.59 207.035 L 594.781 208.179 L 608.327 211.706 L 625.123 216.11 L 645.17 221.392 L 668.468 227.551 L 695.017 234.588 L 717.655 234.95 L 733.983 228.157 L 751.192 222.514 L 769.283 218.023 L 788.256 214.684 L 808.111 212.495 L 829.891 215.084 L 853.729 223.662 L 876.74 228.595 L 898.924 229.885 L 920.281 227.53 L 940.812 221.532 L 959.458 213.728 L 972.526 215.344 L 987.244 217.403 L 1003.61 219.905 L 1021.64 222.848 L 1041.31 226.233 L 1062.63 230.061 M 101.106 238.878 L 118.137 226.138 L 136.554 218.689 L 156.357 216.533 L 177.545 219.669 L 200.119 228.097 L 224.181 242.043 L 248.511 256.268 L 271.194 264.626 L 292.231 267.116 L 311.621 263.738 L 329.365 254.493 L 345.462 239.38 L 359.404 226.541 L 375.251 218.559 L 393.057 215.362 L 412.824 216.949 L 434.551 223.322 L 458.238 234.479 L 489.944 243.726 L 518.81 249.082 L 542.766 251.371 L 561.813 250.591 L 575.951 246.743 L 585.179 239.828 L 593.724 231.927 L 606.695 227.188 L 623.272 225.561 L 643.456 227.045 L 667.246 231.641 L 694.642 239.348 L 717.168 243.074 L 732.775 240.428 L 750.256 238.525 L 769.61 237.366 L 790.839 236.951 L 813.94 237.279 L 839.496 241.489 L 865.406 250.328 L 888.927 255.308 L 910.058 256.428 L 928.801 253.687 L 945.154 247.087 L 959.263 239.123 L 974.215 243.257 L 990.943 245.968 L 1009.45 247.255 L 1029.73 247.12 L 1051.79 245.562 L 1075.62 242.581 M 81.7813 255.891 L 98.536 248.293 L 117.472 244.719 L 138.59 245.167 L 161.889 249.637 L 187.369 258.131 L 214.284 270.66 L 236.606 282.349 L 257.133 289.414 L 275.865 291.854 L 292.801 289.67 L 307.943 282.86 L 321.289 271.426 L 337.075 262.214 L 355.153 256.222 L 375.47 253.378 L 398.024 253.679 L 422.815 257.128 L 449.844 263.723 L 484.075 268.684 L 514.998 271.27 L 540.748 272.136 L 561.325 271.284 L 576.73 268.714 L 586.961 264.425 L 593.705 258.892 L 603.808 254.808 L 617.984 252.538 L 636.234 252.083 L 658.558 253.442 L 684.954 256.615 L 709.174 256.442 L 728.19 252.335 L 747.95 249.88 L 768.456 249.076 L 789.706 249.923 L 811.702 252.421 L 834.426 259.88 L 856.279 272.379 L 876.468 280.59 L 894.994 284.512 L 911.856 284.147 L 927.054 279.493 L 942.009 271.931 L 965.12 270.117 L 989.245 267.481 L 1014.38 264.022 L 1040.54 259.742 L 1067.71 254.639 L 1095.89 248.713 M 72.9615 277.419 L 88.5099 275.027 L 107.142 274.705 L 128.857 276.454 L 153.656 280.274 L 181.539 286.165 L 211.277 294.257 L 233.662 302.289 L 253.81 307.276 L 271.722 309.218 L 287.397 308.115 L 300.836 303.967 L 312.039 296.775 L 327.879 293.446 L 346.342 290.935 L 367.316 289.117 L 390.803 287.993 L 416.801 287.563 L 445.311 287.826 L 480.759 285.896 L 512.714 283.982 L 539.401 282.76 L 560.82 282.229 L 576.971 282.389 L 587.855 283.24 L 593.288 283.956 L 601.441 283.973 L 614.165 283.545 L 631.46 282.672 L 653.327 281.353 L 679.764 279.59 L 706.661 274.073 L 729.557 266.991 L 751.491 262.826 L 772.462 261.578 L 792.472 263.248 L 811.52 267.834 L 829.697 278.334 L 847.539 293.297 L 865.066 303.486 L 882.279 308.901 L 899.176 309.542 L 915.759 305.408 L 933.808 297.069 L 962.117 290.273 L 990.436 283.928 L 1018.76 278.033 L 1047.1 272.589 L 1075.45 267.595 L 1103.8 263.052 M 78.3352 299.363 L 91.1776 300.819 L 108.006 302.395 L 128.819 304.089 L 153.619 305.902 L 182.404 307.833 L 213.937 310.276 L 238.182 314.298 L 259.751 316.856 L 278.641 317.948 L 294.854 317.576 L 308.389 315.739 L 319.247 312.436 L 333.757 315.782 L 351.141 317.568 L 371.312 317.595 L 394.269 315.863 L 420.011 312.37 L 448.54 307.119 L 483.688 298.78 L 515.143 292.77 L 541.235 289.861 L 561.965 290.054 L 577.333 293.347 L 587.338 299.741 L 592.041 307.168 L 599.99 311.782 L 613.009 313.691 L 631.097 312.895 L 654.253 309.394 L 682.478 303.188 L 712.721 292.851 L 738.986 283.344 L 762.583 278.021 L 783.511 276.881 L 801.771 279.925 L 817.361 287.152 L 831.166 300.317 L 846.678 315.332 L 863.224 325.087 L 880.804 329.582 L 899.419 328.816 L 919.067 322.789 L 940.933 312.103 L 969.564 303.659 L 997.199 296.94 L 1023.84 291.943 L 1049.49 288.669 L 1074.14 287.119 L 1097.79 287.292 M 95.6055 320.104 L 105.193 323.806 L 119.45 325.867 L 138.377 326.287 L 161.973 325.065 L 190.239 322.202 L 222.381 318.455 L 250.006 318.593 L 274.582 318.783 L 296.109 319.026 L 314.588 319.321 L 330.018 319.667 L 342.399 320.067 L 353.981 330.234 L 368.616 336.759 L 386.32 339.359 L 407.092 338.033 L 430.935 332.781 L 457.846 323.603 L 491.277 310.099 L 520.955 300.868 L 545.274 296.875 L 564.233 298.119 L 577.832 304.6 L 586.072 316.318 L 590.886 329.686 L 600.292 338.186 L 615.144 342.042 L 635.443 341.255 L 661.188 335.824 L 692.38 325.749 L 726.249 311.636 L 755.364 300.801 L 780.211 295.144 L 800.792 294.666 L 817.104 299.368 L 829.15 309.249 L 839.183 324.198 L 854.165 336.977 L 871.362 344.106 L 890.772 345.585 L 912.397 341.413 L 936.236 331.592 L 961.956 317.519 L 985.668 310.822 L 1007.62 306.966 L 1027.82 305.952 L 1046.25 307.779 L 1062.93 312.449 L 1077.85 319.96 M 95.6342 328.676 L 110.633 331.494 L 128.669 332.947 L 149.742 333.037 L 173.852 331.763 L 200.999 329.126 L 230.934 325.734 L 259.143 325.946 L 284.675 327.062 L 307.53 329.083 L 327.708 332.009 L 345.21 335.84 L 360.034 340.575 L 367.273 350.364 L 377.771 357.25 L 391.72 361.086 L 409.119 361.872 L 429.969 359.607 L 454.269 354.293 L 486.158 343.628 L 515.432 336.184 L 540.386 333.213 L 561.02 334.716 L 577.335 340.692 L 589.33 351.141 L 597.137 358.644 L 607.991 360.232 L 623.396 358.639 L 643.354 353.865 L 667.863 345.911 L 696.924 334.775 L 730.459 323.484 L 761.607 317.108 L 788.038 314.04 L 809.75 314.28 L 826.744 317.829 L 839.019 324.687 L 849.534 335.766 L 865.988 346.702 L 884.043 352.62 L 903.7 353.52 L 924.959 349.403 L 947.819 340.268 L 970.749 327.779 L 985.448 324.177 L 1000.18 322.902 L 1014.94 323.952 L 1029.73 327.328 L 1044.55 333.031 L 1059.4 341.059 M 96.8066 346.094 L 115.873 348.227 L 136.344 349.275 L 158.219 349.235 L 181.499 348.11 L 206.184 345.898 L 232.592 342.791 L 260.205 341.372 L 285.513 341.709 L 308.515 343.804 L 329.212 347.656 L 347.604 353.266 L 363.691 360.632 L 369.281 368.636 L 378.431 374.484 L 391.414 378.158 L 408.228 379.657 L 428.874 378.981 L 453.352 376.13 L 483.304 367.762 L 511.035 361.762 L 535.485 359.472 L 556.657 360.892 L 574.548 366.02 L 589.16 374.858 L 599.7 378.454 L 612.228 376.355 L 628.414 372.539 L 648.257 367.005 L 671.757 359.752 L 698.914 350.782 L 731.822 343.797 L 764.146 341.467 L 791.3 340.574 L 813.286 341.119 L 830.102 343.102 L 841.75 346.524 L 852.137 353.55 L 869.998 362.964 L 888.848 367.993 L 908.688 368.637 L 929.516 364.896 L 951.334 356.771 L 971.96 345.927 L 981.328 343.966 L 992.516 343.815 L 1005.52 345.474 L 1020.35 348.943 L 1037 354.223 L 1055.47 361.313 M 99.123 372.358 L 120.913 374.008 L 142.475 374.849 L 163.809 374.881 L 184.916 374.105 L 205.795 372.519 L 227.355 369.626 L 253.192 364.871 L 277.094 362.725 L 299.064 363.189 L 319.1 366.262 L 337.202 371.945 L 353.371 380.238 L 360.006 385.05 L 370.597 388.462 L 385.402 390.574 L 404.42 391.387 L 427.651 390.901 L 455.095 389.115 L 482.716 382.501 L 507.764 377.604 L 530.573 375.652 L 551.142 376.646 L 569.471 380.585 L 585.56 387.469 L 598.576 389.114 L 613.005 386.555 L 630.197 383.741 L 650.152 380.672 L 672.87 377.348 L 698.35 373.769 L 730.339 372.576 L 762.979 373.878 L 789.999 374.747 L 811.4 375.184 L 827.181 375.187 L 837.342 374.759 L 846.99 377.548 L 866.195 385.763 L 885.777 390.225 L 905.735 390.936 L 926.07 387.894 L 946.782 381.1 L 965.587 371.963 L 973.307 370.187 L 984.637 369.705 L 999.575 370.517 L 1018.12 372.624 L 1040.28 376.026 L 1066.05 380.722 M 103.43 400.556 L 124.102 402.596 L 144.167 404.226 L 163.625 405.445 L 182.476 406.252 L 200.721 406.649 L 219.587 405.165 L 244.441 396.4 L 267.271 390.704 L 288.078 388.075 L 306.862 388.513 L 323.622 392.019 L 338.359 398.592 L 347.25 399.269 L 360.292 399.151 L 377.655 398.41 L 399.337 397.048 L 425.339 395.064 L 455.66 392.458 L 481.237 387.226 L 503.502 383.425 L 524 381.787 L 542.731 382.313 L 559.696 385.002 L 574.894 389.855 L 589.474 391.824 L 606.037 391.78 L 624.623 392.209 L 645.232 393.111 L 667.863 394.487 L 692.518 396.336 L 723.145 399.911 L 754.968 403.766 L 781.869 405.986 L 803.848 406.571 L 820.905 405.52 L 833.04 402.834 L 844.338 403.004 L 863.071 410.67 L 882.003 415.548 L 901.135 417.64 L 920.467 416.944 L 939.998 413.461 L 958.317 407.967 L 970.648 406.074 L 986.744 404.643 L 1006.61 403.675 L 1030.23 403.17 L 1057.63 403.128 L 1088.79 403.548 M 106.312 420.301 L 122.258 422.667 L 139.206 425.209 L 157.156 427.929 L 176.108 430.826 L 196.063 433.901 L 218.013 434.981 L 244.747 424.706 L 268.635 417.331 L 289.678 412.854 L 307.874 411.278 L 323.224 412.601 L 335.729 416.823 L 345.367 414.879 L 358.914 412.495 L 376.451 409.853 L 397.978 406.953 L 423.495 403.794 L 453.002 400.378 L 478.256 396.833 L 499.973 394.518 L 519.497 393.558 L 536.828 393.951 L 551.965 395.697 L 564.908 398.797 L 579.935 401.57 L 598.187 403.686 L 617.967 405.838 L 639.275 408.027 L 662.11 410.253 L 686.472 412.515 L 714.376 416.625 L 743.1 421.403 L 769.42 424.403 L 793.337 425.625 L 814.852 425.068 L 833.963 422.734 L 850.668 422.326 L 867.01 428.613 L 884.064 433.606 L 901.833 437.305 L 920.315 439.709 L 939.51 440.818 L 959.354 440.844 L 979.881 441.046 L 1001.74 440.379 L 1024.93 438.841 L 1049.45 436.433 L 1075.31 433.155 L 1102.5 429.007 M 104.693 439.759 L 117.019 440.722 L 131.957 442.451 L 149.505 444.946 L 169.666 448.207 L 192.438 452.233 L 218.439 454.681 L 247.186 444.889 L 272.264 437.829 L 293.673 433.5 L 311.414 431.903 L 325.487 433.037 L 335.891 436.903 L 346.306 434.091 L 360.384 431.187 L 378.122 428.388 L 399.52 425.695 L 424.579 423.107 L 453.298 420.625 L 479.331 419.055 L 501.855 418.174 L 521.758 417.838 L 539.041 418.044 L 553.705 418.795 L 565.748 420.089 L 581.214 422.768 L 600.399 425.68 L 620.616 428.192 L 641.865 430.304 L 664.147 432.017 L 687.46 433.329 L 711.154 436.952 L 734.491 442.007 L 757.944 445.142 L 781.514 446.354 L 805.2 445.646 L 829.001 443.017 L 849.939 440.935 L 865.16 443.757 L 881.609 446.776 L 899.285 449.994 L 918.188 453.41 L 938.319 457.023 L 960.427 460.961 L 986.798 464.456 L 1012.07 465.747 L 1036.23 464.835 L 1059.3 461.721 L 1081.26 456.403 L 1102.12 448.882 M 98.574 458.93 L 108.387 456.764 L 122.42 455.953 L 140.674 456.496 L 163.149 458.393 L 189.845 461.645 L 220.865 464.263 L 251.756 456.95 L 278.156 452.199 L 300.065 450.013 L 317.483 450.389 L 330.41 453.33 L 338.847 458.833 L 350.067 456.903 L 364.702 455.224 L 382.667 454.014 L 403.963 453.274 L 428.59 453.003 L 456.547 453.201 L 484.462 453.892 L 509.145 454.393 L 530.782 454.627 L 549.372 454.594 L 564.915 454.296 L 577.411 453.73 L 593.312 455.419 L 612.672 457.763 L 632.569 459.271 L 653.003 459.943 L 673.974 459.777 L 695.482 458.776 L 713.476 460.893 L 729.142 465.579 L 747.442 468.202 L 768.378 468.76 L 791.949 467.254 L 818.155 463.684 L 842.149 458.832 L 857.522 456.1 L 874.635 455.058 L 893.491 455.707 L 914.087 458.047 L 936.425 462.077 L 961.538 468.32 L 991.4 476.302 L 1017.73 480.748 L 1040.52 481.658 L 1059.77 479.032 L 1075.49 472.87 L 1087.67 463.173 M 91.3944 487.636 L 100.828 481.186 L 114.188 475.988 L 131.473 472.042 L 152.685 469.347 L 177.821 467.904 L 206.961 467.018 L 236.216 463.652 L 261.901 462.324 L 284.016 463.034 L 302.561 465.783 L 317.537 470.57 L 328.943 477.396 L 344.629 476.883 L 363.435 476.407 L 385.247 476.172 L 410.066 476.179 L 437.891 476.428 L 468.723 476.919 L 497.066 479.794 L 521.882 482.912 L 543.907 485.717 L 563.143 488.211 L 579.588 490.394 L 593.243 492.264 L 608.741 495.531 L 626.378 498.288 L 644.108 499.346 L 661.931 498.705 L 679.847 496.365 L 697.856 492.326 L 711.838 491.73 L 723.672 495.403 L 738.644 497.864 L 756.755 499.115 L 778.006 499.154 L 802.395 497.982 L 826.234 493.289 L 844.062 484.185 L 863.464 476.748 L 884.438 470.978 L 906.986 466.875 L 931.106 464.438 L 957.274 465.248 L 984.908 474.525 L 1009.11 481.262 L 1029.88 485.458 L 1047.22 487.113 L 1061.12 486.228 L 1071.59 482.802 M 89.2029 513.628 L 100.234 505.82 L 114.028 498.847 L 130.585 492.707 L 149.904 487.402 L 171.987 482.932 L 196.895 479.558 L 222.309 478.901 L 245.87 479.594 L 267.576 481.637 L 287.428 485.032 L 305.426 489.777 L 321.57 495.873 L 340.478 496.538 L 362.129 496.802 L 386.466 496.812 L 413.487 496.568 L 443.193 496.069 L 475.583 495.315 L 502.886 498.571 L 526.613 502.794 L 548.116 507.008 L 567.398 511.214 L 584.456 515.411 L 599.292 519.599 L 615.194 525.422 L 632.247 529.884 L 648.973 531.59 L 665.372 530.541 L 681.444 526.735 L 697.189 520.174 L 709.909 516.41 L 721.616 518.052 L 736.047 519.79 L 753.202 521.624 L 773.082 523.553 L 795.687 525.577 L 818.777 523.429 L 838.589 512.541 L 859.496 502.606 L 881.497 493.623 L 904.592 485.591 L 928.78 478.512 L 954.004 474.177 L 978.103 480.422 L 1000.03 486.182 L 1019.78 491.457 L 1037.36 496.248 L 1052.77 500.554 L 1066 504.375 M 91.902 531.148 L 106.111 525.464 L 121.92 520.197 L 139.33 515.346 L 158.339 510.912 L 178.949 506.895 L 200.907 503.799 L 221.958 504.295 L 242.869 505.455 L 263.643 507.278 L 284.278 509.763 L 304.774 512.912 L 325.133 516.723 L 343.82 518.612 L 364.803 519.703 L 388.149 520.043 L 413.859 519.632 L 441.932 518.469 L 472.368 516.555 L 498.067 518.201 L 520.829 521.051 L 541.937 524.195 L 561.389 527.634 L 579.187 531.367 L 595.329 535.395 L 613.038 543.226 L 631.617 549.911 L 649.449 552.784 L 666.534 551.845 L 682.871 547.093 L 698.462 538.528 L 711.741 531.347 L 724.828 529.873 L 740.225 529.801 L 757.932 531.132 L 777.95 533.865 L 800.278 538 L 823.232 539.255 L 843.676 531.724 L 864.735 524.43 L 886.409 517.373 L 908.698 510.554 L 931.602 503.972 L 954.83 498.443 L 976.1 498.672 L 996.454 500.473 L 1015.89 503.844 L 1034.42 508.788 L 1052.03 515.302 L 1068.73 523.388 M 99.4916 540.197 L 118.46 540.118 L 137.866 540.038 L 157.709 539.957 L 177.989 539.876 L 198.707 539.794 L 218.997 539.739 L 235.16 539.836 L 252.9 539.907 L 272.217 539.954 L 293.111 539.977 L 315.583 539.974 L 339.632 539.947 L 354.654 543.105 L 371.455 545.108 L 390.298 545.863 L 411.183 545.37 L 434.109 543.63 L 459.077 540.641 L 482.606 538.683 L 504.531 537.681 L 525.368 537.277 L 545.118 537.47 L 563.781 538.261 L 581.356 539.65 L 602.276 548.942 L 624.49 558.37 L 645.537 562.928 L 665.416 562.617 L 684.128 557.437 L 701.673 547.388 L 717.334 536.541 L 733.308 530.865 L 751.179 527.898 L 770.946 527.64 L 792.608 530.09 L 816.167 535.25 L 839.599 540.768 L 859.322 541.732 L 879.181 542.219 L 899.175 542.229 L 919.306 541.762 L 939.572 540.818 L 959.753 538.046 L 978.897 529.277 L 998.385 524.135 L 1018.22 522.62 L 1038.4 524.733 L 1058.92 530.473 L 1079.79 539.841 M 103.6 566.341 L 120.59 567.718 L 138.538 569.218 L 157.445 570.842 L 177.31 572.589 L 198.133 574.46 L 219.021 575.984 L 236.079 574.641 L 255.146 573.152 L 276.223 571.516 L 299.31 569.733 L 324.406 567.803 L 351.512 565.727 L 369.698 568.967 L 388.155 570.884 L 407.13 571.33 L 426.623 570.305 L 446.634 567.81 L 467.163 563.844 L 486.572 560.006 L 505.542 556.724 L 524.398 553.796 L 543.14 551.222 L 561.767 549.003 L 580.28 547.139 L 604.21 552.152 L 629.45 558.287 L 652.593 561.33 L 673.64 561.281 L 692.592 558.141 L 709.448 551.908 L 725.388 545.301 L 743.143 541.931 L 762.352 540.02 L 783.015 539.569 L 805.131 540.577 L 828.701 543.045 L 850.536 546.073 L 866.829 548.359 L 884.615 551.767 L 903.894 556.296 L 924.666 561.948 L 946.93 568.721 L 970.246 573.8 L 990.947 564.164 L 1010.47 556.672 L 1028.81 551.324 L 1045.98 548.119 L 1061.96 547.058 L 1076.77 548.14 M 104.319 587.969 L 119.85 589.496 L 136.883 591.277 L 155.416 593.313 L 175.45 595.605 L 196.984 598.151 L 218.811 600.342 L 235.385 598.819 L 254.384 597.034 L 275.809 594.988 L 299.659 592.681 L 325.935 590.112 L 354.637 587.282 L 376.576 590.941 L 397.314 593.09 L 417.03 593.548 L 435.725 592.317 L 453.4 589.395 L 470.054 584.783 L 486.16 580.759 L 503.063 577.202 L 520.83 573.749 L 539.461 570.4 L 558.955 567.156 L 579.313 564.015 L 606.004 565.314 L 633.375 567.972 L 657.714 569.351 L 679.023 569.452 L 697.3 568.274 L 712.546 565.816 L 727.983 563.604 L 746.891 562.851 L 766.809 562.276 L 787.739 561.878 L 809.68 561.658 L 832.631 561.615 L 852.495 561.093 L 865.568 560.989 L 881.515 563.636 L 900.335 569.033 L 922.027 577.18 L 946.592 588.077 L 973.565 598.463 L 997.479 591.36 L 1018.65 584.87 L 1037.09 578.995 L 1052.79 573.735 L 1065.75 569.088 L 1075.96 565.057 M 101.703 604.778 L 116.396 605.217 L 133.132 606.041 L 151.912 607.252 L 172.734 608.849 L 195.6 610.832 L 218.689 612.81 L 233.313 612.376 L 250.778 611.567 L 271.085 610.382 L 294.233 608.82 L 320.223 606.882 L 349.055 604.569 L 375.232 609.001 L 398.78 611.715 L 419.768 612.52 L 438.197 611.414 L 454.066 608.399 L 467.375 603.474 L 481.026 600.933 L 496.782 599.083 L 514.38 597.087 L 533.819 594.946 L 555.101 592.658 L 578.225 590.224 L 607.439 588.445 L 636.062 587.521 L 660.72 587.131 L 681.411 587.276 L 698.135 587.955 L 710.893 589.168 L 725.078 591.402 L 744.53 593.489 L 764.549 594.472 L 785.137 594.35 L 806.293 593.124 L 828.018 590.794 L 845.566 585.747 L 855.657 579.645 L 870.001 577.921 L 888.598 580.576 L 911.448 587.609 L 938.551 599.021 L 969.621 612.116 L 998.369 610.839 L 1022.82 608.647 L 1042.97 605.541 L 1058.82 601.52 L 1070.38 596.585 L 1077.63 590.735 M 96.2191 615.788 L 111.837 613.346 L 129.55 611.653 L 149.359 610.708 L 171.264 610.511 L 195.264 611.062 L 219.031 612.304 L 231.485 613.357 L 247.125 614.119 L 265.951 614.591 L 287.964 614.773 L 313.162 614.664 L 341.547 614.265 L 370.154 620.598 L 395.322 625.221 L 417.044 627.945 L 435.32 628.772 L 450.15 627.7 L 461.534 624.73 L 473.975 625.229 L 489.357 626.377 L 507.184 627.051 L 527.456 627.252 L 550.173 626.979 L 575.336 626.233 L 605.998 622.87 L 634.985 619.426 L 659.353 617.422 L 679.103 616.86 L 694.234 617.74 L 704.747 620.061 L 717.217 624.476 L 735.886 628.595 L 754.872 630.845 L 774.174 631.226 L 793.793 629.736 L 813.728 626.377 L 829.49 617.674 L 838.818 604.32 L 853.236 596.514 L 872.744 594.256 L 897.343 597.545 L 927.033 606.383 L 961.543 619.5 L 993.768 626.334 L 1020.96 630.97 L 1043.11 633.406 L 1060.22 633.644 L 1072.29 631.683 L 1079.33 627.523 M 93.1807 627.296 L 112.266 621.132 L 132.289 616.649 L 153.248 613.848 L 175.144 612.728 L 197.976 613.29 L 219.818 615.141 L 232.358 615.518 L 248.254 616.185 L 267.504 617.145 L 290.109 618.396 L 316.068 619.94 L 345.383 621.774 L 371.389 630.012 L 394.589 637.101 L 415.071 642.875 L 432.836 647.333 L 447.884 650.475 L 460.215 652.302 L 473.126 655.442 L 488.47 658.176 L 505.934 659.917 L 525.519 660.667 L 547.223 660.425 L 571.048 659.192 L 601.116 657 L 630.078 654.737 L 654.472 652.58 L 674.296 650.53 L 689.551 648.586 L 700.237 646.748 L 711.829 647.958 L 728.596 651.398 L 745.901 653.481 L 763.742 654.207 L 782.121 653.576 L 801.037 651.587 L 817.287 643.582 L 829.679 628.515 L 846.656 619.03 L 868.217 615.126 L 894.364 616.803 L 925.096 624.061 L 959.511 636.623 L 988.482 648.304 L 1013.71 657.107 L 1035.19 663.033 L 1052.92 666.082 L 1066.91 666.254 L 1077.15 663.548 M 93.9888 646.007 L 115.759 637.627 L 137.307 631.861 L 158.633 628.71 L 179.737 628.174 L 200.619 630.253 L 219.796 633.905 L 231.954 632.904 L 247.636 632.777 L 266.841 633.523 L 289.569 635.144 L 315.82 637.638 L 345.595 641.006 L 369.723 648.004 L 391.706 654.356 L 411.699 659.974 L 429.705 664.86 L 445.721 669.013 L 459.749 672.433 L 473.74 677.097 L 489.625 680.788 L 507.304 682.969 L 526.779 683.64 L 548.049 682.801 L 571.114 680.452 L 600.748 680.061 L 629.62 680.304 L 653.972 679.319 L 673.804 677.104 L 689.115 673.661 L 699.906 668.989 L 711.232 667.504 L 727.451 669.89 L 744.428 671.43 L 762.162 672.126 L 780.655 671.977 L 799.905 670.983 L 817.01 663.898 L 830.661 648.66 L 848.392 639.036 L 870.203 635.028 L 896.092 636.634 L 926.062 643.854 L 958.857 656.737 L 984.674 670.257 L 1008.04 680.222 L 1028.95 686.63 L 1047.4 689.483 L 1063.4 688.78 L 1076.95 684.522 M 98.6433 671.921 L 122.315 662.83 L 144.606 657.288 L 165.515 655.294 L 185.044 656.848 L 203.191 661.949 L 218.965 668.595 L 230.272 665.516 L 245.271 663.893 L 263.962 663.726 L 286.344 665.015 L 312.418 667.759 L 342.184 671.959 L 365.156 674.574 L 386.672 676.984 L 406.928 679.244 L 425.924 681.353 L 443.66 683.313 L 460.136 685.122 L 475.819 690.194 L 492.822 694.215 L 511.295 696.207 L 531.238 696.171 L 552.651 694.107 L 575.534 690.014 L 604.897 692.053 L 633.611 696.127 L 657.853 697.638 L 677.624 696.584 L 692.925 692.966 L 703.754 686.784 L 715.426 683.116 L 732.45 684.07 L 750.453 684.692 L 769.434 684.982 L 789.394 684.938 L 810.333 684.563 L 828.659 678.622 L 841.766 664.754 L 858.446 656.534 L 878.7 653.962 L 902.529 657.038 L 929.931 665.762 L 959.58 679.841 L 982.345 692.194 L 1003.95 700.312 L 1024.39 704.197 L 1043.66 703.847 L 1061.78 699.262 L 1078.73 690.444" stroke="black" stroke-width="1" fill="none"></path></svg>
