<svg version="1.1" xmlns:xlink="http://www.w3.org/1999/xlink" xmlns="http://www.w3.org/2000/svg"><circle cx="100" cy="30" r="15" stroke="black" stroke-width="1" fill="none"></circle><polyline points="0,100 50,91.7735 100,73.5791 150,92.223 200,95.5148 250,55.0372 300,50.1168 350,65.5412 400,69.1747 450,100" stroke="black" stroke-width="1" fill="none"></polyline><polyline points="116.742,115.038 444.666,180.418 336.001,142.346 187.308,182.01 139.299,180.399 82.0026,143.913 239.483,171.354 350.869,128.702 449.511,163.394 101.922,104.797 77.725,152.69 122.295,102.64 300.736,100.54 224.875,195.024 180.079,169.723 378.286,122.786 42.8784,162.817 170.623,174.098 195.621,197.977 344.831,152.085 380.239,199.542 90.5186,140.184 123.162,148.264 212.455,172.505 86.8833,173.593 114.729,165.226 126.608,185.378 72.7177,193.119 197.959,145.493 382.218,101.49 296.033,136.805 197.628,145.531 52.9985,104.173 444.326,166.62 6.40827,176.056 166.658,195.278 62.5193,173.558 367.641,158.376 237.449,175.686 373.653,169.045 263.304,156.584 387.369,177.695 105.118,149.541 165.919,157.929 39.1338,106.764 203.47,125.674 166.878,164.203 308.387,128.323 87.8011,170.728 318.992,179.883 268.844,141.385 278.594,143.411 196.963,179.475 160.014,144.422 323.47,187.738 315.259,102.964 242.87,180.91 248.852,187.726 231.501,142.31 210.146,163.97 90.9235,100.318 36.5948,185.98 428.079,152.887 372.719,162.895 187.522,157.439 13.7577,175.714 186.496,124.411 291.565,115.053 11.857,108.676 240.683,161.742 37.233,117.86 153.608,112.531 85.7539,172.011 76.6505,190.756 180.288,130.657 356.566,163.579 322.15,173.915 67.9579,148.721 144.762,161.608 180.616,186.801 335.454,104.799 148.481,112.722 368.086,106.372 3.69156,124.427 316.041,102.131 410.995,159.98 219.278,163.976 295.954,130.939 71.1947,173.288 106.798,176.542 85.943,107.003 408.549,182.081 135.746,150.742 448.283,140.51 145.463,172.947 111.636,169.78 339.301,198.708 147.671,175.576 152.384,121.706 180.412,160.62" stroke="black" stroke-width="1" fill="none"></polyline><line x1="0" y1="100" x2="450" y2="100" stroke="black" stroke-width="1" fill="none"></line></svg>
