<svg version="1.1" xmlns:xlink="http://www.w3.org/1999/xlink" xmlns="http://www.w3.org/2000/svg"><path d="M 308 320 L 308 300 M 310 320 L 310 300 M 312 320 L 312 300 M 308 300 A 12 12 0 0 1 320 288 M 310 300 A 10 10 0 0 1 320 290 M 312 300 A 8 8 0 0 1 320 292 M 320 288 L 340 288 M 320 290 L 340 290 M 320 292 L 340 292 M 340 288 L 360 288 M 340 290 L 360 290 M 340 292 L 360 292 M 360 288 A 12 12 0 0 1 372 300 M 360 290 A 10 10 0 0 1 370 300 M 360 292 A 8 8 0 0 1 368 300 M 372 300 L 372 320 M 370 300 L 370 320 M 368 300 L 368 320 M 372 320 L 372 340 M 370 320 L 370 340 M 368 320 L 368 340 M 372 340 L 372 360 M 370 340 L 370 360 M 368 340 L 368 360 M 372 360 A 12 12 0 0 1 360 372 M 370 360 A 10 10 0 0 1 360 370 M 368 360 A 8 8 0 0 1 360 368 M 360 372 A 12 12 0 0 1 348 360 M 360 370 A 10 10 0 0 1 350 360 M 360 368 A 8 8 0 0 1 352 360 M 348 360 L 348 340 M 350 360 L 350 340 M 352 360 L 352 340 M 348 340 A 8 8 0 0 0 340 332 M 350 340 A 10 10 0 0 0 340 330 M 352 340 A 12 12 0 0 0 340 328 M 340 332 L 320 332 M 340 330 L 320 330 M 340 328 L 320 328 M 320 332 L 300 332 M 320 330 L 300 330 M 320 328 L 300 328 M 300 332 A 12 12 0 0 1 288 320 M 300 330 A 10 10 0 0 1 290 320 M 300 328 A 8 8 0 0 1 292 320 M 288 320 A 12 12 0 0 1 300 308 M 290 320 A 10 10 0 0 1 300 310 M 292 320 A 8 8 0 0 1 300 312 M 300 308 A 12 12 0 0 1 312 320 M 300 310 A 10 10 0 0 1 310 320 M 300 312 A 8 8 0 0 1 308 320 M 312 320 A 8 8 0 0 0 320 328 M 310 320 A 10 10 0 0 0 320 330 M 308 320 A 12 12 0 0 0 320 332 M 320 328 A 8 8 0 0 0 328 320 M 320 330 A 10 10 0 0 0 330 320 M 320 332 A 12 12 0 0 0 332 320 M 328 320 A 8 8 0 0 0 320 312 M 330 320 A 10 10 0 0 0 320 310 M 332 320 A 12 12 0 0 0 320 308 M 320 312 L 300 312 M 320 310 L 300 310 M 320 308 L 300 308 M 300 312 A 8 8 0 0 0 292 320 M 300 310 A 10 10 0 0 0 290 320 M 300 308 A 12 12 0 0 0 288 320 M 292 320 L 292 340 M 290 320 L 290 340 M 288 320 L 288 340 M 292 340 L 292 360 M 290 340 L 290 360 M 288 340 L 288 360 M 292 360 A 12 12 0 0 1 280 372 M 290 360 A 10 10 0 0 1 280 370 M 288 360 A 8 8 0 0 1 280 368 M 280 372 L 260 372 M 280 370 L 260 370 M 280 368 L 260 368 M 260 372 L 240 372 M 260 370 L 240 370 M 260 368 L 240 368 M 240 372 A 12 12 0 0 1 228 360 M 240 370 A 10 10 0 0 1 230 360 M 240 368 A 8 8 0 0 1 232 360 M 228 360 A 12 12 0 0 1 240 348 M 230 360 A 10 10 0 0 1 240 350 M 232 360 A 8 8 0 0 1 240 352 M 240 348 A 8 8 0 0 0 248 340 M 240 350 A 10 10 0 0 0 250 340 M 240 352 A 12 12 0 0 0 252 340 M 248 340 A 12 12 0 0 1 260 328 M 250 340 A 10 10 0 0 1 260 330 M 252 340 A 8 8 0 0 1 260 332 M 260 328 A 12 12 0 0 1 272 340 M 260 330 A 10 10 0 0 1 270 340 M 260 332 A 8 8 0 0 1 268 340 M 272 340 L 272 360 M 270 340 L 270 360 M 268 340 L 268 360 M 272 360 A 8 8 0 0 0 280 368 M 270 360 A 10 10 0 0 0 280 370 M 268 360 A 12 12 0 0 0 280 372 M 280 368 A 12 12 0 0 1 292 380 M 280 370 A 10 10 0 0 1 290 380 M 280 372 A 8 8 0 0 1 288 380 M 292 380 A 12 12 0 0 1 280 392 M 290 380 A 10 10 0 0 1 280 390 M 288 380 A 8 8 0 0 1 280 388 M 280 392 A 8 8 0 0 0 272 400 M 280 390 A 10 10 0 0 0 270 400 M 280 388 A 12 12 0 0 0 268 400 M 272 400 A 8 8 0 0 0 280 408 M 270 400 A 10 10 0 0 0 280 410 M 268 400 A 12 12 0 0 0 280 412 M 280 408 A 12 12 0 0 1 292 420 M 280 410 A 10 10 0 0 1 290 420 M 280 412 A 8 8 0 0 1 288 420 M 292 420 A 8 8 0 0 0 300 428 M 290 420 A 10 10 0 0 0 300 430 M 288 420 A 12 12 0 0 0 300 432 M 300 428 A 12 12 0 0 1 312 440 M 300 430 A 10 10 0 0 1 310 440 M 300 432 A 8 8 0 0 1 308 440 M 312 440 L 312 460 M 310 440 L 310 460 M 308 440 L 308 460 M 312 460 L 312 480 M 310 460 L 310 480 M 308 460 L 308 480 M 312 480 A 12 12 0 0 1 300 492 M 310 480 A 10 10 0 0 1 300 490 M 308 480 A 8 8 0 0 1 300 488 M 300 492 A 8 8 0 0 0 292 500 M 300 490 A 10 10 0 0 0 290 500 M 300 488 A 12 12 0 0 0 288 500 M 292 500 L 292 520 M 290 500 L 290 520 M 288 500 L 288 520 M 292 520 A 12 12 0 0 1 280 532 M 290 520 A 10 10 0 0 1 280 530 M 288 520 A 8 8 0 0 1 280 528 M 280 532 A 12 12 0 0 1 268 520 M 280 530 A 10 10 0 0 1 270 520 M 280 528 A 8 8 0 0 1 272 520 M 268 520 A 12 12 0 0 1 280 508 M 270 520 A 10 10 0 0 1 280 510 M 272 520 A 8 8 0 0 1 280 512 M 280 508 A 12 12 0 0 1 292 520 M 280 510 A 10 10 0 0 1 290 520 M 280 512 A 8 8 0 0 1 288 520 M 292 520 A 12 12 0 0 1 280 532 M 290 520 A 10 10 0 0 1 280 530 M 288 520 A 8 8 0 0 1 280 528 M 280 532 L 260 532 M 280 530 L 260 530 M 280 528 L 260 528 M 260 532 L 240 532 M 260 530 L 240 530 M 260 528 L 240 528 M 240 532 L 220 532 M 240 530 L 220 530 M 240 528 L 220 528 M 220 532 L 200 532 M 220 530 L 200 530 M 220 528 L 200 528 M 200 532 L 180 532 M 200 530 L 180 530 M 200 528 L 180 528 M 180 532 L 160 532 M 180 530 L 160 530 M 180 528 L 160 528 M 160 532 L 140 532 M 160 530 L 140 530 M 160 528 L 140 528 M 140 532 A 12 12 0 0 1 128 520 M 140 530 A 10 10 0 0 1 130 520 M 140 528 A 8 8 0 0 1 132 520 M 128 520 A 12 12 0 0 1 140 508 M 130 520 A 10 10 0 0 1 140 510 M 132 520 A 8 8 0 0 1 140 512 M 140 508 A 12 12 0 0 1 152 520 M 140 510 A 10 10 0 0 1 150 520 M 140 512 A 8 8 0 0 1 148 520 M 152 520 A 8 8 0 0 0 160 528 M 150 520 A 10 10 0 0 0 160 530 M 148 520 A 12 12 0 0 0 160 532 M 160 528 A 8 8 0 0 0 168 520 M 160 530 A 10 10 0 0 0 170 520 M 160 532 A 12 12 0 0 0 172 520 M 168 520 L 168 500 M 170 520 L 170 500 M 172 520 L 172 500 M 168 500 A 12 12 0 0 1 180 488 M 170 500 A 10 10 0 0 1 180 490 M 172 500 A 8 8 0 0 1 180 492 M 180 488 L 200 488 M 180 490 L 200 490 M 180 492 L 200 492 M 200 488 A 12 12 0 0 1 212 500 M 200 490 A 10 10 0 0 1 210 500 M 200 492 A 8 8 0 0 1 208 500 M 212 500 L 212 520 M 210 500 L 210 520 M 208 500 L 208 520 M 212 520 A 12 12 0 0 1 200 532 M 210 520 A 10 10 0 0 1 200 530 M 208 520 A 8 8 0 0 1 200 528 M 200 532 A 8 8 0 0 0 192 540 M 200 530 A 10 10 0 0 0 190 540 M 200 528 A 12 12 0 0 0 188 540 M 192 540 A 12 12 0 0 1 180 552 M 190 540 A 10 10 0 0 1 180 550 M 188 540 A 8 8 0 0 1 180 548 M 180 552 A 12 12 0 0 1 168 540 M 180 550 A 10 10 0 0 1 170 540 M 180 548 A 8 8 0 0 1 172 540 M 168 540 A 8 8 0 0 0 160 532 M 170 540 A 10 10 0 0 0 160 530 M 172 540 A 12 12 0 0 0 160 528 M 160 532 A 8 8 0 0 0 152 540 M 160 530 A 10 10 0 0 0 150 540 M 160 528 A 12 12 0 0 0 148 540 M 152 540 A 12 12 0 0 1 140 552 M 150 540 A 10 10 0 0 1 140 550 M 148 540 A 8 8 0 0 1 140 548 M 140 552 A 12 12 0 0 1 128 540 M 140 550 A 10 10 0 0 1 130 540 M 140 548 A 8 8 0 0 1 132 540 M 128 540 A 8 8 0 0 0 120 532 M 130 540 A 10 10 0 0 0 120 530 M 132 540 A 12 12 0 0 0 120 528 M 120 532 L 100 532 M 120 530 L 100 530 M 120 528 L 100 528 M 100 532 A 12 12 0 0 1 88 520 M 100 530 A 10 10 0 0 1 90 520 M 100 528 A 8 8 0 0 1 92 520 M 88 520 A 12 12 0 0 1 100 508 M 90 520 A 10 10 0 0 1 100 510 M 92 520 A 8 8 0 0 1 100 512 M 100 508 L 120 508 M 100 510 L 120 510 M 100 512 L 120 512 M 120 508 L 140 508 M 120 510 L 140 510 M 120 512 L 140 512 M 140 508 A 8 8 0 0 0 148 500 M 140 510 A 10 10 0 0 0 150 500 M 140 512 A 12 12 0 0 0 152 500 M 148 500 A 8 8 0 0 0 140 492 M 150 500 A 10 10 0 0 0 140 490 M 152 500 A 12 12 0 0 0 140 488 M 140 492 L 120 492 M 140 490 L 120 490 M 140 488 L 120 488 M 120 492 L 100 492 M 120 490 L 100 490 M 120 488 L 100 488 M 100 492 A 12 12 0 0 1 88 480 M 100 490 A 10 10 0 0 1 90 480 M 100 488 A 8 8 0 0 1 92 480 M 88 480 A 12 12 0 0 1 100 468 M 90 480 A 10 10 0 0 1 100 470 M 92 480 A 8 8 0 0 1 100 472 M 100 468 A 12 12 0 0 1 112 480 M 100 470 A 10 10 0 0 1 110 480 M 100 472 A 8 8 0 0 1 108 480 M 112 480 A 12 12 0 0 1 100 492 M 110 480 A 10 10 0 0 1 100 490 M 108 480 A 8 8 0 0 1 100 488 M 100 492 A 12 12 0 0 1 88 480 M 100 490 A 10 10 0 0 1 90 480 M 100 488 A 8 8 0 0 1 92 480 M 88 480 A 12 12 0 0 1 100 468 M 90 480 A 10 10 0 0 1 100 470 M 92 480 A 8 8 0 0 1 100 472 M 100 468 A 8 8 0 0 0 108 460 M 100 470 A 10 10 0 0 0 110 460 M 100 472 A 12 12 0 0 0 112 460 M 108 460 L 108 440 M 110 460 L 110 440 M 112 460 L 112 440 M 108 440 A 8 8 0 0 0 100 432 M 110 440 A 10 10 0 0 0 100 430 M 112 440 A 12 12 0 0 0 100 428 M 100 432 A 12 12 0 0 1 88 420 M 100 430 A 10 10 0 0 1 90 420 M 100 428 A 8 8 0 0 1 92 420 M 88 420 A 12 12 0 0 1 100 408 M 90 420 A 10 10 0 0 1 100 410 M 92 420 A 8 8 0 0 1 100 412 M 100 408 A 12 12 0 0 1 112 420 M 100 410 A 10 10 0 0 1 110 420 M 100 412 A 8 8 0 0 1 108 420 M 112 420 A 12 12 0 0 1 100 432 M 110 420 A 10 10 0 0 1 100 430 M 108 420 A 8 8 0 0 1 100 428 M 100 432 A 8 8 0 0 0 92 440 M 100 430 A 10 10 0 0 0 90 440 M 100 428 A 12 12 0 0 0 88 440" stroke="black" stroke-width="1" fill="none"></path><path d="M 328 340 L 328 320 M 330 340 L 330 320 M 332 340 L 332 320 M 328 320 L 328 300 M 330 320 L 330 300 M 332 320 L 332 300 M 328 300 A 8 8 0 0 0 320 292 M 330 300 A 10 10 0 0 0 320 290 M 332 300 A 12 12 0 0 0 320 288 M 320 292 A 8 8 0 0 0 312 300 M 320 290 A 10 10 0 0 0 310 300 M 320 288 A 12 12 0 0 0 308 300 M 312 300 L 312 320 M 310 300 L 310 320 M 308 300 L 308 320 M 312 320 A 12 12 0 0 1 300 332 M 310 320 A 10 10 0 0 1 300 330 M 308 320 A 8 8 0 0 1 300 328 M 300 332 A 12 12 0 0 1 288 320 M 300 330 A 10 10 0 0 1 290 320 M 300 328 A 8 8 0 0 1 292 320 M 288 320 A 12 12 0 0 1 300 308 M 290 320 A 10 10 0 0 1 300 310 M 292 320 A 8 8 0 0 1 300 312 M 300 308 A 12 12 0 0 1 312 320 M 300 310 A 10 10 0 0 1 310 320 M 300 312 A 8 8 0 0 1 308 320 M 312 320 L 312 340 M 310 320 L 310 340 M 308 320 L 308 340 M 312 340 A 8 8 0 0 0 320 348 M 310 340 A 10 10 0 0 0 320 350 M 308 340 A 12 12 0 0 0 320 352 M 320 348 A 12 12 0 0 1 332 360 M 320 350 A 10 10 0 0 1 330 360 M 320 352 A 8 8 0 0 1 328 360 M 332 360 L 332 380 M 330 360 L 330 380 M 328 360 L 328 380 M 332 380 A 8 8 0 0 0 340 388 M 330 380 A 10 10 0 0 0 340 390 M 328 380 A 12 12 0 0 0 340 392 M 340 388 A 12 12 0 0 1 352 400 M 340 390 A 10 10 0 0 1 350 400 M 340 392 A 8 8 0 0 1 348 400 M 352 400 L 352 420 M 350 400 L 350 420 M 348 400 L 348 420 M 352 420 L 352 440 M 350 420 L 350 440 M 348 420 L 348 440 M 352 440 L 352 460 M 350 440 L 350 460 M 348 440 L 348 460 M 352 460 L 352 480 M 350 460 L 350 480 M 348 460 L 348 480 M 352 480 L 352 500 M 350 480 L 350 500 M 348 480 L 348 500 M 352 500 L 352 520 M 350 500 L 350 520 M 348 500 L 348 520 M 352 520 L 352 540 M 350 520 L 350 540 M 348 520 L 348 540 M 352 540 A 8 8 0 0 0 360 548 M 350 540 A 10 10 0 0 0 360 550 M 348 540 A 12 12 0 0 0 360 552 M 360 548 L 380 548 M 360 550 L 380 550 M 360 552 L 380 552 M 380 548 A 8 8 0 0 0 388 540 M 380 550 A 10 10 0 0 0 390 540 M 380 552 A 12 12 0 0 0 392 540 M 388 540 A 12 12 0 0 1 400 528 M 390 540 A 10 10 0 0 1 400 530 M 392 540 A 8 8 0 0 1 400 532 M 400 528 A 8 8 0 0 0 408 520 M 400 530 A 10 10 0 0 0 410 520 M 400 532 A 12 12 0 0 0 412 520 M 408 520 L 408 500 M 410 520 L 410 500 M 412 520 L 412 500 M 408 500 A 12 12 0 0 1 420 488 M 410 500 A 10 10 0 0 1 420 490 M 412 500 A 8 8 0 0 1 420 492 M 420 488 A 8 8 0 0 0 428 480 M 420 490 A 10 10 0 0 0 430 480 M 420 492 A 12 12 0 0 0 432 480 M 428 480 A 8 8 0 0 0 420 472 M 430 480 A 10 10 0 0 0 420 470 M 432 480 A 12 12 0 0 0 420 468 M 420 472 A 12 12 0 0 1 408 460 M 420 470 A 10 10 0 0 1 410 460 M 420 468 A 8 8 0 0 1 412 460 M 408 460 A 12 12 0 0 1 420 448 M 410 460 A 10 10 0 0 1 420 450 M 412 460 A 8 8 0 0 1 420 452 M 420 448 L 440 448 M 420 450 L 440 450 M 420 452 L 440 452 M 440 448 A 12 12 0 0 1 452 460 M 440 450 A 10 10 0 0 1 450 460 M 440 452 A 8 8 0 0 1 448 460 M 452 460 A 12 12 0 0 1 440 472 M 450 460 A 10 10 0 0 1 440 470 M 448 460 A 8 8 0 0 1 440 468 M 440 472 L 420 472 M 440 470 L 420 470 M 440 468 L 420 468 M 420 472 L 400 472 M 420 470 L 400 470 M 420 468 L 400 468 M 400 472 A 8 8 0 0 0 392 480 M 400 470 A 10 10 0 0 0 390 480 M 400 468 A 12 12 0 0 0 388 480 M 392 480 A 12 12 0 0 1 380 492 M 390 480 A 10 10 0 0 1 380 490 M 388 480 A 8 8 0 0 1 380 488 M 380 492 L 360 492 M 380 490 L 360 490 M 380 488 L 360 488 M 360 492 L 340 492 M 360 490 L 340 490 M 360 488 L 340 488 M 340 492 L 320 492 M 340 490 L 320 490 M 340 488 L 320 488 M 320 492 L 300 492 M 320 490 L 300 490 M 320 488 L 300 488 M 300 492 A 12 12 0 0 1 288 480 M 300 490 A 10 10 0 0 1 290 480 M 300 488 A 8 8 0 0 1 292 480 M 288 480 A 12 12 0 0 1 300 468 M 290 480 A 10 10 0 0 1 300 470 M 292 480 A 8 8 0 0 1 300 472 M 300 468 L 320 468 M 300 470 L 320 470 M 300 472 L 320 472 M 320 468 A 12 12 0 0 1 332 480 M 320 470 A 10 10 0 0 1 330 480 M 320 472 A 8 8 0 0 1 328 480 M 332 480 A 12 12 0 0 1 320 492 M 330 480 A 10 10 0 0 1 320 490 M 328 480 A 8 8 0 0 1 320 488 M 320 492 L 300 492 M 320 490 L 300 490 M 320 488 L 300 488 M 300 492 L 280 492 M 300 490 L 280 490 M 300 488 L 280 488 M 280 492 A 12 12 0 0 1 268 480 M 280 490 A 10 10 0 0 1 270 480 M 280 488 A 8 8 0 0 1 272 480 M 268 480 L 268 460 M 270 480 L 270 460 M 272 480 L 272 460 M 268 460 A 12 12 0 0 1 280 448 M 270 460 A 10 10 0 0 1 280 450 M 272 460 A 8 8 0 0 1 280 452 M 280 448 A 12 12 0 0 1 292 460 M 280 450 A 10 10 0 0 1 290 460 M 280 452 A 8 8 0 0 1 288 460 M 292 460 A 12 12 0 0 1 280 472 M 290 460 A 10 10 0 0 1 280 470 M 288 460 A 8 8 0 0 1 280 468 M 280 472 A 12 12 0 0 1 268 460 M 280 470 A 10 10 0 0 1 270 460 M 280 468 A 8 8 0 0 1 272 460 M 268 460 A 12 12 0 0 1 280 448 M 270 460 A 10 10 0 0 1 280 450 M 272 460 A 8 8 0 0 1 280 452 M 280 448 A 12 12 0 0 1 292 460 M 280 450 A 10 10 0 0 1 290 460 M 280 452 A 8 8 0 0 1 288 460 M 292 460 A 12 12 0 0 1 280 472 M 290 460 A 10 10 0 0 1 280 470 M 288 460 A 8 8 0 0 1 280 468 M 280 472 A 8 8 0 0 0 272 480 M 280 470 A 10 10 0 0 0 270 480 M 280 468 A 12 12 0 0 0 268 480 M 272 480 L 272 500 M 270 480 L 270 500 M 268 480 L 268 500 M 272 500 A 8 8 0 0 0 280 508 M 270 500 A 10 10 0 0 0 280 510 M 268 500 A 12 12 0 0 0 280 512 M 280 508 L 300 508 M 280 510 L 300 510 M 280 512 L 300 512 M 300 508 A 8 8 0 0 0 308 500 M 300 510 A 10 10 0 0 0 310 500 M 300 512 A 12 12 0 0 0 312 500 M 308 500 A 12 12 0 0 1 320 488 M 310 500 A 10 10 0 0 1 320 490 M 312 500 A 8 8 0 0 1 320 492 M 320 488 A 12 12 0 0 1 332 500 M 320 490 A 10 10 0 0 1 330 500 M 320 492 A 8 8 0 0 1 328 500 M 332 500 A 8 8 0 0 0 340 508 M 330 500 A 10 10 0 0 0 340 510 M 328 500 A 12 12 0 0 0 340 512 M 340 508 L 360 508 M 340 510 L 360 510 M 340 512 L 360 512 M 360 508 A 12 12 0 0 1 372 520 M 360 510 A 10 10 0 0 1 370 520 M 360 512 A 8 8 0 0 1 368 520 M 372 520 L 372 540 M 370 520 L 370 540 M 368 520 L 368 540 M 372 540 A 12 12 0 0 1 360 552 M 370 540 A 10 10 0 0 1 360 550 M 368 540 A 8 8 0 0 1 360 548 M 360 552 A 12 12 0 0 1 348 540 M 360 550 A 10 10 0 0 1 350 540 M 360 548 A 8 8 0 0 1 352 540 M 348 540 L 348 520 M 350 540 L 350 520 M 352 540 L 352 520 M 348 520 L 348 500 M 350 520 L 350 500 M 352 520 L 352 500 M 348 500 L 348 480 M 350 500 L 350 480 M 352 500 L 352 480 M 348 480 L 348 460 M 350 480 L 350 460 M 352 480 L 352 460 M 348 460 A 12 12 0 0 1 360 448 M 350 460 A 10 10 0 0 1 360 450 M 352 460 A 8 8 0 0 1 360 452 M 360 448 A 12 12 0 0 1 372 460 M 360 450 A 10 10 0 0 1 370 460 M 360 452 A 8 8 0 0 1 368 460 M 372 460 A 12 12 0 0 1 360 472 M 370 460 A 10 10 0 0 1 360 470 M 368 460 A 8 8 0 0 1 360 468 M 360 472 A 12 12 0 0 1 348 460 M 360 470 A 10 10 0 0 1 350 460 M 360 468 A 8 8 0 0 1 352 460 M 348 460 L 348 440 M 350 460 L 350 440 M 352 460 L 352 440 M 348 440 L 348 420 M 350 440 L 350 420 M 352 440 L 352 420 M 348 420 L 348 400 M 350 420 L 350 400 M 352 420 L 352 400 M 348 400 L 348 380 M 350 400 L 350 380 M 352 400 L 352 380 M 348 380 L 348 360 M 350 380 L 350 360 M 352 380 L 352 360 M 348 360 A 8 8 0 0 0 340 352 M 350 360 A 10 10 0 0 0 340 350 M 352 360 A 12 12 0 0 0 340 348 M 340 352 L 320 352 M 340 350 L 320 350 M 340 348 L 320 348 M 320 352 A 8 8 0 0 0 312 360 M 320 350 A 10 10 0 0 0 310 360 M 320 348 A 12 12 0 0 0 308 360 M 312 360 L 312 380 M 310 360 L 310 380 M 308 360 L 308 380 M 312 380 L 312 400 M 310 380 L 310 400 M 308 380 L 308 400 M 312 400 A 8 8 0 0 0 320 408 M 310 400 A 10 10 0 0 0 320 410 M 308 400 A 12 12 0 0 0 320 412 M 320 408 L 340 408 M 320 410 L 340 410 M 320 412 L 340 412 M 340 408 A 12 12 0 0 1 352 420 M 340 410 A 10 10 0 0 1 350 420 M 340 412 A 8 8 0 0 1 348 420 M 352 420 A 12 12 0 0 1 340 432 M 350 420 A 10 10 0 0 1 340 430 M 348 420 A 8 8 0 0 1 340 428 M 340 432 A 12 12 0 0 1 328 420 M 340 430 A 10 10 0 0 1 330 420 M 340 428 A 8 8 0 0 1 332 420 M 328 420 A 8 8 0 0 0 320 412 M 330 420 A 10 10 0 0 0 320 410 M 332 420 A 12 12 0 0 0 320 408 M 320 412 A 12 12 0 0 1 308 400 M 320 410 A 10 10 0 0 1 310 400 M 320 408 A 8 8 0 0 1 312 400 M 308 400 A 12 12 0 0 1 320 388 M 310 400 A 10 10 0 0 1 320 390 M 312 400 A 8 8 0 0 1 320 392 M 320 388 A 12 12 0 0 1 332 400 M 320 390 A 10 10 0 0 1 330 400 M 320 392 A 8 8 0 0 1 328 400" stroke="black" stroke-width="1" fill="none"></path><path d="M 348 360 L 348 340 M 350 360 L 350 340 M 352 360 L 352 340 M 348 340 A 12 12 0 0 1 360 328 M 350 340 A 10 10 0 0 1 360 330 M 352 340 A 8 8 0 0 1 360 332 M 360 328 A 8 8 0 0 0 368 320 M 360 330 A 10 10 0 0 0 370 320 M 360 332 A 12 12 0 0 0 372 320 M 368 320 L 368 300 M 370 320 L 370 300 M 372 320 L 372 300 M 368 300 A 8 8 0 0 0 360 292 M 370 300 A 10 10 0 0 0 360 290 M 372 300 A 12 12 0 0 0 360 288 M 360 292 A 8 8 0 0 0 352 300 M 360 290 A 10 10 0 0 0 350 300 M 360 288 A 12 12 0 0 0 348 300 M 352 300 L 352 320 M 350 300 L 350 320 M 348 300 L 348 320 M 352 320 A 8 8 0 0 0 360 328 M 350 320 A 10 10 0 0 0 360 330 M 348 320 A 12 12 0 0 0 360 332 M 360 328 A 12 12 0 0 1 372 340 M 360 330 A 10 10 0 0 1 370 340 M 360 332 A 8 8 0 0 1 368 340 M 372 340 L 372 360 M 370 340 L 370 360 M 368 340 L 368 360 M 372 360 A 12 12 0 0 1 360 372 M 370 360 A 10 10 0 0 1 360 370 M 368 360 A 8 8 0 0 1 360 368 M 360 372 A 8 8 0 0 0 352 380 M 360 370 A 10 10 0 0 0 350 380 M 360 368 A 12 12 0 0 0 348 380 M 352 380 L 352 400 M 350 380 L 350 400 M 348 380 L 348 400 M 352 400 A 8 8 0 0 0 360 408 M 350 400 A 10 10 0 0 0 360 410 M 348 400 A 12 12 0 0 0 360 412 M 360 408 A 8 8 0 0 0 368 400 M 360 410 A 10 10 0 0 0 370 400 M 360 412 A 12 12 0 0 0 372 400 M 368 400 L 368 380 M 370 400 L 370 380 M 372 400 L 372 380 M 368 380 A 12 12 0 0 1 380 368 M 370 380 A 10 10 0 0 1 380 370 M 372 380 A 8 8 0 0 1 380 372 M 380 368 L 400 368 M 380 370 L 400 370 M 380 372 L 400 372 M 400 368 A 8 8 0 0 0 408 360 M 400 370 A 10 10 0 0 0 410 360 M 400 372 A 12 12 0 0 0 412 360 M 408 360 A 12 12 0 0 1 420 348 M 410 360 A 10 10 0 0 1 420 350 M 412 360 A 8 8 0 0 1 420 352 M 420 348 A 12 12 0 0 1 432 360 M 420 350 A 10 10 0 0 1 430 360 M 420 352 A 8 8 0 0 1 428 360 M 432 360 L 432 380 M 430 360 L 430 380 M 428 360 L 428 380 M 432 380 A 12 12 0 0 1 420 392 M 430 380 A 10 10 0 0 1 420 390 M 428 380 A 8 8 0 0 1 420 388 M 420 392 A 8 8 0 0 0 412 400 M 420 390 A 10 10 0 0 0 410 400 M 420 388 A 12 12 0 0 0 408 400 M 412 400 L 412 420 M 410 400 L 410 420 M 408 400 L 408 420 M 412 420 A 12 12 0 0 1 400 432 M 410 420 A 10 10 0 0 1 400 430 M 408 420 A 8 8 0 0 1 400 428 M 400 432 A 8 8 0 0 0 392 440 M 400 430 A 10 10 0 0 0 390 440 M 400 428 A 12 12 0 0 0 388 440 M 392 440 A 12 12 0 0 1 380 452 M 390 440 A 10 10 0 0 1 380 450 M 388 440 A 8 8 0 0 1 380 448 M 380 452 L 360 452 M 380 450 L 360 450 M 380 448 L 360 448 M 360 452 A 12 12 0 0 1 348 440 M 360 450 A 10 10 0 0 1 350 440 M 360 448 A 8 8 0 0 1 352 440 M 348 440 A 12 12 0 0 1 360 428 M 350 440 A 10 10 0 0 1 360 430 M 352 440 A 8 8 0 0 1 360 432 M 360 428 L 380 428 M 360 430 L 380 430 M 360 432 L 380 432 M 380 428 A 8 8 0 0 0 388 420 M 380 430 A 10 10 0 0 0 390 420 M 380 432 A 12 12 0 0 0 392 420 M 388 420 L 388 400 M 390 420 L 390 400 M 392 420 L 392 400 M 388 400 A 12 12 0 0 1 400 388 M 390 400 A 10 10 0 0 1 400 390 M 392 400 A 8 8 0 0 1 400 392 M 400 388 A 8 8 0 0 0 408 380 M 400 390 A 10 10 0 0 0 410 380 M 400 392 A 12 12 0 0 0 412 380 M 408 380 A 12 12 0 0 1 420 368 M 410 380 A 10 10 0 0 1 420 370 M 412 380 A 8 8 0 0 1 420 372 M 420 368 L 440 368 M 420 370 L 440 370 M 420 372 L 440 372 M 440 368 A 12 12 0 0 1 452 380 M 440 370 A 10 10 0 0 1 450 380 M 440 372 A 8 8 0 0 1 448 380 M 452 380 L 452 400 M 450 380 L 450 400 M 448 380 L 448 400 M 452 400 A 12 12 0 0 1 440 412 M 450 400 A 10 10 0 0 1 440 410 M 448 400 A 8 8 0 0 1 440 408 M 440 412 L 420 412 M 440 410 L 420 410 M 440 408 L 420 408 M 420 412 L 400 412 M 420 410 L 400 410 M 420 408 L 400 408 M 400 412 L 380 412 M 400 410 L 380 410 M 400 408 L 380 408 M 380 412 L 360 412 M 380 410 L 360 410 M 380 408 L 360 408 M 360 412 L 340 412 M 360 410 L 340 410 M 360 408 L 340 408 M 340 412 L 320 412 M 340 410 L 320 410 M 340 408 L 320 408 M 320 412 L 300 412 M 320 410 L 300 410 M 320 408 L 300 408 M 300 412 A 8 8 0 0 0 292 420 M 300 410 A 10 10 0 0 0 290 420 M 300 408 A 12 12 0 0 0 288 420 M 292 420 L 292 440 M 290 420 L 290 440 M 288 420 L 288 440 M 292 440 A 12 12 0 0 1 280 452 M 290 440 A 10 10 0 0 1 280 450 M 288 440 A 8 8 0 0 1 280 448 M 280 452 L 260 452 M 280 450 L 260 450 M 280 448 L 260 448 M 260 452 L 240 452 M 260 450 L 240 450 M 260 448 L 240 448 M 240 452 L 220 452 M 240 450 L 220 450 M 240 448 L 220 448 M 220 452 A 12 12 0 0 1 208 440 M 220 450 A 10 10 0 0 1 210 440 M 220 448 A 8 8 0 0 1 212 440 M 208 440 A 12 12 0 0 1 220 428 M 210 440 A 10 10 0 0 1 220 430 M 212 440 A 8 8 0 0 1 220 432 M 220 428 A 8 8 0 0 0 228 420 M 220 430 A 10 10 0 0 0 230 420 M 220 432 A 12 12 0 0 0 232 420 M 228 420 A 8 8 0 0 0 220 412 M 230 420 A 10 10 0 0 0 220 410 M 232 420 A 12 12 0 0 0 220 408 M 220 412 L 200 412 M 220 410 L 200 410 M 220 408 L 200 408 M 200 412 A 8 8 0 0 0 192 420 M 200 410 A 10 10 0 0 0 190 420 M 200 408 A 12 12 0 0 0 188 420 M 192 420 L 192 440 M 190 420 L 190 440 M 188 420 L 188 440 M 192 440 A 8 8 0 0 0 200 448 M 190 440 A 10 10 0 0 0 200 450 M 188 440 A 12 12 0 0 0 200 452 M 200 448 A 8 8 0 0 0 208 440 M 200 450 A 10 10 0 0 0 210 440 M 200 452 A 12 12 0 0 0 212 440 M 208 440 A 12 12 0 0 1 220 428 M 210 440 A 10 10 0 0 1 220 430 M 212 440 A 8 8 0 0 1 220 432 M 220 428 A 12 12 0 0 1 232 440 M 220 430 A 10 10 0 0 1 230 440 M 220 432 A 8 8 0 0 1 228 440 M 232 440 A 12 12 0 0 1 220 452 M 230 440 A 10 10 0 0 1 220 450 M 228 440 A 8 8 0 0 1 220 448 M 220 452 A 8 8 0 0 0 212 460 M 220 450 A 10 10 0 0 0 210 460 M 220 448 A 12 12 0 0 0 208 460 M 212 460 A 12 12 0 0 1 200 472 M 210 460 A 10 10 0 0 1 200 470 M 208 460 A 8 8 0 0 1 200 468 M 200 472 A 8 8 0 0 0 192 480 M 200 470 A 10 10 0 0 0 190 480 M 200 468 A 12 12 0 0 0 188 480 M 192 480 A 12 12 0 0 1 180 492 M 190 480 A 10 10 0 0 1 180 490 M 188 480 A 8 8 0 0 1 180 488 M 180 492 A 8 8 0 0 0 172 500 M 180 490 A 10 10 0 0 0 170 500 M 180 488 A 12 12 0 0 0 168 500 M 172 500 A 12 12 0 0 1 160 512 M 170 500 A 10 10 0 0 1 160 510 M 168 500 A 8 8 0 0 1 160 508 M 160 512 A 12 12 0 0 1 148 500 M 160 510 A 10 10 0 0 1 150 500 M 160 508 A 8 8 0 0 1 152 500 M 148 500 L 148 480 M 150 500 L 150 480 M 152 500 L 152 480 M 148 480 A 8 8 0 0 0 140 472 M 150 480 A 10 10 0 0 0 140 470 M 152 480 A 12 12 0 0 0 140 468 M 140 472 L 120 472 M 140 470 L 120 470 M 140 468 L 120 468 M 120 472 A 8 8 0 0 0 112 480 M 120 470 A 10 10 0 0 0 110 480 M 120 468 A 12 12 0 0 0 108 480 M 112 480 A 12 12 0 0 1 100 492 M 110 480 A 10 10 0 0 1 100 490 M 108 480 A 8 8 0 0 1 100 488 M 100 492 A 12 12 0 0 1 88 480 M 100 490 A 10 10 0 0 1 90 480 M 100 488 A 8 8 0 0 1 92 480 M 88 480 A 12 12 0 0 1 100 468 M 90 480 A 10 10 0 0 1 100 470 M 92 480 A 8 8 0 0 1 100 472 M 100 468 A 12 12 0 0 1 112 480 M 100 470 A 10 10 0 0 1 110 480 M 100 472 A 8 8 0 0 1 108 480 M 112 480 A 12 12 0 0 1 100 492 M 110 480 A 10 10 0 0 1 100 490 M 108 480 A 8 8 0 0 1 100 488 M 100 492 L 80 492 M 100 490 L 80 490 M 100 488 L 80 488 M 80 492 A 12 12 0 0 1 68 480 M 80 490 A 10 10 0 0 1 70 480 M 80 488 A 8 8 0 0 1 72 480 M 68 480 L 68 460 M 70 480 L 70 460 M 72 480 L 72 460 M 68 460 A 8 8 0 0 0 60 452 M 70 460 A 10 10 0 0 0 60 450 M 72 460 A 12 12 0 0 0 60 448 M 60 452 A 12 12 0 0 1 48 440 M 60 450 A 10 10 0 0 1 50 440 M 60 448 A 8 8 0 0 1 52 440 M 48 440 A 12 12 0 0 1 60 428 M 50 440 A 10 10 0 0 1 60 430 M 52 440 A 8 8 0 0 1 60 432 M 60 428 L 80 428 M 60 430 L 80 430 M 60 432 L 80 432 M 80 428 L 100 428 M 80 430 L 100 430 M 80 432 L 100 432 M 100 428 L 120 428 M 100 430 L 120 430 M 100 432 L 120 432 M 120 428 A 8 8 0 0 0 128 420 M 120 430 A 10 10 0 0 0 130 420 M 120 432 A 12 12 0 0 0 132 420 M 128 420 A 12 12 0 0 1 140 408 M 130 420 A 10 10 0 0 1 140 410 M 132 420 A 8 8 0 0 1 140 412 M 140 408 L 160 408 M 140 410 L 160 410 M 140 412 L 160 412 M 160 408 L 180 408 M 160 410 L 180 410 M 160 412 L 180 412 M 180 408 A 12 12 0 0 1 192 420 M 180 410 A 10 10 0 0 1 190 420 M 180 412 A 8 8 0 0 1 188 420 M 192 420 L 192 440 M 190 420 L 190 440 M 188 420 L 188 440 M 192 440 A 8 8 0 0 0 200 448 M 190 440 A 10 10 0 0 0 200 450 M 188 440 A 12 12 0 0 0 200 452 M 200 448 L 220 448 M 200 450 L 220 450 M 200 452 L 220 452 M 220 448 A 8 8 0 0 0 228 440 M 220 450 A 10 10 0 0 0 230 440 M 220 452 A 12 12 0 0 0 232 440" stroke="black" stroke-width="1" fill="none"></path></svg>
