<svg version="1.1" xmlns:xlink="http://www.w3.org/1999/xlink" xmlns="http://www.w3.org/2000/svg"><path d="M 50 200 Q 52.808 -27.4999 100 200 T 144.913 176.868 T 196.549 203.108 T 259.476 231.921 T 292.569 194.419 T 345.901 157.382 T 397.981 226.914 T 456.665 232.081 T 498.698 180.823 T 553.724 236.326" stroke="black" stroke-width="1" fill="none"></path><path d="M 50 200 Q 64.0866 3.25292 100 200 T 144.913 176.868 T 196.549 203.108 T 259.476 231.921 T 292.569 194.419 T 345.901 157.382 T 397.981 226.914 T 456.665 232.081 T 498.698 180.823 T 553.724 236.326" stroke="black" stroke-width="1" fill="none"></path><path d="M 50 200 Q 49.314 46.1807 100 200 T 144.913 176.868 T 196.549 203.108 T 259.476 231.921 T 292.569 194.419 T 345.901 157.382 T 397.981 226.914 T 456.665 232.081 T 498.698 180.823 T 553.724 236.326" stroke="black" stroke-width="1" fill="none"></path><path d="M 50 200 Q 39.7144 -43.7711 100 200 T 144.913 176.868 T 196.549 203.108 T 259.476 231.921 T 292.569 194.419 T 345.901 157.382 T 397.981 226.914 T 456.665 232.081 T 498.698 180.823 T 553.724 236.326" stroke="black" stroke-width="1" fill="none"></path><path d="M 50 200 Q 74.792 -1.60751 100 200 T 144.913 176.868 T 196.549 203.108 T 259.476 231.921 T 292.569 194.419 T 345.901 157.382 T 397.981 226.914 T 456.665 232.081 T 498.698 180.823 T 553.724 236.326" stroke="black" stroke-width="1" fill="none"></path><path d="M 50 200 Q 39.7408 24.2686 100 200 T 144.913 176.868 T 196.549 203.108 T 259.476 231.921 T 292.569 194.419 T 345.901 157.382 T 397.981 226.914 T 456.665 232.081 T 498.698 180.823 T 553.724 236.326" stroke="black" stroke-width="1" fill="none"></path></svg>
