<svg version="1.1" xmlns:xlink="http://www.w3.org/1999/xlink" xmlns="http://www.w3.org/2000/svg"><path d="M 14 14 L 34 14 L 54 14 L 54 34 L 54 54 L 54 74 L 34 74 L 34 94 L 14 94 L 14 114 L 14 134 L 34 134 L 54 134 L 54 154 L 74 154 L 74 134 L 94 134 L 94 154 L 114 154 L 114 134 L 134 134 L 154 134 L 154 154 L 134 154 L 134 174 L 114 174 L 94 174 L 74 174 L 54 174 L 34 174 L 14 174 L 14 154 L 34 154 M 12 12 L 32 12 L 52 12 L 52 32 L 52 52 L 52 72 L 32 72 L 32 92 L 12 92 L 12 112 L 12 132 L 32 132 L 52 132 L 52 152 L 72 152 L 72 132 L 92 132 L 92 152 L 112 152 L 112 132 L 132 132 L 152 132 L 152 152 L 132 152 L 132 172 L 112 172 L 92 172 L 72 172 L 52 172 L 32 172 L 12 172 L 12 152 L 32 152 M 10 10 L 30 10 L 50 10 L 50 30 L 50 50 L 50 70 L 30 70 L 30 90 L 10 90 L 10 110 L 10 130 L 30 130 L 50 130 L 50 150 L 70 150 L 70 130 L 90 130 L 90 150 L 110 150 L 110 130 L 130 130 L 150 130 L 150 150 L 130 150 L 130 170 L 110 170 L 90 170 L 70 170 L 50 170 L 30 170 L 10 170 L 10 150 L 30 150 M 8 8 L 28 8 L 48 8 L 48 28 L 48 48 L 48 68 L 28 68 L 28 88 L 8 88 L 8 108 L 8 128 L 28 128 L 48 128 L 48 148 L 68 148 L 68 128 L 88 128 L 88 148 L 108 148 L 108 128 L 128 128 L 148 128 L 148 148 L 128 148 L 128 168 L 108 168 L 88 168 L 68 168 L 48 168 L 28 168 L 8 168 L 8 148 L 28 148 M 6 6 L 26 6 L 46 6 L 46 26 L 46 46 L 46 66 L 26 66 L 26 86 L 6 86 L 6 106 L 6 126 L 26 126 L 46 126 L 46 146 L 66 146 L 66 126 L 86 126 L 86 146 L 106 146 L 106 126 L 126 126 L 146 126 L 146 146 L 126 146 L 126 166 L 106 166 L 86 166 L 66 166 L 46 166 L 26 166 L 6 166 L 6 146 L 26 146" stroke="black" stroke-width="1" fill="none"></path><path d="M 14.4 14.4 L 34.4 14.4 L 34.4 34.4 L 34.4 54.4 L 14.4 54.4 L 14.4 74.4 L 34.4 74.4 L 34.4 94.4 L 54.4 94.4 L 74.4 94.4 L 94.4 94.4 L 94.4 114.4 L 94.4 134.4 L 94.4 154.4 L 94.4 174.4 L 114.4 174.4 L 134.4 174.4 L 134.4 154.4 L 114.4 154.4 L 114.4 134.4 L 134.4 134.4 L 154.4 134.4 L 154.4 154.4 L 154.4 174.4 L 174.4 174.4 L 194.4 174.4 L 214.4 174.4 L 234.4 174.4 L 254.4 174.4 L 254.4 154.4 L 274.4 154.4 L 294.4 154.4 L 294.4 134.4 L 274.4 134.4 L 254.4 134.4 L 234.4 134.4 L 214.4 134.4 L 214.4 154.4 L 194.4 154.4 L 174.4 154.4 L 174.4 134.4 L 174.4 114.4 L 194.4 114.4 L 194.4 94.4 L 194.4 74.4 L 194.4 54.4 L 194.4 34.4 L 214.4 34.4 L 214.4 54.4 L 234.4 54.4 L 254.4 54.4 L 254.4 74.4 L 254.4 94.4 L 254.4 114.4 L 274.4 114.4 L 274.4 94.4 L 274.4 74.4 L 294.4 74.4 L 294.4 54.4 L 294.4 34.4 L 294.4 14.4 L 274.4 14.4 L 254.4 14.4 L 234.4 14.4 L 234.4 34.4 L 254.4 34.4 L 274.4 34.4 L 274.4 54.4 M 12.4 12.4 L 32.4 12.4 L 32.4 32.4 L 32.4 52.4 L 12.4 52.4 L 12.4 72.4 L 32.4 72.4 L 32.4 92.4 L 52.4 92.4 L 72.4 92.4 L 92.4 92.4 L 92.4 112.4 L 92.4 132.4 L 92.4 152.4 L 92.4 172.4 L 112.4 172.4 L 132.4 172.4 L 132.4 152.4 L 112.4 152.4 L 112.4 132.4 L 132.4 132.4 L 152.4 132.4 L 152.4 152.4 L 152.4 172.4 L 172.4 172.4 L 192.4 172.4 L 212.4 172.4 L 232.4 172.4 L 252.4 172.4 L 252.4 152.4 L 272.4 152.4 L 292.4 152.4 L 292.4 132.4 L 272.4 132.4 L 252.4 132.4 L 232.4 132.4 L 212.4 132.4 L 212.4 152.4 L 192.4 152.4 L 172.4 152.4 L 172.4 132.4 L 172.4 112.4 L 192.4 112.4 L 192.4 92.4 L 192.4 72.4 L 192.4 52.4 L 192.4 32.4 L 212.4 32.4 L 212.4 52.4 L 232.4 52.4 L 252.4 52.4 L 252.4 72.4 L 252.4 92.4 L 252.4 112.4 L 272.4 112.4 L 272.4 92.4 L 272.4 72.4 L 292.4 72.4 L 292.4 52.4 L 292.4 32.4 L 292.4 12.4 L 272.4 12.4 L 252.4 12.4 L 232.4 12.4 L 232.4 32.4 L 252.4 32.4 L 272.4 32.4 L 272.4 52.4 M 10 10 L 30 10 L 30 30 L 30 50 L 10 50 L 10 70 L 30 70 L 30 90 L 50 90 L 70 90 L 90 90 L 90 110 L 90 130 L 90 150 L 90 170 L 110 170 L 130 170 L 130 150 L 110 150 L 110 130 L 130 130 L 150 130 L 150 150 L 150 170 L 170 170 L 190 170 L 210 170 L 230 170 L 250 170 L 250 150 L 270 150 L 290 150 L 290 130 L 270 130 L 250 130 L 230 130 L 210 130 L 210 150 L 190 150 L 170 150 L 170 130 L 170 110 L 190 110 L 190 90 L 190 70 L 190 50 L 190 30 L 210 30 L 210 50 L 230 50 L 250 50 L 250 70 L 250 90 L 250 110 L 270 110 L 270 90 L 270 70 L 290 70 L 290 50 L 290 30 L 290 10 L 270 10 L 250 10 L 230 10 L 230 30 L 250 30 L 270 30 L 270 50 M 7.6 7.6 L 27.6 7.6 L 27.6 27.6 L 27.6 47.6 L 7.6 47.6 L 7.6 67.6 L 27.6 67.6 L 27.6 87.6 L 47.6 87.6 L 67.6 87.6 L 87.6 87.6 L 87.6 107.6 L 87.6 127.6 L 87.6 147.6 L 87.6 167.6 L 107.6 167.6 L 127.6 167.6 L 127.6 147.6 L 107.6 147.6 L 107.6 127.6 L 127.6 127.6 L 147.6 127.6 L 147.6 147.6 L 147.6 167.6 L 167.6 167.6 L 187.6 167.6 L 207.6 167.6 L 227.6 167.6 L 247.6 167.6 L 247.6 147.6 L 267.6 147.6 L 287.6 147.6 L 287.6 127.6 L 267.6 127.6 L 247.6 127.6 L 227.6 127.6 L 207.6 127.6 L 207.6 147.6 L 187.6 147.6 L 167.6 147.6 L 167.6 127.6 L 167.6 107.6 L 187.6 107.6 L 187.6 87.6 L 187.6 67.6 L 187.6 47.6 L 187.6 27.6 L 207.6 27.6 L 207.6 47.6 L 227.6 47.6 L 247.6 47.6 L 247.6 67.6 L 247.6 87.6 L 247.6 107.6 L 267.6 107.6 L 267.6 87.6 L 267.6 67.6 L 287.6 67.6 L 287.6 47.6 L 287.6 27.6 L 287.6 7.6 L 267.6 7.6 L 247.6 7.6 L 227.6 7.6 L 227.6 27.6 L 247.6 27.6 L 267.6 27.6 L 267.6 47.6 M 5.6 5.6 L 25.6 5.6 L 25.6 25.6 L 25.6 45.6 L 5.6 45.6 L 5.6 65.6 L 25.6 65.6 L 25.6 85.6 L 45.6 85.6 L 65.6 85.6 L 85.6 85.6 L 85.6 105.6 L 85.6 125.6 L 85.6 145.6 L 85.6 165.6 L 105.6 165.6 L 125.6 165.6 L 125.6 145.6 L 105.6 145.6 L 105.6 125.6 L 125.6 125.6 L 145.6 125.6 L 145.6 145.6 L 145.6 165.6 L 165.6 165.6 L 185.6 165.6 L 205.6 165.6 L 225.6 165.6 L 245.6 165.6 L 245.6 145.6 L 265.6 145.6 L 285.6 145.6 L 285.6 125.6 L 265.6 125.6 L 245.6 125.6 L 225.6 125.6 L 205.6 125.6 L 205.6 145.6 L 185.6 145.6 L 165.6 145.6 L 165.6 125.6 L 165.6 105.6 L 185.6 105.6 L 185.6 85.6 L 185.6 65.6 L 185.6 45.6 L 185.6 25.6 L 205.6 25.6 L 205.6 45.6 L 225.6 45.6 L 245.6 45.6 L 245.6 65.6 L 245.6 85.6 L 245.6 105.6 L 265.6 105.6 L 265.6 85.6 L 265.6 65.6 L 285.6 65.6 L 285.6 45.6 L 285.6 25.6 L 285.6 5.6 L 265.6 5.6 L 245.6 5.6 L 225.6 5.6 L 225.6 25.6 L 245.6 25.6 L 265.6 25.6 L 265.6 45.6" stroke="black" stroke-width="1" fill="none"></path><path d="M 14.8 14.8 L 34.8 14.8 L 34.8 34.8 L 54.8 34.8 L 74.8 34.8 L 94.8 34.8 L 114.8 34.8 L 114.8 54.8 L 134.8 54.8 L 154.8 54.8 L 174.8 54.8 L 194.8 54.8 L 194.8 34.8 L 214.8 34.8 L 214.8 14.8 L 194.8 14.8 L 174.8 14.8 L 174.8 34.8 L 154.8 34.8 L 134.8 34.8 L 134.8 14.8 L 114.8 14.8 L 94.8 14.8 L 74.8 14.8 L 54.8 14.8 M 12.8 12.8 L 32.8 12.8 L 32.8 32.8 L 52.8 32.8 L 72.8 32.8 L 92.8 32.8 L 112.8 32.8 L 112.8 52.8 L 132.8 52.8 L 152.8 52.8 L 172.8 52.8 L 192.8 52.8 L 192.8 32.8 L 212.8 32.8 L 212.8 12.8 L 192.8 12.8 L 172.8 12.8 L 172.8 32.8 L 152.8 32.8 L 132.8 32.8 L 132.8 12.8 L 112.8 12.8 L 92.8 12.8 L 72.8 12.8 L 52.8 12.8 M 10 10 L 30 10 L 30 30 L 50 30 L 70 30 L 90 30 L 110 30 L 110 50 L 130 50 L 150 50 L 170 50 L 190 50 L 190 30 L 210 30 L 210 10 L 190 10 L 170 10 L 170 30 L 150 30 L 130 30 L 130 10 L 110 10 L 90 10 L 70 10 L 50 10 M 7.2 7.2 L 27.2 7.2 L 27.2 27.2 L 47.2 27.2 L 67.2 27.2 L 87.2 27.2 L 107.2 27.2 L 107.2 47.2 L 127.2 47.2 L 147.2 47.2 L 167.2 47.2 L 187.2 47.2 L 187.2 27.2 L 207.2 27.2 L 207.2 7.2 L 187.2 7.2 L 167.2 7.2 L 167.2 27.2 L 147.2 27.2 L 127.2 27.2 L 127.2 7.2 L 107.2 7.2 L 87.2 7.2 L 67.2 7.2 L 47.2 7.2 M 5.2 5.2 L 25.2 5.2 L 25.2 25.2 L 45.2 25.2 L 65.2 25.2 L 85.2 25.2 L 105.2 25.2 L 105.2 45.2 L 125.2 45.2 L 145.2 45.2 L 165.2 45.2 L 185.2 45.2 L 185.2 25.2 L 205.2 25.2 L 205.2 5.2 L 185.2 5.2 L 165.2 5.2 L 165.2 25.2 L 145.2 25.2 L 125.2 25.2 L 125.2 5.2 L 105.2 5.2 L 85.2 5.2 L 65.2 5.2 L 45.2 5.2" stroke="black" stroke-width="1" fill="none"></path></svg>
