<svg version="1.1" xmlns:xlink="http://www.w3.org/1999/xlink" xmlns="http://www.w3.org/2000/svg"><path d="m 100 100 l 69.2864 0 m -69.2864 0 m 0 5 l 98.103 0 m -98.103 0 m 0 5 l 88.9732 0 m -88.9732 0 m 0 5 l 71.3261 0 m -71.3261 0 m 0 5 l 60.283 0 m -60.283 0 m 0 5 l 92.2133 0 m -92.2133 0 m 0 5 l 64.6839 0 m -64.6839 0 m 0 5 l 92.3347 0 m -92.3347 0 m 0 5 l 79.301 0 m -79.301 0 m 0 5 l 52.5545 0 m -52.5545 0 m 0 5 l 95.3158 0 m -95.3158 0 m 0 5 l 81.4329 0 m -81.4329 0 m 0 5 l 60.5511 0 m -60.5511 0 m 0 5 l 61.7328 0 m -61.7328 0 m 0 5 l 59.1697 0 m -59.1697 0 m 0 5 l 61.6887 0 m -61.6887 0 m 0 5 l 57.7293 0 m -57.7293 0 m 0 5 l 86.928 0 m -86.928 0 m 0 5 l 70.7721 0 m -70.7721 0 m 0 5 l 58.6462 0 m -58.6462 0 m 0 5" stroke="black" stroke-width="1" fill="none"></path><path d="M 100 100 l 0 67.0211 m 0 -67.0211 m 5 0 l 0 94.6469 m 0 -94.6469 m 5 0 l 0 50.3133 m 0 -50.3133 m 5 0 l 0 92.6637 m 0 -92.6637 m 5 0 l 0 68.288 m 0 -68.288 m 5 0 l 0 91.1795 m 0 -91.1795 m 5 0 l 0 77.5639 m 0 -77.5639 m 5 0 l 0 54.0369 m 0 -54.0369 m 5 0 l 0 88.6762 m 0 -88.6762 m 5 0 l 0 83.5086 m 0 -83.5086 m 5 0 l 0 77.6392 m 0 -77.6392 m 5 0 l 0 64.7319 m 0 -64.7319 m 5 0 l 0 59.5252 m 0 -59.5252 m 5 0 l 0 64.4655 m 0 -64.4655 m 5 0 l 0 70.8118 m 0 -70.8118 m 5 0 l 0 94.5339 m 0 -94.5339 m 5 0 l 0 81.7739 m 0 -81.7739 m 5 0 l 0 67.7874 m 0 -67.7874 m 5 0 l 0 65.5038 m 0 -65.5038 m 5 0 l 0 97.9691 m 0 -97.9691 m 5 0" stroke="black" stroke-width="1" fill="none"></path><path d="m 200 200 l 56.1221 0 m -56.1221 0 m 0 5 l 98.039 0 m -98.039 0 m 0 5 l 58.3232 0 m -58.3232 0 m 0 5 l 85.0659 0 m -85.0659 0 m 0 5 l 87.5981 0 m -87.5981 0 m 0 5 l 51.623 0 m -51.623 0 m 0 5 l 72.8371 0 m -72.8371 0 m 0 5 l 99.2349 0 m -99.2349 0 m 0 5 l 55.8815 0 m -55.8815 0 m 0 5 l 86.076 0 m -86.076 0 m 0 5 l 52.9372 0 m -52.9372 0 m 0 5 l 54.966 0 m -54.966 0 m 0 5 l 81.8393 0 m -81.8393 0 m 0 5 l 54.8337 0 m -54.8337 0 m 0 5 l 78.2338 0 m -78.2338 0 m 0 5 l 99.4589 0 m -99.4589 0 m 0 5 l 73.9587 0 m -73.9587 0 m 0 5 l 96.9385 0 m -96.9385 0 m 0 5 l 66.8048 0 m -66.8048 0 m 0 5 l 90.9575 0 m -90.9575 0 m 0 5" stroke="black" stroke-width="1" fill="none"></path><path d="M 200 200 l 0 84.9744 m 0 -84.9744 m 5 0 l 0 83.946 m 0 -83.946 m 5 0 l 0 54.9634 m 0 -54.9634 m 5 0 l 0 50.4427 m 0 -50.4427 m 5 0 l 0 57.8988 m 0 -57.8988 m 5 0 l 0 54.3349 m 0 -54.3349 m 5 0 l 0 87.383 m 0 -87.383 m 5 0 l 0 55.3092 m 0 -55.3092 m 5 0 l 0 67.5076 m 0 -67.5076 m 5 0 l 0 95.0737 m 0 -95.0737 m 5 0 l 0 51.4709 m 0 -51.4709 m 5 0 l 0 80.1852 m 0 -80.1852 m 5 0 l 0 88.8613 m 0 -88.8613 m 5 0 l 0 89.9754 m 0 -89.9754 m 5 0 l 0 98.159 m 0 -98.159 m 5 0 l 0 84.899 m 0 -84.899 m 5 0 l 0 76.3325 m 0 -76.3325 m 5 0 l 0 61.6282 m 0 -61.6282 m 5 0 l 0 98.0722 m 0 -98.0722 m 5 0 l 0 81.9087 m 0 -81.9087 m 5 0" stroke="black" stroke-width="1" fill="none"></path><path d="m 100 200 l 95.3067 0 m -95.3067 0 m 0 5 l 69.9259 0 m -69.9259 0 m 0 5 l 95.595 0 m -95.595 0 m 0 5 l 75.7974 0 m -75.7974 0 m 0 5 l 81.3065 0 m -81.3065 0 m 0 5 l 84.7048 0 m -84.7048 0 m 0 5 l 76.035 0 m -76.035 0 m 0 5 l 90.1842 0 m -90.1842 0 m 0 5 l 92.3681 0 m -92.3681 0 m 0 5 l 55.2973 0 m -55.2973 0 m 0 5 l 64.6453 0 m -64.6453 0 m 0 5 l 64.8803 0 m -64.8803 0 m 0 5 l 90.0282 0 m -90.0282 0 m 0 5 l 81.2835 0 m -81.2835 0 m 0 5 l 92.719 0 m -92.719 0 m 0 5 l 76.6274 0 m -76.6274 0 m 0 5 l 99.1771 0 m -99.1771 0 m 0 5 l 74.356 0 m -74.356 0 m 0 5 l 62.0732 0 m -62.0732 0 m 0 5 l 98.1752 0 m -98.1752 0 m 0 5" stroke="black" stroke-width="1" fill="none"></path><path d="M 200 100 l 0 70.304 m 0 -70.304 m 5 0 l 0 50.6012 m 0 -50.6012 m 5 0 l 0 58.9225 m 0 -58.9225 m 5 0 l 0 70.5378 m 0 -70.5378 m 5 0 l 0 88.5045 m 0 -88.5045 m 5 0 l 0 51.8172 m 0 -51.8172 m 5 0 l 0 63.0432 m 0 -63.0432 m 5 0 l 0 90.9588 m 0 -90.9588 m 5 0 l 0 54.1158 m 0 -54.1158 m 5 0 l 0 52.6853 m 0 -52.6853 m 5 0 l 0 70.9539 m 0 -70.9539 m 5 0 l 0 59.8978 m 0 -59.8978 m 5 0 l 0 84.5044 m 0 -84.5044 m 5 0 l 0 96.9381 m 0 -96.9381 m 5 0 l 0 53.9425 m 0 -53.9425 m 5 0 l 0 82.9626 m 0 -82.9626 m 5 0 l 0 95.1539 m 0 -95.1539 m 5 0 l 0 94.905 m 0 -94.905 m 5 0 l 0 57.626 m 0 -57.626 m 5 0 l 0 95.6696 m 0 -95.6696 m 5 0" stroke="black" stroke-width="1" fill="none"></path><path d="" stroke="black" stroke-width="1" fill="none"></path></svg>
