<svg version="1.1" xmlns:xlink="http://www.w3.org/1999/xlink" xmlns="http://www.w3.org/2000/svg"><line x1="100" y1="50" x2="0" y2="50" stroke="black" stroke-width="1" fill="none"></line><polyline points="59.776,34.3411 87.4106,23.1329 71.2855,94.4288 51.4439,25.7228" stroke="black" stroke-width="1" fill="none"></polyline><polyline points="71.4486,33.5462 69.0234,78.9334 43.5449,7.73687 71.0373,59.1445" stroke="black" stroke-width="1" fill="none"></polyline><polyline points="41.7361,49.6784 90.6961,7.96884 7.72599,92.3975 58.288,95.3721" stroke="black" stroke-width="1" fill="none"></polyline><polyline points="49.4192,72.586 51.5889,86.1458 33.0439,47.5956 67.0634,34.1351" stroke="black" stroke-width="1" fill="none"></polyline><polyline points="69.3339,43.3305 25.7351,7.45497 96.0758,92.6104 96.0619,86.2252" stroke="black" stroke-width="1" fill="none"></polyline><polyline points="65.3761,94.1643 40.7406,64.8956 35.4279,51.0701 81.1497,5.62709" stroke="black" stroke-width="1" fill="none"></polyline><polyline points="35.6317,7.87953 7.21976,59.0193 64.4792,2.29572 53.8586,14.1179" stroke="black" stroke-width="1" fill="none"></polyline><polyline points="0.413777,21.9383 32.4335,68.3329 41.4888,53.3964 13.9977,21.6111" stroke="black" stroke-width="1" fill="none"></polyline><polyline points="59.2025,7.16976 21.206,92.3524 40.5114,24.9972 53.7,65.8895" stroke="black" stroke-width="1" fill="none"></polyline><polyline points="8.96108,30.9284 30.0469,33.8644 46.59,80.2339 25.7991,83.6706" stroke="black" stroke-width="1" fill="none"></polyline></svg>
